<svg xmlns="http://www.w3.org/2000/svg" xmlns:xlink="http://www.w3.org/1999/xlink" width="402" height="387" viewBox="0 0 402 387">
  <defs>
    <clipPath id="clip-attikaflachdach">
      <rect width="402" height="387"/>
    </clipPath>
  </defs>
  <g id="attikaflachdach" clip-path="url(#clip-attikaflachdach)">
    <g id="Gruppe_1851" data-name="Gruppe 1851" transform="translate(-683.641 -4684.02)">
      <path id="Pfad_788" data-name="Pfad 788" d="M18678.291-18322.178v-167.834h117.418v104.775l217.932,2.336v63.6h-335.35Z" transform="translate(-17954 23334.102)" fill="#dadada" stroke="#000" stroke-width="1" opacity="0.698"/>
      <path id="Pfad_789" data-name="Pfad 789" d="M19024.438-18549.383l-224.67,163.76.047-104.168,211.279-114.029h13.344Z" transform="translate(-17966.697 23344.063)" fill="#c3c3c3" stroke="#707070" stroke-width="0.4"/>
      <path id="Pfad_790" data-name="Pfad 790" d="M18795-18491.467h-131.355l232.059-113.809H18998.4" transform="translate(-17954 23345.518)" fill="#c3c3c3" stroke="#707070" stroke-width="0.4"/>
      <line id="Linie_133" data-name="Linie 133" x2="121" transform="translate(724.5 4843.591)" fill="none" stroke="#000" stroke-width="1"/>
      <line id="Linie_138" data-name="Linie 138" y2="104" transform="translate(847.016 4848.138)" fill="none" stroke="#000" stroke-width="1"/>
      <line id="Linie_134" data-name="Linie 134" y2="4" transform="translate(840.744 4841.608)" fill="none" stroke="#000" stroke-width="1"/>
      <line id="Linie_137" data-name="Linie 137" y2="4" transform="translate(849.031 4850.43) rotate(90)" fill="none" stroke="#000" stroke-width="1"/>
      <line id="Linie_135" data-name="Linie 135" y2="4" transform="translate(724.5 4841.608)" fill="none" stroke="#000" stroke-width="1"/>
      <line id="Linie_136" data-name="Linie 136" y2="4" transform="translate(849.031 4950.801) rotate(90)" fill="none" stroke="#000" stroke-width="1"/>
      <text id="Breite_a_" data-name="Breite (a)" transform="translate(750.5 4833.805)" fill="#161616" font-size="18" font-family="FormaDJRMicro-Regular, Forma DJR Micro"><tspan x="0" y="0">Breite (a)</tspan></text>
      <text id="Höhe_b_" data-name="Höhe (b)" transform="translate(859.153 4905.692)" fill="#161616" font-size="18" font-family="FormaDJRMicro-Regular, Forma DJR Micro"><tspan x="0" y="0">Höhe (b)</tspan></text>
    </g>
  </g>
</svg>
