<svg xmlns="http://www.w3.org/2000/svg" xmlns:xlink="http://www.w3.org/1999/xlink" width="249" height="266" viewBox="0 0 249 266">
  <defs>
    <clipPath id="clip-aufstellunggeruestnord">
      <rect width="249" height="266"/>
    </clipPath>
  </defs>
  <g id="aufstellunggeruestnord" clip-path="url(#clip-aufstellunggeruestnord)">
    <g id="Gruppe_1914" data-name="Gruppe 1914" transform="translate(-856.099 -6516.863)">
      <rect id="Rechteck_480" data-name="Rechteck 480" width="150.903" height="98" transform="translate(905.079 6641.655)" fill="#e8ba68"/>
      <path id="Pfad_780" data-name="Pfad 780" d="M19049.041-18339l-21.809,58.586h159.322l-24.561-58.586Z" transform="translate(-18126.295 24922.07)" fill="#facb76"/>
      <g id="Gruppe_1775" data-name="Gruppe 1775" transform="translate(935.275 6641.653)">
        <rect id="Rechteck_258" data-name="Rechteck 258" width="14.046" height="23.256" transform="translate(65.897 37.767)" fill="#f7aa20"/>
        <rect id="Rechteck_259" data-name="Rechteck 259" width="14.046" height="23.256" transform="translate(10.683 61.576)" fill="#f7aa20"/>
        <rect id="Rechteck_260" data-name="Rechteck 260" width="14.046" height="23.256" transform="translate(10.683 13.957)" fill="#f7aa20"/>
        <path id="Pfad_659" data-name="Pfad 659" d="M19767.91-12412.729v96.986" transform="translate(-19702.055 12412.729)" fill="none" stroke="#000" stroke-linecap="round" stroke-width="1"/>
        <path id="Pfad_660" data-name="Pfad 660" d="M19767.91-12412.729v96.986" transform="translate(-19688.012 12412.729)" fill="none" stroke="#000" stroke-linecap="round" stroke-width="1"/>
        <path id="Pfad_661" data-name="Pfad 661" d="M19767.91-12412.729v96.986" transform="translate(-19743.227 12412.729)" fill="none" stroke="#000" stroke-linecap="round" stroke-width="1"/>
        <path id="Pfad_662" data-name="Pfad 662" d="M19767.91-12412.729v96.986" transform="translate(-19757.27 12412.729)" fill="none" stroke="#000" stroke-linecap="round" stroke-width="1"/>
        <path id="Pfad_663" data-name="Pfad 663" d="M19638.156-12385.271l84.436-.065" transform="translate(-19635.633 12398.555)" fill="none" stroke="#000" stroke-linecap="round" stroke-width="1"/>
        <path id="Pfad_664" data-name="Pfad 664" d="M19638.156-12385.271l84.436-.065" transform="translate(-19635.633 12422.365)" fill="none" stroke="#000" stroke-linecap="round" stroke-width="1"/>
        <path id="Pfad_665" data-name="Pfad 665" d="M19638.156-12385.271l84.436-.065" transform="translate(-19635.633 12446.729)" fill="none" stroke="#000" stroke-linecap="round" stroke-width="1"/>
        <path id="Pfad_666" data-name="Pfad 666" d="M19638.156-12385.271l84.436-.065" transform="translate(-19635.633 12470.537)" fill="none" stroke="#000" stroke-linecap="round" stroke-width="1"/>
        <path id="Pfad_667" data-name="Pfad 667" d="M19638.156-12385.271l89.6-.065" transform="translate(-19638.156 12483.273)" fill="none" stroke="#000" stroke-linecap="round" stroke-width="1"/>
        <path id="Pfad_668" data-name="Pfad 668" d="M19685.887-12314.179l39.234-23.024-39.234-24.122,39.781-23.216" transform="translate(-19660.244 12398.199)" fill="none" stroke="#000" stroke-width="1"/>
        <path id="Pfad_669" data-name="Pfad 669" d="M19768.91-12333.179h13.549" transform="translate(-19703.055 12375.277)" fill="none" stroke="#000" stroke-width="1"/>
        <path id="Pfad_676" data-name="Pfad 676" d="M19768.91-12333.179h13.549" transform="translate(-19757.674 12399.641)" fill="none" stroke="#000" stroke-width="1"/>
        <path id="Pfad_680" data-name="Pfad 680" d="M19768.91-12333.179h13.549" transform="translate(-19757.674 12351.467)" fill="none" stroke="#000" stroke-width="1"/>
        <path id="Pfad_670" data-name="Pfad 670" d="M19768.91-12333.179h13.549" transform="translate(-19703.055 12380.281)" fill="none" stroke="#000" stroke-width="1"/>
        <path id="Pfad_675" data-name="Pfad 675" d="M19768.91-12333.179h13.549" transform="translate(-19757.674 12404.643)" fill="none" stroke="#000" stroke-width="1"/>
        <path id="Pfad_679" data-name="Pfad 679" d="M19768.91-12333.179h13.549" transform="translate(-19757.674 12356.471)" fill="none" stroke="#000" stroke-width="1"/>
        <path id="Pfad_671" data-name="Pfad 671" d="M19768.91-12333.179h13.549" transform="translate(-19702.627 12385.285)" fill="none" stroke="#000" stroke-width="1"/>
        <path id="Pfad_674" data-name="Pfad 674" d="M19768.91-12333.179h13.549" transform="translate(-19757.244 12409.65)" fill="none" stroke="#000" stroke-width="1"/>
        <path id="Pfad_678" data-name="Pfad 678" d="M19768.91-12333.179h13.549" transform="translate(-19757.244 12361.477)" fill="none" stroke="#000" stroke-width="1"/>
        <path id="Pfad_672" data-name="Pfad 672" d="M19768.91-12333.179h13.549" transform="translate(-19702.627 12390.291)" fill="none" stroke="#000" stroke-width="1"/>
        <path id="Pfad_673" data-name="Pfad 673" d="M19768.91-12333.179h13.549" transform="translate(-19757.244 12414.654)" fill="none" stroke="#000" stroke-width="1"/>
        <path id="Pfad_677" data-name="Pfad 677" d="M19768.91-12333.179h13.549" transform="translate(-19757.244 12366.48)" fill="none" stroke="#000" stroke-width="1"/>
      </g>
    </g>
    <text id="Nord" transform="translate(105.315 59.208)" fill="#161616" font-size="18" font-family="FormaDJRMicro-Regular, Forma DJR Micro"><tspan x="0" y="0">Nord</tspan></text>
  </g>
</svg>
