<svg xmlns="http://www.w3.org/2000/svg" xmlns:xlink="http://www.w3.org/1999/xlink" width="454" height="324" viewBox="0 0 454 324">
  <defs>
    <clipPath id="clip-ausfuehrunguk">
      <rect width="454" height="324"/>
    </clipPath>
  </defs>
  <g id="ausfuehrunguk" clip-path="url(#clip-ausfuehrunguk)">
    <g id="Gruppe_1542" data-name="Gruppe 1542" transform="translate(35.744 12.572)">
      <path id="Pfad_555" data-name="Pfad 555" d="M21132.08-15191.5c-3.09,1.819,7.791,19.941,9.406,22.125a138.3,138.3,0,0,1,13.605,22.68l81.83-19.336S21171.111-15214.488,21132.08-15191.5Z" transform="translate(-20912.799 15206.252)" fill="#dc7a3f"/>
      <path id="Pfad_554" data-name="Pfad 554" d="M21291.684-15018.135c-.607,2.014-8.076,2.814-15.592,4.83-11.6,3.109-25.113,7.043-25.113,7.043l-85.51-129.883,78.674-20.455S21317.334-15103.158,21291.684-15018.135Z" transform="translate(-20922.674 15194.292)" fill="#db7245"/>
      <path id="Pfad_561" data-name="Pfad 561" d="M21169.473-14943.47s63.688-16.019,78.379-10.327" transform="translate(-20927.229 14999.278)" fill="none" stroke="#e18d35" stroke-width="5"/>
      <path id="Pfad_548" data-name="Pfad 548" d="M20995.92-14938.3c-1.42-7.58,44.352-5.658,44.352-5.658l45.467,77.752s-43.65-11.611-70.271-40.877C21007.328-14916.027,20998.363-14925.254,20995.92-14938.3Z" transform="translate(-20873.318 15132.466)" fill="#dc7b3f"/>
      <path id="Pfad_551" data-name="Pfad 551" d="M21010.963-15132.033c1.281-.6.949-2.022,1.836-3.4a33.632,33.632,0,0,1,3.213-4.027l5.91-5.5,88.893,136.188-71.408,13.746-55.041-80.88S20994.961-15124.493,21010.963-15132.033Z" transform="translate(-20871 15190.905)" fill="#dc7343"/>
      <path id="Pfad_549" data-name="Pfad 549" d="M21065.129-14938.411l68.52-14.236,50.393,76.373s-43.393,22.588-78.066,7.681c-2.02-.869-4.926-6.78-8.395-13-4.2-7.539-8.838-15.631-8.838-15.631Z" transform="translate(-20893.473 15134.933)" fill="#dc7242"/>
      <path id="Pfad_560" data-name="Pfad 560" d="M21173.8-14944.39s60.619-15.123,75.311-9.432" transform="translate(-21005.713 15141.004)" fill="none" stroke="#e18d35" stroke-width="5"/>
      <path id="Pfad_547" data-name="Pfad 547" d="M21216.6-14879.5c-1.082.211-9.629-13.179-14.762-20.894-2.2-3.307-30.543-46.478-30.543-46.478l72.332-14.425,27.617,40.787s-7.371,16.765-27.617,29.388C21236.3-14886.548,21228.789-14881.864,21216.6-14879.5Z" transform="translate(-20924.371 15137.448)" fill="#dc6c48"/>
      <path id="Pfad_557" data-name="Pfad 557" d="M21304.352-14920.455c-1.764-.35-3.756-4.316-6.984-9.261-5.273-8.077-11.99-18.951-11.99-18.951l39.648-10.147S21309.178-14919.492,21304.352-14920.455Z" transform="translate(-20957.574 15135.74)" fill="#d66049"/>
      <line id="Linie_70" data-name="Linie 70" x2="131.865" y2="204.178" transform="translate(214.458 12.241)" fill="none" stroke="#e18d35" stroke-width="5"/>
      <path id="Pfad_552" data-name="Pfad 552" d="M21055.787-15124.291l72.949-13.314,83.783,130.034-74.42,10.065Z" transform="translate(-20890.752 15188.765)" fill="#dd7b42"/>
      <path id="Pfad_553" data-name="Pfad 553" d="M21110.125-15188.631c2.586.537,7.4,13.025,9.445,16.643,5.131,9.063,9.492,17.826,11.17,21.252.291.592.508,1.047.508,1.047l-73.822,16.762-4.871-9.379-8.775-11.717S21088.449-15193.117,21110.125-15188.631Z" transform="translate(-20891.436 15201.271)" fill="#e08639"/>
      <line id="Linie_69" data-name="Linie 69" x2="138.245" y2="211.267" transform="translate(152.07 46.98)" fill="none" stroke="#e18d35" stroke-width="5"/>
      <line id="Linie_71" data-name="Linie 71" x2="99.962" y2="156.186" transform="translate(114.496 110.076)" fill="none" stroke="#e18d35" stroke-width="5"/>
      <path id="Pfad_550" data-name="Pfad 550" d="M20978.113-15050.951c1.344-1.641-2.059-1.39,0,0,5.527,3.726,18.516,21.567,27.352,38.668,6.648,12.856,17.816,25.169,23.426,39.316l-43,1.5S20962.395-15031.769,20978.113-15050.951Z" transform="translate(-20863.859 15163.875)" fill="#e0863b"/>
      <path id="Pfad_543" data-name="Pfad 543" d="M20990.344-15036.61l249.475-17.319,3.879,22.41-251.525,11.145Z" transform="translate(-20871.707 15164.411)" fill="#9e9c9b"/>
      <g id="Pfad_556" data-name="Pfad 556" transform="translate(109.178 9.76)" fill="none">
        <path d="M132.219,0c73.023,0,132.219,58.4,132.219,130.447s-59.2,130.447-132.219,130.447S0,202.491,0,130.447C0,70.074,41.57,19.281,98.182,4.363A133.765,133.765,0,0,1,132.219,0Z" stroke="none"/>
        <path d="M 132.2193908691406 3 C 120.8783569335938 3 109.6837463378906 4.43463134765625 98.946533203125 7.26409912109375 C 85.29084777832031 10.86245727539062 72.39164733886719 16.6187744140625 60.60720825195312 24.37322998046875 C 49.0107421875 32.00398254394531 38.78553771972656 41.37269592285156 30.21560668945312 52.21919250488281 C 21.56425476074219 63.16873168945312 14.83253479003906 75.33401489257812 10.20742797851562 88.37705993652344 C 5.4249267578125 101.8639831542969 3 116.0183715820312 3 130.447021484375 C 3 139.0934143066406 3.88275146484375 147.7335205078125 5.62371826171875 156.1273803710938 C 7.3201904296875 164.3067626953125 9.851638793945312 172.3524169921875 13.14775085449219 180.0408020019531 C 16.38459777832031 187.5909881591797 20.39120483398438 194.8735656738281 25.05628967285156 201.6862030029297 C 29.67807006835938 208.4356689453125 34.98617553710938 214.7828369140625 40.83309936523438 220.5513763427734 C 46.68075561523438 226.3206634521484 53.1153564453125 231.5584869384766 59.95814514160156 236.1194152832031 C 66.86653137207031 240.7240905761719 74.25186157226562 244.6789855957031 81.90896606445312 247.8742370605469 C 89.7076416015625 251.1285858154297 97.86895751953125 253.6280212402344 106.1662445068359 255.3031311035156 C 114.6818542480469 257.0223083496094 123.4474334716797 257.8940124511719 132.2193908691406 257.8940124511719 C 140.9913635253906 257.8940124511719 149.7569274902344 257.0223083496094 158.2725372314453 255.3031311035156 C 166.56982421875 253.6280212402344 174.7311401367188 251.1285858154297 182.5298156738281 247.8742370605469 C 190.1869201660156 244.6789855957031 197.5722503662109 240.7240905761719 204.4806365966797 236.1194152832031 C 211.3234252929688 231.5584869384766 217.7580261230469 226.3206634521484 223.6056823730469 220.5513763427734 C 229.4526062011719 214.7828369140625 234.7607116699219 208.4356689453125 239.3824920654297 201.6862030029297 C 244.0475769042969 194.8735656738281 248.0541687011719 187.5909881591797 251.2910308837891 180.0408020019531 C 254.5871429443359 172.3524169921875 257.1185913085938 164.3067626953125 258.8150634765625 156.1273803710938 C 260.5560302734375 147.7335205078125 261.4387817382812 139.0934143066406 261.4387817382812 130.447021484375 C 261.4387817382812 121.8006286621094 260.5560302734375 113.1605224609375 258.8150634765625 104.7666625976562 C 257.1185913085938 96.58726501464844 254.5871429443359 88.5416259765625 251.2910308837891 80.85324096679688 C 248.0541687011719 73.30305480957031 244.0475769042969 66.02049255371094 239.3824920654297 59.20783996582031 C 234.7607116699219 52.4583740234375 229.4526062011719 46.1112060546875 223.6056823730469 40.34263610839844 C 217.7580261230469 34.57337951660156 211.3234252929688 29.33552551269531 204.4806365966797 24.77459716796875 C 197.5722503662109 20.16995239257812 190.1869201660156 16.21505737304688 182.5298156738281 13.019775390625 C 174.7311401367188 9.765411376953125 166.56982421875 7.2659912109375 158.2725372314453 5.59088134765625 C 149.7569274902344 3.8717041015625 140.9913635253906 3 132.2193908691406 3 M 132.2193908691406 0 C 205.2421417236328 0 264.4387817382812 58.40312194824219 264.4387817382812 130.447021484375 C 264.4387817382812 202.4909057617188 205.2421417236328 260.8940124511719 132.2193908691406 260.8940124511719 C 59.19664001464844 260.8940124511719 0 202.4909057617188 0 130.447021484375 C 0 70.07423400878906 41.57049560546875 19.28059387207031 98.18209838867188 4.363128662109375 C 108.9228515625 1.532745361328125 120.3897094726562 0 132.2193908691406 0 Z" stroke="none" fill="#2e2917"/>
      </g>
      <path id="Pfad_542" data-name="Pfad 542" d="M21247.264-15161.735c-2-1.167-.791.052-2.545,0-4.508-.141-10.447,2.019-14.443,2.1a147.981,147.981,0,0,0-19.162,1.447l-21.828,1.492,103.451,154.93S21331.393-15112.616,21247.264-15161.735Z" transform="translate(-20929.607 15195.936)" fill="#2d2917" opacity="0.748"/>
      <line id="Linie_63" data-name="Linie 63" x2="43.955" y2="72.313" transform="translate(314.42 42.726)" fill="none" stroke="#ebebeb" stroke-width="2" opacity="0.095"/>
      <line id="Linie_64" data-name="Linie 64" x1="44.664" y2="3.545" transform="translate(307.685 79.946)" fill="none" stroke="#ebebeb" stroke-width="2" opacity="0.095"/>
      <line id="Linie_67" data-name="Linie 67" x1="44.664" y2="3.545" transform="translate(276.491 45.207)" fill="none" stroke="#ebebeb" stroke-width="2" opacity="0.095"/>
      <line id="Linie_65" data-name="Linie 65" x1="37.574" y2="4.963" transform="translate(330.371 113.976)" fill="none" stroke="#ebebeb" stroke-width="2" opacity="0.095"/>
      <line id="Linie_66" data-name="Linie 66" x1="17.015" y2="1.418" transform="translate(352.349 151.55)" fill="none" stroke="#ebebeb" stroke-width="2" opacity="0.095"/>
      <line id="Linie_68" data-name="Linie 68" x2="61.679" y2="102.798" transform="translate(284.644 49.107)" fill="none" stroke="#ebebeb" stroke-width="0.7" opacity="0.095"/>
      <line id="Linie_68-2" data-name="Linie 68" x2="61.679" y2="102.798" transform="translate(287.48 49.107)" fill="none" stroke="#ebebeb" stroke-width="0.7" opacity="0.095"/>
      <line id="Linie_68-3" data-name="Linie 68" x2="61.679" y2="102.798" transform="translate(290.315 49.107)" fill="none" stroke="#ebebeb" stroke-width="0.7" opacity="0.095"/>
      <line id="Linie_68-4" data-name="Linie 68" x2="61.679" y2="102.798" transform="translate(293.151 49.107)" fill="none" stroke="#ebebeb" stroke-width="0.7" opacity="0.095"/>
      <line id="Linie_68-5" data-name="Linie 68" x2="61.679" y2="102.798" transform="translate(295.987 49.107)" fill="none" stroke="#ebebeb" stroke-width="0.7" opacity="0.095"/>
      <line id="Linie_68-6" data-name="Linie 68" x2="61.679" y2="102.798" transform="translate(298.823 49.107)" fill="none" stroke="#ebebeb" stroke-width="0.7" opacity="0.095"/>
      <line id="Linie_68-7" data-name="Linie 68" x2="61.679" y2="102.798" transform="translate(301.659 49.107)" fill="none" stroke="#ebebeb" stroke-width="0.7" opacity="0.095"/>
      <line id="Linie_68-8" data-name="Linie 68" x2="61.679" y2="102.798" transform="translate(304.495 49.107)" fill="none" stroke="#ebebeb" stroke-width="0.7" opacity="0.095"/>
      <line id="Linie_68-9" data-name="Linie 68" x2="61.679" y2="102.798" transform="translate(307.33 49.107)" fill="none" stroke="#ebebeb" stroke-width="0.7" opacity="0.095"/>
      <line id="Linie_68-10" data-name="Linie 68" x2="59.552" y2="99.253" transform="translate(310.166 49.107)" fill="none" stroke="#ebebeb" stroke-width="0.7" opacity="0.095"/>
      <line id="Linie_68-11" data-name="Linie 68" x2="56.007" y2="93.582" transform="translate(313.002 49.107)" fill="none" stroke="#ebebeb" stroke-width="0.7" opacity="0.095"/>
      <line id="Linie_68-12" data-name="Linie 68" x2="53.88" y2="90.037" transform="translate(315.838 49.107)" fill="none" stroke="#ebebeb" stroke-width="0.7" opacity="0.095"/>
      <line id="Linie_68-13" data-name="Linie 68" x2="51.044" y2="85.074" transform="translate(318.674 49.107)" fill="none" stroke="#ebebeb" stroke-width="0.7" opacity="0.095"/>
      <line id="Linie_68-14" data-name="Linie 68" x2="46.791" y2="78.694" transform="translate(321.509 49.107)" fill="none" stroke="#ebebeb" stroke-width="0.7" opacity="0.095"/>
      <line id="Linie_68-15" data-name="Linie 68" x2="44.664" y2="75.149" transform="translate(324.345 49.107)" fill="none" stroke="#ebebeb" stroke-width="0.7" opacity="0.095"/>
      <line id="Linie_68-16" data-name="Linie 68" x2="42.537" y2="71.604" transform="translate(327.181 49.107)" fill="none" stroke="#ebebeb" stroke-width="0.7" opacity="0.095"/>
      <line id="Linie_68-17" data-name="Linie 68" x2="38.283" y2="64.515" transform="translate(330.017 49.107)" fill="none" stroke="#ebebeb" stroke-width="0.7" opacity="0.095"/>
      <path id="Pfad_544" data-name="Pfad 544" d="M21137.934-15027.772l16.172,29.976-25.033,4.841-15.869-32.143Z" transform="translate(-20907.465 15156.798)" fill="#b0afb2"/>
      <path id="Pfad_545" data-name="Pfad 545" d="M21155.4-14985.32l-14.562,53.7h-22.229l12.035-49.248Z" transform="translate(-20909.035 15144.441)" fill="#8a8887"/>
      <path id="Pfad_546" data-name="Pfad 546" d="M21112.83-14918.724l-14.072-22.286h19.176Z" transform="translate(-20903.26 15131.546)" fill="#b7b0b6"/>
      <g id="Ellipse_36" data-name="Ellipse 36" transform="translate(288.898)" fill="#11841e" stroke="#11841e" stroke-width="5">
        <ellipse cx="29.421" cy="29.776" rx="29.421" ry="29.776" stroke="none"/>
        <ellipse cx="29.421" cy="29.776" rx="26.921" ry="27.276" fill="none"/>
      </g>
      <path id="_5416276_check_mark_ok_icon" data-name="5416276_check_mark_ok_icon" d="M47.539,23.038l-1.277-1.277a4.354,4.354,0,0,0-6.153,0L25.868,35.973l-3.6-3.628a4.354,4.354,0,0,0-6.153,0l-1.277,1.292a4.354,4.354,0,0,0,0,6.158l7.972,7.972a4.354,4.354,0,0,0,6.153,0L47.539,29.2A4.354,4.354,0,0,0,47.539,23.038Z" transform="translate(286.88 -4.839)" fill="#d1d1d1"/>
      <path id="Pfad_558" data-name="Pfad 558" d="M21173.8-14944.39s60.619-15.123,75.311-9.432" transform="translate(-20925.102 15135.647)" fill="none" stroke="#e18d35" stroke-width="5"/>
      <path id="Pfad_559" data-name="Pfad 559" d="M21173.8-14945.106s60.773-16.989,75.465-11.3" transform="translate(-21007.715 15010.016)" fill="none" stroke="#e18d35" stroke-width="5"/>
      <path id="Pfad_562" data-name="Pfad 562" d="M20994.426-14938.909s33.363-10.762,46.244,1.684" transform="translate(-20871.664 15132.19)" fill="none" stroke="#e18d35" stroke-width="5"/>
      <g id="Gruppe_1538" data-name="Gruppe 1538" transform="translate(103.152 49.107)">
        <line id="Linie_72" data-name="Linie 72" x2="187.163" y2="19.142" fill="none" stroke="#000" stroke-width="2" stroke-dasharray="5"/>
        <circle id="Ellipse_37" data-name="Ellipse 37" cx="2.836" cy="2.836" r="2.836" transform="translate(184.682 15.951)" fill="#f7aa20"/>
      </g>
      <g id="Gruppe_1539" data-name="Gruppe 1539" transform="translate(93.579 98.733)">
        <line id="Linie_72-2" data-name="Linie 72" x2="84.191" y2="32.194" fill="none" stroke="#000" stroke-width="2" stroke-dasharray="5"/>
        <circle id="Ellipse_37-2" data-name="Ellipse 37" cx="2.836" cy="2.836" r="2.836" transform="translate(81.709 29.004)" fill="#f7aa20"/>
      </g>
      <g id="Gruppe_1540" data-name="Gruppe 1540" transform="translate(95.354 144.106)">
        <line id="Linie_72-3" data-name="Linie 72" x2="132.568" y2="41.704" fill="none" stroke="#000" stroke-width="2" stroke-dasharray="5"/>
        <circle id="Ellipse_37-3" data-name="Ellipse 37" cx="2.836" cy="2.836" r="2.836" transform="translate(130.087 38.514)" fill="#f7aa20"/>
      </g>
      <g id="Gruppe_1541" data-name="Gruppe 1541" transform="translate(95.354 188.292)">
        <line id="Linie_72-4" data-name="Linie 72" x2="141.27" y2="50.028" fill="none" stroke="#000" stroke-width="2" stroke-dasharray="5"/>
        <circle id="Ellipse_37-4" data-name="Ellipse 37" cx="2.836" cy="2.836" r="2.836" transform="translate(138.788 46.838)" fill="#f7aa20"/>
      </g>
      <text id="Modul" transform="translate(46.791 53.245)" fill="#161616" font-size="14" font-family="FormaDJRMicro-Regular, Forma DJR Micro"><tspan x="0" y="0">Modul</tspan></text>
      <text id="Profilschiene" transform="translate(12.052 100.036)" fill="#161616" font-size="14" font-family="FormaDJRMicro-Regular, Forma DJR Micro"><tspan x="0" y="0">Profilschiene</tspan></text>
      <text id="Dachhacken" transform="translate(14.052 146.826)" fill="#161616" font-size="14" font-family="FormaDJRMicro-Regular, Forma DJR Micro"><tspan x="0" y="0">Dachhacken</tspan></text>
      <text id="Dachziegel" transform="translate(22.052 193.617)" fill="#161616" font-size="14" font-family="FormaDJRMicro-Regular, Forma DJR Micro"><tspan x="0" y="0">Dachziegel</tspan></text>
    </g>
  </g>
</svg>
