<svg xmlns="http://www.w3.org/2000/svg" xmlns:xlink="http://www.w3.org/1999/xlink" width="454" height="324" viewBox="0 0 454 324">
  <defs>
    <clipPath id="clip-ausfuehrungukzweite">
      <rect width="454" height="324"/>
    </clipPath>
  </defs>
  <g id="ausfuehrungukzweite" clip-path="url(#clip-ausfuehrungukzweite)">
    <path id="Pfad_824" data-name="Pfad 824" d="M-23889.9-17778.293c-.027-1.35,7.3,10.221,16.469,24.488,14.822,23.059,34.6,54.352,34.6,54.352l173.254-14.986s-14.795,58.729-62.551,76.631c-15.328,5.746-34.623,11.885-54.5,10.916-33.637-1.635-69.057-18.221-90.664-49.879-8.918-13.066-18.357-30.123-20.217-50.693-.729-8.072-2.348-18.154-1.1-27.592C-23893.6-17762.764-23889.725-17769.711-23889.9-17778.293Z" transform="translate(24056 17898)" fill="#f19300"/>
    <path id="Pfad_823" data-name="Pfad 823" d="M-23889.869-17781.7c-1.473,2.91,50.875,82.07,50.875,82.07l173.336-14.875a122.793,122.793,0,0,0,4.615-47.105c-1.561-14.553-7.6-29.5-14.584-44.084-15.166-31.662-54.186-51.348-85.48-56.465-11.525-1.885-25.969-1.83-42.814,1.787-16.787,3.6-36.053,11.035-53.291,28.5-.73.742-13.576,13.988-21.143,26.178C-23885.291-17794.516-23887-17787.359-23889.869-17781.7Z" transform="translate(24056 17898)" fill="#1c1e1c" opacity="0.758"/>
    <g id="Ellipse_149" data-name="Ellipse 149" transform="translate(159 33)" fill="none" stroke="#1c1e1c" stroke-width="3" opacity="0.628">
      <ellipse cx="119.5" cy="120" rx="119.5" ry="120" stroke="none"/>
      <ellipse cx="119.5" cy="120" rx="118" ry="118.5" fill="none"/>
    </g>
    <path id="Pfad_817" data-name="Pfad 817" d="M-23784.477-17743.5l-10.316,40.465,33.643-1.973,12.057-44.9Z" transform="translate(24056 17898)" fill="#5d5959"/>
    <path id="Pfad_818" data-name="Pfad 818" d="M-23748.937-17749.832l-16.391-26.992,97.465-6.508s-5.268-17.445-9.057-20.105c-.311-.217-192.635,14.232-192.635,14.232v20.715l67.439-5.182,17.6,30.2Z" transform="translate(24056 17898)" fill="#606162"/>
    <path id="Pfad_819" data-name="Pfad 819" d="M-23751.984-17706.064l40.287,56.836s41.555-30.443,46.016-64.826C-23665.605-17714.637-23751.984-17706.064-23751.984-17706.064Z" transform="translate(24056 17898)" fill="#ec643b"/>
    <path id="Pfad_820" data-name="Pfad 820" d="M-23843.488-17705.209l-21.24,6.375,43.83,62.266s56.318,24.506,107-10.379c1.967-1.354-42.459-58.293-42.459-58.293l-82.961,6.406Z" transform="translate(24056 17898)" fill="#ef7531"/>
    <path id="Pfad_821" data-name="Pfad 821" d="M-23887.387-17707.691c-.131-1.156,12.816-.766,12.816-.766l43.656,67.754s-33.312-19.369-48.906-46.127C-23883.488-17693.123-23886.582-17700.531-23887.387-17707.691Z" transform="translate(24056 17898)" fill="#f17828"/>
    <path id="Pfad_822" data-name="Pfad 822" d="M-23893.918-17743.475c.559,3.178,25.564,40.689,25.564,40.689l21.428-7.232-42.412-66.969S-23895.672-17753.465-23893.918-17743.475Z" transform="translate(24056 17898)" fill="#ec6b38"/>
    <line id="Linie_176" data-name="Linie 176" x2="90" y2="135" transform="translate(252.5 39.5)" fill="none" stroke="#727065" stroke-width="2"/>
    <line id="Linie_197" data-name="Linie 197" x2="52.889" y2="80.5" transform="translate(168.611 115)" fill="none" stroke="#727065" stroke-width="2"/>
    <line id="Linie_177" data-name="Linie 177" y1="15" x2="170" transform="translate(223.5 170.5)" fill="none" stroke="#727065" stroke-width="2"/>
    <line id="Linie_178" data-name="Linie 178" y1="16" x2="189" transform="translate(201.5 121.5)" fill="none" stroke="#727065" stroke-width="2"/>
    <line id="Linie_179" data-name="Linie 179" y1="14" x2="174.818" transform="translate(185.5 70.5)" fill="none" stroke="#727065" stroke-width="2"/>
    <line id="Linie_180" data-name="Linie 180" x2="33" y2="52" transform="translate(355.5 65.5)" fill="none" stroke="#727064" stroke-width="0.6"/>
    <line id="Linie_181" data-name="Linie 181" x2="63" y2="94" transform="translate(331.5 49.5)" fill="none" stroke="#727064" stroke-width="0.6"/>
    <line id="Linie_182" data-name="Linie 182" x2="77.832" y2="116" transform="translate(315.668 43.5)" fill="none" stroke="#727064" stroke-width="0.6"/>
    <line id="Linie_183" data-name="Linie 183" x2="87.832" y2="131.975" transform="translate(299.668 38.525)" fill="none" stroke="#727064" stroke-width="0.6"/>
    <line id="Linie_184" data-name="Linie 184" x2="88.832" y2="133.975" transform="translate(286.668 37.525)" fill="none" stroke="#727064" stroke-width="0.6"/>
    <line id="Linie_185" data-name="Linie 185" x2="90.59" y2="135.975" transform="translate(272.91 36.525)" fill="none" stroke="#727064" stroke-width="0.6"/>
    <line id="Linie_186" data-name="Linie 186" x2="90.59" y2="135.975" transform="translate(261.768 37.525)" fill="none" stroke="#727064" stroke-width="0.6"/>
    <line id="Linie_187" data-name="Linie 187" x2="87.732" y2="133.475" transform="translate(244.768 42.025)" fill="none" stroke="#727064" stroke-width="0.6"/>
    <line id="Linie_188" data-name="Linie 188" x2="85.867" y2="131.975" transform="translate(234.633 44.525)" fill="none" stroke="#727064" stroke-width="0.6"/>
    <line id="Linie_189" data-name="Linie 189" x2="83.414" y2="127" transform="translate(225.086 49.5)" fill="none" stroke="#727064" stroke-width="0.6"/>
    <line id="Linie_190" data-name="Linie 190" x2="81.246" y2="124" transform="translate(216.254 54.5)" fill="none" stroke="#727064" stroke-width="0.6"/>
    <line id="Linie_191" data-name="Linie 191" x2="77.426" y2="119.584" transform="translate(209.074 59.916)" fill="none" stroke="#727064" stroke-width="0.6"/>
    <line id="Linie_192" data-name="Linie 192" x2="74.359" y2="113.293" transform="translate(200.141 67.207)" fill="none" stroke="#727064" stroke-width="0.6"/>
    <line id="Linie_193" data-name="Linie 193" x2="70.066" y2="107.293" transform="translate(192.434 74.207)" fill="none" stroke="#727064" stroke-width="0.6"/>
    <line id="Linie_194" data-name="Linie 194" x2="65.074" y2="99.293" transform="translate(185.426 83.207)" fill="none" stroke="#727064" stroke-width="0.6"/>
    <line id="Linie_195" data-name="Linie 195" x2="59.807" y2="93.314" transform="translate(179.693 90.186)" fill="none" stroke="#727064" stroke-width="0.6"/>
    <line id="Linie_196" data-name="Linie 196" x2="52.674" y2="83" transform="translate(174.826 101.5)" fill="none" stroke="#727064" stroke-width="0.6"/>
    <path id="Pfad_816" data-name="Pfad 816" d="M-23761.336-17705.037l-7.531,29.924-32.779-.643,6.5-27.459Z" transform="translate(24056 17898)" fill="#888684"/>
    <path id="Pfad_814" data-name="Pfad 814" d="M-23801.672-17675.955l6.367-26.4-23.619,1.361" transform="translate(24056 17898)" fill="#b4b3b0"/>
    <path id="Pfad_815" data-name="Pfad 815" d="M-23795.3-17702.354l-23.725,1.4-3.795-5.135,28.557-1.6Z" transform="translate(24056 17898)" fill="#767272"/>
    <g id="Gruppe_1538" data-name="Gruppe 1538" transform="translate(95.766 41.5)">
      <line id="Linie_72" data-name="Linie 72" x2="205.06" y2="19.505" fill="none" stroke="#000" stroke-width="2" stroke-dasharray="5"/>
      <circle id="Ellipse_37" data-name="Ellipse 37" cx="2.836" cy="2.836" r="2.836" transform="translate(202.578 16.315)" fill="#f7aa20"/>
    </g>
    <text id="Modul" transform="translate(52.594 46)" fill="#161616" font-size="14" font-family="FormaDJRMicro-Regular, Forma DJR Micro"><tspan x="0" y="0">Modul</tspan></text>
    <g id="Gruppe_1539" data-name="Gruppe 1539" transform="translate(137.705 83.889)">
      <line id="Linie_72-2" data-name="Linie 72" x2="84.191" y2="32.194" fill="none" stroke="#000" stroke-width="2" stroke-dasharray="5"/>
      <circle id="Ellipse_37-2" data-name="Ellipse 37" cx="2.836" cy="2.836" r="2.836" transform="translate(81.709 29.004)" fill="#f7aa20"/>
    </g>
    <text id="Profilschiene" transform="translate(52.594 86.227)" fill="#161616" font-size="14" font-family="FormaDJRMicro-Regular, Forma DJR Micro"><tspan x="0" y="0">Profilschiene</tspan></text>
    <g id="Gruppe_2106" data-name="Gruppe 2106" transform="translate(152.876 125.279)">
      <line id="Linie_72-3" data-name="Linie 72" x2="150.943" y2="41.483" transform="translate(-18.375 0.221)" fill="none" stroke="#000" stroke-width="2" stroke-dasharray="5"/>
      <circle id="Ellipse_37-3" data-name="Ellipse 37" cx="2.836" cy="2.836" r="2.836" transform="translate(130.087 38.514)" fill="#f7aa20"/>
    </g>
    <text id="Dachhacken" transform="translate(52.595 128)" fill="#161616" font-size="14" font-family="FormaDJRMicro-Regular, Forma DJR Micro"><tspan x="0" y="0">Dachhacken</tspan></text>
    <g id="Gruppe_2107" data-name="Gruppe 2107" transform="translate(125.895 169.674)">
      <line id="Linie_72-4" data-name="Linie 72" x2="131.61" y2="73.749" fill="none" stroke="#000" stroke-width="2" stroke-dasharray="5"/>
      <circle id="Ellipse_37-4" data-name="Ellipse 37" cx="2.836" cy="2.836" r="2.836" transform="translate(129.129 70.559)" fill="#f7aa20"/>
    </g>
    <text id="Dachziegel" transform="translate(52.594 175)" fill="#161616" font-size="14" font-family="FormaDJRMicro-Regular, Forma DJR Micro"><tspan x="0" y="0">Dachziegel</tspan></text>
    <g id="Ellipse_36" data-name="Ellipse 36" transform="translate(320.5 211.656)" fill="#11841e" stroke="#11841e" stroke-width="5">
      <ellipse cx="29.421" cy="29.776" rx="29.421" ry="29.776" stroke="none"/>
      <ellipse cx="29.421" cy="29.776" rx="26.921" ry="27.276" fill="none"/>
    </g>
    <path id="_5416276_check_mark_ok_icon" data-name="5416276_check_mark_ok_icon" d="M47.539,23.038l-1.277-1.277a4.354,4.354,0,0,0-6.153,0L25.868,35.973l-3.6-3.628a4.354,4.354,0,0,0-6.153,0l-1.277,1.292a4.354,4.354,0,0,0,0,6.158l7.972,7.972a4.354,4.354,0,0,0,6.153,0L47.539,29.2A4.354,4.354,0,0,0,47.539,23.038Z" transform="translate(318.482 206.818)" fill="#d1d1d1"/>
  </g>
</svg>
