<svg xmlns="http://www.w3.org/2000/svg" xmlns:xlink="http://www.w3.org/1999/xlink" width="277" height="226" viewBox="0 0 277 226">
  <defs>
    <linearGradient id="linear-gradient" x1="0.558" y1="0.455" x2="0.601" y2="0.724" gradientUnits="objectBoundingBox">
      <stop offset="0" stop-color="#d6d9d6"/>
      <stop offset="1" stop-color="#897f7c"/>
    </linearGradient>
    <linearGradient id="linear-gradient-2" x1="0.569" y1="0.249" x2="0.667" y2="0.776" gradientUnits="objectBoundingBox">
      <stop offset="0" stop-color="#d4d6d3"/>
      <stop offset="1" stop-color="#877e7b"/>
    </linearGradient>
    <linearGradient id="linear-gradient-3" x1="0.566" y1="0.304" x2="0.667" y2="0.79" gradientUnits="objectBoundingBox">
      <stop offset="0" stop-color="#d1d3d0"/>
      <stop offset="0.368" stop-color="#897f7c"/>
      <stop offset="1" stop-color="#897f7c"/>
    </linearGradient>
    <linearGradient id="linear-gradient-4" x1="0.566" y1="0.301" x2="0.594" y2="0.44" gradientUnits="objectBoundingBox">
      <stop offset="0" stop-color="#ced0cd"/>
      <stop offset="1" stop-color="#897f7c"/>
    </linearGradient>
    <linearGradient id="linear-gradient-5" x1="0.55" y1="0.279" x2="0.577" y2="0.441" gradientUnits="objectBoundingBox">
      <stop offset="0" stop-color="#cacbc8"/>
      <stop offset="1" stop-color="#897f7c"/>
    </linearGradient>
    <linearGradient id="linear-gradient-6" x1="0.52" y1="0.148" x2="0.54" y2="0.302" gradientUnits="objectBoundingBox">
      <stop offset="0" stop-color="#c8c9c6"/>
      <stop offset="1" stop-color="#897f7c"/>
    </linearGradient>
    <clipPath id="clip-faserzement">
      <rect width="277" height="226"/>
    </clipPath>
  </defs>
  <g id="faserzement" clip-path="url(#clip-faserzement)">
    <g id="Gruppe_1524" data-name="Gruppe 1524" transform="translate(28.754 32.042)">
      <path id="Pfad_443" data-name="Pfad 443" d="M15503.737-8552.83c7.008-11.817,12.113-8.807,12.113-8.807l36.767-14v-41.583s-73.417,33.026-80.031,32.114-9.7,6.16-9.7,6.16l-117.564,43.551,117.564-.155Z" transform="translate(-15333.021 8697.344)" fill="url(#linear-gradient)"/>
      <path id="Pfad_444" data-name="Pfad 444" d="M15564.3-8544.477c-8.689-.957-11.547,8.471-11.547,8.471l-41.246,17.627h88.8v-40.137Z" transform="translate(-15381.184 8680.33)" fill="url(#linear-gradient-2)"/>
      <path id="Pfad_445" data-name="Pfad 445" d="M15457.73-8592.123c2.371-7.514,11.938-6.432,11.938-6.432l77.63-32.176v-32.72s-20.947,7.3-44.395,16.481c-16.536,6.475-49.468,18.768-49.468,18.768s-19.793,7.815-21.714,7.5c-7.223-1.185-8.392,7.42-8.392,7.42L15328-8576.9v28.375h12.438Z" transform="translate(-15327.999 8710.742)" fill="url(#linear-gradient-3)"/>
      <path id="Pfad_446" data-name="Pfad 446" d="M15423.007-8623.808c2.77-9.731,9.1-7.806,9.1-7.806l115.318-43.18v-26.151s-47.439,17.511-87.479,32.306c-27.572,9.681-50.694,19.191-54.154,19.2-8.541.012-8.649,6.475-8.649,6.475L15328-8619.234v30.62Z" transform="translate(-15327.999 8721.609)" fill="url(#linear-gradient-4)"/>
      <path id="Pfad_447" data-name="Pfad 447" d="M15396.985-8651.02c.582-7.292,9.8-6.752,9.8-6.752l140.138-51.963V-8729.5h-13.395s-151.979,53.35-158.1,53.58-5.789,6.725-5.789,6.725l-41.64,13.9v27.61Z" transform="translate(-15327.999 8729.887)" fill="url(#linear-gradient-5)"/>
      <path id="Pfad_448" data-name="Pfad 448" d="M15369.487-8669.3c.213-7.207,6.771-6.961,6.771-6.961l157.087-53.776h-64.533s-114.983,37.911-119.078,39.133a5.327,5.327,0,0,0-3.99,5.063l-17.745,7.09v23.229Z" transform="translate(-15327.999 8730.042)" fill="url(#linear-gradient-6)"/>
      <path id="Pfad_449" data-name="Pfad 449" d="M15533.751-8551.173s-6.77-23.935-17.668-25.062c-2.358-.247-5.964,3.738-8.827,6.321-14.757,13.313-24.216-20.94-24.216-20.94s-2.85-6.989-7.468-8.739c-2.234-.851-5.525,1.182-8.182,3.713-7.482,7.132-12.138,2.131-12.138,2.131s-7.316-17.919-11.65-23.462c-.442-.567-4.433-4.488-5.977-4.748-1.712-.3-3.367,1.927-6,5.235-4.435,5.58-9.589-4.525-9.589-4.525s-12.045-25.852-16.229-14.711c-.669,1.782-2.375,2.3-3.517,2.811-4.784,2.183-11.233-11.172-11.233-11.172s-4.336-13.046-9.875-13.029c-1.025,0-2.23,1.964-3.55,3.537-6.974,8.324-10.241,0-10.241,0s-11.7-25.558-13.756-15.518" transform="translate(-15335.432 8713.124)" fill="none" stroke="#1c211d" stroke-width="3"/>
      <path id="Pfad_450" data-name="Pfad 450" d="M15594.56-8598.427h10.547l2.58-4.957-3.868-2.971v-4.162h-6.8l-.657,5.063-3.837,1.637Z" transform="translate(-15404.663 8695.401)" fill="#0b0d0c"/>
      <path id="Pfad_451" data-name="Pfad 451" d="M15594.027-8601.591h7.785l1.905-3.66-2.855-2.192v-3.073h-5.021l-.484,3.737-2.833,1.208Z" transform="translate(-15474.521 8661.637)" fill="#0b0d0c"/>
    </g>
  </g>
</svg>
