<svg xmlns="http://www.w3.org/2000/svg" xmlns:xlink="http://www.w3.org/1999/xlink" width="277" height="276" viewBox="0 0 277 276">
  <defs>
    <clipPath id="clip-freistehend">
      <rect width="277" height="276"/>
    </clipPath>
  </defs>
  <g id="freistehend" clip-path="url(#clip-freistehend)">
    <g id="Gruppe_1576" data-name="Gruppe 1576">
      <g id="Gruppe_1575" data-name="Gruppe 1575" transform="translate(0 91)">
        <path id="Pfad_54" data-name="Pfad 54" d="M19173.365-16433.086l56.211,63.384v3.344l-139.672-18.274-53.139-60.2-41.033,82.384h-8.979l44.705-97.333Z" transform="translate(-18968.764 16450.258)" fill="rgba(247,170,32,0.63)" opacity="0.973"/>
        <path id="Pfad_51" data-name="Pfad 51" d="M19137.9-16316.537v61.791l-121.5,3.238v-83.373Z" transform="translate(-18895.486 16402.896)" fill="#e8b964" opacity="0.973"/>
        <path id="Pfad_52" data-name="Pfad 52" d="M19304.359-16370.851l-.8-.947-50.293-57.167-38.855,80.616v61.164h89.582l.367-83.643" transform="translate(-19184.811 16438.572)" fill="#fac973" opacity="0.973"/>
        <path id="Pfad_53" data-name="Pfad 53" d="M19179.77-16368.25l-119.32-17.346-51.516-58.422,124.215,22.846Z" transform="translate(-18932.729 16444.281)" fill="#d1d1d1"/>
        <path id="Pfad_55" data-name="Pfad 55" d="M19093.762-16406.105l-22.742-3.852,11.158,13.168,22.771,4.066Z" transform="translate(-18896.449 16431.363)" fill="#006f39"/>
        <path id="Pfad_62" data-name="Pfad 62" d="M19093.762-16406.105l-22.742-3.852,11.158,13.168,22.771,4.066Z" transform="translate(-18881.215 16448.598)" fill="#006f39"/>
        <path id="Pfad_66" data-name="Pfad 66" d="M19093.762-16406.105l-22.742-3.852,11.158,13.168,22.771,4.066Z" transform="translate(-18865.074 16466.6)" fill="#006f39"/>
        <path id="Pfad_56" data-name="Pfad 56" d="M19093.762-16406.105l-22.742-3.852,11.158,13.168,22.771,4.066Z" transform="translate(-18925.008 16426.396)" fill="#006f39"/>
        <path id="Pfad_61" data-name="Pfad 61" d="M19093.762-16406.105l-22.742-3.852,11.158,13.168,22.771,4.066Z" transform="translate(-18909.77 16443.633)" fill="#006f39"/>
        <path id="Pfad_65" data-name="Pfad 65" d="M19093.762-16406.105l-22.742-3.852,11.158,13.168,22.771,4.066Z" transform="translate(-18893.629 16461.637)" fill="#006f39"/>
        <path id="Pfad_57" data-name="Pfad 57" d="M19093.762-16406.105l-22.742-3.852,11.158,13.168,22.771,4.066Z" transform="translate(-18954.186 16421.43)" fill="#006f39"/>
        <path id="Pfad_60" data-name="Pfad 60" d="M19093.762-16406.105l-22.742-3.852,11.158,13.168,22.771,4.066Z" transform="translate(-18938.949 16438.666)" fill="#006f39"/>
        <path id="Pfad_64" data-name="Pfad 64" d="M19093.762-16406.105l-22.742-3.852,11.158,13.168,22.771,4.066Z" transform="translate(-18922.809 16456.67)" fill="#006f39"/>
        <path id="Pfad_58" data-name="Pfad 58" d="M19093.762-16406.105l-22.742-3.852,11.158,13.168,22.771,4.066Z" transform="translate(-18984.037 16415.842)" fill="#006f39"/>
        <path id="Pfad_59" data-name="Pfad 59" d="M19093.762-16406.105l-22.742-3.852,11.158,13.168,22.771,4.066Z" transform="translate(-18968.801 16433.078)" fill="#006f39"/>
        <path id="Pfad_63" data-name="Pfad 63" d="M19093.762-16406.105l-22.742-3.852,11.158,13.168,22.771,4.066Z" transform="translate(-18952.66 16451.082)" fill="#006f39"/>
        <path id="Pfad_67" data-name="Pfad 67" d="M19070.066-16284.726l-17.6-1.324v22.184h17.6Z" transform="translate(-18850.049 16384.381)" fill="#d1d1d1"/>
        <path id="Pfad_68" data-name="Pfad 68" d="M19128.143-16289.578l-20.354-1.459-.9,51.316h21.254Z" transform="translate(-18941.914 16386.271)" fill="#d1d1d1"/>
        <path id="Pfad_69" data-name="Pfad 69" d="M19128.143-16289.521l-20.354-1.516-.9,53.27h21.254Z" transform="translate(-18964.264 16384.314)" fill="#d1d1d1"/>
        <path id="Pfad_70" data-name="Pfad 70" d="M19293.373-16285.547l-14.83,1.244v46.072h14.83Z" transform="translate(-19213.705 16384.188)" fill="#d1d1d1"/>
        <path id="Pfad_71" data-name="Pfad 71" d="M19293.693-16379.43v24.018l-13.975,2.074v-21.883Z" transform="translate(-19214.752 16419.787)" fill="#d1d1d1"/>
      </g>
      <g id="Gruppe_1476" data-name="Gruppe 1476" transform="translate(179.545 15.918)">
        <g id="Ellipse_21" data-name="Ellipse 21" transform="translate(19.322 23.118)" fill="#f0c34f" stroke="#f0c34f" stroke-width="1">
          <ellipse cx="10.351" cy="10.351" rx="10.351" ry="10.351" stroke="none"/>
          <ellipse cx="10.351" cy="10.351" rx="9.851" ry="9.851" fill="none"/>
        </g>
        <line id="Linie_37" data-name="Linie 37" y1="13.112" transform="translate(29.329 0)" fill="none" stroke="#f0c34f" stroke-width="1"/>
        <line id="Linie_43" data-name="Linie 43" y2="13.112" transform="translate(29.329 52.447)" fill="none" stroke="#f0c34f" stroke-width="1"/>
        <line id="Linie_39" data-name="Linie 39" y2="13.112" transform="translate(13.112 33.469) rotate(90)" fill="none" stroke="#f0c34f" stroke-width="1"/>
        <line id="Linie_42" data-name="Linie 42" y1="13.112" transform="translate(58.657 32.779) rotate(90)" fill="none" stroke="#f0c34f" stroke-width="1"/>
        <line id="Linie_38" data-name="Linie 38" x1="11.041" y1="11.041" transform="translate(7.591 8.626)" fill="none" stroke="#f0c34f" stroke-width="1"/>
        <line id="Linie_45" data-name="Linie 45" x1="11.041" y2="11.041" transform="translate(7.591 45.891)" fill="none" stroke="#f0c34f" stroke-width="1"/>
        <line id="Linie_41" data-name="Linie 41" y1="11.041" x2="11.041" transform="translate(40.025 7.936)" fill="none" stroke="#f0c34f" stroke-width="1"/>
        <line id="Linie_44" data-name="Linie 44" x2="11.041" y2="11.041" transform="translate(40.025 46.581)" fill="none" stroke="#f0c34f" stroke-width="1"/>
      </g>
    </g>
  </g>
</svg>
