<svg xmlns="http://www.w3.org/2000/svg" xmlns:xlink="http://www.w3.org/1999/xlink" width="435" height="309" viewBox="0 0 435 309">
  <defs>
    <clipPath id="clip-geruesttandort">
      <rect width="435" height="309"/>
    </clipPath>
  </defs>
  <g id="geruesttandort" clip-path="url(#clip-geruesttandort)">
    <g id="Gruppe_1944" data-name="Gruppe 1944" transform="translate(-726.648 -15358.563)">
      <g id="Gruppe_1552" data-name="Gruppe 1552" transform="translate(965.275 15369.55)">
        <path id="Pfad_653" data-name="Pfad 653" d="M19861.471-12414.862l100.809-.152v202.2h-100.857Z" transform="translate(-19831.641 12498.893)" fill="#faca76"/>
        <path id="Pfad_655" data-name="Pfad 655" d="M19962.135-12420.74v-80l-100.855,79.614Z" transform="translate(-19831.498 12505.339)" fill="#faca76"/>
        <path id="Pfad_656" data-name="Pfad 656" d="M127.494,1.63,28.43,83.1,7.424,140.169H0L15.492,71.83,106.1.366,127.055,0Z" transform="matrix(1, 0.017, -0.017, 1, 2.446, 0)" fill="#facb76"/>
        <path id="Pfad_657" data-name="Pfad 657" d="M19965.41-12449.115h-26.471v41.26h26.471Z" transform="translate(-19834.771 12502.84)" fill="#fff"/>
        <path id="Pfad_658" data-name="Pfad 658" d="M19964.99-12280.588h-30.5v80.714h30.5Z" transform="translate(-19834.352 12486.901)" fill="#fff"/>
        <path id="Pfad_654" data-name="Pfad 654" d="M19858.188-12408.3l-20.561,53.528-2.771,63.676,5.764,50.595h15.85Z" transform="translate(-19829.129 12494.974)" fill="#e8ba68"/>
      </g>
      <g id="Gruppe_1553" data-name="Gruppe 1553" transform="translate(792.384 15459.41)">
        <rect id="Rechteck_258" data-name="Rechteck 258" width="26.258" height="38.028" transform="translate(123.19 61.754)" fill="#f7aa20"/>
        <rect id="Rechteck_259" data-name="Rechteck 259" width="26.258" height="38.028" transform="translate(19.971 100.688)" fill="#f7aa20"/>
        <rect id="Rechteck_260" data-name="Rechteck 260" width="26.258" height="38.028" transform="translate(19.971 22.821)" fill="#f7aa20"/>
        <path id="Pfad_659" data-name="Pfad 659" d="M19767.91-12412.726v158.591" transform="translate(-19644.801 12412.726)" fill="none" stroke="#000" stroke-linecap="round" stroke-width="3"/>
        <path id="Pfad_660" data-name="Pfad 660" d="M19767.91-12412.726v158.591" transform="translate(-19618.543 12412.726)" fill="none" stroke="#000" stroke-linecap="round" stroke-width="3"/>
        <path id="Pfad_661" data-name="Pfad 661" d="M19767.91-12412.726v158.591" transform="translate(-19721.764 12412.726)" fill="none" stroke="#000" stroke-linecap="round" stroke-width="3"/>
        <path id="Pfad_662" data-name="Pfad 662" d="M19767.91-12412.726v158.591" transform="translate(-19748.021 12412.726)" fill="none" stroke="#000" stroke-linecap="round" stroke-width="3"/>
        <path id="Pfad_663" data-name="Pfad 663" d="M19638.154-12385.229l157.85-.105" transform="translate(-19633.436 12406.947)" fill="none" stroke="#000" stroke-linecap="round" stroke-width="3"/>
        <path id="Pfad_664" data-name="Pfad 664" d="M19638.154-12385.229l157.85-.105" transform="translate(-19633.436 12445.881)" fill="none" stroke="#000" stroke-linecap="round" stroke-width="3"/>
        <path id="Pfad_665" data-name="Pfad 665" d="M19638.154-12385.229l157.85-.105" transform="translate(-19633.436 12485.72)" fill="none" stroke="#000" stroke-linecap="round" stroke-width="3"/>
        <path id="Pfad_666" data-name="Pfad 666" d="M19638.154-12385.229l157.85-.105" transform="translate(-19633.436 12524.653)" fill="none" stroke="#000" stroke-linecap="round" stroke-width="3"/>
        <path id="Pfad_667" data-name="Pfad 667" d="M19638.154-12385.229l167.506-.105" transform="translate(-19638.154 12545.478)" fill="none" stroke="#000" stroke-linecap="round" stroke-width="3"/>
        <path id="Pfad_668" data-name="Pfad 668" d="M19685.887-12269.481l73.344-37.65-73.344-39.445,74.369-37.963" transform="translate(-19637.949 12406.872)" fill="none" stroke="#000" stroke-width="3"/>
        <path id="Pfad_669" data-name="Pfad 669" d="M19768.91-12333.179h25.328" transform="translate(-19645.801 12402.015)" fill="none" stroke="#000" stroke-width="3"/>
        <path id="Pfad_676" data-name="Pfad 676" d="M19768.91-12333.179h25.328" transform="translate(-19747.906 12441.854)" fill="none" stroke="#000" stroke-width="3"/>
        <path id="Pfad_680" data-name="Pfad 680" d="M19768.91-12333.179h25.328" transform="translate(-19747.906 12363.081)" fill="none" stroke="#000" stroke-width="3"/>
        <path id="Pfad_670" data-name="Pfad 670" d="M19768.91-12333.179h25.328" transform="translate(-19645.801 12410.199)" fill="none" stroke="#000" stroke-width="3"/>
        <path id="Pfad_675" data-name="Pfad 675" d="M19768.91-12333.179h25.328" transform="translate(-19747.906 12450.038)" fill="none" stroke="#000" stroke-width="3"/>
        <path id="Pfad_679" data-name="Pfad 679" d="M19768.91-12333.179h25.328" transform="translate(-19747.906 12371.266)" fill="none" stroke="#000" stroke-width="3"/>
        <path id="Pfad_671" data-name="Pfad 671" d="M19768.91-12333.179h25.328" transform="translate(-19644.998 12418.383)" fill="none" stroke="#000" stroke-width="3"/>
        <path id="Pfad_674" data-name="Pfad 674" d="M19768.91-12333.179h25.328" transform="translate(-19747.104 12458.222)" fill="none" stroke="#000" stroke-width="3"/>
        <path id="Pfad_678" data-name="Pfad 678" d="M19768.91-12333.179h25.328" transform="translate(-19747.104 12379.449)" fill="none" stroke="#000" stroke-width="3"/>
        <path id="Pfad_672" data-name="Pfad 672" d="M19768.91-12333.179h25.328" transform="translate(-19644.998 12426.567)" fill="none" stroke="#000" stroke-width="3"/>
        <path id="Pfad_673" data-name="Pfad 673" d="M19768.91-12333.179h25.328" transform="translate(-19747.104 12466.406)" fill="none" stroke="#000" stroke-width="3"/>
        <path id="Pfad_677" data-name="Pfad 677" d="M19768.91-12333.179h25.328" transform="translate(-19747.104 12387.634)" fill="none" stroke="#000" stroke-width="3"/>
      </g>
    </g>
  </g>
</svg>
