<svg xmlns="http://www.w3.org/2000/svg" xmlns:xlink="http://www.w3.org/1999/xlink" width="402" height="313" viewBox="0 0 402 313">
  <defs>
    <clipPath id="clip-hausmasse">
      <rect width="402" height="313"/>
    </clipPath>
  </defs>
  <g id="hausmasse" clip-path="url(#clip-hausmasse)">
    <g id="Gruppe_1931" data-name="Gruppe 1931" transform="translate(-639.97 -12006.996)">
      <g id="Gruppe_1543" data-name="Gruppe 1543" transform="translate(668.406 12065.96)">
        <path id="Pfad_54" data-name="Pfad 54" d="M19240.314-16421.912l76.373,89.919v4.743l-189.777-25.925-72.2-85.4-55.756,116.87h-12.2l60.744-138.079Z" transform="translate(-18986.754 16459.783)" fill="rgba(247,170,32,0.63)" opacity="0.973"/>
        <path id="Pfad_51" data-name="Pfad 51" d="M19181.484-16308.86v87.656l-165.086,4.6v-118.276Z" transform="translate(-18876.549 16444.883)" fill="#e8b964" opacity="0.973"/>
        <path id="Pfad_52" data-name="Pfad 52" d="M19336.631-16346.523l-1.09-1.343-68.332-81.1-52.795,114.364v86.769h121.715l.5-118.657" transform="translate(-19198.641 16456.105)" fill="#fac973" opacity="0.973"/>
        <path id="Pfad_53" data-name="Pfad 53" d="M19241.053-16336.535l-162.125-24.605-69.994-82.879,168.777,32.41Z" transform="translate(-18929.836 16457.904)" fill="#fff"/>
        <path id="Pfad_55" data-name="Pfad 55" d="M19101.922-16404.494l-30.9-5.465,15.162,18.682,30.939,5.768Z" transform="translate(-18858.27 16453.836)" fill="#006f39"/>
        <path id="Pfad_62" data-name="Pfad 62" d="M19101.922-16404.494l-30.9-5.465,15.162,18.682,30.939,5.768Z" transform="translate(-18837.57 16478.285)" fill="#006f39"/>
        <path id="Pfad_66" data-name="Pfad 66" d="M19101.922-16404.494l-30.9-5.465,15.162,18.682,30.939,5.768Z" transform="translate(-18815.639 16503.824)" fill="#006f39"/>
        <path id="Pfad_56" data-name="Pfad 56" d="M19101.922-16404.494l-30.9-5.465,15.162,18.682,30.939,5.768Z" transform="translate(-18897.074 16446.789)" fill="#006f39"/>
        <path id="Pfad_61" data-name="Pfad 61" d="M19101.922-16404.494l-30.9-5.465,15.162,18.682,30.939,5.768Z" transform="translate(-18876.369 16471.242)" fill="#006f39"/>
        <path id="Pfad_65" data-name="Pfad 65" d="M19101.922-16404.494l-30.9-5.465,15.162,18.682,30.939,5.768Z" transform="translate(-18854.438 16496.781)" fill="#006f39"/>
        <path id="Pfad_57" data-name="Pfad 57" d="M19101.922-16404.494l-30.9-5.465,15.162,18.682,30.939,5.768Z" transform="translate(-18936.715 16439.744)" fill="#006f39"/>
        <path id="Pfad_60" data-name="Pfad 60" d="M19101.922-16404.494l-30.9-5.465,15.162,18.682,30.939,5.768Z" transform="translate(-18916.016 16464.197)" fill="#006f39"/>
        <path id="Pfad_64" data-name="Pfad 64" d="M19101.922-16404.494l-30.9-5.465,15.162,18.682,30.939,5.768Z" transform="translate(-18894.084 16489.738)" fill="#006f39"/>
        <path id="Pfad_58" data-name="Pfad 58" d="M19101.922-16404.494l-30.9-5.465,15.162,18.682,30.939,5.768Z" transform="translate(-18977.277 16431.818)" fill="#006f39"/>
        <path id="Pfad_59" data-name="Pfad 59" d="M19101.922-16404.494l-30.9-5.465,15.162,18.682,30.939,5.768Z" transform="translate(-18956.576 16456.27)" fill="#006f39"/>
        <path id="Pfad_63" data-name="Pfad 63" d="M19101.922-16404.494l-30.9-5.465,15.162,18.682,30.939,5.768Z" transform="translate(-18934.646 16481.809)" fill="#006f39"/>
        <path id="Pfad_67" data-name="Pfad 67" d="M19076.381-16284.174l-23.912-1.877v31.471h23.912Z" transform="translate(-18801.875 16439.057)" fill="#fff"/>
        <path id="Pfad_68" data-name="Pfad 68" d="M19135.766-16288.969l-27.656-2.07-1.219,72.8h28.875Z" transform="translate(-18907.178 16439.652)" fill="#fff"/>
        <path id="Pfad_69" data-name="Pfad 69" d="M19135.766-16288.89l-27.656-2.149-1.219,75.57h28.875Z" transform="translate(-18937.543 16436.875)" fill="#fff"/>
        <path id="Pfad_70" data-name="Pfad 70" d="M19298.7-16285.547l-20.15,1.766v65.357h20.15Z" transform="translate(-19214.891 16438.99)" fill="#fff"/>
        <path id="Pfad_71" data-name="Pfad 71" d="M19298.709-16379.43v34.073l-18.988,2.943v-31.043Z" transform="translate(-19215.891 16450.191)" fill="#fff"/>
      </g>
      <text id="Dachbreite" transform="translate(796.947 12053.551) rotate(10)" fill="#161616" font-size="15" font-family="FormaDJRMicro-Regular, Forma DJR Micro"><tspan x="0" y="14">Dachbreite</tspan></text>
      <text id="Firsthöhe" transform="translate(668.406 12142.942) rotate(-90)" fill="#161616" font-size="15" font-family="FormaDJRMicro-Regular, Forma DJR Micro"><tspan x="0" y="14">Firsthöhe</tspan></text>
      <text id="Traufhöhe" transform="translate(986.244 12285.897) rotate(-90)" fill="#161616" font-size="15" font-family="FormaDJRMicro-Regular, Forma DJR Micro"><tspan x="0" y="14">Traufhöhe</tspan></text>
      <text id="Dachlänge" transform="translate(956.638 12105.087) rotate(48)" fill="#161616" font-size="15" font-family="FormaDJRMicro-Regular, Forma DJR Micro"><tspan x="0" y="14">Dachlänge</tspan></text>
      <path id="Pfad_563" data-name="Pfad 563" d="M19398.785-15097.451l192.865,37.874" transform="translate(-18669.541 27154.725)" fill="none" stroke="#000" stroke-width="2"/>
      <path id="Pfad_564" data-name="Pfad 564" d="M19397.5-15097.451v228.406" transform="translate(-18735.32 27163.412)" fill="none" stroke="#000" stroke-width="2"/>
      <path id="Pfad_566" data-name="Pfad 566" d="M19397.5-15097.451v87.046" transform="translate(-18416.012 27300.303)" fill="none" stroke="#000" stroke-width="2"/>
      <path id="Pfad_567" data-name="Pfad 567" d="M19879.377-14950.3l-75.957-90.034" transform="translate(-18877.088 27141.732)" fill="none" stroke="#000" stroke-width="2"/>
    </g>
  </g>
</svg>
