<svg xmlns="http://www.w3.org/2000/svg" xmlns:xlink="http://www.w3.org/1999/xlink" width="277" height="226" viewBox="0 0 277 226">
  <defs>
    <clipPath id="clip-kaufen">
      <rect width="277" height="226"/>
    </clipPath>
  </defs>
  <g id="kaufen" clip-path="url(#clip-kaufen)">
    <g id="Gruppe_1516" data-name="Gruppe 1516" transform="translate(38.83 13.5)">
      <g id="C_-_13_x2C__savings_x2C__Care_x2C__coin_x2C__economy_x2C__finance_x2C__guardar_x2C__money_x2C__save" transform="translate(0 0)">
        <g id="Gruppe_1483" data-name="Gruppe 1483" transform="translate(0 0)">
          <path id="Pfad_297" data-name="Pfad 297" d="M252.915,112.167a2.355,2.355,0,0,0-1.165.864,2.225,2.225,0,0,0-.432,1.329,2.145,2.145,0,0,0,.392,1.235,2.7,2.7,0,0,0,1.2.914v-4.342Z" transform="translate(-153.314 -80.488)" fill="#f7aa20"/>
          <path id="Pfad_298" data-name="Pfad 298" d="M334.871,169.064c2.415,2.531,6.17,4.646,10.746,6.19l.37.122q.3.1.609.195c.345.108.692.213,1.045.313l.041.012c.411.117.828.228,1.25.336l.2.05q.593.15,1.2.288l.085.02q1.353.305,2.77.552l.1.018q.686.118,1.385.221l.037.006q.737.109,1.487.2h0q.687.083,1.386.152l.276.027q.644.061,1.294.11l.151.012q.713.052,1.435.087l.325.014c.376.017.755.031,1.134.041l.4.011c.48.011.961.018,1.444.018s.965-.007,1.445-.018l.4-.011q.569-.016,1.132-.041l.326-.014c.48-.024.959-.053,1.433-.087l.156-.012q.647-.049,1.285-.109l.286-.028c.459-.046.916-.095,1.368-.15l.021,0q.744-.091,1.476-.2l.056-.009q.686-.1,1.362-.218l.12-.02q1.41-.246,2.758-.55l.1-.023q.6-.135,1.182-.284l.205-.052q.631-.161,1.246-.335l.052-.016c.35-.1.7-.2,1.037-.311.2-.063.4-.128.6-.192l.384-.128c4.573-1.543,8.327-3.657,10.743-6.188a2.244,2.244,0,0,1,.255-.218,8.252,8.252,0,0,0,2.4-5.5,7.278,7.278,0,0,0-1.277-3.987,34.917,34.917,0,0,1-11.469,5.878l-.239.076c-.436.137-.876.27-1.324.4-.115.033-.235.064-.352.1q-.466.129-.94.251c-.2.052-.406.1-.61.155q-.51.125-1.03.242c-.285.064-.572.125-.86.186-.179.038-.358.074-.538.11q-.739.148-1.5.279l-.4.07c-.293.049-.589.1-.886.141-.175.027-.352.052-.529.078-.45.065-.9.125-1.358.181-.227.028-.454.056-.684.082q-.387.044-.778.084-.637.064-1.282.118c-.193.016-.389.028-.583.043q-.55.04-1.1.072l-.482.028q-.767.038-1.542.06l-.4.01c-.554.012-1.111.022-1.67.022s-1.116-.009-1.671-.022l-.4-.01q-.775-.022-1.544-.06l-.479-.028q-.558-.032-1.113-.072c-.192-.014-.385-.027-.576-.042-.432-.035-.862-.075-1.29-.119-.256-.025-.511-.054-.767-.082-.236-.026-.47-.055-.7-.084q-.671-.082-1.33-.178l-.549-.08c-.293-.045-.586-.091-.875-.139-.152-.025-.3-.053-.453-.08q-.725-.127-1.435-.269-.28-.056-.558-.115c-.268-.056-.535-.112-.8-.171-.364-.082-.724-.167-1.082-.255q-.3-.075-.6-.153-.476-.122-.943-.252c-.118-.033-.237-.063-.353-.1-.445-.127-.883-.26-1.317-.4l-.25-.079a34.882,34.882,0,0,1-11.462-5.877,7.269,7.269,0,0,0-1.279,3.989,8.24,8.24,0,0,0,2.387,5.48A2.348,2.348,0,0,1,334.871,169.064Z" transform="translate(-195.377 -105.029)" fill="#f7aa20"/>
          <path id="Pfad_299" data-name="Pfad 299" d="M334.872,138.781c2.4,2.52,6.138,4.627,10.688,6.168q.247.083.5.165c.167.054.334.108.5.161q1.17.364,2.408.682l.11.028q.642.163,1.3.313h.007q1.377.312,2.82.562l.05.009q2.11.364,4.339.586l.255.025q.658.063,1.324.113l.125.01q.716.052,1.443.088l.319.014c.378.017.756.031,1.138.041l.4.011c.48.011.961.018,1.445.018s.965-.007,1.445-.018l.4-.011q.569-.016,1.134-.041l.325-.014q.723-.036,1.438-.087l.138-.011q.658-.05,1.309-.111l.268-.026q1.466-.146,2.886-.354l.015,0q.716-.105,1.417-.227l.072-.012q1.433-.249,2.8-.559l.027-.007q.646-.146,1.275-.307l.129-.033q1.234-.315,2.4-.68c.168-.052.335-.107.5-.16s.339-.111.507-.168c4.549-1.54,8.281-3.647,10.687-6.166a2.339,2.339,0,0,1,.252-.216,8.248,8.248,0,0,0,2.406-5.5,7.278,7.278,0,0,0-1.277-3.987,34.953,34.953,0,0,1-11.5,5.887l-.176.056c-.452.142-.91.281-1.374.413l-.268.073q-.512.143-1.034.276c-.188.048-.375.1-.565.143q-.565.139-1.14.269c-.244.054-.492.106-.738.158q-.3.062-.593.122-.675.135-1.362.255c-.171.03-.343.061-.516.091-.286.048-.574.093-.863.137-.188.029-.376.056-.565.083q-.653.094-1.316.175-.351.044-.707.084-.382.043-.769.083c-.428.043-.856.083-1.288.119-.191.016-.384.028-.575.042q-.554.04-1.111.072l-.482.028q-.767.038-1.544.06l-.4.01c-.555.012-1.112.021-1.672.021s-1.118-.009-1.673-.021l-.4-.01q-.775-.022-1.545-.06l-.479-.028c-.374-.022-.747-.046-1.117-.073-.19-.013-.381-.026-.57-.042q-.65-.053-1.294-.119-.382-.039-.76-.082c-.241-.027-.481-.056-.721-.086q-.653-.081-1.3-.173c-.193-.028-.386-.056-.578-.085q-.431-.066-.856-.136c-.185-.031-.368-.064-.551-.1q-.667-.118-1.322-.248-.3-.06-.606-.124c-.245-.051-.49-.1-.732-.157q-.577-.13-1.143-.269c-.189-.047-.375-.095-.562-.143q-.518-.133-1.028-.275l-.277-.076c-.461-.131-.914-.268-1.363-.409l-.193-.061a34.91,34.91,0,0,1-11.488-5.885,7.269,7.269,0,0,0-1.279,3.989,8.24,8.24,0,0,0,2.39,5.482A2.412,2.412,0,0,1,334.872,138.781Z" transform="translate(-195.378 -89.282)" fill="#f7aa20"/>
          <path id="Pfad_300" data-name="Pfad 300" d="M364.041,238.626c17.254,0,31.831-6.737,31.831-14.712a7.273,7.273,0,0,0-1.278-3.985,34.877,34.877,0,0,1-11.431,5.866l-.318.1c-.4.124-.8.245-1.2.361-.172.049-.347.1-.52.144-.27.074-.54.147-.814.218-.225.058-.45.116-.678.172s-.483.115-.726.171q-.583.135-1.176.259l-.459.094q-.831.167-1.684.313c-.078.013-.154.028-.231.04q-.457.077-.921.147l-.467.069q-.709.1-1.43.191c-.214.026-.428.053-.643.077q-.4.045-.794.085-.632.063-1.271.117c-.2.016-.4.03-.594.044q-.544.04-1.091.071c-.164.01-.327.02-.492.028q-.765.038-1.539.06l-.4.01c-.555.013-1.111.022-1.671.022s-1.116-.009-1.671-.022l-.4-.01q-.773-.022-1.54-.06c-.164-.008-.327-.019-.491-.028q-.549-.031-1.1-.072c-.2-.014-.394-.028-.59-.044-.428-.035-.852-.074-1.275-.117q-.4-.04-.79-.085c-.218-.024-.435-.051-.652-.078q-.711-.087-1.413-.189l-.481-.07c-.307-.047-.611-.1-.913-.146l-.265-.047q-.835-.144-1.65-.307l-.467-.1q-.586-.123-1.162-.256c-.246-.057-.492-.113-.735-.173s-.454-.114-.679-.172q-.407-.105-.808-.216c-.18-.049-.359-.1-.537-.149-.4-.114-.791-.233-1.181-.355l-.334-.107a34.855,34.855,0,0,1-11.421-5.866,7.266,7.266,0,0,0-1.28,3.987C332.209,231.888,346.786,238.626,364.041,238.626Z" transform="translate(-195.379 -136.524)" fill="#f7aa20"/>
          <path id="Pfad_301" data-name="Pfad 301" d="M334.874,199.346c2.415,2.532,6.17,4.646,10.746,6.19l.37.122c.2.066.4.132.609.2.345.107.692.213,1.045.313l.041.012c.411.117.828.228,1.25.336l.2.05q.593.15,1.2.288l.085.02q1.353.305,2.77.552l.1.018q.686.118,1.385.221l.037.006q.737.109,1.487.2h0q.687.084,1.386.152l.276.027q.644.061,1.294.11l.151.012q.713.051,1.435.087l.325.014c.376.017.755.031,1.134.041l.4.011c.48.011.96.018,1.444.018s.965-.007,1.445-.018l.4-.011q.569-.016,1.132-.041l.326-.014c.48-.024.959-.053,1.433-.087l.156-.012q.647-.049,1.285-.109l.286-.028c.459-.046.916-.095,1.368-.15l.021,0q.744-.091,1.477-.2l.056-.009q.686-.1,1.362-.218l.12-.02q1.41-.246,2.758-.55l.1-.023c.4-.09.792-.186,1.182-.284l.205-.052q.631-.161,1.246-.335l.052-.016c.35-.1.7-.2,1.037-.311.2-.063.4-.128.6-.192l.384-.128c4.573-1.543,8.327-3.657,10.743-6.188a2.244,2.244,0,0,1,.255-.218,8.252,8.252,0,0,0,2.4-5.5,7.273,7.273,0,0,0-1.278-3.985,34.877,34.877,0,0,1-11.431,5.866l-.318.1c-.4.124-.8.245-1.2.361-.172.049-.347.1-.52.143-.27.074-.54.147-.814.218-.225.058-.45.116-.678.172s-.483.115-.726.171q-.583.135-1.176.259l-.459.094q-.831.167-1.684.313c-.078.013-.154.028-.231.04q-.457.077-.921.147l-.467.069q-.709.1-1.43.191c-.214.026-.428.053-.643.077q-.4.045-.794.085-.632.063-1.271.117c-.2.016-.4.03-.594.044q-.544.04-1.091.071c-.164.009-.327.02-.492.028q-.765.038-1.539.06l-.4.01c-.555.013-1.111.022-1.671.022s-1.116-.009-1.671-.022l-.4-.01q-.773-.022-1.54-.06c-.164-.008-.327-.019-.491-.028q-.549-.032-1.1-.072c-.2-.014-.394-.028-.59-.044-.428-.035-.852-.074-1.275-.117q-.4-.04-.79-.085c-.218-.024-.435-.051-.652-.078q-.711-.087-1.413-.189l-.481-.07c-.307-.047-.611-.1-.913-.146l-.265-.047q-.835-.144-1.65-.307l-.467-.1q-.586-.123-1.162-.256c-.246-.057-.492-.113-.735-.173s-.454-.114-.679-.172q-.407-.105-.808-.216c-.18-.049-.36-.1-.537-.149-.4-.114-.791-.233-1.181-.355l-.334-.107a34.864,34.864,0,0,1-11.421-5.866,7.266,7.266,0,0,0-1.28,3.987,8.24,8.24,0,0,0,2.388,5.48A2.713,2.713,0,0,1,334.874,199.346Z" transform="translate(-195.38 -120.776)" fill="#f7aa20"/>
          <path id="Pfad_302" data-name="Pfad 302" d="M394.92,61.692a2.357,2.357,0,0,0-1.169.864,2.238,2.238,0,0,0-.429,1.329,2.113,2.113,0,0,0,.392,1.234,2.7,2.7,0,0,0,1.205.915V61.692Z" transform="translate(-227.157 -54.241)" fill="#f7aa20"/>
          <path id="Pfad_303" data-name="Pfad 303" d="M401.993,83.313a2.413,2.413,0,0,0,.6-1.637,2.183,2.183,0,0,0-.5-1.443,3.2,3.2,0,0,0-1.633-.935v4.914A2.687,2.687,0,0,0,401.993,83.313Z" transform="translate(-230.866 -63.396)" fill="#f7aa20"/>
          <path id="Pfad_304" data-name="Pfad 304" d="M334.871,108.5a25.809,25.809,0,0,0,9.919,5.9l.09.033c.206.074.416.144.625.216s.405.136.61.2c.137.045.275.089.413.132q1.2.374,2.463.7l.047.012q2.012.511,4.179.888l.016,0c1.413.244,2.871.441,4.363.589l.246.024q.663.063,1.334.113l.118.01q.719.052,1.447.088l.314.013q.568.026,1.141.042l.4.011c.48.011.961.018,1.445.018s.965-.007,1.445-.018l.4-.011q.571-.016,1.138-.041l.319-.014q.726-.037,1.441-.088l.131-.01q.664-.05,1.318-.112l.259-.025c1.485-.148,2.936-.344,4.343-.588l.038-.006c1.435-.249,2.824-.545,4.159-.884l.065-.016q1.263-.322,2.455-.7c.138-.043.275-.087.411-.131.208-.067.414-.136.619-.2s.41-.14.613-.212l.123-.045a25.826,25.826,0,0,0,9.9-5.891,2.2,2.2,0,0,1,.245-.209,8.257,8.257,0,0,0,2.413-5.509,7.275,7.275,0,0,0-1.278-3.986,34.881,34.881,0,0,1-11.423,5.865l-.334.106c-.385.12-.773.238-1.167.351-.186.054-.375.1-.563.156-.261.072-.524.143-.789.211-.228.06-.457.118-.689.174s-.455.108-.684.161q-.6.141-1.222.27l-.444.091q-.853.172-1.728.322l-.192.034q-.462.077-.929.148l-.455.067q-.716.1-1.443.192c-.211.026-.422.052-.635.076-.265.03-.531.059-.8.085q-.631.064-1.268.117c-.2.016-.4.029-.6.044q-.543.04-1.089.071l-.492.028q-.765.038-1.539.06l-.4.01c-.555.012-1.111.021-1.671.021s-1.116-.009-1.671-.021l-.4-.01q-.773-.022-1.54-.06l-.491-.028q-.549-.032-1.092-.071l-.594-.044c-.426-.035-.85-.075-1.271-.117-.266-.027-.53-.056-.794-.085q-.323-.037-.645-.077-.719-.089-1.426-.191c-.157-.023-.314-.045-.47-.069q-.463-.071-.921-.147l-.227-.04q-.856-.148-1.692-.315l-.452-.093q-.611-.127-1.21-.267c-.231-.053-.463-.107-.692-.163s-.461-.116-.69-.175q-.394-.1-.782-.209c-.194-.053-.389-.106-.58-.161-.387-.111-.769-.227-1.148-.345l-.35-.111a34.861,34.861,0,0,1-11.413-5.863,7.269,7.269,0,0,0-1.28,3.988,8.246,8.246,0,0,0,2.4,5.492A2.2,2.2,0,0,1,334.871,108.5Z" transform="translate(-195.377 -73.533)" fill="#f7aa20"/>
          <path id="Pfad_305" data-name="Pfad 305" d="M334.871,66.595c2.416,2.532,6.171,4.648,10.749,6.191l.361.12q.307.1.616.2c.341.106.684.21,1.033.31l.052.016c.409.117.826.228,1.247.336l.2.051q.591.149,1.195.287l.085.02q1.353.305,2.77.552l.1.018q.686.118,1.385.221l.037.006q.737.109,1.487.2h0c.457.056.92.106,1.384.152l.281.027q.642.061,1.291.11l.151.012q.713.051,1.435.087l.325.014c.376.017.755.031,1.134.041l.4.011c.48.011.96.018,1.444.018s.965-.007,1.445-.018l.4-.011q.569-.016,1.132-.041l.326-.014c.48-.024.959-.053,1.433-.087l.157-.012q.645-.048,1.282-.109l.29-.028q.688-.068,1.366-.15l.021,0q.744-.091,1.476-.2l.056-.008q.686-.1,1.362-.218l.12-.02q1.41-.246,2.758-.55l.1-.023q.6-.135,1.18-.284l.209-.053q.627-.161,1.238-.333l.068-.02c.347-.1.687-.2,1.025-.307.2-.064.407-.129.608-.2l.376-.124c4.575-1.543,8.33-3.658,10.747-6.189a2.271,2.271,0,0,1,.257-.219,8.249,8.249,0,0,0,2.4-5.494c0-7.975-14.577-14.711-31.831-14.711s-31.832,6.737-31.832,14.711a8.238,8.238,0,0,0,2.386,5.478A2.265,2.265,0,0,1,334.871,66.595Zm24.68-7.186a5.322,5.322,0,0,1-1.145-3.45,4.885,4.885,0,0,1,1.3-3.455,5.155,5.155,0,0,1,3.439-1.609V49.661h1.826v1.234a5.42,5.42,0,0,1,3.193,1.361,5.25,5.25,0,0,1,1.514,3.009l-3.19.41a2.563,2.563,0,0,0-1.518-2v4.9a8.129,8.129,0,0,1,4.126,2.1,4.971,4.971,0,0,1,1.1,3.329,5.546,5.546,0,0,1-1.378,3.82,6.232,6.232,0,0,1-3.844,1.936V72.1H363.14V69.788a5.858,5.858,0,0,1-3.518-1.6,6.617,6.617,0,0,1-1.731-3.8L361.16,64a4.105,4.105,0,0,0,.752,1.727,3.413,3.413,0,0,0,1.229,1.049V61.53A6.809,6.809,0,0,1,359.551,59.409Z" transform="translate(-195.377 -46.169)" fill="#f7aa20"/>
          <path id="Pfad_306" data-name="Pfad 306" d="M260.586,132.152a2.2,2.2,0,0,0-.5-1.443,3.2,3.2,0,0,0-1.636-.935v4.914a2.7,2.7,0,0,0,1.541-.9A2.43,2.43,0,0,0,260.586,132.152Z" transform="translate(-157.023 -89.644)" fill="#f7aa20"/>
          <path id="Pfad_307" data-name="Pfad 307" d="M97.516,352.1c-4.123-9.591-18.725-34.154-24.821-39.982h0c-2.871-2.739-4.63-3.961-5.7-3.961a2.466,2.466,0,0,0-1.119.324c-4.939,2.436-17.272,10.972-18.426,13.386-.636,1.332-.232,2.494.743,4.995a36.653,36.653,0,0,1,1.533,4.572c2.044,8.129,1.632,17.658,1.234,26.873-.409,9.467-.8,18.41,1.443,24.96.088.255.2.574,1.192.574a12.043,12.043,0,0,0,5.286-1.789c2.5-1.455,7.279-3.735,12.818-6.375,5.8-2.764,12.372-5.9,17.7-8.744,8.217-4.39,9.361-5.955,9.507-6.225.783-1.726.324-4.615-1.369-8.573C97.528,352.122,97.521,352.112,97.516,352.1ZM75.16,359.734a4.846,4.846,0,1,1,4.292-5.36A4.861,4.861,0,0,1,75.16,359.734Z" transform="translate(-47.14 -182.404)" fill="#006f39"/>
          <path id="Pfad_308" data-name="Pfad 308" d="M280.86,290.264c-.419-5.718-8.8-7.793-14.326-7.793a19.291,19.291,0,0,0-2.6.163c-12.391,1.712-31.1,11.637-41.59,19.979a9.263,9.263,0,0,1-2.05,2.668c-3.039,2.735-8,3.766-13.82,3.766-9.527,0-21.366-2.757-30.9-5.313-.629-.168-1.165-.312-1.6-.424a2.249,2.249,0,1,1,1.13-4.354c.44.114.988.262,1.631.433A171.614,171.614,0,0,0,198,303.938c12.308,1.614,17.28-.2,19.284-2a4.894,4.894,0,0,0,1.584-3.093c0-.018,0-.036.007-.055.028-.222.045-.454.052-.691,0-.034,0-.068,0-.1,0-.241,0-.492-.022-.749,0-.061-.01-.124-.015-.186-.022-.264-.051-.534-.1-.815,0,0,0,0,0,0-1.99-12.594-37.228-19.558-60.824-19.558a59.808,59.808,0,0,0-10.754.762c-10.1,2-24.07,10.149-34.272,16.1l-1.919,1.119.018.021c7.009,8.291,18.525,28.029,22.935,37.31,8.79-3.223,16.558-4.791,23.692-4.791,8.354,0,15.02,2.135,21.466,4.2,6.755,2.164,13.741,4.4,23.1,4.4,1.516,0,3.082-.059,4.654-.175,8.076-.6,26.615-8.612,44.082-19.053C272.033,303.995,281.157,294.295,280.86,290.264Z" transform="translate(-80.364 -166.039)" fill="#006f39"/>
          <path id="Pfad_309" data-name="Pfad 309" d="M222.039,228.539c17.255,0,31.832-6.737,31.832-14.71a7.275,7.275,0,0,0-1.277-3.987,34.88,34.88,0,0,1-11.433,5.868l-.313.1c-.4.125-.805.248-1.215.365-.166.048-.334.092-.5.138q-.41.113-.825.22c-.223.058-.446.115-.671.17-.251.061-.505.12-.76.179q-.565.13-1.141.251l-.467.1q-.819.164-1.656.308l-.259.045c-.3.051-.608.1-.914.146l-.477.07q-.706.1-1.423.19-.321.04-.644.077-.4.045-.794.085-.634.063-1.272.117c-.2.016-.395.03-.592.044q-.544.04-1.092.072c-.164.01-.327.02-.492.028q-.765.038-1.539.06l-.4.01c-.555.013-1.111.022-1.671.022s-1.117-.009-1.672-.022l-.4-.01q-.774-.022-1.54-.06c-.164-.008-.326-.019-.489-.028q-.552-.032-1.1-.072c-.2-.014-.392-.028-.587-.044q-.644-.053-1.28-.118-.392-.039-.78-.084c-.225-.025-.448-.053-.672-.08q-.7-.086-1.382-.185c-.17-.024-.339-.049-.508-.075q-.45-.068-.9-.142l-.354-.062q-.78-.135-1.545-.288l-.514-.106c-.324-.068-.648-.138-.967-.21s-.619-.143-.925-.218c-.213-.052-.423-.106-.634-.161q-.451-.116-.895-.24c-.131-.036-.263-.07-.392-.107-.439-.125-.871-.256-1.3-.39l-.269-.085a34.886,34.886,0,0,1-11.454-5.875,7.269,7.269,0,0,0-1.276,3.987C190.211,221.8,204.786,228.539,222.039,228.539Z" transform="translate(-121.538 -131.28)" fill="#f7aa20"/>
          <path id="Pfad_310" data-name="Pfad 310" d="M192.869,189.258c2.406,2.521,6.14,4.629,10.689,6.17q.247.083.5.165c.168.054.337.109.508.162.778.241,1.576.47,2.4.68l.129.032q.631.161,1.277.308l.024.005q1.369.31,2.806.56l.069.012q.706.121,1.426.228h.006q1.42.21,2.891.355l.265.026c.433.041.868.079,1.307.111l.141.011q.714.052,1.438.087l.322.014q.566.026,1.136.041l.4.01c.48.011.96.018,1.445.018s.965-.007,1.444-.018l.4-.01q.57-.016,1.133-.041l.325-.014q.721-.037,1.434-.087l.154-.012q.647-.048,1.287-.11l.285-.028q.689-.068,1.37-.15l.018,0q.746-.091,1.478-.2l.052-.008q.69-.1,1.367-.219l.116-.02q1.412-.246,2.762-.551l.094-.022q.6-.137,1.19-.286l.2-.05q.633-.162,1.249-.336l.037-.011c.356-.1.706-.208,1.053-.316.2-.062.4-.126.595-.19q.2-.064.391-.13c4.572-1.543,8.325-3.656,10.74-6.186a2.268,2.268,0,0,1,.256-.219,8.25,8.25,0,0,0,2.4-5.5,7.269,7.269,0,0,0-1.276-3.987,34.923,34.923,0,0,1-11.483,5.882l-.21.067c-.444.139-.89.275-1.346.4-.1.03-.211.057-.315.086q-.487.135-.983.262c-.195.05-.39.1-.588.149q-.557.137-1.124.264c-.251.057-.505.109-.759.163-.189.04-.377.078-.566.116q-.7.14-1.419.266c-.156.027-.31.055-.467.082-.289.048-.581.094-.873.139-.181.028-.364.053-.546.08q-.664.1-1.338.179c-.231.028-.462.057-.695.083-.257.029-.514.057-.772.083q-.64.065-1.285.118c-.192.016-.387.029-.58.043q-.552.041-1.109.072c-.16.01-.321.02-.482.028q-.767.038-1.542.06l-.4.01c-.555.013-1.111.022-1.671.022s-1.116-.009-1.671-.022l-.4-.01q-.775-.022-1.544-.06c-.16-.008-.318-.018-.478-.027q-.56-.032-1.116-.073c-.191-.013-.383-.026-.573-.042-.433-.035-.864-.075-1.292-.119-.255-.025-.508-.053-.761-.082s-.48-.056-.72-.086q-.652-.08-1.293-.172c-.2-.028-.39-.056-.585-.086q-.428-.065-.851-.135c-.192-.032-.383-.067-.573-.1q-.655-.116-1.3-.244-.309-.062-.615-.126c-.242-.051-.484-.1-.723-.155q-.581-.13-1.151-.27c-.185-.046-.368-.093-.551-.14q-.531-.136-1.052-.281c-.084-.024-.17-.046-.254-.07-.468-.132-.926-.272-1.381-.415l-.167-.053a34.929,34.929,0,0,1-11.5-5.889,7.271,7.271,0,0,0-1.275,3.987,8.25,8.25,0,0,0,2.4,5.494A2.468,2.468,0,0,1,192.869,189.258Z" transform="translate(-121.538 -115.53)" fill="#f7aa20"/>
          <path id="Pfad_311" data-name="Pfad 311" d="M192.869,158.978a25.77,25.77,0,0,0,9.866,5.881l.16.059c.195.07.394.137.592.2.215.073.431.145.65.215l.382.122q1.205.376,2.482.7l.027.007c1.345.342,2.747.641,4.193.891l.009,0c1.415.244,2.874.442,4.367.59l.245.024q.664.063,1.336.114l.116.01c.479.035.961.063,1.446.088l.316.013q.567.027,1.14.042l.4.01c.48.011.961.018,1.445.018s.965-.007,1.444-.018l.4-.01q.571-.016,1.137-.041l.32-.014c.483-.024.964-.053,1.442-.088l.129-.01q.664-.049,1.32-.112l.258-.025c1.485-.148,2.935-.344,4.342-.587l.042-.007q2.146-.372,4.146-.881l.084-.021q1.252-.32,2.436-.69c.15-.047.3-.1.448-.144.192-.062.383-.126.572-.19.218-.074.437-.148.651-.225l.049-.018a25.874,25.874,0,0,0,9.956-5.913,2.257,2.257,0,0,1,.251-.215,8.253,8.253,0,0,0,2.407-5.5,7.268,7.268,0,0,0-1.276-3.987,34.953,34.953,0,0,1-11.516,5.893l-.141.044c-.461.145-.927.287-1.4.421l-.225.062q-.537.15-1.085.29c-.178.046-.355.091-.535.136q-.575.141-1.161.273c-.236.053-.475.1-.714.153q-.311.066-.625.128-.631.126-1.274.24c-.2.035-.4.071-.595.1q-.423.071-.85.135c-.195.03-.391.058-.587.086q-.639.092-1.286.171c-.242.03-.483.06-.727.087s-.505.056-.759.082c-.429.043-.86.084-1.293.119-.19.016-.38.029-.571.042q-.557.041-1.118.073c-.159.01-.317.02-.477.027q-.768.039-1.546.061l-.4.01c-.555.013-1.113.022-1.673.022s-1.118-.009-1.673-.022l-.4-.01q-.777-.022-1.547-.061c-.158-.008-.315-.018-.473-.027q-.565-.032-1.126-.073c-.188-.014-.377-.026-.564-.042q-.654-.053-1.3-.12c-.251-.025-.5-.053-.748-.08s-.5-.059-.751-.09q-.626-.077-1.242-.166c-.209-.03-.418-.06-.625-.092q-.415-.064-.827-.132c-.237-.039-.471-.082-.706-.124q-.579-.1-1.148-.216-.338-.067-.674-.138c-.227-.048-.454-.1-.678-.145q-.6-.135-1.188-.28c-.167-.041-.332-.084-.5-.126q-.584-.15-1.156-.309l-.163-.045q-.729-.207-1.437-.432l-.1-.031a34.954,34.954,0,0,1-11.535-5.9,7.271,7.271,0,0,0-1.275,3.987,8.251,8.251,0,0,0,2.4,5.5A2.282,2.282,0,0,1,192.869,158.978Z" transform="translate(-121.538 -99.785)" fill="#f7aa20"/>
          <path id="Pfad_312" data-name="Pfad 312" d="M192.867,117.079a25.628,25.628,0,0,0,9.72,5.826c.116.042.23.086.348.127.162.058.328.114.492.17.255.087.512.173.773.257l.283.09a56.043,56.043,0,0,0,11.119,2.205l.231.023q.672.065,1.353.116l.1.008q.721.053,1.451.088l.311.013q.57.026,1.143.042l.4.011c.48.011.961.018,1.445.018s.965-.007,1.444-.018l.4-.011q.572-.015,1.14-.042l.315-.013c.485-.024.968-.053,1.447-.088l.115-.01q.673-.05,1.337-.114l.245-.024c1.494-.149,2.955-.346,4.371-.591h0c1.451-.251,2.856-.551,4.206-.894l.012,0q1.285-.328,2.5-.708l.349-.111c.234-.075.465-.152.7-.23.185-.063.37-.126.552-.191l.236-.086a25.737,25.737,0,0,0,9.811-5.859,2.162,2.162,0,0,1,.242-.207,8.262,8.262,0,0,0,2.415-5.512c0-7.972-14.577-14.707-31.832-14.707s-31.828,6.735-31.828,14.707a8.259,8.259,0,0,0,2.414,5.51A2.072,2.072,0,0,1,192.867,117.079Zm24.681-7.186a5.368,5.368,0,0,1-1.145-3.454,4.887,4.887,0,0,1,1.3-3.455,5.186,5.186,0,0,1,3.44-1.608v-1.236h1.826v1.236a5.443,5.443,0,0,1,3.2,1.36,5.264,5.264,0,0,1,1.514,3.009l-3.193.41a2.554,2.554,0,0,0-1.517-2v4.9a8.182,8.182,0,0,1,4.128,2.106,4.979,4.979,0,0,1,1.1,3.329,5.543,5.543,0,0,1-1.383,3.825,6.238,6.238,0,0,1-3.843,1.936v2.338h-1.826v-2.314a5.815,5.815,0,0,1-3.515-1.6,6.591,6.591,0,0,1-1.735-3.8l3.269-.386a4.1,4.1,0,0,0,.756,1.727,3.408,3.408,0,0,0,1.224,1.048v-5.244A6.9,6.9,0,0,1,217.547,109.893Z" transform="translate(-121.536 -72.422)" fill="#f7aa20"/>
        </g>
      </g>
    </g>
  </g>
</svg>
