<svg xmlns="http://www.w3.org/2000/svg" xmlns:xlink="http://www.w3.org/1999/xlink" width="435" height="268" viewBox="0 0 435 268">
  <defs>
    <clipPath id="clip-potentialausgleichschiene">
      <rect width="435" height="268"/>
    </clipPath>
  </defs>
  <g id="potentialausgleichschiene" clip-path="url(#clip-potentialausgleichschiene)">
    <g id="Gruppe_1551" data-name="Gruppe 1551" transform="translate(-22841.83 12127.563)">
      <path id="Pfad_637" data-name="Pfad 637" d="M21549-11916.169l355.064-50.448h25.6v113.869l-325.16,87.554H21549Z" transform="translate(1320 -117.123)" fill="#565654"/>
      <path id="Pfad_636" data-name="Pfad 636" d="M21804.959-11855.735l-.586-10.729,1.732-2.509,166.389-28.359,1.957,1.051v10.144Z" transform="translate(1176.535 -156.046)" fill="#6c6a66"/>
      <path id="Pfad_635" data-name="Pfad 635" d="M21805.709-11842.434l102.672-17.918,66.289-11.569,1.854,2-.373,1.056-106.617,20.282-33.512,6.149-5.555,1.367-23.461,2.313Z" transform="translate(1175.785 -170.322)" fill="#4e5156"/>
      <path id="Pfad_633" data-name="Pfad 633" d="M21809.025-11801.059l21.463-3.571v12.619l-20.871,3.829Z" transform="translate(1173.921 -208.126)" fill="#473b30"/>
      <path id="Pfad_632" data-name="Pfad 632" d="M21808.115-11809.1v9.671l2.645,1.353,162.488-30.744,2.18-2.311v-10.295l-78.576,15.923Z" transform="translate(1174.016 -186.493)" fill="#645d56"/>
      <g id="Gruppe_1548" data-name="Gruppe 1548" transform="translate(23139.75 -12022.861) rotate(82)">
        <path id="Pfad_459" data-name="Pfad 459" d="M.582,1.488,3.106,0l2.27.621L6.953,3.206,6.336,5.394,3.843,6.905,1.549,6.372,0,3.8Z" transform="translate(0 0)" fill="#a9bec9"/>
        <ellipse id="Ellipse_33" data-name="Ellipse 33" cx="1.651" cy="1.651" rx="1.651" ry="1.651" transform="translate(1.877 1.761)" fill="#e9e9ec"/>
        <g id="Ellipse_34" data-name="Ellipse 34" transform="translate(1.437 1.542)" fill="none" stroke="#cee0e9" stroke-width="1">
          <ellipse cx="1.982" cy="1.982" rx="1.982" ry="1.982" stroke="none"/>
          <ellipse cx="1.982" cy="1.982" rx="1.482" ry="1.482" fill="none"/>
        </g>
        <path id="Pfad_460" data-name="Pfad 460" d="M5.415,0,5.74.547,5.167,2.81,2.6,4.3.207,3.749,0,3.167l2.3.526L4.1,2.606l.679-.442Z" transform="translate(1.537 3.227)" fill="#4a616c"/>
      </g>
      <path id="Pfad_575" data-name="Pfad 575" d="M22073.059-11644.611l-2.861,23.1,134.855-26.651,5.932-22.553Z" transform="translate(1027.199 -283.359)" fill="#706860"/>
      <path id="Pfad_576" data-name="Pfad 576" d="M22197.576-11690.589l-7.961-15.654-11.176,1.842s8.73,11.313,6.971,11.869-12.109,4.422-14.283-2.142c-.822-2.48-12.77,1.814-28.941,4.921-26.441,5.077-62.07,11.317-62.07,11.317s2.74,4.912-.4,5.671-11.654,3.047-14.111-1.606-5.715-9.854-5.715-9.854l-13.52,2.751,13.248,16.9Z" transform="translate(1040.586 -263.398)" fill="#978b7f"/>
      <path id="Pfad_577" data-name="Pfad 577" d="M22041.666-11649.059l14.025,16.708-3,22.853-14.18-10.809Z" transform="translate(1044.998 -295.523)" fill="#4a3d30"/>
      <path id="Pfad_578" data-name="Pfad 578" d="M22027.76-11583.121l4.365-.65,14.133,11.188h-5.443Z" transform="translate(1051.915 -332.439)" fill="#271f16"/>
      <path id="Pfad_618" data-name="Pfad 618" d="M22116.848-11854.227s21.631,1.5,26.389-3.277c.654-.653-1.09-.756-1.246-1.9-.045-.33.188,1.773,0,16.332,0,0-22.174,6.727-28.959,1.582-.4-.3.473-4.376.539-6.17.152-4,0-7.723,0-7.723Z" transform="translate(1003.192 -177.335)" fill="#8d8884"/>
      <path id="teil" d="M21888.939-11718.211s1.906-91.084,2.951-94.947c.42-1.547,4.3-1.3,4.3-1.3l5.658-.756.688-1.393,1.611-3.408,69.662-13.4v-9.154l-28.869,5.553-84.439,15.908.945,13.8,10.965-2.3-1.537,46.006,1,49.488Z" transform="translate(1145.001 -186.811)" fill="#736453"/>
      <path id="Pfad_581" data-name="Pfad 581" d="M21886.428-11821.464v7.415l19.438-3.376-.336-7.7Z" transform="translate(1130.437 -196.614)" fill="#726657"/>
      <path id="Pfad_622" data-name="Pfad 622" d="M1.405,5.537,4.079,1.474,1.916,0,0,3.648Z" transform="translate(23129.475 -12028.991) rotate(7)" fill="#291d13"/>
      <path id="Pfad_593" data-name="Pfad 593" d="M.657,2.587,1.906.689.9,0,0,1.7Z" transform="translate(23051.82 -12013.741) rotate(-4)" fill="#291d13"/>
      <path id="Pfad_597" data-name="Pfad 597" d="M.657,2.587,1.906.689.9,0,0,1.7Z" transform="translate(23061.398 -12015.153) rotate(-4)" fill="#291d13"/>
      <path id="Pfad_601" data-name="Pfad 601" d="M.657,2.587,1.906.689.9,0,0,1.7Z" transform="translate(23070.602 -12016.905) rotate(-4)" fill="#291d13"/>
      <path id="Pfad_605" data-name="Pfad 605" d="M.657,2.587,1.906.689.9,0,0,1.7Z" transform="translate(23079.805 -12018.442) rotate(-4)" fill="#291d13"/>
      <path id="Pfad_609" data-name="Pfad 609" d="M.657,2.587,1.906.689.9,0,0,1.7Z" transform="translate(23088.131 -12020.275) rotate(-4)" fill="#291d13"/>
      <path id="Pfad_613" data-name="Pfad 613" d="M.657,2.587,1.906.689.9,0,0,1.7Z" transform="translate(23096.926 -12021.812) rotate(-4)" fill="#291d13"/>
      <path id="Pfad_617" data-name="Pfad 617" d="M.657,2.587,1.906.689.9,0,0,1.7Z" transform="translate(23105.721 -12023.497) rotate(-4)" fill="#291d13"/>
      <path id="Pfad_621" data-name="Pfad 621" d="M0,1,4.652,0l1.56,1.575-4.1.988Z" transform="translate(23131.631 -12029.816) rotate(7)" fill="#715538"/>
      <path id="Pfad_592" data-name="Pfad 592" d="M0,.467,2.174,0,2.9.735.989,1.2Z" transform="translate(23052.734 -12014.312) rotate(-4)" fill="#715538"/>
      <path id="Pfad_596" data-name="Pfad 596" d="M0,.467,2.174,0,2.9.735.989,1.2Z" transform="translate(23062.314 -12015.724) rotate(-4)" fill="#715538"/>
      <path id="Pfad_600" data-name="Pfad 600" d="M0,.467,2.174,0,2.9.735.989,1.2Z" transform="translate(23071.518 -12017.477) rotate(-4)" fill="#715538"/>
      <path id="Pfad_604" data-name="Pfad 604" d="M0,.467,2.174,0,2.9.735.989,1.2Z" transform="translate(23080.719 -12019.013) rotate(-4)" fill="#715538"/>
      <path id="Pfad_608" data-name="Pfad 608" d="M0,.467,2.174,0,2.9.735.989,1.2Z" transform="translate(23089.047 -12020.846) rotate(-4)" fill="#715538"/>
      <path id="Pfad_612" data-name="Pfad 612" d="M0,.467,2.174,0,2.9.735.989,1.2Z" transform="translate(23097.84 -12022.383) rotate(-4)" fill="#715538"/>
      <path id="Pfad_616" data-name="Pfad 616" d="M0,.467,2.174,0,2.9.735.989,1.2Z" transform="translate(23106.637 -12024.067) rotate(-4)" fill="#715538"/>
      <path id="Pfad_620" data-name="Pfad 620" d="M2.651,1.058,6.686,0l1.8,3.114V5.12L6.534,7.482l-3.506.766L0,5.12Z" transform="translate(23130.857 -12028.396) rotate(7)" fill="#6d4930"/>
      <path id="Pfad_590" data-name="Pfad 590" d="M1.238.494,3.123,0l.842,1.455v.937L3.052,3.5l-1.638.358L0,2.392Z" transform="translate(23052.506 -12013.591) rotate(-4)" fill="#6d4930"/>
      <path id="Pfad_594" data-name="Pfad 594" d="M1.238.494,3.123,0l.842,1.455v.937L3.052,3.5l-1.638.358L0,2.392Z" transform="translate(23062.088 -12015.004) rotate(-4)" fill="#6d4930"/>
      <path id="Pfad_598" data-name="Pfad 598" d="M1.238.494,3.123,0l.842,1.455v.937L3.052,3.5l-1.638.358L0,2.392Z" transform="translate(23071.291 -12016.755) rotate(-4)" fill="#6d4930"/>
      <path id="Pfad_602" data-name="Pfad 602" d="M1.238.494,3.123,0l.842,1.455v.937L3.052,3.5l-1.638.358L0,2.392Z" transform="translate(23080.492 -12018.292) rotate(-4)" fill="#6d4930"/>
      <path id="Pfad_606" data-name="Pfad 606" d="M1.238.494,3.123,0l.842,1.455v.937L3.052,3.5l-1.638.358L0,2.392Z" transform="translate(23088.818 -12020.126) rotate(-4)" fill="#6d4930"/>
      <path id="Pfad_610" data-name="Pfad 610" d="M1.238.494,3.123,0l.842,1.455v.937L3.052,3.5l-1.638.358L0,2.392Z" transform="translate(23097.613 -12021.662) rotate(-4)" fill="#6d4930"/>
      <path id="Pfad_614" data-name="Pfad 614" d="M1.238.494,3.123,0l.842,1.455v.937L3.052,3.5l-1.638.358L0,2.392Z" transform="translate(23106.408 -12023.347) rotate(-4)" fill="#6d4930"/>
      <path id="Pfad_619" data-name="Pfad 619" d="M2.106,0H3.447V1.8H5.294V3.331H3.447v1.68H2.106V3.08H0V1.8H2.106V0Z" transform="translate(23132.756 -12026.439) rotate(7)" fill="#160802"/>
      <path id="Pfad_591" data-name="Pfad 591" d="M.983,0H1.61V.84h.862v.717H1.61v.785H.983v-.9H0V.84H.983V0Z" transform="translate(23053.553 -12012.863) rotate(-4)" fill="#160802"/>
      <path id="Pfad_595" data-name="Pfad 595" d="M.983,0H1.61V.84h.862v.717H1.61v.785H.983v-.9H0V.84H.983V0Z" transform="translate(23063.133 -12014.275) rotate(-4)" fill="#160802"/>
      <path id="Pfad_599" data-name="Pfad 599" d="M.983,0H1.61V.84h.862v.717H1.61v.785H.983v-.9H0V.84H.983V0Z" transform="translate(23072.336 -12016.028) rotate(-4)" fill="#160802"/>
      <path id="Pfad_603" data-name="Pfad 603" d="M.983,0H1.61V.84h.862v.717H1.61v.785H.983v-.9H0V.84H.983V0Z" transform="translate(23081.537 -12017.564) rotate(-4)" fill="#160802"/>
      <path id="Pfad_607" data-name="Pfad 607" d="M.983,0H1.61V.84h.862v.717H1.61v.785H.983v-.9H0V.84H.983V0Z" transform="translate(23089.863 -12019.397) rotate(-4)" fill="#160802"/>
      <path id="Pfad_611" data-name="Pfad 611" d="M.983,0H1.61V.84h.862v.717H1.61v.785H.983v-.9H0V.84H.983V0Z" transform="translate(23098.658 -12020.935) rotate(-4)" fill="#160802"/>
      <path id="Pfad_615" data-name="Pfad 615" d="M.983,0H1.61V.84h.862v.717H1.61v.785H.983v-.9H0V.84H.983V0Z" transform="translate(23107.453 -12022.619) rotate(-4)" fill="#160802"/>
      <path id="Pfad_623" data-name="Pfad 623" d="M21849.561-11833.6l136.682-26.323,5.355,2.634-40.992,8.7-98.062,18.088Z" transform="translate(1151.149 -177.064)" fill="#7e8286"/>
      <ellipse id="Ellipse_42" data-name="Ellipse 42" cx="3.064" cy="1.021" rx="3.064" ry="1.021" transform="translate(23075.33 -12024.677)" fill="#080402"/>
      <ellipse id="Ellipse_43" data-name="Ellipse 43" cx="3.064" cy="1.277" rx="3.064" ry="1.277" transform="translate(23084.012 -12026.719)" fill="#080402"/>
      <ellipse id="Ellipse_44" data-name="Ellipse 44" cx="3.064" cy="1.021" rx="3.064" ry="1.021" transform="translate(23092.695 -12027.74)" fill="#080402"/>
      <path id="Pfad_624" data-name="Pfad 624" d="M21960.98-11835.905h2.682l.17,10.058-2.852.476Z" transform="translate(1088.673 -190.555)" fill="#5c3f29"/>
      <path id="Pfad_625" data-name="Pfad 625" d="M21960.98-11835.905h2.682l.17,9.713-2.852.461Z" transform="translate(1098.608 -192.178)" fill="#5c3f29"/>
      <path id="Pfad_626" data-name="Pfad 626" d="M21960.98-11835.905h2.682l.17,9.878-2.852.467Z" transform="translate(1107.684 -193.93)" fill="#5c3f29"/>
      <path id="Pfad_627" data-name="Pfad 627" d="M21960.98-11835.905h2.682l.17,9.25-2.852.438Z" transform="translate(1142.575 -199.893)" fill="#5c3f29"/>
      <path id="Pfad_628" data-name="Pfad 628" d="M21947.672-11908.168c-.1.092,4.32-.91,4.32-.91l2.621,8.432s3.459,19.05,2.295,23.285c-.1.35-.811.3-1.514.294a12.789,12.789,0,0,1-2.277-.294s-.678-12.316-2.139-21.487C21950.072-11904.522,21948.525-11908.933,21947.672-11908.168Z" transform="translate(1096.033 -149.448)" fill="#39752b"/>
      <path id="Pfad_629" data-name="Pfad 629" d="M21982.881-11912.723c-.141.064.521-.234.314-.122l3.811-.672a45.306,45.306,0,0,1,.746,8.039c.045,3.633-.518,8.273-.758,12.945-.127,2.435-.443,4.906-.592,7.36a16.019,16.019,0,0,1-.23,3.93c-.264.824-1.072-.084-1.66,0a9.361,9.361,0,0,1-2.445,0s.395-4.312.814-9.142C21983.689-11899.672,21984.643-11913.533,21982.881-11912.723Z" transform="translate(1076.709 -146.954)" fill="#458831"/>
      <path id="Pfad_630" data-name="Pfad 630" d="M21996.908-11914.8h0a9.408,9.408,0,0,1,1-.368c.846-.177,2.883-.587,2.883-.587a26.228,26.228,0,0,1,3.012,7.754c.631,2.723.615,12.586.643,13.185a9.246,9.246,0,0,1,0,1.33c-.08.7-.447,4.757-.455,5.382-.016,1.56.582,2.974,0,3.688-.379.468-.9-.046-1.521,0a23.259,23.259,0,0,1-2.777,0s1.465-13.2.352-22.217c-.318-2.569-1.881-4.665-2.451-6.128a9.6,9.6,0,0,1-.395-1.44C21997.146-11914.485,21997.156-11914.943,21996.908-11914.8Z" transform="translate(1068.386 -145.698)" fill="#599248"/>
      <path id="Pfad_631" data-name="Pfad 631" d="M22073.43-11926.155s1.443.028,3.039,2.753c1.725,2.949,3.477,9.666.773,26.255-.076.465,4.309.235,4.309.235s4.371-19.311-3.2-30.479C22078.188-11927.636,22073.43-11926.155,22073.43-11926.155Z" transform="translate(1025.382 -139.144)" fill="#478635"/>
      <g id="Gruppe_1525" data-name="Gruppe 1525" transform="translate(23004.414 -11989.419) rotate(179)">
        <path id="Pfad_459-2" data-name="Pfad 459" d="M.582,1.488,3.106,0l2.27.621L6.953,3.206,6.336,5.394,3.843,6.905,1.549,6.372,0,3.8Z" transform="translate(0 0)" fill="#a9bec9"/>
        <ellipse id="Ellipse_33-2" data-name="Ellipse 33" cx="1.651" cy="1.651" rx="1.651" ry="1.651" transform="translate(1.877 1.761)" fill="#e9e9ec"/>
        <g id="Ellipse_34-2" data-name="Ellipse 34" transform="translate(1.437 1.542)" fill="none" stroke="#cee0e9" stroke-width="1">
          <ellipse cx="1.982" cy="1.982" rx="1.982" ry="1.982" stroke="none"/>
          <ellipse cx="1.982" cy="1.982" rx="1.482" ry="1.482" fill="none"/>
        </g>
        <path id="Pfad_460-2" data-name="Pfad 460" d="M5.415,0,5.74.547,5.167,2.81,2.6,4.3.207,3.749,0,3.167l2.3.526L4.1,2.606l.679-.442Z" transform="translate(1.537 3.227)" fill="#4a616c"/>
      </g>
      <g id="Gruppe_1546" data-name="Gruppe 1546" transform="translate(23003.1 -12018.576) rotate(179)">
        <path id="Pfad_459-3" data-name="Pfad 459" d="M.582,1.488,3.106,0l2.27.621L6.953,3.206,6.336,5.394,3.843,6.905,1.549,6.372,0,3.8Z" transform="translate(0 0)" fill="#a9bec9"/>
        <ellipse id="Ellipse_33-3" data-name="Ellipse 33" cx="1.651" cy="1.651" rx="1.651" ry="1.651" transform="translate(1.877 1.761)" fill="#e9e9ec"/>
        <g id="Ellipse_34-3" data-name="Ellipse 34" transform="translate(1.437 1.542)" fill="none" stroke="#cee0e9" stroke-width="1">
          <ellipse cx="1.982" cy="1.982" rx="1.982" ry="1.982" stroke="none"/>
          <ellipse cx="1.982" cy="1.982" rx="1.482" ry="1.482" fill="none"/>
        </g>
        <path id="Pfad_460-3" data-name="Pfad 460" d="M5.415,0,5.74.547,5.167,2.81,2.6,4.3.207,3.749,0,3.167l2.3.526L4.1,2.606l.679-.442Z" transform="translate(1.537 3.227)" fill="#4a616c"/>
      </g>
      <g id="Gruppe_1547" data-name="Gruppe 1547" transform="translate(23142.926 -12046.952) rotate(120)">
        <path id="Pfad_459-4" data-name="Pfad 459" d="M.582,1.488,3.106,0l2.27.621L6.953,3.206,6.336,5.394,3.843,6.905,1.549,6.372,0,3.8Z" transform="translate(0 0)" fill="#a9bec9"/>
        <ellipse id="Ellipse_33-4" data-name="Ellipse 33" cx="1.651" cy="1.651" rx="1.651" ry="1.651" transform="translate(1.877 1.761)" fill="#e9e9ec"/>
        <g id="Ellipse_34-4" data-name="Ellipse 34" transform="translate(1.437 1.542)" fill="none" stroke="#cee0e9" stroke-width="1">
          <ellipse cx="1.982" cy="1.982" rx="1.982" ry="1.982" stroke="none"/>
          <ellipse cx="1.982" cy="1.982" rx="1.482" ry="1.482" fill="none"/>
        </g>
        <path id="Pfad_460-4" data-name="Pfad 460" d="M5.415,0,5.74.547,5.167,2.81,2.6,4.3.207,3.749,0,3.167l2.3.526L4.1,2.606l.679-.442Z" transform="translate(1.537 3.227)" fill="#4a616c"/>
      </g>
      <path id="Pfad_634" data-name="Pfad 634" d="M21819.6-11795.314l4.75-.883.342,8.912-5.092.893Z" transform="translate(1167.982 -212.863)" fill="#100e0b"/>
      <path id="Pfad_638" data-name="Pfad 638" d="M22178.105-11864.674l-.371,10.549-6.7,1.342v-9.808l-1.936.308-.322,2-4.244-2Z" transform="translate(974.201 -174.393)" fill="#6d6a66"/>
      <path id="Pfad_639" data-name="Pfad 639" d="M22180.02-11859.88l3.207-.346v8.055h-2.9Z" transform="translate(965.501 -176.892)" fill="#4a4f51"/>
      <path id="Pfad_640" data-name="Pfad 640" d="M21549-11949.384l146.117-17.294,208.25-.158L21549-11915.784Z" transform="translate(1320 -117)" fill="#b3b0af"/>
      <path id="Pfad_641" data-name="Pfad 641" d="M21549-11954l106.813-12.2h37.9L21549-11948.912Z" transform="translate(1320 -117.361)" fill="#d2cbc6"/>
      <text id="Kabelkanal" transform="matrix(0.995, -0.105, 0.105, 0.995, 23014.717, -12072.102)" fill="#ebebeb" stroke="#ebebeb" stroke-width="0.1" font-size="10" font-family="FormaDJRMicro-Regular, Forma DJR Micro"><tspan x="0" y="9">Kabelkanal</tspan></text>
      <text id="Potentialausgleichsleitungen" transform="translate(22877.889 -12024.95) rotate(-8)" fill="#ebebeb" stroke="#ebebeb" stroke-width="0.1" font-size="10" font-family="FormaDJRMicro-Regular, Forma DJR Micro"><tspan x="0" y="9">Potentialausgleichsleitungen</tspan></text>
      <text id="Haupterdungsschiene" transform="translate(23059.33 -11982.029) rotate(-11)" fill="#ebebeb" stroke="#ebebeb" stroke-width="0.1" font-size="10" font-family="FormaDJRMicro-Regular, Forma DJR Micro"><tspan x="0" y="9">Haupterdungsschiene</tspan></text>
      <text id="Anschlussfahne" transform="matrix(0.974, -0.225, 0.225, 0.974, 22932.43, -11911.499)" fill="#ebebeb" stroke="#ebebeb" stroke-width="0.1" font-size="10" font-family="FormaDJRMicro-Regular, Forma DJR Micro"><tspan x="0" y="9">Anschlussfahne</tspan></text>
      <text id="Potentialausgleichsschiene" transform="translate(23108.848 -11924.543) rotate(-11)" fill="#ebebeb" stroke="#ebebeb" stroke-width="0.1" font-size="10" font-family="FormaDJRMicro-Regular, Forma DJR Micro"><tspan x="0" y="9">Potentialausgleichsschiene</tspan></text>
      <g id="Gruppe_1549" data-name="Gruppe 1549" transform="translate(23006.527 -12007.788)">
        <path id="Pfad_582" data-name="Pfad 582" d="M21864.475-11783.951l3.119-4.741-2.523-1.721-2.236,4.257Z" transform="translate(-21862.834 11791.676)" fill="#291d13"/>
        <path id="Pfad_583" data-name="Pfad 583" d="M21867.945-11792.129l5.428-1.166,1.82,1.838-4.781,1.153Z" transform="translate(-21865.564 11793.295)" fill="#715538"/>
        <path id="Pfad_584" data-name="Pfad 584" d="M21869.773-11788.054l4.705-1.235,2.1,3.633v2.342l-2.279,2.756-4.092.893-3.531-3.648Z" transform="translate(-21864.994 11791.045)" fill="#6d4930"/>
        <path id="Pfad_585" data-name="Pfad 585" d="M21873.3-11785.765h1.564v2.1h2.154v1.789h-2.154v1.96h-1.564v-2.253h-2.459v-1.5h2.459v-2.1Z" transform="translate(-21866.678 11789.517)" fill="#160802"/>
      </g>
      <g id="Gruppe_1550" data-name="Gruppe 1550" transform="translate(23038.266 -12012.912)">
        <path id="Pfad_589" data-name="Pfad 589" d="M1.405,5.537,4.079,1.474,1.916,0,0,3.648Z" transform="translate(0 1.655) rotate(-4)" fill="#291d13"/>
        <path id="Pfad_588" data-name="Pfad 588" d="M0,1,4.652,0l1.56,1.575-4.1.988Z" transform="translate(1.96 0.433) rotate(-4)" fill="#715538"/>
        <path id="Pfad_586" data-name="Pfad 586" d="M2.651,1.058,6.686,0l1.8,3.114V5.12L6.534,7.482l-3.506.766L0,5.12Z" transform="translate(1.471 1.976) rotate(-4)" fill="#6d4930"/>
        <path id="Pfad_587" data-name="Pfad 587" d="M2.106,0H3.447V1.8H5.294V3.331H3.447v1.68H2.106V3.08H0V1.8H2.106V0Z" transform="translate(3.709 3.534) rotate(-4)" fill="#160802"/>
      </g>
      <path id="Pfad_642" data-name="Pfad 642" d="M21858.09-11793.474l-1.941.363.465,8.974,1.771-.269Z" transform="translate(1147.448 -214.393)" fill="#0b0804"/>
      <path id="Pfad_643" data-name="Pfad 643" d="M21852.209-11796.687l-3.072-3.047v8.129l3.568,3.869Z" transform="translate(1151.387 -210.876)" fill="#342c23"/>
      <path id="Pfad_644" data-name="Pfad 644" d="M22156.74-11859.411l2.063-.289v2.956a3.025,3.025,0,0,1-1.443.771c-3.059.874-10.949,2.531-14.607,1.806-.416-.082.16-.144,1.236-.447.607-.172,1.676-.341,2.721-.581.121-.027,6.844-1.322,8.76-1.821.7-.181,1.111-.269.908-.44Z" transform="translate(986.514 -177.188)" fill="#7f868c"/>
      <ellipse id="Ellipse_41" data-name="Ellipse 41" cx="3.064" cy="1.277" rx="3.064" ry="1.277" transform="translate(23066.648 -12023.145)" fill="#080402"/>
      <ellipse id="Ellipse_40" data-name="Ellipse 40" cx="3.064" cy="1.021" rx="3.064" ry="1.021" transform="translate(23057.455 -12021.102)" fill="#080402"/>
      <ellipse id="Ellipse_39" data-name="Ellipse 39" cx="3.064" cy="1.021" rx="3.064" ry="1.021" transform="translate(23048.262 -12019.569)" fill="#080402"/>
      <ellipse id="Ellipse_45" data-name="Ellipse 45" cx="3.064" cy="1.277" rx="3.064" ry="1.277" transform="translate(23101.889 -12029.783)" fill="#080402"/>
    </g>
  </g>
</svg>
