<svg xmlns="http://www.w3.org/2000/svg" xmlns:xlink="http://www.w3.org/1999/xlink" width="435" height="309" viewBox="0 0 435 309">
  <defs>
    <linearGradient id="linear-gradient" x1="0.143" y1="0.427" x2="0.394" y2="0.129" gradientUnits="objectBoundingBox">
      <stop offset="0" stop-color="#edc072"/>
      <stop offset="1" stop-color="#0b0802"/>
    </linearGradient>
    <clipPath id="clip-sparrenansicht">
      <rect width="435" height="309"/>
    </clipPath>
  </defs>
  <g id="sparrenansicht" clip-path="url(#clip-sparrenansicht)">
    <g id="Gruppe_1555" data-name="Gruppe 1555" transform="translate(-883.906 -5974.695)">
      <path id="Pfad_685" data-name="Pfad 685" d="M19672.623-10768.5l28.063,202.928h-218.625l3.408-104.269,47.953-114.605,8.484-7.044Z" transform="translate(-18549.404 16817)" fill="#faca76"/>
      <path id="Pfad_686" data-name="Pfad 686" d="M19693-10801.854l-19.5,33.525-155.916-31.1,1.979-10.5Z" transform="matrix(1, -0.017, 0.017, 1, -18358.109, 17157.518)" fill="#facb76"/>
      <path id="Pfad_687" data-name="Pfad 687" d="M19541.418-10796.512v3.62l-9.58,8.064-46.822,109.281,1.906-56.309,30.768-68.895Z" transform="translate(-18549.404 16817)" fill="#a7864b"/>
      <path id="Pfad_688" data-name="Pfad 688" d="M19678.576-10731.808l109.336,167.651h-87.65Z" transform="translate(-18549.404 16817)" fill="#edc072"/>
      <path id="Pfad_689" data-name="Pfad 689" d="M19787.912-10564.156h30.943v-133.4l-146.324-70.771,5.57,36.3Z" transform="translate(-18549.404 16817)" fill="url(#linear-gradient)"/>
      <path id="Pfad_690" data-name="Pfad 690" d="M19768.258-10644.948l36,12.036,15.3,53.972h-31.107Z" transform="translate(-18549.404 16817)" fill="#fff"/>
      <path id="Pfad_692" data-name="Pfad 692" d="M19594.988-10751.807v46.927l-46.367,35.049,3.361-48.662Z" transform="translate(-18511.404 16820.588)" fill="#fff"/>
      <path id="Pfad_693" data-name="Pfad 693" d="M19541.418-10597.659l30.871-16.413v49.043h-30.871Z" transform="translate(-18549.404 16817)" fill="#fff"/>
      <path id="Pfad_694" data-name="Pfad 694" d="M19541.418-10602.5l15.645-11.577,1.59,26.865-17.234,7.728Z" transform="translate(-18552.404 16658.332)" fill="#fff"/>
      <path id="Pfad_695" data-name="Pfad 695" d="M19641.832-10786.274l27.6,21.529-8.74,10.634-26.527-22.908Z" transform="translate(-14548.814 22093.885) rotate(-17)" fill="#2b1e0c"/>
      <path id="Pfad_696" data-name="Pfad 696" d="M19641.832-10786.274l27.6,21.529-8.74,10.634-26.527-22.908Z" transform="translate(-13156.851 23383.449) rotate(-22)" fill="#2b1e0c"/>
      <path id="Pfad_697" data-name="Pfad 697" d="M19692.77-10803.532l125.279,86.645v29.759l-145.443-81.032Z" transform="translate(-18549.404 16817)" fill="#0e0a03"/>
      <g id="Ellipse_46" data-name="Ellipse 46" transform="translate(1001.596 6009)" fill="none" stroke="#b51010" stroke-width="1">
        <ellipse cx="29.5" cy="26.5" rx="29.5" ry="26.5" stroke="none"/>
        <ellipse cx="29.5" cy="26.5" rx="29" ry="26" fill="none"/>
      </g>
      <g id="Ellipse_47" data-name="Ellipse 47" transform="translate(1001.596 6009)" fill="none" stroke="#b51010" stroke-width="1">
        <ellipse cx="29.5" cy="26.5" rx="29.5" ry="26.5" stroke="none"/>
        <ellipse cx="29.5" cy="26.5" rx="29" ry="26" fill="none"/>
      </g>
      <g id="Ellipse_48" data-name="Ellipse 48" transform="translate(1064.596 6018)" fill="none" stroke="#b51010" stroke-width="1">
        <ellipse cx="29.5" cy="26.5" rx="29.5" ry="26.5" stroke="none"/>
        <ellipse cx="29.5" cy="26.5" rx="29" ry="26" fill="none"/>
      </g>
    </g>
  </g>
</svg>
