<svg xmlns="http://www.w3.org/2000/svg" width="28.004" height="28.004" viewBox="0 0 28.004 28.004"><defs><style>.a{fill:#f7aa20;}</style></defs><path class="a" d="M26.49,30H5.5A3.417,3.417,0,0,1,2,26.52V5.5A3.418,3.418,0,0,1,5.5,2h21A3.418,3.418,0,0,1,30,5.5v21A3.52,3.52,0,0,1,26.49,30ZM16,7.21a8.36,8.36,0,0,0-3.35.68A8.6,8.6,0,0,0,9.9,9.74,8.79,8.79,0,0,0,8,12.49a8.673,8.673,0,1,0,16,0,8.79,8.79,0,0,0-1.9-2.75,8.6,8.6,0,0,0-2.75-1.85A8.36,8.36,0,0,0,16,7.21Zm-6.5,5h2.69A10.57,10.57,0,0,0,11.7,14H8.81a8,8,0,0,1,.69-1.79Zm0,7.26a7.7,7.7,0,0,1-.69-1.74H11.7a11.33,11.33,0,0,0,.49,1.74Zm3.81-4.86-.82,2.48-.5.21-.52-1.69L11,17.3l-.51-.21-.8-2.48.51-.22.57,1.91.45-1.23h.57l.44,1.23.6-1.91Zm-2.57-4a7.3,7.3,0,0,1,3.8-2.05,9.68,9.68,0,0,0-2,3H10a6.62,6.62,0,0,1,.74-.97Zm0,10.51a6.3,6.3,0,0,1-.78-.93h2.51a9.81,9.81,0,0,0,2.07,3,7.21,7.21,0,0,1-3.8-2.09ZM12.46,14a9.71,9.71,0,0,1,.5-1.75h2.67V14Zm3.17,5.51H13a9.38,9.38,0,0,1-.5-1.74h3.17Zm0,3.67a9.21,9.21,0,0,1-2.36-3h2.36Zm0-14.6v3H13.3a9.09,9.09,0,0,1,2.33-3.04ZM16,15.61l-.51,1.69-.5-.21-.83-2.48.51-.22.6,1.91.44-1.23h.58l.44,1.23.57-1.91.53.22L17,17.09l-.51.21Zm.37-7.1a9.35,9.35,0,0,1,2.36,3H16.37Zm0,3.7H19A8.4,8.4,0,0,1,19.57,14h-3.2Zm3.2,5.52A8.13,8.13,0,0,1,19,19.47H16.37V17.73Zm-3.2,5.44v-3h2.36A9.36,9.36,0,0,1,16.37,23.17Zm4.89-12.58a6.62,6.62,0,0,1,.78.9H19.53a10.11,10.11,0,0,0-2.07-3,7.3,7.3,0,0,1,3.8,2.1Zm0,10.51a7.21,7.21,0,0,1-3.8,2,9.81,9.81,0,0,0,2.07-3H22a6.3,6.3,0,0,1-.74,1Zm-1.75-4-.82-2.48.51-.22.6,1.91.44-1.23h.57l.45,1.23.57-1.91.51.22-.8,2.48-.54.2-.5-1.69L20,17.3Zm3-4.88A8,8,0,0,1,23.19,14H20.3a10.51,10.51,0,0,0-.47-1.75Zm0,7.26H19.83a11.23,11.23,0,0,0,.47-1.74h2.89a7.7,7.7,0,0,1-.69,1.73Z" transform="translate(-1.998 -1.998)"/></svg>