<svg xmlns="http://www.w3.org/2000/svg" xmlns:xlink="http://www.w3.org/1999/xlink" width="435" height="343" viewBox="0 0 435 343">
  <defs>
    <filter id="Heidelberger_Dachstein" x="126.357" y="106.563" width="80.924" height="181.357" filterUnits="userSpaceOnUse">
      <feOffset dy="3" input="SourceAlpha"/>
      <feGaussianBlur stdDeviation="3" result="blur"/>
      <feFlood flood-opacity="0.161"/>
      <feComposite operator="in" in2="blur"/>
      <feComposite in="SourceGraphic"/>
    </filter>
    <clipPath id="clip-ziegelbild">
      <rect width="435" height="343"/>
    </clipPath>
  </defs>
  <g id="ziegelbild" clip-path="url(#clip-ziegelbild)">
    <g id="Gruppe_1556" data-name="Gruppe 1556" transform="matrix(0.407, 0.914, -0.914, 0.407, 6002.579, -3613.152)">
      <path id="Pfad_509" data-name="Pfad 509" d="M15.632,22.736s59,34.662,102.331-4.991,66.231-.453,66.231-.453l-4.4,223.629s-7.57-15.877-24.336-19.145c-10.559-2.077-28.26-5.567-42.008,9.821-12.439,13.923-32.233,15.331-52.84,16.9C29.466,250.876-1.107,236.085.031,223.165,1.872,202.293,15.632,22.736,15.632,22.736Z" transform="translate(967.197 6895.795) rotate(-81)" fill="#be6648" stroke="#682510" stroke-width="2"/>
      <g transform="matrix(0.41, -0.91, 0.91, 0.41, 859.31, 6953.23)" filter="url(#Heidelberger_Dachstein)">
        <text id="Heidelberger_Dachstein-2" data-name="Heidelberger 
Dachstein" transform="translate(167.75 112.56) rotate(79)" fill="#b78d79" font-size="12" font-family="Georgia-Bold, Georgia" font-weight="700"><tspan x="38.864" y="11">Heidelberger </tspan><tspan x="48.807" y="25">Dachstein</tspan></text>
      </g>
    </g>
  </g>
</svg>
