<svg xmlns="http://www.w3.org/2000/svg" xmlns:xlink="http://www.w3.org/1999/xlink" width="277" height="226" viewBox="0 0 277 226">
  <defs>
    <clipPath id="clip-_51jahre">
      <rect width="277" height="226"/>
    </clipPath>
  </defs>
  <g id="_51jahre" data-name="51jahre" clip-path="url(#clip-_51jahre)">
    <g id="Gruppe_1487" data-name="Gruppe 1487" transform="translate(58.291 39)">
      <g id="_x31_1_x2C__calendar_x2C__love_x2C__operation_x2C__date" transform="translate(0 0)">
        <g id="XMLID_15828_" transform="translate(0 0)">
          <path id="XMLID_15829_" d="M355.95,97.651V83.588H339.877v28.127H355.95Z" transform="translate(-223.349 -83.588)" fill="#006f39"/>
          <path id="XMLID_15830_" d="M337.7,253.368a16.478,16.478,0,0,0-16.459,16.459c0,5.507,5.308,11.939,10.441,18.159,2.091,2.534,4.236,5.133,6.088,7.739,1.792-2.535,3.872-5.09,5.9-7.581,5.148-6.325,10.471-12.867,10.471-18.316A16.469,16.469,0,0,0,337.7,253.368Z" transform="translate(-212.746 -180.166)" fill="#006f39"/>
          <path id="XMLID_15831_" d="M214.263,120.866h-8.036v14.063a2.009,2.009,0,0,1-2.009,2.009H184.126a2.009,2.009,0,0,1-2.009-2.009V120.866H117.826v14.063a2.009,2.009,0,0,1-2.009,2.009H95.726a2.009,2.009,0,0,1-2.009-2.009V120.866H85.681a16.091,16.091,0,0,0-16.073,16.073v12.055H192.163a2.009,2.009,0,1,1,0,4.018H69.608v84.382a16.091,16.091,0,0,0,16.073,16.073H214.263a16.091,16.091,0,0,0,16.073-16.073V136.939A16.09,16.09,0,0,0,214.263,120.866ZM91.708,191.184H83.672v-8.037h8.036Zm0-16.073H83.672v-8.037h8.036Zm16.073,16.073H99.745v-8.037h8.036Zm0-16.073H99.745v-8.037h8.036Zm16.073,16.073h-8.036v-8.037h8.036Zm0-16.073h-8.036v-8.037h8.036Zm16.073,16.073H131.89v-8.037h8.036Zm0-16.073H131.89v-8.037h8.036ZM156,191.184h-8.036v-8.037H156Zm0-16.073h-8.036v-8.037H156Zm16.073,0h-8.036v-8.037h8.036Zm31.572,40.2c-2.338,2.872-4.743,5.831-6.62,8.659,1.857,2.791,4.235,5.715,6.547,8.555,1.456,1.788,2.962,3.637,4.349,5.465a2.009,2.009,0,1,1-3.2,2.428c-1.346-1.773-2.83-3.6-4.264-5.357-2-2.459-4.055-4.981-5.827-7.481-1.844,2.59-3.977,5.177-6.057,7.7-1.451,1.761-2.953,3.582-4.308,5.349a2.009,2.009,0,1,1-3.188-2.446c1.4-1.823,2.922-3.671,4.4-5.459,2.384-2.893,4.838-5.872,6.765-8.755-1.163-1.743-4.045-5.429-4.045-5.429s-1.795-2.207-2.751-3.365c-5.584-6.768-11.359-13.766-11.359-20.717a20.468,20.468,0,1,1,40.936,0C215.017,201.332,209.235,208.437,203.644,215.307Z" transform="translate(-69.608 -104.793)" fill="#006f39"/>
          <path id="XMLID_15845_" d="M150.919,97.651V83.588H134.846v28.127h16.073Z" transform="translate(-106.718 -83.588)" fill="#006f39"/>
        </g>
      </g>
      <rect id="Rechteck_156" data-name="Rechteck 156" width="41.372" height="76.595" transform="translate(109.101 64.56)" fill="#006f39"/>
      <rect id="Rechteck_157" data-name="Rechteck 157" width="17.891" height="32.427" transform="translate(97.92 74.064)" fill="#006f39"/>
    </g>
    <text id="_51_-_70_Jahre" data-name="51 - 70 Jahre" transform="translate(139.262 163.169)" fill="#f7aa20" stroke="#f7aa20" stroke-width="1.4" font-size="19" font-family="Helvetica"><tspan x="-57.802" y="0">51</tspan><tspan y="0" font-family="AppleBraille-Outline8Dot, Apple Braille"> </tspan><tspan y="0">-</tspan><tspan y="0" font-family="AppleBraille-Outline8Dot, Apple Braille"> </tspan><tspan y="0">70</tspan><tspan y="0" font-family="AppleBraille-Outline8Dot, Apple Braille"> </tspan><tspan y="0">Jahre</tspan></text>
  </g>
</svg>
