<svg xmlns="http://www.w3.org/2000/svg" xmlns:xlink="http://www.w3.org/1999/xlink" width="277" height="226" viewBox="0 0 277 226">
  <defs>
    <clipPath id="clip-bieberschwanz">
      <rect width="277" height="226"/>
    </clipPath>
  </defs>
  <g id="bieberschwanz" clip-path="url(#clip-bieberschwanz)">
    <g id="Gruppe_1530" data-name="Gruppe 1530" transform="translate(11.68 61.778)">
      <path id="Pfad_514" data-name="Pfad 514" d="M16246.082-8706.036v18.705s17.346,21.444,42.408-.253v-19.3s-19.355-1.7-20.484-11.19c-.285-2.391-.141.793-2.09,3.471-.187.463-3.279,3.569-7.73,5.464A55.051,55.051,0,0,1,16246.082-8706.036Z" transform="translate(-16202.986 8718.913)" fill="#b0654b" stroke="#923b2e" stroke-width="3"/>
      <path id="Pfad_521" data-name="Pfad 521" d="M16246.082-8706.036v18.705s17.346,21.444,42.408-.253v-19.3s-19.355-1.7-20.484-11.19c-.285-2.391-.141.793-2.09,3.471-.187.463-3.279,3.569-7.73,5.464A55.051,55.051,0,0,1,16246.082-8706.036Z" transform="translate(-16182.469 8749.838)" fill="#b0654b" stroke="#923b2e" stroke-width="3"/>
      <path id="Pfad_525" data-name="Pfad 525" d="M16246.082-8706.036v18.705s17.346,21.444,42.408-.253v-19.3s-19.355-1.7-20.484-11.19c-.285-2.391-.141.793-2.09,3.471-.187.463-3.279,3.569-7.73,5.464A55.051,55.051,0,0,1,16246.082-8706.036Z" transform="translate(-16205.147 8780.075)" fill="#b0654b" stroke="#923b2e" stroke-width="3"/>
      <path id="Pfad_541" data-name="Pfad 541" d="M16246.082-8706.036v18.705s17.346,21.444,42.408-.253v-19.3s-19.355-1.7-20.484-11.19c-.285-2.391-.141.793-2.09,3.471-.187.463-3.279,3.569-7.73,5.464A55.051,55.051,0,0,1,16246.082-8706.036Z" transform="translate(-16246.082 8780.318)" fill="#b0654b" stroke="#923b2e" stroke-width="3"/>
      <path id="Pfad_538" data-name="Pfad 538" d="M16246.082-8706.036v18.705s17.346,21.444,42.408-.253v-19.3s-19.355-1.7-20.484-11.19c-.285-2.391-.141.793-2.09,3.471-.187.463-3.279,3.569-7.73,5.464A55.051,55.051,0,0,1,16246.082-8706.036Z" transform="translate(-16224.878 8749.838)" fill="#b0654b" stroke="#923b2e" stroke-width="3"/>
      <path id="Pfad_517" data-name="Pfad 517" d="M16246.082-8706.036v18.705s17.346,21.444,42.408-.253v-19.3s-19.355-1.7-20.484-11.19c-.285-2.391-.141.793-2.09,3.471-.187.463-3.279,3.569-7.73,5.464A55.051,55.051,0,0,1,16246.082-8706.036Z" transform="translate(-16117.781 8718.913)" fill="#b0654b" stroke="#923b2e" stroke-width="3"/>
      <path id="Pfad_519" data-name="Pfad 519" d="M16246.082-8706.036v18.705s17.346,21.444,42.408-.253v-19.3s-19.355-1.7-20.484-11.19c-.285-2.391-.141.793-2.09,3.471-.187.463-3.279,3.569-7.73,5.464A55.051,55.051,0,0,1,16246.082-8706.036Z" transform="translate(-16097.265 8749.838)" fill="#b0654b" stroke="#923b2e" stroke-width="3"/>
      <path id="Pfad_523" data-name="Pfad 523" d="M16246.082-8706.036v18.705s17.346,21.444,42.408-.253v-19.3s-19.355-1.7-20.484-11.19c-.285-2.391-.141.793-2.09,3.471-.187.463-3.279,3.569-7.73,5.464A55.051,55.051,0,0,1,16246.082-8706.036Z" transform="translate(-16119.942 8780.075)" fill="#b0654b" stroke="#923b2e" stroke-width="3"/>
      <path id="Pfad_515" data-name="Pfad 515" d="M16246.082-8706.036v18.705s17.346,21.444,42.408-.253v-19.3s-19.355-1.7-20.484-11.19c-.285-2.391-.141.793-2.09,3.471-.187.463-3.279,3.569-7.73,5.464A55.051,55.051,0,0,1,16246.082-8706.036Z" transform="translate(-16160.578 8718.913)" fill="#b0654b" stroke="#923b2e" stroke-width="3"/>
      <path id="Pfad_520" data-name="Pfad 520" d="M16246.082-8706.036v18.705s17.346,21.444,42.408-.253v-19.3s-19.355-1.7-20.484-11.19c-.285-2.391-.141.793-2.09,3.471-.187.463-3.279,3.569-7.73,5.464A55.051,55.051,0,0,1,16246.082-8706.036Z" transform="translate(-16140.061 8749.838)" fill="#b0654b" stroke="#923b2e" stroke-width="3"/>
      <path id="Pfad_524" data-name="Pfad 524" d="M16246.082-8706.036v18.705s17.346,21.444,42.408-.253v-19.3s-19.355-1.7-20.484-11.19c-.285-2.391-.141.793-2.09,3.471-.187.463-3.279,3.569-7.73,5.464A55.051,55.051,0,0,1,16246.082-8706.036Z" transform="translate(-16162.738 8780.075)" fill="#b0654b" stroke="#923b2e" stroke-width="3"/>
      <path id="Pfad_516" data-name="Pfad 516" d="M16246.082-8706.036v18.705s17.346,21.444,42.408-.253v-19.3s-19.355-1.7-20.484-11.19c-.285-2.391-.141.793-2.09,3.471-.187.463-3.279,3.569-7.73,5.464A55.051,55.051,0,0,1,16246.082-8706.036Z" transform="translate(-16075.372 8718.913)" fill="#b0654b" stroke="#923b2e" stroke-width="3"/>
      <path id="Pfad_518" data-name="Pfad 518" d="M16246.082-8706.036v18.705s17.346,21.444,42.408-.253v-19.3s-19.355-1.7-20.484-11.19c-.285-2.391-.141.793-2.09,3.471-.187.463-3.279,3.569-7.73,5.464A55.051,55.051,0,0,1,16246.082-8706.036Z" transform="translate(-16054.855 8749.838)" fill="#b0654b" stroke="#923b2e" stroke-width="3"/>
      <path id="Pfad_522" data-name="Pfad 522" d="M16246.082-8706.036v18.705s17.346,21.444,42.408-.253v-19.3s-19.355-1.7-20.484-11.19c-.285-2.391-.141.793-2.09,3.471-.187.463-3.279,3.569-7.73,5.464A55.051,55.051,0,0,1,16246.082-8706.036Z" transform="translate(-16077.533 8780.075)" fill="#b0654b" stroke="#923b2e" stroke-width="3"/>
      <path id="Pfad_539" data-name="Pfad 539" d="M16246.082-8706.036v18.705s17.346,21.444,42.408-.253v-19.3s-19.355-1.7-20.484-11.19c-.285-2.391-.141.793-2.09,3.471-.187.463-3.279,3.569-7.73,5.464A55.051,55.051,0,0,1,16246.082-8706.036Z" transform="translate(-16034.851 8779.972)" fill="#b0654b" stroke="#923b2e" stroke-width="3"/>
      <path id="Pfad_533" data-name="Pfad 533" d="M16462.1-8662.253l13.359-3.644,4.834-3.073.639,2.456-9.629,5.292-8.574,1.69Z" transform="translate(-16270.553 8703.292)" fill="#923b2e"/>
      <path id="Pfad_534" data-name="Pfad 534" d="M16399.359-8662.137l12.684-2.471,5.668-3.988,1.043,2.021-11,5.946-8.391,1.509Z" transform="translate(-16250.93 8703.174)" fill="#923b2e"/>
      <path id="Pfad_535" data-name="Pfad 535" d="M16336.553-8662.2l11.844-1.816,7.1-4.793.859,1.932-13.01,6.543h-6.5Z" transform="translate(-16231.283 8703.242)" fill="#923b2e"/>
      <path id="Pfad_536" data-name="Pfad 536" d="M16373.2-8667.835l3.9,3.479,2.787.3Z" transform="translate(-16242.747 8702.937)" fill="#923b2e"/>
      <path id="Pfad_537" data-name="Pfad 537" d="M16274.878-8659.51l-.291-2.5,14.041-3.048,4.608-3.379,1.039,1.8-7.17,4.629Z" transform="translate(-16211.901 8703.125)" fill="#923b2e"/>
    </g>
  </g>
</svg>
