<svg xmlns="http://www.w3.org/2000/svg" xmlns:xlink="http://www.w3.org/1999/xlink" width="277" height="276" viewBox="0 0 277 276">
  <defs>
    <clipPath id="clip-doppelhaus">
      <rect width="277" height="276"/>
    </clipPath>
  </defs>
  <g id="doppelhaus" clip-path="url(#clip-doppelhaus)">
    <g id="Gruppe_1578" data-name="Gruppe 1578" transform="translate(0 7.904)">
      <g id="Gruppe_1577" data-name="Gruppe 1577">
        <path id="Pfad_185" data-name="Pfad 185" d="M19750.965-12225.258l-54.014-17.637v114.818l54.014-6.674Z" transform="translate(-19494.754 12376.4)" fill="#e7b967"/>
        <g id="Gruppe_1503" data-name="Gruppe 1503" transform="translate(-632.482 -151.538)">
          <path id="Pfad_194" data-name="Pfad 194" d="M19927.979-12228.163l92.465-6.218v107.592l-92.465-2.052Z" transform="translate(-19275.172 12524.709)" fill="#d6ab5d"/>
          <path id="Pfad_193" data-name="Pfad 193" d="M19873.223-12128.1l-89.258-1.529v-108.23l88.945-5.105Z" transform="translate(-19038.549 12527.967)" fill="#f9c975"/>
          <path id="Pfad_186" data-name="Pfad 186" d="M19742.369-12201.831v18.211l-21.621-2.707v-19.265Z" transform="translate(-18868.447 12513.793)" fill="#d1d1d1"/>
          <path id="Pfad_187" data-name="Pfad 187" d="M19838.93-12208.473v19.729h-26.2v-19.729Z" transform="translate(-19022.111 12514.884)" fill="#d1d1d1"/>
          <path id="Pfad_188" data-name="Pfad 188" d="M19901.838-12205.592v19.631h-25.6v-19.631Z" transform="translate(-19124.447 12513.793)" fill="#d1d1d1"/>
          <path id="Pfad_189" data-name="Pfad 189" d="M19868.441-12126.246v38.679H19843.9v-38.679Z" transform="translate(-19070.973 12483.703)" fill="#d1d1d1"/>
          <path id="Pfad_190" data-name="Pfad 190" d="M19986.719-12200.5v17.386h-21.164v-17.386Z" transform="translate(-19264.777 12511.862)" fill="#d1d1d1"/>
          <path id="Pfad_191" data-name="Pfad 191" d="M19984.879-12200.5v17.386h-19.324v-17.386Z" transform="translate(-19297.33 12514.347)" fill="#d1d1d1"/>
          <path id="Pfad_192" data-name="Pfad 192" d="M20014.98-12126.246v36.288h-20.947v-36.288Z" transform="translate(-19310.717 12483.703)" fill="#d1d1d1"/>
          <path id="Pfad_195" data-name="Pfad 195" d="M19935.049-12257.945l-65.826-59.056-139.121,14.476-48.148,37.867v2.933l187.27-13.842,65.826,21.009Z" transform="translate(-19037.043 12556.039)" fill="#e7b967"/>
          <path id="Pfad_196" data-name="Pfad 196" d="M20014.543-12305.236l-21.512,39.915-100.777,7.973v-3.472l48.035-37.46Z" transform="translate(-19247.09 12551.577)" fill="#d6ab5d"/>
          <path id="Pfad_197" data-name="Pfad 197" d="M20012.355-12300.205l-19.988,34.842-90.227,6.632,43.811-35.125Z" transform="translate(-19251.045 12549.67)" fill="#d1d1d1"/>
          <path id="Pfad_198" data-name="Pfad 198" d="M19938.391-12295.053l-7.316,11.922-21.656,2.485,9.816-13.546Z" transform="translate(-19181.598 12547.717)" fill="#006f39"/>
          <path id="Pfad_199" data-name="Pfad 199" d="M19937.873-12296.812l-8.172,13.015-21.656,2.484,9.818-13.544Z" transform="translate(-19192.988 12565.146)" fill="#006f39"/>
          <path id="Pfad_200" data-name="Pfad 200" d="M19936.813-12296.562l-10.1,13.959-21.457,1.386,12.875-13.445Z" transform="translate(-19216.787 12566.913)" fill="#006f39"/>
          <path id="Pfad_203" data-name="Pfad 203" d="M19938.391-12295.053l-7.316,11.922-21.656,2.485,9.3-12.565Z" transform="translate(-19205.283 12549.579)" fill="#006f39"/>
          <path id="Pfad_201" data-name="Pfad 201" d="M19939.693-12295.812l-10.068,12.393-24.648,1.377,15.521-12.08Z" transform="translate(-19245.617 12569.731)" fill="#006f39"/>
          <path id="Pfad_202" data-name="Pfad 202" d="M19938.391-12295.053l-7.316,11.922-21.656,2.485,13.883-13.6Z" transform="translate(-19230.115 12552.684)" fill="#006f39"/>
        </g>
      </g>
      <g id="Gruppe_1507" data-name="Gruppe 1507" transform="translate(12.428 11.867)">
        <g id="Ellipse_21" data-name="Ellipse 21" transform="translate(19.322 23.118)" fill="#f0c34f" stroke="#f0c34f" stroke-width="1">
          <ellipse cx="10.351" cy="10.351" rx="10.351" ry="10.351" stroke="none"/>
          <ellipse cx="10.351" cy="10.351" rx="9.851" ry="9.851" fill="none"/>
        </g>
        <line id="Linie_37" data-name="Linie 37" y1="13.112" transform="translate(29.329 0)" fill="none" stroke="#f0c34f" stroke-width="1"/>
        <line id="Linie_43" data-name="Linie 43" y2="13.112" transform="translate(29.329 52.447)" fill="none" stroke="#f0c34f" stroke-width="1"/>
        <line id="Linie_39" data-name="Linie 39" y2="13.112" transform="translate(13.112 33.469) rotate(90)" fill="none" stroke="#f0c34f" stroke-width="1"/>
        <line id="Linie_42" data-name="Linie 42" y1="13.112" transform="translate(58.657 32.779) rotate(90)" fill="none" stroke="#f0c34f" stroke-width="1"/>
        <line id="Linie_38" data-name="Linie 38" x1="11.041" y1="11.041" transform="translate(7.591 8.626)" fill="none" stroke="#f0c34f" stroke-width="1"/>
        <line id="Linie_45" data-name="Linie 45" x1="11.041" y2="11.041" transform="translate(7.591 45.891)" fill="none" stroke="#f0c34f" stroke-width="1"/>
        <line id="Linie_41" data-name="Linie 41" y1="11.041" x2="11.041" transform="translate(40.025 7.936)" fill="none" stroke="#f0c34f" stroke-width="1"/>
        <line id="Linie_44" data-name="Linie 44" x2="11.041" y2="11.041" transform="translate(40.025 46.581)" fill="none" stroke="#f0c34f" stroke-width="1"/>
      </g>
    </g>
  </g>
</svg>
