<svg xmlns="http://www.w3.org/2000/svg" xmlns:xlink="http://www.w3.org/1999/xlink" width="277" height="226" viewBox="0 0 277 226">
  <defs>
    <clipPath id="clip-finanzieren">
      <rect width="277" height="226"/>
    </clipPath>
  </defs>
  <g id="finanzieren" clip-path="url(#clip-finanzieren)">
    <g id="C_-_38_x2C__hand_x2C__dollar_x2C__money_x2C__currency_x2C__charity" transform="translate(-4.851 -24.613)">
      <g id="Gruppe_1486" data-name="Gruppe 1486" transform="translate(51.956 41.277)">
        <path id="Pfad_320" data-name="Pfad 320" d="M200.959,72.086a3.4,3.4,0,0,0-1.681,1.246,3.215,3.215,0,0,0-.617,1.913,3.075,3.075,0,0,0,.563,1.778,3.9,3.9,0,0,0,1.735,1.319Z" transform="translate(-132.711 -58.236)" fill="#f7aa20"/>
        <path id="Pfad_321" data-name="Pfad 321" d="M212.706,102.6a3.169,3.169,0,0,0-.723-2.08,4.57,4.57,0,0,0-2.352-1.345v7.078a3.9,3.9,0,0,0,2.214-1.3A3.482,3.482,0,0,0,212.706,102.6Z" transform="translate(-138.749 -73.146)" fill="#f7aa20"/>
        <path id="Pfad_322" data-name="Pfad 322" d="M301.023,199.5a20.1,20.1,0,1,0-20.2-20.1A20.173,20.173,0,0,0,301.023,199.5Zm-6.466-22.215a7.682,7.682,0,0,1-1.652-4.974,7.043,7.043,0,0,1,1.866-4.973,7.469,7.469,0,0,1,4.956-2.321v-1.777h2.632v1.777a7.837,7.837,0,0,1,4.6,1.964,7.552,7.552,0,0,1,2.179,4.331l-4.594.592a3.71,3.71,0,0,0-2.185-2.889v7.054q4.363,1.168,5.941,3.038a7.151,7.151,0,0,1,1.582,4.793,8,8,0,0,1-1.989,5.506,8.966,8.966,0,0,1-5.534,2.79v3.368h-2.632v-3.332a8.391,8.391,0,0,1-5.065-2.308,9.512,9.512,0,0,1-2.5-5.467l4.71-.557a5.927,5.927,0,0,0,1.086,2.488,4.957,4.957,0,0,0,1.768,1.513v-7.56A9.869,9.869,0,0,1,294.557,177.287Z" transform="translate(-177.937 -106.247)" fill="#f7aa20"/>
        <path id="Pfad_323" data-name="Pfad 323" d="M181.92,90.844a20.1,20.1,0,1,0-20.2-20.1A20.173,20.173,0,0,0,181.92,90.844ZM175.453,68.63a7.686,7.686,0,0,1-1.648-4.975,7.039,7.039,0,0,1,1.863-4.975,7.478,7.478,0,0,1,4.956-2.32V54.583h2.633v1.778a7.821,7.821,0,0,1,4.6,1.962,7.587,7.587,0,0,1,2.182,4.333l-4.6.592a3.7,3.7,0,0,0-2.186-2.889v7.054c2.908.777,4.891,1.8,5.939,3.035a7.157,7.157,0,0,1,1.583,4.8,7.98,7.98,0,0,1-1.99,5.506,8.988,8.988,0,0,1-5.533,2.79v3.368h-2.633V83.576a8.4,8.4,0,0,1-5.065-2.309,9.506,9.506,0,0,1-2.5-5.466l4.709-.556a6,6,0,0,0,1.085,2.488,5.006,5.006,0,0,0,1.769,1.51v-7.56A9.876,9.876,0,0,1,175.453,68.63Z" transform="translate(-112.375 -46.436)" fill="#f7aa20"/>
        <path id="Pfad_324" data-name="Pfad 324" d="M331.808,211.254a3.166,3.166,0,0,0-.723-2.078,4.549,4.549,0,0,0-2.352-1.346v7.078a3.921,3.921,0,0,0,2.215-1.3A3.5,3.5,0,0,0,331.808,211.254Z" transform="translate(-204.31 -132.958)" fill="#f7aa20"/>
        <path id="Pfad_325" data-name="Pfad 325" d="M320.064,180.742a3.4,3.4,0,0,0-1.68,1.247,3.207,3.207,0,0,0-.617,1.913,3.077,3.077,0,0,0,.562,1.778A3.91,3.91,0,0,0,320.064,187Z" transform="translate(-198.273 -118.047)" fill="#f7aa20"/>
        <path id="Pfad_326" data-name="Pfad 326" d="M256.819,290.891a17.6,17.6,0,0,0-2.38.15c-11.247,1.55-29.323,9.527-38.888,17.136-2.351,3.441-7.166,5.166-14.563,5.166-6.988,0-16.271-1.534-27.941-4.6l-.838-.219a2.106,2.106,0,0,1,1.059-4.077l.85.223c28.645,7.528,36.126,3.95,38.018,1.053.086-.2.178-.4.279-.615a5.965,5.965,0,0,0,.842-3.094C211.48,290.773,181,285.718,159.92,285.718a70.662,70.662,0,0,0-12.441.864c-10.265,2.026-24.2,9.157-32.863,14.008h0c4.618,5.475,11.339,16.307,16.258,25.129l.013.022q.314.563.618,1.114l.022.041q.295.535.579,1.057l.019.036c.174.32.344.635.512.948l.122.228q.229.428.45.844l.145.275q.171.324.335.64l.2.388q.15.288.293.57c.061.118.121.235.179.351.108.213.215.423.319.63.063.125.124.248.185.37s.126.254.188.38c.092.187.181.37.269.55l.155.321.112.232c7.425-2.708,13.949-4.027,19.892-4.027,8.008,0,14.057,2.393,19.907,4.708,6.077,2.4,12.361,4.89,21.243,4.89,1.241,0,2.526-.049,3.82-.145,7.418-.55,24.761-8.023,41.237-17.77,19.752-11.684,28.466-20.828,28.2-24.378C269.515,292.782,261.866,290.891,256.819,290.891Z" transform="translate(-86.448 -175.832)" fill="#006f39"/>
        <path id="Pfad_327" data-name="Pfad 327" d="M154.477,186.23a2.107,2.107,0,0,0,2.107-2.107v-22.2a2.107,2.107,0,1,0-4.213,0v22.2A2.107,2.107,0,0,0,154.477,186.23Z" transform="translate(-107.23 -106.527)" fill="#f7aa20"/>
        <path id="Pfad_328" data-name="Pfad 328" d="M182.142,171.8v31.086a2.107,2.107,0,1,0,4.213,0V171.8a2.107,2.107,0,0,0-4.213,0Z" transform="translate(-123.618 -111.963)" fill="#f7aa20"/>
        <path id="Pfad_329" data-name="Pfad 329" d="M293.423,67.693a2.107,2.107,0,0,0,2.107-2.107v-22.2a2.107,2.107,0,1,0-4.213,0v22.2A2.107,2.107,0,0,0,293.423,67.693Z" transform="translate(-183.714 -41.277)" fill="#f7aa20"/>
        <path id="Pfad_330" data-name="Pfad 330" d="M323.2,86.454a2.107,2.107,0,0,0,2.107-2.107V53.264a2.107,2.107,0,0,0-4.213,0V84.348A2.107,2.107,0,0,0,323.2,86.454Z" transform="translate(-200.103 -46.716)" fill="#f7aa20"/>
        <path id="Pfad_331" data-name="Pfad 331" d="M216.044,379.674l-149.175,0c1.594-.831,3.417-1.766,5.366-2.765,5.346-2.741,12-6.153,17.371-9.2,8.435-4.786,9.582-6.371,9.726-6.64.715-1.577.29-4.222-1.269-7.85-.885-2.061-2.3-4.873-4.013-8.042-5.528-10.209-14.207-24.109-18.548-28.409-.06-.059-.12-.119-.178-.174-2.623-2.5-4.225-3.62-5.194-3.62a2.212,2.212,0,0,0-1.006.294c-3.884,1.914-15.987,11.461-17.106,13.8-.13.272-.184.385,1.175,1.846a12.625,12.625,0,0,1,3.428,5.61c1.911,7.614.879,16.786-.119,25.656-.993,8.832-1.932,17.175.067,23.027.08.232.169.5,1.049.5a5.571,5.571,0,0,0,1.152-.145,2.092,2.092,0,0,0,1.118.327l156.157,0a2.106,2.106,0,1,0,0-4.213ZM76.612,351.368a4.44,4.44,0,1,1-3.929,4.912A4.456,4.456,0,0,1,76.612,351.368Z" transform="translate(-51.956 -190.833)" fill="#006f39"/>
      </g>
    </g>
  </g>
</svg>
