<svg xmlns="http://www.w3.org/2000/svg" xmlns:xlink="http://www.w3.org/1999/xlink" width="362" height="226" viewBox="0 0 362 226">
  <defs>
    <clipPath id="clip-freiland">
      <rect width="362" height="226"/>
    </clipPath>
  </defs>
  <g id="freiland" clip-path="url(#clip-freiland)">
    <g id="Gruppe_1497" data-name="Gruppe 1497" transform="translate(-40.686 28.909)">
      <g id="Gruppe_1574" data-name="Gruppe 1574" transform="translate(1.354)">
        <path id="Pfad_140" data-name="Pfad 140" d="M20112.1-15733.062h37.793v9.641l-149.248,28.335h-200.715l71.629-15.853,183.277-31.864Z" transform="translate(-19754.582 15835.866)" fill="#e8b964"/>
        <g id="Gruppe_1479" data-name="Gruppe 1479" transform="translate(59.472 -11)">
          <g id="Ellipse_21" data-name="Ellipse 21" transform="translate(18.632 23.118)" fill="#f0c34f" stroke="#f0c34f" stroke-width="1">
            <circle cx="10.351" cy="10.351" r="10.351" stroke="none"/>
            <circle cx="10.351" cy="10.351" r="9.851" fill="none"/>
          </g>
          <line id="Linie_37" data-name="Linie 37" y1="13.112" transform="translate(29.329)" fill="none" stroke="#f0c34f" stroke-width="1"/>
          <line id="Linie_43" data-name="Linie 43" y2="13.112" transform="translate(29.329 52.447)" fill="none" stroke="#f0c34f" stroke-width="1"/>
          <line id="Linie_39" data-name="Linie 39" y1="13.112" transform="translate(58.657 33.469) rotate(90)" fill="none" stroke="#f0c34f" stroke-width="1"/>
          <line id="Linie_42" data-name="Linie 42" y2="13.112" transform="translate(13.112 32.779) rotate(90)" fill="none" stroke="#f0c34f" stroke-width="1"/>
          <line id="Linie_38" data-name="Linie 38" y1="11.041" x2="11.041" transform="translate(40.025 8.626)" fill="none" stroke="#f0c34f" stroke-width="1"/>
          <line id="Linie_45" data-name="Linie 45" x2="11.041" y2="11.041" transform="translate(40.025 45.891)" fill="none" stroke="#f0c34f" stroke-width="1"/>
          <line id="Linie_41" data-name="Linie 41" x1="11.041" y1="11.041" transform="translate(7.591 7.936)" fill="none" stroke="#f0c34f" stroke-width="1"/>
          <line id="Linie_44" data-name="Linie 44" x1="11.041" y2="11.041" transform="translate(7.591 46.581)" fill="none" stroke="#f0c34f" stroke-width="1"/>
        </g>
        <line id="Linie_46" data-name="Linie 46" x2="0.48" y2="41.273" transform="translate(381.122 67.293)" fill="none" stroke="#d1d1d1" stroke-width="3"/>
        <line id="Linie_47" data-name="Linie 47" y2="9.598" transform="translate(354.728 104.246)" fill="none" stroke="#d1d1d1" stroke-width="3"/>
        <line id="Linie_48" data-name="Linie 48" y2="7.679" transform="translate(320.653 106.166)" fill="none" stroke="#d1d1d1" stroke-width="3"/>
        <line id="Linie_49" data-name="Linie 49" y2="6.719" transform="translate(286.1 106.166)" fill="none" stroke="#d1d1d1" stroke-width="3"/>
        <line id="Linie_50" data-name="Linie 50" y2="48.951" transform="translate(275.541 80.73)" fill="none" stroke="#d1d1d1" stroke-width="3"/>
        <line id="Linie_51" data-name="Linie 51" y2="11.038" transform="translate(242.428 124.883)" fill="none" stroke="#d1d1d1" stroke-width="3"/>
        <line id="Linie_52" data-name="Linie 52" y2="10.558" transform="translate(200.195 125.362)" fill="none" stroke="#d1d1d1" stroke-width="3"/>
        <line id="Linie_53" data-name="Linie 53" y2="10.558" transform="translate(159.402 125.362)" fill="none" stroke="#d1d1d1" stroke-width="3"/>
        <line id="Linie_54" data-name="Linie 54" y2="10.078" transform="translate(118.13 125.362)" fill="none" stroke="#d1d1d1" stroke-width="3"/>
        <path id="Pfad_138" data-name="Pfad 138" d="M20253.273-15768.5l-32.676,44.146-170.01-.1,43.053-44.045Z" transform="translate(-19978.256 15849.23)" fill="#d1d1d1"/>
        <path id="Pfad_139" data-name="Pfad 139" d="M19972.871-15796.5l-26.393,36.833h-96.93l17.748-23.925h-37.8l11.6-12.794Z" transform="translate(-19591.748 15863.793)" fill="#d1d1d1"/>
        <path id="Pfad_141" data-name="Pfad 141" d="M19855.645-15794.587l-6.924,9.871H19835.2l7.57-9.871Z" transform="translate(-19477.26 15862.798)" fill="#006f39"/>
        <path id="Pfad_149" data-name="Pfad 149" d="M19855.645-15794.587l-6.924,9.871H19835.2l7.57-9.871Z" transform="translate(-19487.723 15875.121)" fill="#006f39"/>
        <path id="Pfad_154" data-name="Pfad 154" d="M19855.645-15794.587l-6.924,9.871H19835.2l7.57-9.871Z" transform="translate(-19496.361 15887.444)" fill="#006f39"/>
        <path id="Pfad_142" data-name="Pfad 142" d="M19855.645-15794.587l-6.924,9.871H19835.2l7.57-9.871Z" transform="translate(-19494.057 15862.798)" fill="#006f39"/>
        <path id="Pfad_150" data-name="Pfad 150" d="M19855.645-15794.587l-6.924,9.871H19835.2l7.57-9.871Z" transform="translate(-19504.52 15875.121)" fill="#006f39"/>
        <path id="Pfad_155" data-name="Pfad 155" d="M19855.645-15794.587l-6.924,9.871H19835.2l7.57-9.871Z" transform="translate(-19513.158 15887.444)" fill="#006f39"/>
        <path id="Pfad_143" data-name="Pfad 143" d="M19855.645-15794.587l-6.924,9.871H19835.2l7.57-9.871Z" transform="translate(-19510.854 15863.278)" fill="#006f39"/>
        <path id="Pfad_151" data-name="Pfad 151" d="M19855.645-15794.587l-6.924,9.871H19835.2l7.57-9.871Z" transform="translate(-19521.316 15875.601)" fill="#006f39"/>
        <path id="Pfad_156" data-name="Pfad 156" d="M19855.645-15794.587l-6.924,9.871H19835.2l7.57-9.871Z" transform="translate(-19529.955 15887.925)" fill="#006f39"/>
        <path id="Pfad_144" data-name="Pfad 144" d="M19855.645-15794.587l-6.924,9.871H19835.2l7.57-9.871Z" transform="translate(-19527.172 15863.278)" fill="#006f39"/>
        <path id="Pfad_152" data-name="Pfad 152" d="M19855.645-15794.587l-6.924,9.871H19835.2l7.57-9.871Z" transform="translate(-19537.633 15875.601)" fill="#006f39"/>
        <path id="Pfad_157" data-name="Pfad 157" d="M19855.645-15794.587l-6.924,9.871H19835.2l7.57-9.871Z" transform="translate(-19546.271 15887.925)" fill="#006f39"/>
        <path id="Pfad_158" data-name="Pfad 158" d="M19855.645-15794.587l-6.924,9.871H19835.2l7.57-9.871Z" transform="translate(-19565.469 15887.925)" fill="#006f39"/>
        <path id="Pfad_145" data-name="Pfad 145" d="M19855.645-15794.587l-6.924,9.871H19835.2l7.57-9.871Z" transform="translate(-19543.967 15863.278)" fill="#006f39"/>
        <path id="Pfad_153" data-name="Pfad 153" d="M19855.645-15794.587l-6.924,9.871H19835.2l7.57-9.871Z" transform="translate(-19554.432 15875.601)" fill="#006f39"/>
        <path id="Pfad_146" data-name="Pfad 146" d="M19855.645-15794.587l-6.924,9.871H19835.2l7.57-9.871Z" transform="translate(-19560.766 15863.278)" fill="#006f39"/>
        <path id="Pfad_147" data-name="Pfad 147" d="M19855.645-15794.587l-6.924,9.871H19835.2l7.57-9.871Z" transform="translate(-19576.602 15863.278)" fill="#006f39"/>
        <path id="Pfad_148" data-name="Pfad 148" d="M19855.645-15794.587l-6.924,9.871H19835.2l7.57-9.871Z" transform="translate(-19593.398 15863.278)" fill="#006f39"/>
        <path id="Pfad_159" data-name="Pfad 159" d="M20045.191-15767.91l-6.742,8.973h-9.33l6.408-8.973Z" transform="translate(-19759.869 15848.924)" fill="#006f39"/>
        <path id="Pfad_160" data-name="Pfad 160" d="M20066.254-15742.23l-5.771,8.65h-7.617l6.891-8.65Z" transform="translate(-19792.33 15835.568)" fill="#006f39"/>
        <path id="Pfad_161" data-name="Pfad 161" d="M20085.07-15768.414l-7.879,12.064h-16.926l9.926-12.53Z" transform="translate(-19814.697 15849.429)" fill="#006f39"/>
        <path id="Pfad_176" data-name="Pfad 176" d="M20085.07-15768.414l-7.879,12.064h-16.926l9.926-12.53Z" transform="translate(-19826.154 15863.944)" fill="#006f39"/>
        <path id="Pfad_184" data-name="Pfad 184" d="M20085.07-15768.414l-7.879,12.064h-16.926l9.926-12.53Z" transform="translate(-19836.92 15878.461)" fill="#006f39"/>
        <path id="Pfad_162" data-name="Pfad 162" d="M20085.07-15768.414l-7.879,12.064h-16.926l9.926-12.53Z" transform="translate(-19834.916 15849.429)" fill="#006f39"/>
        <path id="Pfad_175" data-name="Pfad 175" d="M20085.07-15768.414l-7.879,12.064h-16.926l9.926-12.53Z" transform="translate(-19846.375 15863.944)" fill="#006f39"/>
        <path id="Pfad_183" data-name="Pfad 183" d="M20085.07-15768.414l-7.879,12.064h-16.926l9.926-12.53Z" transform="translate(-19857.143 15878.461)" fill="#006f39"/>
        <path id="Pfad_163" data-name="Pfad 163" d="M20085.07-15768.414l-7.879,12.064h-16.926l9.926-12.53Z" transform="translate(-19854.594 15849.429)" fill="#006f39"/>
        <path id="Pfad_174" data-name="Pfad 174" d="M20085.07-15768.414l-7.879,12.064h-16.926l9.926-12.53Z" transform="translate(-19866.051 15863.944)" fill="#006f39"/>
        <path id="Pfad_182" data-name="Pfad 182" d="M20085.07-15768.414l-7.879,12.064h-16.926l9.926-12.53Z" transform="translate(-19879.402 15879.536)" fill="#006f39"/>
        <path id="Pfad_164" data-name="Pfad 164" d="M20085.07-15768.414l-7.879,12.064h-16.926l9.926-12.53Z" transform="translate(-19875.23 15849.429)" fill="#006f39"/>
        <path id="Pfad_173" data-name="Pfad 173" d="M20085.07-15768.414l-7.879,12.064h-16.926l9.926-12.53Z" transform="translate(-19886.686 15863.944)" fill="#006f39"/>
        <path id="Pfad_181" data-name="Pfad 181" d="M20085.07-15768.414l-7.879,12.064h-16.926l9.926-12.53Z" transform="translate(-19899.092 15879.536)" fill="#006f39"/>
        <path id="Pfad_165" data-name="Pfad 165" d="M20085.07-15768.414l-7.879,12.064h-16.926l9.926-12.53Z" transform="translate(-19895.387 15849.429)" fill="#006f39"/>
        <path id="Pfad_172" data-name="Pfad 172" d="M20085.07-15768.414l-7.879,12.064h-16.926l9.926-12.53Z" transform="translate(-19906.842 15863.944)" fill="#006f39"/>
        <path id="Pfad_180" data-name="Pfad 180" d="M20085.07-15768.414l-7.879,12.064h-16.926l9.926-12.53Z" transform="translate(-19920.195 15878.461)" fill="#006f39"/>
        <path id="Pfad_166" data-name="Pfad 166" d="M20085.07-15768.414l-7.879,12.064h-16.926l9.926-12.53Z" transform="translate(-19915.063 15849.429)" fill="#006f39"/>
        <path id="Pfad_171" data-name="Pfad 171" d="M20085.07-15768.414l-7.879,12.064h-16.926l9.926-12.53Z" transform="translate(-19926.518 15863.944)" fill="#006f39"/>
        <path id="Pfad_179" data-name="Pfad 179" d="M20085.07-15768.414l-7.879,12.064h-16.926l9.926-12.53Z" transform="translate(-19939.871 15878.461)" fill="#006f39"/>
        <path id="Pfad_167" data-name="Pfad 167" d="M20085.07-15768.414l-7.879,12.064h-16.926l9.926-12.53Z" transform="translate(-19935.219 15849.429)" fill="#006f39"/>
        <path id="Pfad_170" data-name="Pfad 170" d="M20085.07-15768.414l-7.879,12.064h-16.926l9.926-12.53Z" transform="translate(-19946.676 15863.944)" fill="#006f39"/>
        <path id="Pfad_178" data-name="Pfad 178" d="M20085.07-15768.414l-7.879,12.064h-16.926l9.926-12.53Z" transform="translate(-19960.027 15878.461)" fill="#006f39"/>
        <path id="Pfad_168" data-name="Pfad 168" d="M20085.07-15768.414l-7.879,12.064h-16.926l9.926-12.53Z" transform="translate(-19954.539 15849.429)" fill="#006f39"/>
        <path id="Pfad_169" data-name="Pfad 169" d="M20085.07-15768.414l-7.879,12.064h-16.926l9.926-12.53Z" transform="translate(-19965.996 15863.944)" fill="#006f39"/>
        <path id="Pfad_177" data-name="Pfad 177" d="M20085.07-15768.414l-7.879,12.064h-16.926l9.926-12.53Z" transform="translate(-19981.564 15878.461)" fill="#006f39"/>
      </g>
    </g>
  </g>
</svg>
