<svg xmlns="http://www.w3.org/2000/svg" xmlns:xlink="http://www.w3.org/1999/xlink" width="277" height="226" viewBox="0 0 277 226">
  <defs>
    <clipPath id="clip-mieten">
      <rect width="277" height="226"/>
    </clipPath>
  </defs>
  <g id="mieten" clip-path="url(#clip-mieten)">
    <g id="Gruppe_1517" data-name="Gruppe 1517" transform="translate(61.494 22.325)">
      <g id="D_-_16_x2C__agreement_x2C__paper_x2C_Document_x2C__note_x2C__report" transform="translate(0 0)">
        <g id="Gruppe_1484" data-name="Gruppe 1484" transform="translate(0 0)">
          <path id="Pfad_313" data-name="Pfad 313" d="M304.54,384.749l-11.279-8.459-5.639,19.818Z" transform="translate(-187.453 -236.684)" fill="#006f39"/>
          <path id="Pfad_314" data-name="Pfad 314" d="M171.889,194.733c-.03.029-.064.051-.1.079a2.049,2.049,0,0,1-.167.135l-23.685,15.9-.009.007-.011.007a.262.262,0,0,1-.024.013,1.933,1.933,0,0,1-.209.118c-.026.013-.052.024-.078.035a1.831,1.831,0,0,1-.173.067c-.03.01-.059.019-.09.027-.06.017-.121.03-.183.041-.027,0-.053.011-.079.014a2.027,2.027,0,0,1-.267.02,1.978,1.978,0,0,1-.3-.024c-.016,0-.033-.008-.049-.011a1.864,1.864,0,0,1-.241-.057c-.031-.01-.061-.024-.091-.035a1.888,1.888,0,0,1-.188-.077c-.037-.018-.073-.041-.109-.062s-.086-.044-.127-.072c-.109-.074-11-7.318-17.765-3.936a14.215,14.215,0,0,1-6.355,1.294c-8.5,0-18.581-4.977-19.116-5.245a1.975,1.975,0,0,1,1.766-3.534c4.154,2.073,16.193,6.823,21.939,3.951,6.667-3.335,15.355.552,19.442,2.811l7.2-25.289a2.129,2.129,0,0,1,.087-.221c.02-.047.033-.1.056-.142a2.01,2.01,0,0,1,.215-.331l47.094-58.885V68.858H177.241a1.975,1.975,0,0,1-1.976-1.975V45.153H50.026V222.938H200.272V154.632l-28.134,39.815A1.946,1.946,0,0,1,171.889,194.733ZM67.8,60.956h68.151a1.976,1.976,0,0,1,0,3.951H67.8a1.976,1.976,0,1,1,0-3.951Zm0,19.754h102.72a1.975,1.975,0,1,1,0,3.951H67.8a1.975,1.975,0,1,1,0-3.951Zm0,11.852h102.72a1.976,1.976,0,1,1,0,3.951H67.8a1.976,1.976,0,1,1,0-3.951Zm92.843,37.532a1.976,1.976,0,0,1-1.976,1.976H83.608a1.976,1.976,0,1,1,0-3.951h75.065A1.976,1.976,0,0,1,160.648,130.095ZM67.8,104.415h68.151a1.976,1.976,0,0,1,0,3.951H67.8a1.976,1.976,0,1,1,0-3.951Zm0,11.852h51.36a1.976,1.976,0,0,1,0,3.951H67.8a1.976,1.976,0,1,1,0-3.951Zm-1.976,25.68a1.976,1.976,0,0,1,1.976-1.976h90.868a1.976,1.976,0,0,1,0,3.951H67.8A1.976,1.976,0,0,1,65.829,141.947Z" transform="translate(-50.026 -45.153)" fill="#f7aa20"/>
          <path id="Pfad_315" data-name="Pfad 315" d="M356.457,47.154v18.91H375.71Z" transform="translate(-227.267 -46.31)" fill="#f7aa20"/>
          <path id="Pfad_316" data-name="Pfad 316" d="M305.035,290.569l12.547,9.41,30.551-43.234.026-.035,11.229-15.166-9.445-7.125Z" transform="translate(-197.524 -154.624)" fill="#006f39"/>
          <path id="Pfad_317" data-name="Pfad 317" d="M426.628,196.975l-9.363,12.654,9.394,7.087,9.455-12.651Z" transform="translate(-262.438 -132.967)" fill="#006f39"/>
        </g>
      </g>
    </g>
  </g>
</svg>
