<svg xmlns="http://www.w3.org/2000/svg" xmlns:xlink="http://www.w3.org/1999/xlink" width="277" height="196" viewBox="0 0 277 196">
  <defs>
    <clipPath id="clip-nichtbewohnen">
      <rect width="277" height="196"/>
    </clipPath>
  </defs>
  <g id="nichtbewohnen" clip-path="url(#clip-nichtbewohnen)">
    <g id="Gruppe_1582" data-name="Gruppe 1582" transform="translate(-12077.436 11575.91)">
      <g id="Gruppe_1580" data-name="Gruppe 1580" transform="translate(12091.872 -11546.5)">
        <path id="Pfad_335" data-name="Pfad 335" d="M19145.133-16437.127l47.7,53.793v2.838L19074.295-16396l-45.1-51.094-34.822,69.922h-7.625l37.945-82.607Z" transform="translate(-18986.75 16459.783)" fill="rgba(247,170,32,0.63)" opacity="0.973"/>
        <path id="Pfad_334" data-name="Pfad 334" d="M19119.52-16319.313v52.441l-103.113,2.749v-70.758Z" transform="translate(-18929.055 16400.691)" fill="#e8b964" opacity="0.973"/>
        <path id="Pfad_349" data-name="Pfad 349" d="M19290.75-16379.646l-.678-.8-42.684-48.52-32.977,68.42v51.91h76.027l.311-70.989" transform="translate(-19204.559 16445.201)" fill="#fac973" opacity="0.973"/>
        <path id="Pfad_336" data-name="Pfad 336" d="M19153.924-16379.716l-101.271-14.722-43.721-49.58,105.426,19.389Z" transform="translate(-18959.525 16452.322)" fill="#d1d1d1"/>
        <path id="Pfad_337" data-name="Pfad 337" d="M19090.322-16406.689l-19.3-3.271,9.471,11.178,19.328,3.449Z" transform="translate(-18938.131 16436.213)" fill="#006f39"/>
        <path id="Pfad_338" data-name="Pfad 338" d="M19090.322-16406.689l-19.3-3.271,9.471,11.178,19.328,3.449Z" transform="translate(-18925.201 16450.84)" fill="#006f39"/>
        <path id="Pfad_339" data-name="Pfad 339" d="M19090.322-16406.689l-19.3-3.271,9.471,11.178,19.328,3.449Z" transform="translate(-18911.502 16466.119)" fill="#006f39"/>
        <path id="Pfad_340" data-name="Pfad 340" d="M19090.322-16406.689l-19.3-3.271,9.471,11.178,19.328,3.449Z" transform="translate(-18962.367 16431.996)" fill="#006f39"/>
        <path id="Pfad_341" data-name="Pfad 341" d="M19090.322-16406.689l-19.3-3.271,9.471,11.178,19.328,3.449Z" transform="translate(-18949.438 16446.625)" fill="#006f39"/>
        <path id="Pfad_342" data-name="Pfad 342" d="M19090.322-16406.689l-19.3-3.271,9.471,11.178,19.328,3.449Z" transform="translate(-18935.738 16461.904)" fill="#006f39"/>
        <path id="Pfad_350" data-name="Pfad 350" d="M19090.322-16406.689l-19.3-3.271,9.471,11.178,19.328,3.449Z" transform="translate(-18987.133 16427.781)" fill="#006f39"/>
        <path id="Pfad_343" data-name="Pfad 343" d="M19090.322-16406.689l-19.3-3.271,9.471,11.178,19.328,3.449Z" transform="translate(-18974.199 16442.41)" fill="#006f39"/>
        <path id="Pfad_344" data-name="Pfad 344" d="M19090.322-16406.689l-19.3-3.271,9.471,11.178,19.328,3.449Z" transform="translate(-18960.502 16457.689)" fill="#006f39"/>
        <path id="Pfad_351" data-name="Pfad 351" d="M19090.322-16406.689l-19.3-3.271,9.471,11.178,19.328,3.449Z" transform="translate(-19012.465 16423.041)" fill="#006f39"/>
        <path id="Pfad_352" data-name="Pfad 352" d="M19090.322-16406.689l-19.3-3.271,9.471,11.178,19.328,3.449Z" transform="translate(-18999.535 16437.668)" fill="#006f39"/>
        <path id="Pfad_345" data-name="Pfad 345" d="M19090.322-16406.689l-19.3-3.271,9.471,11.178,19.328,3.449Z" transform="translate(-18985.838 16452.949)" fill="#006f39"/>
        <path id="Pfad_346" data-name="Pfad 346" d="M19067.4-16284.93l-14.934-1.121v18.826h14.934Z" transform="translate(-18895.943 16377.588)" fill="#d1d1d1"/>
        <path id="Pfad_347" data-name="Pfad 347" d="M19124.928-16289.8l-17.273-1.237-.768,43.55h18.041Z" transform="translate(-18982.143 16379.948)" fill="#d1d1d1"/>
        <path id="Pfad_348" data-name="Pfad 348" d="M19124.928-16289.753l-17.273-1.284-.768,45.209h18.041Z" transform="translate(-19001.109 16378.285)" fill="#d1d1d1"/>
        <path id="Pfad_353" data-name="Pfad 353" d="M19291.129-16285.552l-12.588,1.059v39.1h12.588Z" transform="translate(-19238.781 16377.352)" fill="#d1d1d1"/>
        <path id="Pfad_354" data-name="Pfad 354" d="M19291.578-16379.434v20.385l-11.859,1.759v-18.568Z" transform="translate(-19239.85 16421.77)" fill="#d1d1d1"/>
      </g>
      <g id="Ellipse_53" data-name="Ellipse 53" transform="translate(12256 -11493.32)" fill="#ba1313" stroke="#ba1313" stroke-width="5">
        <circle cx="42" cy="42" r="42" stroke="none"/>
        <circle cx="42" cy="42" r="39.5" fill="none"/>
      </g>
      <g id="Gruppe_1581" data-name="Gruppe 1581" transform="translate(12280.966 -11467.868)">
        <line id="Linie_57" data-name="Linie 57" x2="33.579" y2="32.546" transform="translate(0 0)" fill="none" stroke="#d1d1d1" stroke-linecap="round" stroke-width="20"/>
        <line id="Linie_58" data-name="Linie 58" y1="32.546" x2="33.579" transform="translate(0 0)" fill="none" stroke="#d1d1d1" stroke-linecap="round" stroke-width="20"/>
      </g>
    </g>
  </g>
</svg>
