<svg xmlns="http://www.w3.org/2000/svg" xmlns:xlink="http://www.w3.org/1999/xlink" width="306" height="276" viewBox="0 0 306 276">
  <defs>
    <clipPath id="clip-reihenhaus">
      <rect width="306" height="276"/>
    </clipPath>
  </defs>
  <g id="reihenhaus" clip-path="url(#clip-reihenhaus)">
    <g id="Gruppe_1579" data-name="Gruppe 1579" transform="translate(13.847 80)">
      <path id="Pfad_209" data-name="Pfad 209" d="M19799.266-12241.209l-74.555,4.475v83.311l74.555,2.365Z" transform="translate(-19589.598 12317.661)" fill="#f9c975"/>
      <path id="Pfad_204" data-name="Pfad 204" d="M19687.666-12221.354l-60.65-19.855v90.476l60.65-9.422Z" transform="translate(-19417.348 12317.661)" fill="#e7b967"/>
      <path id="Pfad_205" data-name="Pfad 205" d="M19677.207-12208.33v16.379l-25.328-2.347v-22.681Z" transform="translate(-19422.322 12308.474)" fill="#d1d1d1"/>
      <path id="Pfad_206" data-name="Pfad 206" d="M19767.32-12206.449v14.055h-20.059v-14.055Z" transform="translate(-19571.648 12304.48)" fill="#d1d1d1"/>
      <path id="Pfad_207" data-name="Pfad 207" d="M19812.828-12203.757v13.537h-16.094v-13.537Z" transform="translate(-19647.871 12303.46)" fill="#d1d1d1"/>
      <path id="Pfad_208" data-name="Pfad 208" d="M19789.783-12163.885v38.668h-26.367v-38.668Z" transform="translate(-19604.143 12288.341)" fill="#d1d1d1"/>
      <path id="Pfad_210" data-name="Pfad 210" d="M19919.129-12234.829l-74.328,5.576v78.288h74.328Z" transform="translate(-19784.014 12315.243)" fill="#d6ab5d"/>
      <path id="Pfad_211" data-name="Pfad 211" d="M19886.262-12196.822v11.607h-17.684v-11.607Z" transform="translate(-19765.908 12300.831)" fill="#d1d1d1"/>
      <path id="Pfad_212" data-name="Pfad 212" d="M19930.742-12195.131v11.811h-16.449v-11.811Z" transform="translate(-19838.768 12300.188)" fill="#d1d1d1"/>
      <path id="Pfad_213" data-name="Pfad 213" d="M19911.781-12159.565v34.067h-19.738v-34.067Z" transform="translate(-19805.994 12286.703)" fill="#d1d1d1"/>
      <path id="Pfad_214" data-name="Pfad 214" d="M20020.281-12225.913l-55.75,4.232v70.873l55.75,2.93Z" transform="translate(-19959.49 12311.862)" fill="#f9c975"/>
      <path id="Pfad_215" data-name="Pfad 215" d="M20011.783-12154.324v29.3h-15.062v-29.3Z" transform="translate(-19970.979 12284.717)" fill="#d1d1d1"/>
      <path id="Pfad_216" data-name="Pfad 216" d="M19989.594-12191.133v12.68h-17.541v-12.68Z" transform="translate(-19933.48 12298.673)" fill="#d1d1d1"/>
      <path id="Pfad_217" data-name="Pfad 217" d="M20032.152-12189.41v12.089h-16.008v-12.089Z" transform="translate(-20003.406 12298.02)" fill="#d1d1d1"/>
      <path id="Pfad_218" data-name="Pfad 218" d="M19818.754-12323.941l74.961,68.373v3.188l-73.025-24.766-211.762,16.266v-3.348l54.99-42.725,110.766-12.154Z" transform="translate(-19612.168 12349.034)" fill="#e7b967"/>
      <path id="Pfad_219" data-name="Pfad 219" d="M19903.76-12315.928l-26.754,47.076-76.15,5.926,35.641-45.623Z" transform="translate(-19741.365 12345.994)" fill="#d6ab5d"/>
      <path id="Pfad_220" data-name="Pfad 220" d="M19901.473-12310.969l-24.209,41.9-67.566,5.93,32.137-42.207Z" transform="translate(-19744.561 12344.114)" fill="#d1d1d1"/>
      <path id="Pfad_221" data-name="Pfad 221" d="M19842.191-12307.567l-10.754,15.664-16.5,1.762,11.592-15.86Z" transform="translate(-19688.533 12342.824)" fill="#006f39"/>
      <path id="Pfad_224" data-name="Pfad 224" d="M19842.191-12307.568l-10.754,17.1-16.5,1.923,11.592-17.309Z" transform="translate(-19700.951 12362.07)" fill="#006f39"/>
      <path id="Pfad_222" data-name="Pfad 222" d="M19875.313-12302.428l-10.541,15.025-15.713,2.116,10.375-15.926Z" transform="translate(-19742.844 12340.876)" fill="#006f39"/>
      <path id="Pfad_226" data-name="Pfad 226" d="M19875.313-12302.428l-10.541,15.025-15.713,2.116,10.375-15.926Z" transform="translate(-19763.33 12343.359)" fill="#006f39"/>
      <path id="Pfad_223" data-name="Pfad 223" d="M19875.309-12303.771l-9.365,16.57-16.908,1.406,10.379-15.928Z" transform="translate(-19755.238 12360.63)" fill="#006f39"/>
      <path id="Pfad_225" data-name="Pfad 225" d="M19876.818-12303.771l-11.533,16.709-16.25,1.184,11.889-15.844Z" transform="translate(-19777.234 12363.113)" fill="#006f39"/>
    </g>
    <g id="Gruppe_1508" data-name="Gruppe 1508" transform="translate(15.545 39.534)">
      <g id="Ellipse_21" data-name="Ellipse 21" transform="translate(19.322 23.118)" fill="#f0c34f" stroke="#f0c34f" stroke-width="1">
        <ellipse cx="10.351" cy="10.351" rx="10.351" ry="10.351" stroke="none"/>
        <ellipse cx="10.351" cy="10.351" rx="9.851" ry="9.851" fill="none"/>
      </g>
      <line id="Linie_37" data-name="Linie 37" y1="13.112" transform="translate(29.329 0)" fill="none" stroke="#f0c34f" stroke-width="1"/>
      <line id="Linie_43" data-name="Linie 43" y2="13.112" transform="translate(29.329 52.447)" fill="none" stroke="#f0c34f" stroke-width="1"/>
      <line id="Linie_39" data-name="Linie 39" y2="13.112" transform="translate(13.112 33.469) rotate(90)" fill="none" stroke="#f0c34f" stroke-width="1"/>
      <line id="Linie_42" data-name="Linie 42" y1="13.112" transform="translate(58.657 32.779) rotate(90)" fill="none" stroke="#f0c34f" stroke-width="1"/>
      <line id="Linie_38" data-name="Linie 38" x1="11.041" y1="11.041" transform="translate(7.591 8.626)" fill="none" stroke="#f0c34f" stroke-width="1"/>
      <line id="Linie_45" data-name="Linie 45" x1="11.041" y2="11.041" transform="translate(7.591 45.891)" fill="none" stroke="#f0c34f" stroke-width="1"/>
      <line id="Linie_41" data-name="Linie 41" y1="11.041" x2="11.041" transform="translate(40.025 7.936)" fill="none" stroke="#f0c34f" stroke-width="1"/>
      <line id="Linie_44" data-name="Linie 44" x2="11.041" y2="11.041" transform="translate(40.025 46.581)" fill="none" stroke="#f0c34f" stroke-width="1"/>
    </g>
  </g>
</svg>
