<svg xmlns="http://www.w3.org/2000/svg" xmlns:xlink="http://www.w3.org/1999/xlink" width="277" height="226" viewBox="0 0 277 226">
  <defs>
    <clipPath id="clip-satteldach">
      <rect width="277" height="226"/>
    </clipPath>
  </defs>
  <g id="satteldach" clip-path="url(#clip-satteldach)">
    <g id="Gruppe_1571" data-name="Gruppe 1571" transform="translate(-66 -48)">
      <path id="Pfad_54" data-name="Pfad 54" d="M19131.018-16439.145l43.449,49v2.586l-107.975-14.129-41.076-46.537-31.721,63.689h-6.941l34.559-75.246Z" transform="translate(-18885.664 16588.584)" fill="rgba(247,170,32,0.63)" opacity="0.973"/>
      <g id="Gruppe_1476" data-name="Gruppe 1476" transform="translate(250.545 70.867)">
        <g id="Ellipse_21" data-name="Ellipse 21" transform="translate(19.322 23.118)" fill="#f0c34f" stroke="#f0c34f" stroke-width="1">
          <ellipse cx="10.351" cy="10.351" rx="10.351" ry="10.351" stroke="none"/>
          <ellipse cx="10.351" cy="10.351" rx="9.851" ry="9.851" fill="none"/>
        </g>
        <line id="Linie_37" data-name="Linie 37" y1="13.112" transform="translate(29.329 0)" fill="none" stroke="#f0c34f" stroke-width="1"/>
        <line id="Linie_43" data-name="Linie 43" y2="13.112" transform="translate(29.329 52.447)" fill="none" stroke="#f0c34f" stroke-width="1"/>
        <line id="Linie_39" data-name="Linie 39" y2="13.112" transform="translate(13.112 33.469) rotate(90)" fill="none" stroke="#f0c34f" stroke-width="1"/>
        <line id="Linie_42" data-name="Linie 42" y1="13.112" transform="translate(58.657 32.779) rotate(90)" fill="none" stroke="#f0c34f" stroke-width="1"/>
        <line id="Linie_38" data-name="Linie 38" x1="11.041" y1="11.041" transform="translate(7.591 8.626)" fill="none" stroke="#f0c34f" stroke-width="1"/>
        <line id="Linie_45" data-name="Linie 45" x1="11.041" y2="11.041" transform="translate(7.591 45.891)" fill="none" stroke="#f0c34f" stroke-width="1"/>
        <line id="Linie_41" data-name="Linie 41" y1="11.041" x2="11.041" transform="translate(40.025 7.936)" fill="none" stroke="#f0c34f" stroke-width="1"/>
        <line id="Linie_44" data-name="Linie 44" x2="11.041" y2="11.041" transform="translate(40.025 46.581)" fill="none" stroke="#f0c34f" stroke-width="1"/>
      </g>
      <path id="Pfad_51" data-name="Pfad 51" d="M19110.322-16320.7v47.769l-93.918,2.5v-64.452Z" transform="translate(-18835.75 16523.625)" fill="#e8b964" opacity="0.973"/>
      <path id="Pfad_52" data-name="Pfad 52" d="M19283.947-16384.041l-.617-.73-38.881-44.193-30.037,62.32v47.283h69.252l.283-64.66" transform="translate(-19104.348 16572.557)" fill="#fac973" opacity="0.973"/>
      <path id="Pfad_53" data-name="Pfad 53" d="M19141-16385.447l-92.244-13.408-39.822-45.162,96.025,17.662Z" transform="translate(-18862.84 16580.385)" fill="#d1d1d1"/>
      <path id="Pfad_55" data-name="Pfad 55" d="M19088.6-16406.98l-17.582-2.979,8.627,10.182,17.6,3.141Z" transform="translate(-18848.887 16562.672)" fill="#006f39"/>
      <path id="Pfad_62" data-name="Pfad 62" d="M19088.6-16406.98l-17.582-2.979,8.627,10.182,17.6,3.141Z" transform="translate(-18837.105 16575.996)" fill="#006f39"/>
      <path id="Pfad_66" data-name="Pfad 66" d="M19088.6-16406.98l-17.582-2.979,8.627,10.182,17.6,3.141Z" transform="translate(-18824.629 16589.912)" fill="#006f39"/>
      <path id="Pfad_56" data-name="Pfad 56" d="M19088.6-16406.98l-17.582-2.979,8.627,10.182,17.6,3.141Z" transform="translate(-18870.961 16558.832)" fill="#006f39"/>
      <path id="Pfad_61" data-name="Pfad 61" d="M19088.6-16406.98l-17.582-2.979,8.627,10.182,17.6,3.141Z" transform="translate(-18859.184 16572.156)" fill="#006f39"/>
      <path id="Pfad_65" data-name="Pfad 65" d="M19088.6-16406.98l-17.582-2.979,8.627,10.182,17.6,3.141Z" transform="translate(-18846.707 16586.072)" fill="#006f39"/>
      <path id="Pfad_57" data-name="Pfad 57" d="M19088.6-16406.98l-17.582-2.979,8.627,10.182,17.6,3.141Z" transform="translate(-18893.516 16554.992)" fill="#006f39"/>
      <path id="Pfad_60" data-name="Pfad 60" d="M19088.6-16406.98l-17.582-2.979,8.627,10.182,17.6,3.141Z" transform="translate(-18881.738 16568.316)" fill="#006f39"/>
      <path id="Pfad_64" data-name="Pfad 64" d="M19088.6-16406.98l-17.582-2.979,8.627,10.182,17.6,3.141Z" transform="translate(-18869.262 16582.234)" fill="#006f39"/>
      <path id="Pfad_58" data-name="Pfad 58" d="M19088.6-16406.98l-17.582-2.979,8.627,10.182,17.6,3.141Z" transform="translate(-18916.594 16550.674)" fill="#006f39"/>
      <path id="Pfad_59" data-name="Pfad 59" d="M19088.6-16406.98l-17.582-2.979,8.627,10.182,17.6,3.141Z" transform="translate(-18904.816 16563.996)" fill="#006f39"/>
      <path id="Pfad_63" data-name="Pfad 63" d="M19088.6-16406.98l-17.582-2.979,8.627,10.182,17.6,3.141Z" transform="translate(-18892.336 16577.916)" fill="#006f39"/>
      <path id="Pfad_67" data-name="Pfad 67" d="M19066.072-16285.028l-13.6-1.021v17.148h13.6Z" transform="translate(-18808.805 16498.229)" fill="#d1d1d1"/>
      <path id="Pfad_68" data-name="Pfad 68" d="M19123.324-16289.91l-15.738-1.125-.7,39.667h16.436Z" transform="translate(-18892.172 16500.822)" fill="#d1d1d1"/>
      <path id="Pfad_69" data-name="Pfad 69" d="M19123.324-16289.866l-15.738-1.169-.7,41.179h16.436Z" transform="translate(-18909.449 16499.309)" fill="#d1d1d1"/>
      <path id="Pfad_70" data-name="Pfad 70" d="M19290.01-16285.549l-11.465.963v35.617h11.465Z" transform="translate(-19141.238 16497.969)" fill="#d1d1d1"/>
      <path id="Pfad_71" data-name="Pfad 71" d="M19290.523-16379.434v18.569l-10.8,1.6v-16.916Z" transform="translate(-19142.316 16546.797)" fill="#d1d1d1"/>
    </g>
  </g>
</svg>
