<svg xmlns="http://www.w3.org/2000/svg" xmlns:xlink="http://www.w3.org/1999/xlink" width="277" height="226" viewBox="0 0 277 226">
  <defs>
    <clipPath id="clip-steineindeckung">
      <rect width="277" height="226"/>
    </clipPath>
    <clipPath id="clip">
      <use xlink:href="#fill"/>
    </clipPath>
  </defs>
  <g id="steineindeckung" clip-path="url(#clip-steineindeckung)">
    <g id="Gruppe_1531" data-name="Gruppe 1531" transform="translate(29.678 24.293)">
      <g id="Gruppe_1523" data-name="Gruppe 1523" transform="translate(0 0)">
        <path id="Pfad_415" data-name="Pfad 415" d="M15406.711-8790.985h0v.244c.085,15.924-20.832,24.951-20.832,24.951a31.4,31.4,0,0,0,5.477,13.412c6.955,9.771,21.916,18.354,34.082-1.717a16.994,16.994,0,0,0,2.135-4.557c.8-2.717,1.2-6.479,1.475-7.139s-20.1-7.5-22.336-25.2" transform="translate(-15298.183 8817.597)" fill="#9b9c9e" stroke="#20201f" stroke-width="2"/>
        <path id="Pfad_422" data-name="Pfad 422" d="M15406.711-8790.985h0v.244c.085,15.924-20.832,24.951-20.832,24.951a31.4,31.4,0,0,0,5.477,13.412c6.955,9.771,21.916,18.354,34.082-1.717a16.994,16.994,0,0,0,2.135-4.557c.8-2.717,1.2-6.479,1.475-7.139s-20.1-7.5-22.336-25.2" transform="translate(-15276.598 8790.985)" fill="#bdbec0" stroke="#20201f" stroke-width="2"/>
        <path id="Pfad_427" data-name="Pfad 427" d="M15406.711-8790.985h0v.244c.085,15.924-20.832,24.951-20.832,24.951a31.4,31.4,0,0,0,5.477,13.412c6.955,9.771,21.916,18.354,34.082-1.717a16.994,16.994,0,0,0,2.135-4.557c.8-2.717,1.2-6.479,1.475-7.139s-20.1-7.5-22.336-25.2" transform="translate(-15232.989 8790.985)" fill="#d1d1cf" stroke="#20201f" stroke-width="2"/>
        <path id="Pfad_421" data-name="Pfad 421" d="M15406.711-8790.985h0v.244c.085,15.924-20.832,24.951-20.832,24.951a31.4,31.4,0,0,0,5.477,13.412c6.955,9.771,21.916,18.354,34.082-1.717a16.994,16.994,0,0,0,2.135-4.557c.8-2.717,1.2-6.479,1.475-7.139s-20.1-7.5-22.336-25.2" transform="translate(-15321.124 8790.985)" fill="#b1b2b2" stroke="#20201f" stroke-width="2"/>
        <path id="Pfad_428" data-name="Pfad 428" d="M15406.711-8790.985h0v.244c.085,15.924-20.832,24.951-20.832,24.951a31.4,31.4,0,0,0,5.477,13.412c6.955,9.771,21.916,18.354,34.082-1.717a16.994,16.994,0,0,0,2.135-4.557c.8-2.717,1.2-6.479,1.475-7.139s-20.1-7.5-22.336-25.2" transform="translate(-15364.294 8790.985)" fill="#cbcbcb" stroke="#20201f" stroke-width="2"/>
        <path id="Pfad_416" data-name="Pfad 416" d="M15406.711-8790.985h0v.244c.085,15.924-20.832,24.951-20.832,24.951a31.4,31.4,0,0,0,5.477,13.412c6.955,9.771,21.916,18.354,34.082-1.717a16.994,16.994,0,0,0,2.135-4.557c.8-2.717,1.2-6.479,1.475-7.139s-20.1-7.5-22.336-25.2" transform="translate(-15276.598 8846.044)" fill="#c8c8c8" stroke="#20201f" stroke-width="2"/>
        <path id="Pfad_426" data-name="Pfad 426" d="M15406.711-8790.985h0v.244c.085,15.924-20.832,24.951-20.832,24.951a31.4,31.4,0,0,0,5.477,13.412c6.955,9.771,21.916,18.354,34.082-1.717a16.994,16.994,0,0,0,2.135-4.557c.8-2.717,1.2-6.479,1.475-7.139s-20.1-7.5-22.336-25.2" transform="translate(-15232.989 8846.044)" fill="#adadad" stroke="#20201f" stroke-width="2"/>
        <path id="Pfad_419" data-name="Pfad 419" d="M15406.711-8790.985h0v.244c.085,15.924-20.832,24.951-20.832,24.951a31.4,31.4,0,0,0,5.477,13.412c6.955,9.771,21.916,18.354,34.082-1.717a16.994,16.994,0,0,0,2.135-4.557c.8-2.717,1.2-6.479,1.475-7.139s-20.1-7.5-22.336-25.2" transform="translate(-15297.744 8870.585)" fill="#a0a0a2" stroke="#20201f" stroke-width="2"/>
        <path id="Pfad_433" data-name="Pfad 433" d="M15406.711-8790.985h0v.244c.085,15.924-20.832,24.951-20.832,24.951a31.4,31.4,0,0,0,5.477,13.412c6.955,9.771,21.916,18.354,34.082-1.717a16.994,16.994,0,0,0,2.135-4.557c.8-2.717,1.2-6.479,1.475-7.139s-20.1-7.5-22.336-25.2" transform="translate(-15276.159 8895.127)" fill="#afaeab" stroke="#20201f" stroke-width="2"/>
        <path id="Pfad_435" data-name="Pfad 435" d="M15406.711-8790.985h0v.244c.085,15.924-20.832,24.951-20.832,24.951a31.4,31.4,0,0,0,5.477,13.412c6.955,9.771,21.916,18.354,34.082-1.717a16.994,16.994,0,0,0,2.135-4.557c.8-2.717,1.2-6.479,1.475-7.139s-20.1-7.5-22.336-25.2" transform="translate(-15319.329 8895.127)" fill="#d3d3d1" stroke="#20201f" stroke-width="2"/>
        <path id="Pfad_436" data-name="Pfad 436" d="M15406.711-8790.985h0v.244c.085,15.924-20.832,24.951-20.832,24.951a31.4,31.4,0,0,0,5.477,13.412c6.955,9.771,21.916,18.354,34.082-1.717a16.994,16.994,0,0,0,2.135-4.557c.8-2.717,1.2-6.479,1.475-7.139s-20.1-7.5-22.336-25.2" transform="translate(-15364.294 8895.127)" fill="#b1b0a7" stroke="#20201f" stroke-width="2"/>
        <path id="Pfad_437" data-name="Pfad 437" d="M15406.711-8790.985h0v.244c.085,15.924-20.832,24.951-20.832,24.951a31.4,31.4,0,0,0,5.477,13.412c6.955,9.771,21.916,18.354,34.082-1.717a16.994,16.994,0,0,0,2.135-4.557c.8-2.717,1.2-6.479,1.475-7.139s-20.1-7.5-22.336-25.2" transform="translate(-15385.879 8919.668)" fill="#aaaaac" stroke="#20201f" stroke-width="2"/>
        <path id="Pfad_438" data-name="Pfad 438" d="M15406.711-8790.985h0v.244c.085,15.924-20.832,24.951-20.832,24.951a31.4,31.4,0,0,0,5.477,13.412c6.955,9.771,21.916,18.354,34.082-1.717a16.994,16.994,0,0,0,2.135-4.557c.8-2.717,1.2-6.479,1.475-7.139s-20.1-7.5-22.336-25.2" transform="translate(-15340.915 8919.668)" fill="#c0c0bf" stroke="#20201f" stroke-width="2"/>
        <path id="Pfad_439" data-name="Pfad 439" d="M15406.711-8790.985h0v.244c.085,15.924-20.832,24.951-20.832,24.951a31.4,31.4,0,0,0,5.477,13.412c6.955,9.771,21.916,18.354,34.082-1.717a16.994,16.994,0,0,0,2.135-4.557c.8-2.717,1.2-6.479,1.475-7.139s-20.1-7.5-22.336-25.2" transform="translate(-15297.744 8919.668)" fill="#8c8f91" stroke="#20201f" stroke-width="2"/>
        <path id="Pfad_440" data-name="Pfad 440" d="M15406.711-8790.985h0v.244c.085,15.924-20.832,24.951-20.832,24.951a31.4,31.4,0,0,0,5.477,13.412c6.955,9.771,21.916,18.354,34.082-1.717a16.994,16.994,0,0,0,2.135-4.557c.8-2.717,1.2-6.479,1.475-7.139s-20.1-7.5-22.336-25.2" transform="translate(-15254.574 8919.668)" fill="#c4c4c2" stroke="#20201f" stroke-width="2"/>
        <path id="Pfad_441" data-name="Pfad 441" d="M15406.711-8790.985h0v.244c.085,15.924-20.832,24.951-20.832,24.951a31.4,31.4,0,0,0,5.477,13.412c6.955,9.771,21.916,18.354,34.082-1.717a16.994,16.994,0,0,0,2.135-4.557c.8-2.717,1.2-6.479,1.475-7.139s-20.1-7.5-22.336-25.2" transform="translate(-15211.404 8919.668)" fill="#818487" stroke="#20201f" stroke-width="2"/>
        <path id="Pfad_434" data-name="Pfad 434" d="M15406.711-8790.985h0v.244c.085,15.924-20.832,24.951-20.832,24.951a31.4,31.4,0,0,0,5.477,13.412c6.955,9.771,21.916,18.354,34.082-1.717a16.994,16.994,0,0,0,2.135-4.557c.8-2.717,1.2-6.479,1.475-7.139s-20.1-7.5-22.336-25.2" transform="translate(-15232.989 8895.127)" fill="#d7d3ce" stroke="#20201f" stroke-width="2"/>
        <path id="Pfad_431" data-name="Pfad 431" d="M15406.711-8790.985h0v.244c.085,15.924-20.832,24.951-20.832,24.951a31.4,31.4,0,0,0,5.477,13.412c6.955,9.771,21.916,18.354,34.082-1.717a16.994,16.994,0,0,0,2.135-4.557c.8-2.717,1.2-6.479,1.475-7.139s-20.1-7.5-22.336-25.2" transform="translate(-15254.574 8870.585)" fill="#656569" stroke="#20201f" stroke-width="2"/>
        <path id="Pfad_432" data-name="Pfad 432" d="M15406.711-8790.985h0v.244c.085,15.924-20.832,24.951-20.832,24.951a31.4,31.4,0,0,0,5.477,13.412c6.955,9.771,21.916,18.354,34.082-1.717a16.994,16.994,0,0,0,2.135-4.557c.8-2.717,1.2-6.479,1.475-7.139s-20.1-7.5-22.336-25.2" transform="translate(-15211.404 8870.585)" fill="#b0b1b3" stroke="#20201f" stroke-width="2"/>
        <path id="Pfad_429" data-name="Pfad 429" d="M15406.711-8790.985h0v.244c.085,15.924-20.832,24.951-20.832,24.951a31.4,31.4,0,0,0,5.477,13.412c6.955,9.771,21.916,18.354,34.082-1.717a16.994,16.994,0,0,0,2.135-4.557c.8-2.717,1.2-6.479,1.475-7.139s-20.1-7.5-22.336-25.2" transform="translate(-15341.353 8870.585)" fill="#a8a8aa" stroke="#20201f" stroke-width="2"/>
        <path id="Pfad_430" data-name="Pfad 430" d="M15406.711-8790.985h0v.244c.085,15.924-20.832,24.951-20.832,24.951a31.4,31.4,0,0,0,5.477,13.412c6.955,9.771,21.916,18.354,34.082-1.717a16.994,16.994,0,0,0,2.135-4.557c.8-2.717,1.2-6.479,1.475-7.139s-20.1-7.5-22.336-25.2" transform="translate(-15385.879 8870.585)" fill="#aaabac" stroke="#20201f" stroke-width="2"/>
        <path id="Pfad_418" data-name="Pfad 418" d="M15406.711-8790.985h0v.244c.085,15.924-20.832,24.951-20.832,24.951a31.4,31.4,0,0,0,5.477,13.412c6.955,9.771,21.916,18.354,34.082-1.717a16.994,16.994,0,0,0,2.135-4.557c.8-2.717,1.2-6.479,1.475-7.139s-20.1-7.5-22.336-25.2" transform="translate(-15319.768 8843.974)" fill="#b4b4b5" stroke="#20201f" stroke-width="2"/>
        <path id="Pfad_425" data-name="Pfad 425" d="M15406.711-8790.985h0v.244c.085,15.924-20.832,24.951-20.832,24.951a31.4,31.4,0,0,0,5.477,13.412c6.955,9.771,21.916,18.354,34.082-1.717a16.994,16.994,0,0,0,2.135-4.557c.8-2.717,1.2-6.479,1.475-7.139s-20.1-7.5-22.336-25.2" transform="translate(-15364.294 8843.974)" fill="#afb0b2" stroke="#20201f" stroke-width="2"/>
        <path id="Pfad_420" data-name="Pfad 420" d="M15406.711-8790.985h0v.244c.085,15.924-20.832,24.951-20.832,24.951a31.4,31.4,0,0,0,5.477,13.412c6.955,9.771,21.916,18.354,34.082-1.717a16.994,16.994,0,0,0,2.135-4.557c.8-2.717,1.2-6.479,1.475-7.139s-20.1-7.5-22.336-25.2" transform="translate(-15342.709 8817.597)" fill="#afb0b2" stroke="#20201f" stroke-width="2"/>
        <path id="Pfad_424" data-name="Pfad 424" d="M15406.711-8790.985h0v.244c.085,15.924-20.832,24.951-20.832,24.951a31.4,31.4,0,0,0,5.477,13.412c6.955,9.771,21.916,18.354,34.082-1.717a16.994,16.994,0,0,0,2.135-4.557c.8-2.717,1.2-6.479,1.475-7.139s-20.1-7.5-22.336-25.2" transform="translate(-15385.879 8817.597)" fill="#afaeb3" stroke="#20201f" stroke-width="2"/>
        <path id="Pfad_417" data-name="Pfad 417" d="M15406.711-8790.985h0v.244c.085,15.924-20.832,24.951-20.832,24.951a31.4,31.4,0,0,0,5.477,13.412c6.955,9.771,21.916,18.354,34.082-1.717a16.994,16.994,0,0,0,2.135-4.557c.8-2.717,1.2-6.479,1.475-7.139s-20.1-7.5-22.336-25.2" transform="translate(-15254.574 8819.433)" fill="#ababa9" stroke="#20201f" stroke-width="2"/>
        <path id="Pfad_423" data-name="Pfad 423" d="M15406.711-8790.985h0v.244c.085,15.924-20.832,24.951-20.832,24.951a31.4,31.4,0,0,0,5.477,13.412c6.955,9.771,21.916,18.354,34.082-1.717a16.994,16.994,0,0,0,2.135-4.557c.8-2.717,1.2-6.479,1.475-7.139s-20.1-7.5-22.336-25.2" transform="translate(-15211.404 8819.433)" fill="#a7a8aa" stroke="#20201f" stroke-width="2"/>
        <rect id="Rechteck_211" data-name="Rechteck 211" width="8.259" height="2.936" transform="translate(108.353 76.877) rotate(-22)" fill="#20201f"/>
        <rect id="Rechteck_212" data-name="Rechteck 212" width="3.671" height="2.936" transform="translate(63.501 76.534) rotate(-22)" fill="#20201f"/>
        <rect id="Rechteck_213" data-name="Rechteck 213" width="3.671" height="2.936" transform="translate(41.477 49.923) rotate(-22)" fill="#20201f"/>
        <rect id="Rechteck_214" data-name="Rechteck 214" width="4.588" height="2.936" transform="translate(84.837 49.72) rotate(-10)" fill="#20201f"/>
        <rect id="Rechteck_215" data-name="Rechteck 215" width="8.461" height="2.936" transform="translate(130.263 50.738) rotate(-25)" fill="#20201f"/>
        <g id="Rechteck_216" data-name="Rechteck 216" transform="translate(152.452 32.296) rotate(-34)" fill="#fff" stroke="#20201f" stroke-width="1">
          <rect width="1.835" height="16.517" stroke="none"/>
          <rect x="0.5" y="0.5" width="0.835" height="15.517" fill="none"/>
        </g>
        <g id="Rechteck_217" data-name="Rechteck 217" transform="matrix(0.921, -0.391, 0.391, 0.921, 172.975, 50.524)" fill="#20201f" stroke="#20201f" stroke-width="1">
          <rect width="9.176" height="2.753" stroke="none"/>
          <rect x="0.5" y="0.5" width="8.176" height="1.753" fill="none"/>
        </g>
        <g id="Rechteck_218" data-name="Rechteck 218" transform="matrix(0.891, 0.454, -0.454, 0.891, 162.964, 44.02)" fill="#20201f" stroke="#20201f" stroke-width="1">
          <rect width="15.6" height="2.753" stroke="none"/>
          <rect x="0.5" y="0.5" width="14.6" height="1.753" fill="none"/>
        </g>
        <g id="Rechteck_219" data-name="Rechteck 219" transform="translate(150.207 77.068)" fill="#20201f" stroke="#20201f" stroke-width="1">
          <rect width="4.588" height="2.753" stroke="none"/>
          <rect x="0.5" y="0.5" width="3.588" height="1.753" fill="none"/>
        </g>
        <g id="Rechteck_220" data-name="Rechteck 220" transform="translate(41.008 101.844)" fill="#20201f" stroke="#20201f" stroke-width="1">
          <rect width="5.506" height="2.753" stroke="none"/>
          <rect x="0.5" y="0.5" width="4.506" height="1.753" fill="none"/>
        </g>
      </g>
      <g id="Rechteck_221" data-name="Rechteck 221" transform="translate(128.183 49.424)" fill="#fff" stroke="#20201f" stroke-width="1">
        <rect width="4.588" height="1.835" stroke="none"/>
        <rect x="0.5" y="0.5" width="3.588" height="0.835" fill="none"/>
      </g>
      <g id="Rechteck_222" data-name="Rechteck 222" transform="translate(130.936 49.424)" fill="none" stroke="#20201f" stroke-width="1">
        <rect id="fill" width="0.918" height="0.918" stroke="none"/>
        <path d="M0,0.41763895750045776h0.9176381826400757M0.5,0v0.9176389575004578M0.9176381826400757,0.5h-0.9176381826400757M0.4176381826400757,0.9176389575004578v-0.9176389575004578" fill="none" clip-path="url(#clip)"/>
      </g>
      <g id="Rechteck_223" data-name="Rechteck 223" transform="translate(85.972 102.647)" fill="#fff" stroke="#20201f" stroke-width="1">
        <rect width="4.588" height="1.835" stroke="none"/>
        <rect x="0.5" y="0.5" width="3.588" height="0.835" fill="none"/>
      </g>
    </g>
  </g>
</svg>
