<svg xmlns="http://www.w3.org/2000/svg" width="105.367" height="324.496" viewBox="0 0 105.367 324.496"><defs><style>.a{fill:#77747b;}.b{fill:#747178;}.c{fill:#554d4d;}.d{fill:#2a2623;}.e{fill:#5e5c5e;}.f{fill:#4a423f;}.g{fill:#231b17;}.h{fill:none;stroke:#231b17;stroke-width:2px;}.i{fill:#5f5348;}</style></defs><g transform="translate(-1046.951 -1703.854)"><path class="a" d="M21936.783-12580.021l91.441-3.447,1.594,143.025-87.271,1.43Z" transform="translate(-20886 14367.345)"/><path class="b" d="M21969.42-12438.923v6.394h35.611v-7.271Z" transform="translate(-20886 14366.766)"/><path class="c" d="M21996.588-12432.084v91.2s-12.977,5.052-21.318-1.35c-1.068-.82-1.338-29.412-1.684-44.621.242-22.824-1.076-46.251-1.076-46.251h24.078Z" transform="translate(-20883.324 14367.346)"/><path class="d" d="M21982.629-12580.5l4.061-.4v5.765h-2.754l-.365,10.661-2.488-.952.842-15.077Z" transform="translate(-20886 14367.345)"/><path class="e" d="M22028.639-12556.482s10.707-16.226,9.941-28.043a14.617,14.617,0,0,0-3.014-6.88c-2.164-2.669-7.584,7.5-7.584,7.5Z" transform="translate(-20886.301 14367.345)"/><path class="f" d="M22034.393-12591.856h-40.061l-57.514,11.852,90.793-3.284Z" transform="translate(-20886 14367.345)"/><ellipse class="g" cx="4" cy="1.5" rx="4" ry="1.5" transform="translate(1114 1780.345)"/><path class="h" d="M21957.611-12662.331s29.395,9.249,29.318,14.68,1.221,34.708,5.623,41.6,13.645,8.8,12.91,12.517-1.818,7.542-1.818,7.542" transform="translate(-20886 14367.345)"/><ellipse class="i" cx="5" cy="2" rx="5" ry="2" transform="translate(1094 1780.345)"/><path class="i" d="M21933.447-12661.03h26.352s19.494,10.253,20.217,22.773,1.889,51.53,1.889,51.53h5.426l-1.748-54.843s-13.6-23.188-23.016-23.147-29.615,0-29.615,0Z" transform="translate(-20886 14368.571)"/></g></svg>