<svg xmlns="http://www.w3.org/2000/svg" width="7.588" height="31.537" viewBox="0 0 7.588 31.537"><defs><style>.a{fill:#599248;}</style></defs><path class="a" d="M21996.908-11914.8h0a9.408,9.408,0,0,1,1-.368c.846-.177,2.883-.587,2.883-.587a26.228,26.228,0,0,1,3.012,7.754c.631,2.723.615,12.586.643,13.185a9.246,9.246,0,0,1,0,1.33c-.08.7-.447,4.757-.455,5.382-.016,1.56.582,2.974,0,3.688-.379.468-.9-.046-1.521,0a23.259,23.259,0,0,1-2.777,0s1.465-13.2.352-22.217c-.318-2.569-1.881-4.665-2.451-6.128a9.6,9.6,0,0,1-.395-1.44C21997.146-11914.485,21997.156-11914.943,21996.908-11914.8Z" transform="translate(-21996.884 11915.753)"/></svg>