<svg xmlns="http://www.w3.org/2000/svg" width="21.964" height="27.455" viewBox="0 0 21.964 27.455"><defs><style>.a{fill:#be0909;}</style></defs><path class="a" d="M8.406,14.68a2.056,2.056,0,0,0-.511.049v1.617a1.87,1.87,0,0,0,.415.032c.658,0,1.063-.332,1.063-.894C9.372,14.982,9.023,14.68,8.406,14.68Zm4.787.016a2.533,2.533,0,0,0-.559.049v3.583a2.242,2.242,0,0,0,.43.025,1.7,1.7,0,0,0,1.852-1.916A1.571,1.571,0,0,0,13.192,14.7Z" transform="translate(-2.548 2.727)"/><path class="a" d="M17.728,2H6.746A2.746,2.746,0,0,0,4,4.746V26.71a2.746,2.746,0,0,0,2.746,2.746H23.219a2.746,2.746,0,0,0,2.746-2.746V10.237Zm-6.18,19.479a2.545,2.545,0,0,1-1.779.577,3.062,3.062,0,0,1-.423-.025v1.958H8.118v-5.4a10.376,10.376,0,0,1,1.673-.113,2.631,2.631,0,0,1,1.675.438,1.6,1.6,0,0,1,.585,1.267A1.76,1.76,0,0,1,11.547,21.479Zm5.226,1.86a3.93,3.93,0,0,1-2.526.707,10.576,10.576,0,0,1-1.406-.082V18.587a10.909,10.909,0,0,1,1.673-.114,3.52,3.52,0,0,1,2.242.585,2.422,2.422,0,0,1,.927,2.065A2.778,2.778,0,0,1,16.774,23.34Zm5.072-3.809h-2.1v1.251h1.966v1.008H19.743v2.2H18.5V18.514h3.347Zm-4.118-7.921H16.355V4.746l6.864,6.864Z" transform="translate(-4 -2)"/></svg>