<svg xmlns="http://www.w3.org/2000/svg" xmlns:xlink="http://www.w3.org/1999/xlink" width="277" height="226" viewBox="0 0 277 226">
  <defs>
    <clipPath id="clip-bar">
      <rect width="277" height="226"/>
    </clipPath>
  </defs>
  <g id="bar" clip-path="url(#clip-bar)">
    <g id="_x36_82_x2C__Cash_x2C__dollar_x2C__finance_x2C__funds_x2C__money" transform="translate(-4.322 -65.6)">
      <g id="Gruppe_1485" data-name="Gruppe 1485" transform="translate(26.001 109.6)">
        <path id="Pfad_319" data-name="Pfad 319" d="M138.467,195.965a3.78,3.78,0,0,0,2.118-1.236,3.363,3.363,0,0,0,.809-2.251,3,3,0,0,0-.685-1.986,4.273,4.273,0,0,0-2.242-1.28v6.754Zm-2.51-18.377a3.232,3.232,0,0,0-1.6,1.192,3.069,3.069,0,0,0-.588,1.824,2.957,2.957,0,0,0,.529,1.692,3.7,3.7,0,0,0,1.654,1.265Zm0,18.082v-7.208a9.324,9.324,0,0,1-4.929-2.913,7.348,7.348,0,0,1-1.567-4.737,6.711,6.711,0,0,1,1.781-4.753,7.084,7.084,0,0,1,4.715-2.207V172.16h2.51v1.692a7.46,7.46,0,0,1,4.383,1.869,7.217,7.217,0,0,1,2.082,4.134l-4.385.559a3.529,3.529,0,0,0-2.08-2.751v6.724q4.158,1.126,5.663,2.9a6.844,6.844,0,0,1,1.508,4.576,7.6,7.6,0,0,1-1.9,5.252,8.517,8.517,0,0,1-5.274,2.663V203h-2.51v-3.192a8,8,0,0,1-4.825-2.193,9.059,9.059,0,0,1-2.376-5.222l4.486-.53a5.742,5.742,0,0,0,1.03,2.383A4.749,4.749,0,0,0,135.957,195.67ZM259.643,109.6H67.557v3.207H254.845a1.809,1.809,0,0,1,1.81,1.81v96.252h2.988V109.6Zm-6.606,103.123v-96.3H60.959v3.223H248.246a1.808,1.808,0,0,1,1.81,1.81V217.71h2.98v-4.987Zm-6.591,6.841v-96.3H54.353v3.207h187.3a1.809,1.809,0,0,1,1.81,1.81v96.252h2.988v-4.973Zm-6.607,6.827V130.1H47.754v3.222H235.042a1.808,1.808,0,0,1,1.809,1.81v96.252h2.988v-4.987Zm-6.606,6.842v-96.3H41.155V238.206H233.233v-4.973Zm-78.7-63a24.538,24.538,0,0,0-34.583-.1l-.1.1a24.52,24.52,0,1,0,34.679,0ZM137.2,159.286a28.286,28.286,0,1,1-19.995,48.288l-.044-.044a28.273,28.273,0,0,1,.028-39.961l.117-.1A28.171,28.171,0,0,1,137.2,159.286Zm67.193-10.653H70.007a18.917,18.917,0,0,1-16.948,16.935v43.992a18.951,18.951,0,0,1,16.948,16.949H204.394a18.935,18.935,0,0,1,16.95-16.949V165.568a18.9,18.9,0,0,1-16.95-16.935ZM48.857,250.241a1.81,1.81,0,0,1,0-3.619H166a1.81,1.81,0,0,1,0,3.619Zm62.045,8.077a1.8,1.8,0,1,1,0-3.6h92.007a1.8,1.8,0,1,1,0,3.6Zm101.423,0a1.8,1.8,0,1,1,0-3.6h11.506a1.8,1.8,0,1,1,0,3.6ZM27.81,258.083a1.81,1.81,0,0,1,0-3.619H71.4a1.81,1.81,0,0,1,0,3.619ZM68.285,145.014H206.116a1.807,1.807,0,0,1,1.8,1.809,15.307,15.307,0,0,0,15.235,15.228,1.814,1.814,0,0,1,1.81,1.81V211.28a1.813,1.813,0,0,1-1.81,1.81,15.281,15.281,0,0,0-15.235,15.227,1.807,1.807,0,0,1-1.8,1.81H68.285a1.809,1.809,0,0,1-1.81-1.81A15.282,15.282,0,0,0,51.247,213.09a1.809,1.809,0,0,1-1.809-1.81V163.861a1.808,1.808,0,0,1,1.809-1.81,15.308,15.308,0,0,0,15.228-15.228A1.809,1.809,0,0,1,68.285,145.014Z" transform="translate(-26.001 -109.6)" fill="#006f39" fill-rule="evenodd"/>
      </g>
    </g>
  </g>
</svg>
