<svg xmlns="http://www.w3.org/2000/svg" xmlns:xlink="http://www.w3.org/1999/xlink" width="277" height="196" viewBox="0 0 277 196">
  <defs>
    <clipPath id="clip-bewohnen">
      <rect width="277" height="196"/>
    </clipPath>
  </defs>
  <g id="bewohnen" clip-path="url(#clip-bewohnen)">
    <g id="Gruppe_1583" data-name="Gruppe 1583" transform="translate(72.961 37.136)">
      <path id="Pfad_227" data-name="Pfad 227" d="M19141.525-16437.641l46.617,52.566v2.773l-115.842-15.156-44.07-49.93-34.031,68.33h-7.449l37.08-80.727Z" transform="translate(-19047.879 16451.283)" fill="rgba(247,170,32,0.63)" opacity="0.973"/>
      <path id="Pfad_235" data-name="Pfad 235" d="M19117.168-16319.668v51.248l-100.762,2.686v-69.146Z" transform="translate(-18992.174 16390.691)" fill="#e8b964" opacity="0.973"/>
      <path id="Pfad_228" data-name="Pfad 228" d="M19289.012-16380.769l-.664-.783-41.711-47.413-32.225,66.86v50.728h74.295l.3-69.372" transform="translate(-19265.912 16436.332)" fill="#fac973" opacity="0.973"/>
      <path id="Pfad_229" data-name="Pfad 229" d="M19150.619-16381.181l-98.963-14.386-42.725-48.451,103.021,18.947Z" transform="translate(-19021.779 16443.633)" fill="#d1d1d1"/>
      <path id="Pfad_243" data-name="Pfad 243" d="M19089.883-16406.764l-18.863-3.2,9.256,10.922,18.885,3.373Z" transform="translate(-19002.287 16427.113)" fill="#006f39"/>
      <path id="Pfad_245" data-name="Pfad 245" d="M19089.883-16406.764l-18.863-3.2,9.256,10.922,18.885,3.373Z" transform="translate(-18989.65 16441.408)" fill="#006f39"/>
      <path id="Pfad_246" data-name="Pfad 246" d="M19089.883-16406.764l-18.863-3.2,9.256,10.922,18.885,3.373Z" transform="translate(-18976.264 16456.34)" fill="#006f39"/>
      <path id="Pfad_239" data-name="Pfad 239" d="M19089.883-16406.764l-18.863-3.2,9.256,10.922,18.885,3.373Z" transform="translate(-19025.973 16422.996)" fill="#006f39"/>
      <path id="Pfad_241" data-name="Pfad 241" d="M19089.883-16406.764l-18.863-3.2,9.256,10.922,18.885,3.373Z" transform="translate(-19013.336 16437.289)" fill="#006f39"/>
      <path id="Pfad_244" data-name="Pfad 244" d="M19089.883-16406.764l-18.863-3.2,9.256,10.922,18.885,3.373Z" transform="translate(-18999.949 16452.221)" fill="#006f39"/>
      <path id="Pfad_234" data-name="Pfad 234" d="M19089.883-16406.764l-18.863-3.2,9.256,10.922,18.885,3.373Z" transform="translate(-19050.172 16418.875)" fill="#006f39"/>
      <path id="Pfad_237" data-name="Pfad 237" d="M19089.883-16406.764l-18.863-3.2,9.256,10.922,18.885,3.373Z" transform="translate(-19037.533 16433.17)" fill="#006f39"/>
      <path id="Pfad_240" data-name="Pfad 240" d="M19089.883-16406.764l-18.863-3.2,9.256,10.922,18.885,3.373Z" transform="translate(-19024.148 16448.102)" fill="#006f39"/>
      <path id="Pfad_230" data-name="Pfad 230" d="M19089.883-16406.764l-18.863-3.2,9.256,10.922,18.885,3.373Z" transform="translate(-19074.926 16414.242)" fill="#006f39"/>
      <path id="Pfad_233" data-name="Pfad 233" d="M19089.883-16406.764l-18.863-3.2,9.256,10.922,18.885,3.373Z" transform="translate(-19062.293 16428.537)" fill="#006f39"/>
      <path id="Pfad_236" data-name="Pfad 236" d="M19089.883-16406.764l-18.863-3.2,9.256,10.922,18.885,3.373Z" transform="translate(-19048.906 16443.469)" fill="#006f39"/>
      <path id="Pfad_247" data-name="Pfad 247" d="M19067.063-16284.955l-14.594-1.1v18.4h14.594Z" transform="translate(-18960.637 16367.002)" fill="#d1d1d1"/>
      <path id="Pfad_242" data-name="Pfad 242" d="M19124.518-16289.828l-16.883-1.209-.748,42.557h17.631Z" transform="translate(-19046.113 16369.422)" fill="#d1d1d1"/>
      <path id="Pfad_238" data-name="Pfad 238" d="M19124.518-16289.781l-16.883-1.256-.748,44.18h17.631Z" transform="translate(-19064.646 16367.798)" fill="#d1d1d1"/>
      <path id="Pfad_231" data-name="Pfad 231" d="M19290.844-16285.551l-12.3,1.035v38.209h12.3Z" transform="translate(-19300.814 16366.76)" fill="#d1d1d1"/>
      <path id="Pfad_232" data-name="Pfad 232" d="M19291.309-16379.434v19.921l-11.59,1.719v-18.146Z" transform="translate(-19301.887 16412.305)" fill="#d1d1d1"/>
      <path id="_8665482_key_security_icon" data-name="8665482_key_security_icon" d="M29.592,86.085A29.487,29.487,0,0,0,58.275,49.332L84.5,23.1a5.393,5.393,0,0,0,1.581-3.818V2.69A2.694,2.694,0,0,0,83.395,0H67.254a2.69,2.69,0,0,0-2.69,2.69v8.07h-8.07a2.69,2.69,0,0,0-2.69,2.69v8.07H44.157a2.689,2.689,0,0,0-1.9.788l-5.5,5.5a39.643,39.643,0,0,0-7.163-.758,29.516,29.516,0,1,0,0,59.032ZM22.866,56.493a6.725,6.725,0,1,1-6.725,6.725A6.726,6.726,0,0,1,22.866,56.493Z" transform="translate(192.207 98.852) rotate(150)" fill="#11841e"/>
    </g>
  </g>
</svg>
