<svg xmlns="http://www.w3.org/2000/svg" xmlns:xlink="http://www.w3.org/1999/xlink" width="277" height="226" viewBox="0 0 277 226">
  <defs>
    <clipPath id="clip-blechdach">
      <rect width="277" height="226"/>
    </clipPath>
  </defs>
  <g id="blechdach" clip-path="url(#clip-blechdach)">
    <g id="Gruppe_1584" data-name="Gruppe 1584">
      <path id="Pfad_456" data-name="Pfad 456" d="M15328-8608.6l81.947,31.021H15328Z" transform="translate(-15316.752 8767.063)" fill="#dddde1"/>
      <path id="Pfad_457" data-name="Pfad 457" d="M15328-8624.4l129.393,45h-47.809L15328-8611Z" transform="translate(-15316.752 8769.157)" fill="#494d59"/>
      <path id="Pfad_458" data-name="Pfad 458" d="M15328-8640.9l179.416,59.19h-50.791L15328-8627.463Z" transform="translate(-15316.752 8771.341)" fill="#e0e0e3"/>
      <path id="Pfad_461" data-name="Pfad 461" d="M15328-8665.731l17.926,4.98,54.48,14.884,183.1,52.646v8.648H15506.4l-178.4-61.295Z" transform="translate(-15316.752 8774.631)" fill="#c5c5cc"/>
      <path id="Pfad_462" data-name="Pfad 462" d="M15328-8678.94l254.276,67.649v15.862L15328-8667.622Z" transform="translate(-15316.752 8776.381)" fill="#595e6d"/>
      <path id="Pfad_463" data-name="Pfad 463" d="M15328-8689.392l254.276,63.987v12.656L15328-8680.972Z" transform="translate(-15316.752 8777.765)" fill="#e9e9ec"/>
      <path id="Pfad_452" data-name="Pfad 452" d="M15328-8594.934l18.033-12.734,5.479-14.82,14.4-8.875,10.843,2.692,23.962-16.145,5.446-12.4,10.707-7.28h1.118" transform="translate(-15316.752 8774.467)" fill="none" stroke="#0b0c0e" stroke-width="1.4"/>
      <path id="Pfad_464" data-name="Pfad 464" d="M15328-8705.339l254.276,57.928v20.093L15328-8691.894Z" transform="translate(-15316.753 8779.877)" fill="#e1e1e5"/>
      <path id="Pfad_465" data-name="Pfad 465" d="M15328-8715.255l254.276,54.242v11.363L15328-8707.008Z" transform="translate(-15316.752 8781.19)" fill="#616776"/>
      <path id="Pfad_466" data-name="Pfad 466" d="M15328-8725.346l254.71,53.38v9.427L15328-8716.777Z" transform="translate(-15316.752 8782.527)" fill="#e9e9ec"/>
      <path id="Pfad_453" data-name="Pfad 453" d="M15442.324-8666.049l17.778-10.934,4.506-10.536,10.045-6.157" transform="translate(-15331.896 8778.332)" fill="none" stroke="#0b0c0e" stroke-width="1"/>
      <path id="Pfad_467" data-name="Pfad 467" d="M15328-8732.425l254.484,47.963v11.022L15328-8726.54Z" transform="translate(-15316.752 8783.465)" fill="#d4d5da"/>
      <path id="Pfad_468" data-name="Pfad 468" d="M15328-8741.085l254.483,45v10.527L15328-8733.971Z" transform="translate(-15316.752 8784.612)" fill="#747a89"/>
      <path id="Pfad_469" data-name="Pfad 469" d="M15581.188-8704.141v6.283l-254.275-44.754v-7.117l10.811,2.092Z" transform="translate(-15315.665 8785.758)" fill="#e1e1e5"/>
      <path id="Pfad_454" data-name="Pfad 454" d="M15491.084-8694.014l12.816-7.094,4.436-9.661,7.8-4.486h.738" transform="translate(-15338.354 8781.19)" fill="none" stroke="#0b0c0e" stroke-width="1"/>
      <g id="Gruppe_1526" data-name="Gruppe 1526" transform="translate(126.318 73.742) rotate(13)">
        <path id="Pfad_459" data-name="Pfad 459" d="M.426,1.089,2.271,0,3.93.453,5.083,2.344l-.451,1.6-1.823,1.1L1.133,4.659,0,2.776Z" transform="translate(0 0)" fill="#a9bec9"/>
        <ellipse id="Ellipse_33" data-name="Ellipse 33" cx="1.207" cy="1.207" rx="1.207" ry="1.207" transform="translate(1.372 1.288)" fill="#e9e9ec"/>
        <g id="Ellipse_34" data-name="Ellipse 34" transform="translate(1.05 1.127)" fill="none" stroke="#cee0e9" stroke-width="1">
          <ellipse cx="1.449" cy="1.449" rx="1.449" ry="1.449" stroke="none"/>
          <ellipse cx="1.449" cy="1.449" rx="0.949" ry="0.949" fill="none"/>
        </g>
        <path id="Pfad_460" data-name="Pfad 460" d="M3.959,0,4.2.4,3.778,2.054,1.9,3.141l-1.747-.4L0,2.315,1.684,2.7,3,1.9l.5-.323Z" transform="translate(1.124 2.359)" fill="#4a616c"/>
      </g>
      <g id="Gruppe_1525" data-name="Gruppe 1525" transform="translate(40.684 124.101) rotate(13)">
        <path id="Pfad_459-2" data-name="Pfad 459" d="M.6,1.547,3.228,0,5.586.645,7.225,3.332,6.584,5.605,3.993,7.175,1.609,6.622,0,3.946Z" transform="translate(0 0)" fill="#a9bec9"/>
        <ellipse id="Ellipse_33-2" data-name="Ellipse 33" cx="1.716" cy="1.716" rx="1.716" ry="1.716" transform="translate(1.95 1.83)" fill="#e9e9ec"/>
        <g id="Ellipse_34-2" data-name="Ellipse 34" transform="translate(1.493 1.602)" fill="none" stroke="#cee0e9" stroke-width="1">
          <ellipse cx="2.059" cy="2.059" rx="2.059" ry="2.059" stroke="none"/>
          <ellipse cx="2.059" cy="2.059" rx="1.559" ry="1.559" fill="none"/>
        </g>
        <path id="Pfad_460-2" data-name="Pfad 460" d="M5.627,0l.338.569L5.37,2.92,2.7,4.465.215,3.9,0,3.291l2.394.547,1.867-1.13.705-.459Z" transform="translate(1.597 3.353)" fill="#4a616c"/>
      </g>
    </g>
  </g>
</svg>
