<svg xmlns="http://www.w3.org/2000/svg" xmlns:xlink="http://www.w3.org/1999/xlink" width="277" height="226" viewBox="0 0 277 226">
  <defs>
    <clipPath id="clip-dachpfannen">
      <rect width="277" height="226"/>
    </clipPath>
  </defs>
  <g id="dachpfannen" clip-path="url(#clip-dachpfannen)">
    <g id="Gruppe_1529" data-name="Gruppe 1529" transform="translate(30.793 43.766)">
      <path id="Pfad_506" data-name="Pfad 506" d="M15787.551-8679.752s17.316,9.188,29.912-1.123,19.365,0,19.365,0l-.914,56.014s-9.891-9.517-19.368,0-34,5.464-33.5,0S15787.551-8679.752,15787.551-8679.752Z" transform="translate(-15781.473 8695.011)" fill="#be6648" stroke="#682510" stroke-width="2"/>
      <path id="Pfad_510" data-name="Pfad 510" d="M15787.642-8679.53s17.66,9.543,30.506-1.167,19.75,0,19.75,0l-.931,58.179s-10.088-9.884-19.755,0-34.672,5.677-34.164,0S15787.642-8679.53,15787.642-8679.53Z" transform="translate(-15783.04 8751.175)" fill="#be6648" stroke="#682510" stroke-width="2"/>
      <path id="Pfad_508" data-name="Pfad 508" d="M4.781,6.169S22.061,15.7,34.715,4.847s19.374-.094,19.374-.094L52.9,63.37s-9.849-9.909-19.379.094S-.518,69.348.008,63.627,4.781,6.169,4.781,6.169Z" transform="matrix(0.996, -0.087, 0.087, 0.996, 101.595, 11.719)" fill="#be6648" stroke="#682510" stroke-width="2"/>
      <path id="Pfad_512" data-name="Pfad 512" d="M4.776,6.1S22.413,15.66,35.3,4.829s19.756-.061,19.756-.061L53.945,63.392s-10.061-9.928-19.761.061-34.7,5.826-34.176.105S4.776,6.1,4.776,6.1Z" transform="matrix(0.996, -0.087, 0.087, 0.996, 102.133, 70.516)" fill="#be6648" stroke="#682510" stroke-width="2"/>
      <path id="Pfad_507" data-name="Pfad 507" d="M4.425,5.945s16.99,9.57,29.349-1.171,19,0,19,0l-.9,58.351s-9.7-9.913-19,0-33.355,5.692-32.867,0S4.425,5.945,4.425,5.945Z" transform="translate(52.173 9.599) rotate(-3)" fill="#be6648" stroke="#682510" stroke-width="2"/>
      <path id="Pfad_511" data-name="Pfad 511" d="M4.454,5.9S21.79,15.492,34.383,4.763s19.377.02,19.377.02l-.854,58.353S43,53.212,33.524,63.116-.485,68.773.007,63.082,4.454,5.9,4.454,5.9Z" transform="translate(51.68 68.371) rotate(-3)" fill="#be6648" stroke="#682510" stroke-width="2"/>
      <path id="Pfad_509" data-name="Pfad 509" d="M4.489,6.529S21.433,16.484,33.877,5.1s19.02-.13,19.02-.13L51.633,69.188s-2.174-4.56-6.989-5.5c-3.032-.6-8.116-1.6-12.064,2.82-3.572,4-9.257,4.4-15.175,4.853C8.462,72.047-.318,67.8.009,64.089.538,58.1,4.489,6.529,4.489,6.529Z" transform="translate(152.185 7.362) rotate(-8)" fill="#be6648" stroke="#682510" stroke-width="2"/>
      <path id="Pfad_513" data-name="Pfad 513" d="M4.418,6.423s17.3,10,29.957-1.353,19.391-.078,19.391-.078L52.653,69.234a10.951,10.951,0,0,0-7.14-5.519c-3.093-.605-8.278-1.622-12.291,2.788-3.631,3.99-9.425,4.379-15.457,4.814C8.648,71.976-.314,67.7.008,63.992.531,58,4.418,6.423,4.418,6.423Z" transform="translate(153.803 65.269) rotate(-8)" fill="#be6648" stroke="#682510" stroke-width="2"/>
    </g>
  </g>
</svg>
