<svg xmlns="http://www.w3.org/2000/svg" xmlns:xlink="http://www.w3.org/1999/xlink" width="277" height="196" viewBox="0 0 277 196">
  <defs>
    <clipPath id="clip-eigentuemer">
      <rect width="277" height="196"/>
    </clipPath>
  </defs>
  <g id="eigentuemer" clip-path="url(#clip-eigentuemer)">
    <g id="Gruppe_1506" data-name="Gruppe 1506" transform="translate(10.679 36.994)">
      <path id="Pfad_227" data-name="Pfad 227" d="M19124.955-16440.01l41.627,46.941v2.475l-103.439-13.531-39.352-44.586-30.387,61.012h-6.652l33.107-72.084Z" transform="translate(-18986.752 16459.783)" fill="rgba(247,170,32,0.63)" opacity="0.973"/>
      <path id="Pfad_235" data-name="Pfad 235" d="M19106.383-16321.295v45.762l-89.977,2.4v-61.746Z" transform="translate(-18940.182 16392.309)" fill="#e8b964" opacity="0.973"/>
      <path id="Pfad_228" data-name="Pfad 228" d="M19281.025-16385.926l-.592-.7-37.244-42.338-28.777,59.7v45.3h66.342l.271-61.942" transform="translate(-19205.814 16443.135)" fill="#fac973" opacity="0.973"/>
      <path id="Pfad_229" data-name="Pfad 229" d="M19135.453-16387.906l-88.371-12.844-38.148-43.268,91.992,16.92Z" transform="translate(-18965.82 16451.268)" fill="#d1d1d1"/>
      <path id="Pfad_243" data-name="Pfad 243" d="M19087.863-16407.1l-16.844-2.855,8.264,9.756,16.865,3.01Z" transform="translate(-18955.061 16432.865)" fill="#006f39"/>
      <path id="Pfad_245" data-name="Pfad 245" d="M19087.863-16407.1l-16.844-2.855,8.264,9.756,16.865,3.01Z" transform="translate(-18943.777 16445.631)" fill="#006f39"/>
      <path id="Pfad_246" data-name="Pfad 246" d="M19087.863-16407.1l-16.844-2.855,8.264,9.756,16.865,3.01Z" transform="translate(-18931.822 16458.965)" fill="#006f39"/>
      <path id="Pfad_239" data-name="Pfad 239" d="M19087.863-16407.1l-16.844-2.855,8.264,9.756,16.865,3.01Z" transform="translate(-18976.209 16429.188)" fill="#006f39"/>
      <path id="Pfad_241" data-name="Pfad 241" d="M19087.863-16407.1l-16.844-2.855,8.264,9.756,16.865,3.01Z" transform="translate(-18964.926 16441.953)" fill="#006f39"/>
      <path id="Pfad_244" data-name="Pfad 244" d="M19087.863-16407.1l-16.844-2.855,8.264,9.756,16.865,3.01Z" transform="translate(-18952.973 16455.285)" fill="#006f39"/>
      <path id="Pfad_234" data-name="Pfad 234" d="M19087.863-16407.1l-16.844-2.855,8.264,9.756,16.865,3.01Z" transform="translate(-18997.818 16425.51)" fill="#006f39"/>
      <path id="Pfad_237" data-name="Pfad 237" d="M19087.863-16407.1l-16.844-2.855,8.264,9.756,16.865,3.01Z" transform="translate(-18986.535 16438.273)" fill="#006f39"/>
      <path id="Pfad_240" data-name="Pfad 240" d="M19087.863-16407.1l-16.844-2.855,8.264,9.756,16.865,3.01Z" transform="translate(-18974.58 16451.607)" fill="#006f39"/>
      <path id="Pfad_230" data-name="Pfad 230" d="M19087.863-16407.1l-16.844-2.855,8.264,9.756,16.865,3.01Z" transform="translate(-19019.924 16421.373)" fill="#006f39"/>
      <path id="Pfad_233" data-name="Pfad 233" d="M19087.863-16407.1l-16.844-2.855,8.264,9.756,16.865,3.01Z" transform="translate(-19008.641 16434.137)" fill="#006f39"/>
      <path id="Pfad_236" data-name="Pfad 236" d="M19087.863-16407.1l-16.844-2.855,8.264,9.756,16.865,3.01Z" transform="translate(-18996.689 16447.469)" fill="#006f39"/>
      <path id="Pfad_247" data-name="Pfad 247" d="M19065.5-16285.07l-13.031-.979v16.43h13.031Z" transform="translate(-18915.883 16365.926)" fill="#d1d1d1"/>
      <path id="Pfad_242" data-name="Pfad 242" d="M19122.633-16289.956l-15.076-1.08-.668,38h15.744Z" transform="translate(-18998.035 16368.62)" fill="#d1d1d1"/>
      <path id="Pfad_238" data-name="Pfad 238" d="M19122.633-16289.915l-15.076-1.121-.668,39.451h15.744Z" transform="translate(-19014.586 16367.171)" fill="#d1d1d1"/>
      <path id="Pfad_231" data-name="Pfad 231" d="M19289.525-16285.548l-10.982.922v34.121h10.982Z" transform="translate(-19243.85 16365.653)" fill="#d1d1d1"/>
      <path id="Pfad_232" data-name="Pfad 232" d="M19290.064-16379.431v17.787l-10.346,1.535v-16.205Z" transform="translate(-19244.928 16416.373)" fill="#d1d1d1"/>
      <g id="_172625_male_user_icon" data-name="172625_male_user_icon" transform="translate(119.939 24.178)">
        <rect id="Rechteck_137" data-name="Rechteck 137" width="125.973" height="125.973" transform="translate(0 0)" fill="none"/>
        <path id="Pfad_248" data-name="Pfad 248" d="M67.289,77.869c-.368-4.21-.227-7.147-.227-10.994,1.839-1,5.134-7.377,5.691-12.765,1.446-.123,3.726-1.585,4.393-7.359.36-3.1-1.071-4.844-1.942-5.393,2.353-7.335,7.24-30.029-9.038-32.374-1.675-3.05-5.965-4.593-11.54-4.593-22.3.426-24.994,17.46-20.1,36.967-.869.548-2.3,2.293-1.942,5.393.67,5.774,2.947,7.236,4.393,7.359.554,5.385,3.98,11.764,5.824,12.765,0,3.847.139,6.784-.229,10.994C38.154,90.168,8.375,86.716,7,110.438h95.725C101.352,86.716,71.7,90.168,67.289,77.869Z" transform="translate(10.652 6.689)" fill="#11841e"/>
      </g>
      <path id="Pfad_249" data-name="Pfad 249" d="M19399.633-10833.354l-5.41,5.857-.859,1.492h-23.957l-10.074,10.037,6.605,6.981,45.633-2.095Z" transform="translate(-19169.482 10952.627)" fill="#d1d1d1"/>
      <path id="_8665482_key_security_icon" data-name="8665482_key_security_icon" d="M18.162,52.834a18.1,18.1,0,0,0,17.6-22.556l16.1-16.1a3.31,3.31,0,0,0,.971-2.343V1.651A1.654,1.654,0,0,0,51.183,0H41.276a1.651,1.651,0,0,0-1.651,1.651V6.6H34.672a1.651,1.651,0,0,0-1.651,1.651v4.953H27.1a1.65,1.65,0,0,0-1.167.484l-3.376,3.376a24.33,24.33,0,0,0-4.4-.465,18.115,18.115,0,1,0,0,36.23ZM14.034,34.672A4.128,4.128,0,1,1,9.906,38.8,4.128,4.128,0,0,1,14.034,34.672Z" transform="translate(228.962 174.362) rotate(-135)" fill="#11841e"/>
    </g>
    <g id="Gruppe_1476" data-name="Gruppe 1476" transform="translate(176.994 9.914)">
      <g id="Ellipse_21" data-name="Ellipse 21" transform="translate(9.621 11.511)" fill="#f0c34f" stroke="#f0c34f" stroke-width="1">
        <ellipse cx="5.154" cy="5.154" rx="5.154" ry="5.154" stroke="none"/>
        <ellipse cx="5.154" cy="5.154" rx="4.654" ry="4.654" fill="none"/>
      </g>
      <line id="Linie_37" data-name="Linie 37" y1="6.529" transform="translate(14.604 0)" fill="none" stroke="#f0c34f" stroke-width="1"/>
      <line id="Linie_43" data-name="Linie 43" y2="6.529" transform="translate(14.604 26.116)" fill="none" stroke="#f0c34f" stroke-width="1"/>
      <line id="Linie_39" data-name="Linie 39" y2="6.529" transform="translate(6.529 16.666) rotate(90)" fill="none" stroke="#f0c34f" stroke-width="1"/>
      <line id="Linie_42" data-name="Linie 42" y1="6.529" transform="translate(29.208 16.322) rotate(90)" fill="none" stroke="#f0c34f" stroke-width="1"/>
      <line id="Linie_38" data-name="Linie 38" x1="5.498" y1="5.498" transform="translate(3.78 4.295)" fill="none" stroke="#f0c34f" stroke-width="1"/>
      <line id="Linie_45" data-name="Linie 45" x1="5.498" y2="5.498" transform="translate(3.78 22.851)" fill="none" stroke="#f0c34f" stroke-width="1"/>
      <line id="Linie_41" data-name="Linie 41" y1="5.498" x2="5.498" transform="translate(19.93 3.952)" fill="none" stroke="#f0c34f" stroke-width="1"/>
      <line id="Linie_44" data-name="Linie 44" x2="5.498" y2="5.498" transform="translate(19.93 23.195)" fill="none" stroke="#f0c34f" stroke-width="1"/>
    </g>
  </g>
</svg>
