<svg xmlns="http://www.w3.org/2000/svg" xmlns:xlink="http://www.w3.org/1999/xlink" width="277" height="226" viewBox="0 0 277 226">
  <defs>
    <clipPath id="clip-keinsolar">
      <rect width="277" height="226"/>
    </clipPath>
  </defs>
  <g id="keinsolar" clip-path="url(#clip-keinsolar)">
    <g id="Gruppe_1590" data-name="Gruppe 1590">
      <g id="Gruppe_1589" data-name="Gruppe 1589" transform="translate(33.633 57.953)">
        <path id="Pfad_404" data-name="Pfad 404" d="M13554.156-4392.224l70.295-36.645,91.072,96.437-42.082,68.208Z" transform="translate(-13557.575 4400)" fill="none" stroke="#201d1a" stroke-width="8"/>
        <g id="Gruppe_1515" data-name="Gruppe 1515" transform="translate(102.743 37.278)">
          <g id="Ellipse_23" data-name="Ellipse 23" transform="translate(47.412 -0.231)" fill="#ba1313" stroke="#ba1313" stroke-width="5">
            <ellipse cx="31.5" cy="32" rx="31.5" ry="32" stroke="none"/>
            <ellipse cx="31.5" cy="32" rx="29" ry="29.5" fill="none"/>
          </g>
        </g>
        <g id="Gruppe_1482" data-name="Gruppe 1482" transform="translate(168.971 56.999)">
          <line id="Linie_57" data-name="Linie 57" x2="25.431" y2="24.649" fill="none" stroke="#d1d1d1" stroke-linecap="round" stroke-width="20"/>
          <line id="Linie_58" data-name="Linie 58" y1="24.649" x2="25.431" fill="none" stroke="#d1d1d1" stroke-linecap="round" stroke-width="20"/>
        </g>
        <path id="Pfad_405" data-name="Pfad 405" d="M4.019,0,147.684.279l4.08,15.889L0,15.415Z" transform="translate(22.428 0.747) rotate(47)" fill="#00703a"/>
        <path id="Pfad_406" data-name="Pfad 406" d="M3.773,0,138.646.26l3.831,14.81L0,14.368Z" transform="translate(37.616 -7.641) rotate(47)" fill="#00703a"/>
        <path id="Pfad_407" data-name="Pfad 407" d="M3.522,0,129.428.23,133,13.324,0,12.7Z" transform="translate(52.329 -14.065) rotate(47)" fill="#00703a"/>
        <path id="Pfad_408" data-name="Pfad 408" d="M3.308,0,121.551.183l3.358,10.458L0,10.145Z" transform="translate(64.835 -19.85) rotate(47)" fill="#00703a"/>
      </g>
    </g>
  </g>
</svg>
