<svg xmlns="http://www.w3.org/2000/svg" xmlns:xlink="http://www.w3.org/1999/xlink" width="277" height="226" viewBox="0 0 277 226">
  <defs>
    <clipPath id="clip-pultdach">
      <rect width="277" height="226"/>
    </clipPath>
  </defs>
  <g id="pultdach" clip-path="url(#clip-pultdach)">
    <g id="Gruppe_1511" data-name="Gruppe 1511" transform="translate(15.987 32.39)">
      <path id="Pfad_118" data-name="Pfad 118" d="M20263.4-16028.21l-95.129,10.5v74.159h95.129Z" transform="translate(-20115.033 16096.681)" fill="#f9c975"/>
      <g id="Gruppe_1478" data-name="Gruppe 1478" transform="translate(0 0)">
        <g id="Ellipse_21" data-name="Ellipse 21" transform="translate(19.011 22.745)" fill="#f0c34f" stroke="#f0c34f" stroke-width="1">
          <ellipse cx="10.185" cy="10.185" rx="10.185" ry="10.185" stroke="none"/>
          <ellipse cx="10.185" cy="10.185" rx="9.685" ry="9.685" fill="none"/>
        </g>
        <line id="Linie_37" data-name="Linie 37" y1="12.9" transform="translate(28.856 0)" fill="none" stroke="#f0c34f" stroke-width="1"/>
        <line id="Linie_43" data-name="Linie 43" y2="12.9" transform="translate(28.856 51.602)" fill="none" stroke="#f0c34f" stroke-width="1"/>
        <line id="Linie_39" data-name="Linie 39" y2="12.9" transform="translate(12.9 32.93) rotate(90)" fill="none" stroke="#f0c34f" stroke-width="1"/>
        <line id="Linie_42" data-name="Linie 42" y1="12.9" transform="translate(57.712 32.251) rotate(90)" fill="none" stroke="#f0c34f" stroke-width="1"/>
        <line id="Linie_38" data-name="Linie 38" x1="10.863" y1="10.863" transform="translate(7.469 8.487)" fill="none" stroke="#f0c34f" stroke-width="1"/>
        <line id="Linie_45" data-name="Linie 45" x1="10.863" y2="10.863" transform="translate(7.469 45.151)" fill="none" stroke="#f0c34f" stroke-width="1"/>
        <line id="Linie_41" data-name="Linie 41" y1="10.863" x2="10.863" transform="translate(39.38 7.808)" fill="none" stroke="#f0c34f" stroke-width="1"/>
        <line id="Linie_44" data-name="Linie 44" x2="10.863" y2="10.863" transform="translate(39.38 45.83)" fill="none" stroke="#f0c34f" stroke-width="1"/>
      </g>
      <path id="Pfad_111" data-name="Pfad 111" d="M20108.3-16114.109v122.254l-53.654,3.492v-85.158Z" transform="translate(-19906.275 16142.02)" fill="#e8b964"/>
      <path id="Pfad_112" data-name="Pfad 112" d="M20089.35-16069.91v21.6h-8.439v-15.844Z" transform="translate(-19899.727 16118.691)" fill="#d1d1d1"/>
      <path id="Pfad_113" data-name="Pfad 113" d="M20089.756-15986.125v17.681h-8.85v-21.324Z" transform="translate(-19900.129 16076.391)" fill="#d1d1d1"/>
      <path id="Pfad_114" data-name="Pfad 114" d="M20174.309-16002.676v12.395h-35.43v-12.395l21.7-1.627Z" transform="translate(-20012.057 16084.062)" fill="#d1d1d1"/>
      <path id="Pfad_115" data-name="Pfad 115" d="M20284.551-15996.478v12.863l-36.969,2.69v-10.979Z" transform="translate(-20173.627 16079.932)" fill="#d1d1d1"/>
      <path id="Pfad_116" data-name="Pfad 116" d="M20174.883-15926.888h-36.006v33.6h22.936l13.07-1.4Z" transform="translate(-20012.629 16043.201)" fill="#d1d1d1"/>
      <path id="Pfad_117" data-name="Pfad 117" d="M20286.336-15926.888h-38.754v34.27h38.754Z" transform="translate(-20175.412 16043.201)" fill="#d1d1d1"/>
      <path id="Pfad_119" data-name="Pfad 119" d="M20204.234-16122.625l-52.307,40.51-92.059,11.278,46.613-36.911Z" transform="translate(-20004.674 16146.515)" fill="#e8b964"/>
      <path id="Pfad_125" data-name="Pfad 125" d="M20210.559-16105.621l-35.937,28.707-74.975,10.084,35.867-29.105Z" transform="translate(-20029.783 16137.539)" fill="#d1d1d1"/>
      <path id="Pfad_126" data-name="Pfad 126" d="M20136.371-16097.129l-8.912,6.85h-10.453l5.35-6.014Z" transform="translate(-19963.791 16133.058)" fill="#006f39"/>
      <path id="Pfad_133" data-name="Pfad 133" d="M20136.371-16097.129l-8.912,6.85h-10.453l5.35-6.014Z" transform="translate(-19976.068 16141.795)" fill="#006f39"/>
      <path id="Pfad_137" data-name="Pfad 137" d="M20136.371-16097.129l-8.912,6.85h-10.453l5.35-6.014Z" transform="translate(-19984.857 16150.532)" fill="#006f39"/>
      <path id="Pfad_127" data-name="Pfad 127" d="M20136.371-16097.129l-8.912,6.85h-10.453l5.35-6.014Z" transform="translate(-19982.15 16134.947)" fill="#006f39"/>
      <path id="Pfad_132" data-name="Pfad 132" d="M20136.371-16097.129l-8.912,6.85h-10.453l5.35-6.014Z" transform="translate(-19994.428 16143.684)" fill="#006f39"/>
      <path id="Pfad_136" data-name="Pfad 136" d="M20136.371-16097.129l-8.912,6.85h-10.453l5.35-6.014Z" transform="translate(-20003.217 16152.422)" fill="#006f39"/>
      <path id="Pfad_128" data-name="Pfad 128" d="M20136.371-16097.129l-8.912,6.85h-10.453l5.35-6.014Z" transform="translate(-19999.313 16137.308)" fill="#006f39"/>
      <path id="Pfad_131" data-name="Pfad 131" d="M20136.371-16097.129l-8.912,6.85h-10.453l5.35-6.014Z" transform="translate(-20011.588 16146.045)" fill="#006f39"/>
      <path id="Pfad_135" data-name="Pfad 135" d="M20136.371-16097.129l-8.912,6.85h-10.453l5.35-6.014Z" transform="translate(-20020.379 16154.782)" fill="#006f39"/>
      <path id="Pfad_129" data-name="Pfad 129" d="M20136.371-16097.129l-8.912,6.85h-10.453l5.35-6.014Z" transform="translate(-20017.256 16139.906)" fill="#006f39"/>
      <path id="Pfad_130" data-name="Pfad 130" d="M20136.371-16097.129l-8.912,6.85h-10.453l5.35-6.014Z" transform="translate(-20029.531 16148.644)" fill="#006f39"/>
      <path id="Pfad_134" data-name="Pfad 134" d="M20136.371-16097.129l-8.912,6.85h-10.453l5.35-6.014Z" transform="translate(-20038.32 16157.381)" fill="#006f39"/>
    </g>
  </g>
</svg>
