<svg xmlns="http://www.w3.org/2000/svg" xmlns:xlink="http://www.w3.org/1999/xlink" width="277" height="226" viewBox="0 0 277 226">
  <defs>
    <clipPath id="clip-flachdach">
      <rect width="277" height="226"/>
    </clipPath>
  </defs>
  <g id="flachdach" clip-path="url(#clip-flachdach)">
    <g id="Gruppe_1512" data-name="Gruppe 1512" transform="translate(40.95)">
      <g id="Gruppe_1491" data-name="Gruppe 1491" transform="translate(0 8.073)">
        <g id="Ellipse_21" data-name="Ellipse 21" transform="translate(19.011 22.745)" fill="#f0c34f" stroke="#f0c34f" stroke-width="1">
          <ellipse cx="10.185" cy="10.185" rx="10.185" ry="10.185" stroke="none"/>
          <ellipse cx="10.185" cy="10.185" rx="9.685" ry="9.685" fill="none"/>
        </g>
        <line id="Linie_37" data-name="Linie 37" y1="12.9" transform="translate(28.856 0)" fill="none" stroke="#f0c34f" stroke-width="1"/>
        <line id="Linie_43" data-name="Linie 43" y2="12.9" transform="translate(28.856 51.602)" fill="none" stroke="#f0c34f" stroke-width="1"/>
        <line id="Linie_39" data-name="Linie 39" y2="12.9" transform="translate(12.9 32.93) rotate(90)" fill="none" stroke="#f0c34f" stroke-width="1"/>
        <line id="Linie_42" data-name="Linie 42" y1="12.9" transform="translate(57.712 32.251) rotate(90)" fill="none" stroke="#f0c34f" stroke-width="1"/>
        <line id="Linie_38" data-name="Linie 38" x1="10.863" y1="10.863" transform="translate(7.469 8.487)" fill="none" stroke="#f0c34f" stroke-width="1"/>
        <line id="Linie_45" data-name="Linie 45" x1="10.863" y2="10.863" transform="translate(7.469 45.151)" fill="none" stroke="#f0c34f" stroke-width="1"/>
        <line id="Linie_41" data-name="Linie 41" y1="10.863" x2="10.863" transform="translate(39.38 7.808)" fill="none" stroke="#f0c34f" stroke-width="1"/>
        <line id="Linie_44" data-name="Linie 44" x2="10.863" y2="10.863" transform="translate(39.38 45.83)" fill="none" stroke="#f0c34f" stroke-width="1"/>
      </g>
      <g id="Gruppe_1480" data-name="Gruppe 1480" transform="translate(27.75 72.575)">
        <path id="Pfad_252" data-name="Pfad 252" d="M20275.166-16028.21l-106.891,11.8v83.328h106.891Z" transform="translate(-20167.104 16067.689)" fill="#f9c975"/>
        <path id="Pfad_250" data-name="Pfad 250" d="M20114.93-16005.88v80.12l-60.285,3.924v-95.687Z" transform="translate(-19946.582 16057.033)" fill="#e8b964"/>
        <path id="Pfad_253" data-name="Pfad 253" d="M20090.85-15985.674v19.866h-9.939v-23.961Z" transform="translate(-19936.436 16049.644)" fill="#d1d1d1"/>
        <path id="Pfad_254" data-name="Pfad 254" d="M20178.688-16002.473v13.928h-39.811v-13.928l24.373-1.83Z" transform="translate(-20055.025 16056.466)" fill="#d1d1d1"/>
        <path id="Pfad_255" data-name="Pfad 255" d="M20289.123-15996.478v14.454l-41.541,3.022v-12.336Z" transform="translate(-20223.137 16052.793)" fill="#d1d1d1"/>
        <path id="Pfad_251" data-name="Pfad 251" d="M20179.332-15926.887h-40.455v37.753h25.771l14.684-1.571Z" transform="translate(-20055.674 16020.123)" fill="#d1d1d1"/>
        <path id="Pfad_256" data-name="Pfad 256" d="M20291.125-15926.887h-43.545v38.5h43.545Z" transform="translate(-20225.141 16020.123)" fill="#d1d1d1"/>
        <path id="Pfad_261" data-name="Pfad 261" d="M20299.895-7224.205l-60.877-11.765-107.473,11.765" transform="translate(-20131.545 7270.689)" fill="none" stroke="#f9c975" stroke-width="3"/>
        <line id="Linie_55" data-name="Linie 55" y1="40.608" transform="translate(140.512 0)" fill="none" stroke="#f9c975" stroke-width="3"/>
        <line id="Linie_56" data-name="Linie 56" y2="7.555" transform="translate(107.459 27.165)" fill="none" stroke="#f9c975" stroke-width="3"/>
        <path id="Pfad_262" data-name="Pfad 262" d="M20366.615-7233.654v4.145" transform="translate(-20309.262 7269.467)" fill="none" stroke="#f9c975" stroke-width="3"/>
        <path id="Pfad_263" data-name="Pfad 263" d="M20425.271-7225.89v3.46" transform="translate(-20395.613 7265.369)" fill="none" stroke="#f9c975" stroke-width="3"/>
        <path id="Pfad_264" data-name="Pfad 264" d="M20214.6-7311.688l-11.137,9.235H20190.5l9.475-9.235Z" transform="translate(-20076.393 7311.689)" fill="#006f39"/>
        <path id="Pfad_265" data-name="Pfad 265" d="M20214.6-7311.688l-11.137,9.235H20190.5l9.475-9.235Z" transform="translate(-20097.17 7314.522)" fill="#006f39"/>
        <path id="Pfad_266" data-name="Pfad 266" d="M20214.6-7311.688l-11.137,9.235H20190.5l9.475-9.235Z" transform="translate(-20117 7316.883)" fill="#006f39"/>
        <path id="Pfad_267" data-name="Pfad 267" d="M20214.6-7311.688l-11.137,9.235H20190.5l9.475-9.235Z" transform="translate(-20138.248 7320.188)" fill="#006f39"/>
        <path id="Pfad_268" data-name="Pfad 268" d="M20214.6-7311.688l-11.137,9.235H20190.5l9.475-9.235Z" transform="translate(-20151.471 7331.048)" fill="#006f39"/>
        <path id="Pfad_269" data-name="Pfad 269" d="M20214.6-7311.688l-11.137,9.235H20190.5l9.475-9.235Z" transform="translate(-20165.164 7340.964)" fill="#006f39"/>
        <path id="Pfad_270" data-name="Pfad 270" d="M20214.6-7311.688l-11.137,9.235H20190.5l9.475-9.235Z" transform="translate(-20143.443 7338.013)" fill="#006f39"/>
        <path id="Pfad_271" data-name="Pfad 271" d="M20214.6-7311.688l-11.137,9.235H20190.5l9.475-9.235Z" transform="translate(-20130.424 7327.625)" fill="#006f39"/>
        <path id="Pfad_272" data-name="Pfad 272" d="M20214.6-7311.688l-11.137,9.235H20190.5l9.475-9.235Z" transform="translate(-20123.814 7335.666)" fill="#006f39"/>
        <path id="Pfad_273" data-name="Pfad 273" d="M20214.6-7311.688l-11.137,9.235H20190.5l9.475-9.235Z" transform="translate(-20110.119 7324.924)" fill="#006f39"/>
        <path id="Pfad_274" data-name="Pfad 274" d="M20214.6-7311.688l-11.137,9.235H20190.5l9.475-9.235Z" transform="translate(-20090.939 7323.008)" fill="#006f39"/>
        <path id="Pfad_275" data-name="Pfad 275" d="M20214.6-7311.688l-11.137,9.235H20190.5l9.475-9.235Z" transform="translate(-20103.688 7333.396)" fill="#006f39"/>
      </g>
    </g>
  </g>
</svg>
