<svg xmlns="http://www.w3.org/2000/svg" xmlns:xlink="http://www.w3.org/1999/xlink" width="277" height="196" viewBox="0 0 277 196">
  <defs>
    <clipPath id="clip-nichteigentuemer">
      <rect width="277" height="196"/>
    </clipPath>
  </defs>
  <g id="nichteigentuemer" clip-path="url(#clip-nichteigentuemer)">
    <g id="Gruppe_1505" data-name="Gruppe 1505" transform="translate(11.08 28.362)">
      <path id="Pfad_54" data-name="Pfad 54" d="M19129.971-16439.293l43.139,48.646v2.563l-107.189-14.021-40.783-46.2-31.492,63.229h-6.895l34.311-74.7Z" transform="translate(-18986.75 16459.783)" fill="rgba(247,170,32,0.63)"/>
      <path id="Pfad_51" data-name="Pfad 51" d="M19109.641-16320.8v47.422l-93.238,2.486v-63.988Z" transform="translate(-18937.414 16394.393)" fill="#e8b964"/>
      <path id="Pfad_52" data-name="Pfad 52" d="M19283.443-16384.367l-.615-.725-38.6-43.875-29.82,61.874v46.939h68.752l.281-64.194" transform="translate(-19205.5 16443.65)" fill="#fac973"/>
      <path id="Pfad_53" data-name="Pfad 53" d="M19140.043-16385.869l-91.576-13.312-39.533-44.836,95.33,17.535Z" transform="translate(-18964.254 16451.529)" fill="#d1d1d1"/>
      <path id="Pfad_55" data-name="Pfad 55" d="M19088.475-16407l-17.455-2.957,8.566,10.109,17.475,3.117Z" transform="translate(-18950.85 16433.695)" fill="#006f39"/>
      <path id="Pfad_62" data-name="Pfad 62" d="M19088.475-16407l-17.455-2.957,8.566,10.109,17.475,3.117Z" transform="translate(-18939.156 16446.924)" fill="#006f39"/>
      <path id="Pfad_66" data-name="Pfad 66" d="M19088.475-16407l-17.455-2.957,8.566,10.109,17.475,3.117Z" transform="translate(-18926.768 16460.74)" fill="#006f39"/>
      <path id="Pfad_56" data-name="Pfad 56" d="M19088.475-16407l-17.455-2.957,8.566,10.109,17.475,3.117Z" transform="translate(-18972.768 16429.883)" fill="#006f39"/>
      <path id="Pfad_61" data-name="Pfad 61" d="M19088.475-16407l-17.455-2.957,8.566,10.109,17.475,3.117Z" transform="translate(-18961.072 16443.111)" fill="#006f39"/>
      <path id="Pfad_65" data-name="Pfad 65" d="M19088.475-16407l-17.455-2.957,8.566,10.109,17.475,3.117Z" transform="translate(-18948.686 16456.928)" fill="#006f39"/>
      <path id="Pfad_57" data-name="Pfad 57" d="M19088.475-16407l-17.455-2.957,8.566,10.109,17.475,3.117Z" transform="translate(-18995.16 16426.07)" fill="#006f39" opacity="0.499"/>
      <path id="Pfad_60" data-name="Pfad 60" d="M19088.475-16407l-17.455-2.957,8.566,10.109,17.475,3.117Z" transform="translate(-18983.467 16439.299)" fill="#006f39"/>
      <path id="Pfad_64" data-name="Pfad 64" d="M19088.475-16407l-17.455-2.957,8.566,10.109,17.475,3.117Z" transform="translate(-18971.08 16453.117)" fill="#006f39"/>
      <path id="Pfad_58" data-name="Pfad 58" d="M19088.475-16407l-17.455-2.957,8.566,10.109,17.475,3.117Z" transform="translate(-19018.068 16421.783)" fill="#006f39" opacity="0.499"/>
      <path id="Pfad_59" data-name="Pfad 59" d="M19088.475-16407l-17.455-2.957,8.566,10.109,17.475,3.117Z" transform="translate(-19006.377 16435.012)" fill="#006f39"/>
      <path id="Pfad_63" data-name="Pfad 63" d="M19088.475-16407l-17.455-2.957,8.566,10.109,17.475,3.117Z" transform="translate(-18993.99 16448.83)" fill="#006f39"/>
      <path id="Pfad_67" data-name="Pfad 67" d="M19065.975-16285.034l-13.506-1.014v17.021h13.506Z" transform="translate(-18910.924 16368.824)" fill="#d1d1d1"/>
      <path id="Pfad_68" data-name="Pfad 68" d="M19123.2-16289.916l-15.621-1.119-.7,39.381h16.316Z" transform="translate(-18994.08 16371.437)" fill="#d1d1d1"/>
      <path id="Pfad_69" data-name="Pfad 69" d="M19123.2-16289.875l-15.621-1.16-.7,40.883h16.316Z" transform="translate(-19011.232 16369.935)" fill="#d1d1d1"/>
      <path id="Pfad_70" data-name="Pfad 70" d="M19289.926-16285.549l-11.383.957v35.359h11.383Z" transform="translate(-19242.588 16368.563)" fill="#d1d1d1"/>
      <path id="Pfad_71" data-name="Pfad 71" d="M19290.439-16379.432V-16361l-10.721,1.592v-16.793Z" transform="translate(-19243.666 16417.715)" fill="#d1d1d1"/>
      <g id="_172625_male_user_icon" data-name="172625_male_user_icon" transform="translate(124.294 25.055)">
        <rect id="Rechteck_137" data-name="Rechteck 137" width="130.546" height="130.546" transform="translate(0 0)" fill="none"/>
        <path id="Pfad_248" data-name="Pfad 248" d="M69.478,80.536c-.381-4.362-.235-7.407-.235-11.393,1.906-1.036,5.32-7.645,5.9-13.228,1.5-.127,3.861-1.643,4.553-7.626.373-3.212-1.109-5.02-2.013-5.588,2.438-7.6,7.5-31.119-9.367-33.549-1.736-3.161-6.182-4.76-11.959-4.76C33.241,4.832,30.453,22.485,35.52,42.7c-.9.568-2.383,2.376-2.013,5.588.694,5.983,3.054,7.5,4.553,7.626.574,5.58,4.125,12.192,6.036,13.228,0,3.986.144,7.031-.238,11.393C39.284,93.282,8.425,89.7,7,114.288h99.2C104.778,89.7,74.052,93.282,69.478,80.536Z" transform="translate(11.293 7.091)" fill="#ba1313"/>
      </g>
    </g>
    <g id="Gruppe_1476" data-name="Gruppe 1476" transform="translate(176.994 9.914)">
      <g id="Ellipse_21" data-name="Ellipse 21" transform="translate(9.621 11.511)" fill="#f0c34f" stroke="#f0c34f" stroke-width="1">
        <ellipse cx="5.154" cy="5.154" rx="5.154" ry="5.154" stroke="none"/>
        <ellipse cx="5.154" cy="5.154" rx="4.654" ry="4.654" fill="none"/>
      </g>
      <line id="Linie_37" data-name="Linie 37" y1="6.529" transform="translate(14.604 0)" fill="none" stroke="#f0c34f" stroke-width="1"/>
      <line id="Linie_43" data-name="Linie 43" y2="6.529" transform="translate(14.604 26.116)" fill="none" stroke="#f0c34f" stroke-width="1"/>
      <line id="Linie_39" data-name="Linie 39" y2="6.529" transform="translate(6.529 16.666) rotate(90)" fill="none" stroke="#f0c34f" stroke-width="1"/>
      <line id="Linie_42" data-name="Linie 42" y1="6.529" transform="translate(29.208 16.322) rotate(90)" fill="none" stroke="#f0c34f" stroke-width="1"/>
      <line id="Linie_38" data-name="Linie 38" x1="5.498" y1="5.498" transform="translate(3.78 4.295)" fill="none" stroke="#f0c34f" stroke-width="1"/>
      <line id="Linie_45" data-name="Linie 45" x1="5.498" y2="5.498" transform="translate(3.78 22.851)" fill="none" stroke="#f0c34f" stroke-width="1"/>
      <line id="Linie_41" data-name="Linie 41" y1="5.498" x2="5.498" transform="translate(19.93 3.952)" fill="none" stroke="#f0c34f" stroke-width="1"/>
      <line id="Linie_44" data-name="Linie 44" x2="5.498" y2="5.498" transform="translate(19.93 23.195)" fill="none" stroke="#f0c34f" stroke-width="1"/>
    </g>
  </g>
</svg>
