<svg xmlns="http://www.w3.org/2000/svg" xmlns:xlink="http://www.w3.org/1999/xlink" width="277" height="226" viewBox="0 0 277 226">
  <defs>
    <clipPath id="clip-schiefer">
      <rect width="277" height="226"/>
    </clipPath>
  </defs>
  <g id="schiefer" clip-path="url(#clip-schiefer)">
    <g id="Gruppe_1528" data-name="Gruppe 1528" transform="translate(8.445 46.827)">
      <path id="Pfad_470" data-name="Pfad 470" d="M15405.1-8688.234c-20.657-8.5-18.272-19.569-18.272-19.569l34.951-1.4s1.759,13.9,19.988,19.159c1.808.521-3.83.792-10.077,1.266C15421.243-8687.985,15405.1-8688.234,15405.1-8688.234Z" transform="translate(-15345.189 8718.379)" fill="#b6b7be" stroke="#2b2c2e" stroke-width="1"/>
      <path id="Pfad_477" data-name="Pfad 477" d="M15405.1-8688.234c-20.657-8.5-18.272-19.569-18.272-19.569l34.951-1.4s1.759,13.9,19.988,19.159c1.808.521-3.83.792-10.077,1.266C15421.243-8687.985,15405.1-8688.234,15405.1-8688.234Z" transform="translate(-15325.001 8738.058)" fill="#b6b7be" stroke="#2b2c2e" stroke-width="1"/>
      <path id="Pfad_483" data-name="Pfad 483" d="M15405.1-8688.234c-20.657-8.5-18.272-19.569-18.272-19.569l34.951-1.4s1.759,13.9,19.988,19.159c1.808.521-3.83.792-10.077,1.266C15421.243-8687.985,15405.1-8688.234,15405.1-8688.234Z" transform="translate(-15340.602 8759.063)" fill="#b6b7be" stroke="#2b2c2e" stroke-width="1"/>
      <path id="Pfad_489" data-name="Pfad 489" d="M15405.1-8688.234c-20.657-8.5-18.272-19.569-18.272-19.569l34.951-1.4s1.759,13.9,19.988,19.159c1.808.521-3.83.792-10.077,1.266C15421.243-8687.985,15405.1-8688.234,15405.1-8688.234Z" transform="translate(-15350.959 8780.067)" fill="#b6b7be" stroke="#2b2c2e" stroke-width="1"/>
      <path id="Pfad_495" data-name="Pfad 495" d="M15405.1-8688.234c-20.657-8.5-18.272-19.569-18.272-19.569l34.951-1.4s1.759,13.9,19.988,19.159c1.808.521-3.83.792-10.077,1.266C15421.243-8687.985,15405.1-8688.234,15405.1-8688.234Z" transform="translate(-15335.441 8799.745)" fill="#b6b7be" stroke="#2b2c2e" stroke-width="1"/>
      <path id="Pfad_501" data-name="Pfad 501" d="M15405.1-8688.234c-20.657-8.5-18.272-19.569-18.272-19.569l34.951-1.4s1.759,13.9,19.988,19.159c1.808.521-3.83.792-10.077,1.266C15421.243-8687.985,15405.1-8688.234,15405.1-8688.234Z" transform="translate(-15341.211 8820.75)" fill="#b6b7be" stroke="#2b2c2e" stroke-width="1"/>
      <path id="Pfad_475" data-name="Pfad 475" d="M15405.1-8688.234c-20.657-8.5-18.272-19.569-18.272-19.569l34.951-1.4s1.759,13.9,19.988,19.159c1.808.521-3.83.792-10.077,1.266C15421.243-8687.985,15405.1-8688.234,15405.1-8688.234Z" transform="translate(-15380.978 8719.705)" fill="#b6b7be" stroke="#2b2c2e" stroke-width="1"/>
      <path id="Pfad_476" data-name="Pfad 476" d="M15405.1-8688.234c-20.657-8.5-18.272-19.569-18.272-19.569l34.951-1.4s1.759,13.9,19.988,19.159c1.808.521-3.83.792-10.077,1.266C15421.243-8687.985,15405.1-8688.234,15405.1-8688.234Z" transform="translate(-15360.789 8739.384)" fill="#b6b7be" stroke="#2b2c2e" stroke-width="1"/>
      <path id="Pfad_482" data-name="Pfad 482" d="M15405.1-8688.234c-20.657-8.5-18.272-19.569-18.272-19.569l34.951-1.4s1.759,13.9,19.988,19.159c1.808.521-3.83.792-10.077,1.266C15421.243-8687.985,15405.1-8688.234,15405.1-8688.234Z" transform="translate(-15376.389 8760.39)" fill="#b6b7be" stroke="#2b2c2e" stroke-width="1"/>
      <path id="Pfad_488" data-name="Pfad 488" d="M15405.1-8688.234c-20.657-8.5-18.272-19.569-18.272-19.569l34.951-1.4s1.759,13.9,19.988,19.159c1.808.521-3.83.792-10.077,1.266C15421.243-8687.985,15405.1-8688.234,15405.1-8688.234Z" transform="translate(-15386.746 8781.394)" fill="#b6b7be" stroke="#2b2c2e" stroke-width="1"/>
      <path id="Pfad_494" data-name="Pfad 494" d="M15405.1-8688.234c-20.657-8.5-18.272-19.569-18.272-19.569l34.951-1.4s1.759,13.9,19.988,19.159c1.808.521-3.83.792-10.077,1.266C15421.243-8687.985,15405.1-8688.234,15405.1-8688.234Z" transform="translate(-15371.229 8801.072)" fill="#b6b7be" stroke="#2b2c2e" stroke-width="1"/>
      <path id="Pfad_500" data-name="Pfad 500" d="M15405.1-8688.234c-20.657-8.5-18.272-19.569-18.272-19.569l34.951-1.4s1.759,13.9,19.988,19.159c1.808.521-3.83.792-10.077,1.266C15421.243-8687.985,15405.1-8688.234,15405.1-8688.234Z" transform="translate(-15376.998 8822.076)" fill="#b6b7be" stroke="#2b2c2e" stroke-width="1"/>
      <path id="Pfad_471" data-name="Pfad 471" d="M15405.1-8688.234c-20.657-8.5-18.272-19.569-18.272-19.569l34.951-1.4s1.669,12.963,19.9,18.228c1.075.31-.395,1.464-3.438,1.715-1.588.132-4.019.29-6.548.482C15421.243-8687.985,15405.1-8688.234,15405.1-8688.234Z" transform="translate(-15309.401 8716.543)" fill="#b6b7be" stroke="#2b2c2e" stroke-width="1"/>
      <path id="Pfad_478" data-name="Pfad 478" d="M15405.1-8688.234c-20.657-8.5-18.272-19.569-18.272-19.569l34.951-1.4s1.669,12.963,19.9,18.228c1.075.31-.395,1.464-3.438,1.715-1.588.132-4.019.29-6.548.482C15421.243-8687.985,15405.1-8688.234,15405.1-8688.234Z" transform="translate(-15289.214 8736.223)" fill="#b6b7be" stroke="#2b2c2e" stroke-width="1"/>
      <path id="Pfad_484" data-name="Pfad 484" d="M15405.1-8688.234c-20.657-8.5-18.272-19.569-18.272-19.569l34.951-1.4s1.669,12.963,19.9,18.228c1.075.31-.395,1.464-3.438,1.715-1.588.132-4.019.29-6.548.482C15421.243-8687.985,15405.1-8688.234,15405.1-8688.234Z" transform="translate(-15304.813 8757.228)" fill="#b6b7be" stroke="#2b2c2e" stroke-width="1"/>
      <path id="Pfad_490" data-name="Pfad 490" d="M15405.1-8688.234c-20.657-8.5-18.272-19.569-18.272-19.569l34.951-1.4s1.669,12.963,19.9,18.228c1.075.31-.395,1.464-3.438,1.715-1.588.132-4.019.29-6.548.482C15421.243-8687.985,15405.1-8688.234,15405.1-8688.234Z" transform="translate(-15315.171 8778.232)" fill="#b6b7be" stroke="#2b2c2e" stroke-width="1"/>
      <path id="Pfad_496" data-name="Pfad 496" d="M15405.1-8688.234c-20.657-8.5-18.272-19.569-18.272-19.569l34.951-1.4s1.669,12.963,19.9,18.228c1.075.31-.395,1.464-3.438,1.715-1.588.132-4.019.29-6.548.482C15421.243-8687.985,15405.1-8688.234,15405.1-8688.234Z" transform="translate(-15299.653 8797.91)" fill="#b6b7be" stroke="#2b2c2e" stroke-width="1"/>
      <path id="Pfad_502" data-name="Pfad 502" d="M15405.1-8688.234c-20.657-8.5-18.272-19.569-18.272-19.569l34.951-1.4s1.669,12.963,19.9,18.228c1.075.31-.395,1.464-3.438,1.715-1.588.132-4.019.29-6.548.482C15421.243-8687.985,15405.1-8688.234,15405.1-8688.234Z" transform="translate(-15305.423 8818.915)" fill="#b6b7be" stroke="#2b2c2e" stroke-width="1"/>
      <path id="Pfad_472" data-name="Pfad 472" d="M15405.1-8688.234c-20.657-8.5-18.272-19.569-18.272-19.569l34.951-1.4s1.669,12.963,19.9,18.228c1.075.31-.395,1.464-3.438,1.715-1.588.132-4.019.29-6.548.482C15421.243-8687.985,15405.1-8688.234,15405.1-8688.234Z" transform="translate(-15273.613 8713.79)" fill="#b6b7be" stroke="#2b2c2e" stroke-width="1"/>
      <path id="Pfad_479" data-name="Pfad 479" d="M15405.1-8688.234c-20.657-8.5-18.272-19.569-18.272-19.569l34.951-1.4s1.669,12.963,19.9,18.228c1.075.31-.395,1.464-3.438,1.715-1.588.132-4.019.29-6.548.482C15421.243-8687.985,15405.1-8688.234,15405.1-8688.234Z" transform="translate(-15253.426 8733.47)" fill="#b6b7be" stroke="#2b2c2e" stroke-width="1"/>
      <path id="Pfad_485" data-name="Pfad 485" d="M15405.1-8688.234c-20.657-8.5-18.272-19.569-18.272-19.569l34.951-1.4s1.669,12.963,19.9,18.228c1.075.31-.395,1.464-3.438,1.715-1.588.132-4.019.29-6.548.482C15421.243-8687.985,15405.1-8688.234,15405.1-8688.234Z" transform="translate(-15269.025 8754.475)" fill="#b6b7be" stroke="#2b2c2e" stroke-width="1"/>
      <path id="Pfad_491" data-name="Pfad 491" d="M15405.1-8688.234c-20.657-8.5-18.272-19.569-18.272-19.569l34.951-1.4s1.669,12.963,19.9,18.228c1.075.31-.395,1.464-3.438,1.715-1.588.132-4.019.29-6.548.482C15421.243-8687.985,15405.1-8688.234,15405.1-8688.234Z" transform="translate(-15279.383 8775.479)" fill="#b6b7be" stroke="#2b2c2e" stroke-width="1"/>
      <path id="Pfad_497" data-name="Pfad 497" d="M15405.1-8688.234c-20.657-8.5-18.272-19.569-18.272-19.569l34.951-1.4s1.669,12.963,19.9,18.228c1.075.31-.395,1.464-3.438,1.715-1.588.132-4.019.29-6.548.482C15421.243-8687.985,15405.1-8688.234,15405.1-8688.234Z" transform="translate(-15263.865 8795.157)" fill="#b6b7be" stroke="#2b2c2e" stroke-width="1"/>
      <path id="Pfad_503" data-name="Pfad 503" d="M15405.1-8688.234c-20.657-8.5-18.272-19.569-18.272-19.569l34.951-1.4s1.669,12.963,19.9,18.228c1.075.31-.395,1.464-3.438,1.715-1.588.132-4.019.29-6.548.482C15421.243-8687.985,15405.1-8688.234,15405.1-8688.234Z" transform="translate(-15269.635 8816.162)" fill="#b6b7be" stroke="#2b2c2e" stroke-width="1"/>
      <path id="Pfad_473" data-name="Pfad 473" d="M15405.1-8688.234c-20.657-8.5-18.272-19.569-18.272-19.569l34.951-1.4s1.669,12.963,19.9,18.228c1.075.31-.395,1.464-3.438,1.715-1.588.132-4.019.29-6.548.482C15421.243-8687.985,15405.1-8688.234,15405.1-8688.234Z" transform="translate(-15237.826 8711.037)" fill="#b6b7be" stroke="#2b2c2e" stroke-width="1"/>
      <path id="Pfad_480" data-name="Pfad 480" d="M15405.1-8688.234c-20.657-8.5-18.272-19.569-18.272-19.569l34.951-1.4s1.669,12.963,19.9,18.228c1.075.31-.395,1.464-3.438,1.715-1.588.132-4.019.29-6.548.482C15421.243-8687.985,15405.1-8688.234,15405.1-8688.234Z" transform="translate(-15217.638 8730.717)" fill="#b6b7be" stroke="#2b2c2e" stroke-width="1"/>
      <path id="Pfad_486" data-name="Pfad 486" d="M15405.1-8688.234c-20.657-8.5-18.272-19.569-18.272-19.569l34.951-1.4s1.669,12.963,19.9,18.228c1.075.31-.395,1.464-3.438,1.715-1.588.132-4.019.29-6.548.482C15421.243-8687.985,15405.1-8688.234,15405.1-8688.234Z" transform="translate(-15233.237 8751.722)" fill="#b6b7be" stroke="#2b2c2e" stroke-width="1"/>
      <path id="Pfad_492" data-name="Pfad 492" d="M15405.1-8688.234c-20.657-8.5-18.272-19.569-18.272-19.569l34.951-1.4s1.669,12.963,19.9,18.228c1.075.31-.395,1.464-3.438,1.715-1.588.132-4.019.29-6.548.482C15421.243-8687.985,15405.1-8688.234,15405.1-8688.234Z" transform="translate(-15243.595 8772.727)" fill="#b6b7be" stroke="#2b2c2e" stroke-width="1"/>
      <path id="Pfad_498" data-name="Pfad 498" d="M15405.1-8688.234c-20.657-8.5-18.272-19.569-18.272-19.569l34.951-1.4s1.669,12.963,19.9,18.228c1.075.31-.395,1.464-3.438,1.715-1.588.132-4.019.29-6.548.482C15421.243-8687.985,15405.1-8688.234,15405.1-8688.234Z" transform="translate(-15228.077 8792.404)" fill="#b6b7be" stroke="#2b2c2e" stroke-width="1"/>
      <path id="Pfad_504" data-name="Pfad 504" d="M15405.1-8688.234c-20.657-8.5-18.272-19.569-18.272-19.569l34.951-1.4s1.669,12.963,19.9,18.228c1.075.31-.395,1.464-3.438,1.715-1.588.132-4.019.29-6.548.482C15421.243-8687.985,15405.1-8688.234,15405.1-8688.234Z" transform="translate(-15233.847 8813.409)" fill="#b6b7be" stroke="#2b2c2e" stroke-width="1"/>
      <path id="Pfad_474" data-name="Pfad 474" d="M15405.1-8688.234c-20.657-8.5-18.272-19.569-18.272-19.569l34.951-1.4s1.669,12.963,19.9,18.228c1.075.31-.395,1.464-3.438,1.715-1.588.132-4.019.29-6.548.482C15421.243-8687.985,15405.1-8688.234,15405.1-8688.234Z" transform="translate(-15202.038 8709.202)" fill="#b6b7be" stroke="#2b2c2e" stroke-width="1"/>
      <path id="Pfad_481" data-name="Pfad 481" d="M15405.1-8688.234c-20.657-8.5-18.272-19.569-18.272-19.569l34.951-1.4s1.669,12.963,19.9,18.228c1.075.31-.395,1.464-3.438,1.715-1.588.132-4.019.29-6.548.482C15421.243-8687.985,15405.1-8688.234,15405.1-8688.234Z" transform="translate(-15181.85 8728.881)" fill="#b6b7be" stroke="#2b2c2e" stroke-width="1"/>
      <path id="Pfad_487" data-name="Pfad 487" d="M15405.1-8688.234c-20.657-8.5-18.272-19.569-18.272-19.569l34.951-1.4s1.669,12.963,19.9,18.228c1.075.31-.395,1.464-3.438,1.715-1.588.132-4.019.29-6.548.482C15421.243-8687.985,15405.1-8688.234,15405.1-8688.234Z" transform="translate(-15197.449 8749.887)" fill="#b6b7be" stroke="#2b2c2e" stroke-width="1"/>
      <path id="Pfad_493" data-name="Pfad 493" d="M15405.1-8688.234c-20.657-8.5-18.272-19.569-18.272-19.569l34.951-1.4s1.669,12.963,19.9,18.228c1.075.31-.395,1.464-3.438,1.715-1.588.132-4.019.29-6.548.482C15421.243-8687.985,15405.1-8688.234,15405.1-8688.234Z" transform="translate(-15207.807 8770.891)" fill="#b6b7be" stroke="#2b2c2e" stroke-width="1"/>
      <path id="Pfad_499" data-name="Pfad 499" d="M15405.1-8688.234c-20.657-8.5-18.272-19.569-18.272-19.569l34.951-1.4s1.669,12.963,19.9,18.228c1.075.31-.395,1.464-3.438,1.715-1.588.132-4.019.29-6.548.482C15421.243-8687.985,15405.1-8688.234,15405.1-8688.234Z" transform="translate(-15192.29 8790.569)" fill="#b6b7be" stroke="#2b2c2e" stroke-width="1"/>
      <path id="Pfad_505" data-name="Pfad 505" d="M15405.1-8688.234c-20.657-8.5-18.272-19.569-18.272-19.569l34.951-1.4s1.669,12.963,19.9,18.228c1.075.31-.395,1.464-3.438,1.715-1.588.132-4.019.29-6.548.482C15421.243-8687.985,15405.1-8688.234,15405.1-8688.234Z" transform="translate(-15198.059 8811.573)" fill="#b6b7be" stroke="#2b2c2e" stroke-width="1"/>
    </g>
  </g>
</svg>
