<svg xmlns="http://www.w3.org/2000/svg" xmlns:xlink="http://www.w3.org/1999/xlink" width="277" height="226" viewBox="0 0 277 226">
  <defs>
    <clipPath id="clip-speicher">
      <rect width="277" height="226"/>
    </clipPath>
  </defs>
  <g id="speicher" clip-path="url(#clip-speicher)">
    <g id="Gruppe_1514" data-name="Gruppe 1514" transform="translate(32.09 9.724)">
      <g id="Rechteck_138" data-name="Rechteck 138" transform="translate(34.91 19.276)" fill="none" stroke="#f7aa20" stroke-width="8">
        <rect width="113" height="187" rx="15" stroke="none"/>
        <rect x="4" y="4" width="105" height="179" rx="11" fill="none"/>
      </g>
      <g id="Rechteck_139" data-name="Rechteck 139" transform="translate(71.91 0.276)" fill="none" stroke="#f7aa20" stroke-width="5">
        <path d="M10,0H29A10,10,0,0,1,39,10V24a0,0,0,0,1,0,0H0a0,0,0,0,1,0,0V10A10,10,0,0,1,10,0Z" stroke="none"/>
        <path d="M10,2.5H29A7.5,7.5,0,0,1,36.5,10V21.5a0,0,0,0,1,0,0H2.5a0,0,0,0,1,0,0V10A7.5,7.5,0,0,1,10,2.5Z" fill="none"/>
      </g>
      <g id="Rechteck_142" data-name="Rechteck 142" transform="translate(56.91 44.276)" fill="#f6aa20" stroke="#f7aa20" stroke-width="5">
        <rect width="70" height="24" rx="5" stroke="none"/>
        <rect x="2.5" y="2.5" width="65" height="19" rx="2.5" fill="none"/>
      </g>
      <g id="Rechteck_143" data-name="Rechteck 143" transform="translate(56.91 83.276)" fill="#f7aa20" stroke="#f7aa20" stroke-width="5">
        <rect width="70" height="24" rx="5" stroke="none"/>
        <rect x="2.5" y="2.5" width="65" height="19" rx="2.5" fill="none"/>
      </g>
      <g id="Rechteck_144" data-name="Rechteck 144" transform="translate(56.91 122.276)" fill="#f4a820" stroke="#f7aa20" stroke-width="5">
        <rect width="70" height="24" rx="5" stroke="none"/>
        <rect x="2.5" y="2.5" width="65" height="19" rx="2.5" fill="none"/>
      </g>
      <g id="Rechteck_145" data-name="Rechteck 145" transform="translate(56.91 163.276)" fill="#f6aa20" stroke="#f7aa20" stroke-width="5">
        <rect width="70" height="24" rx="5" stroke="none"/>
        <rect x="2.5" y="2.5" width="65" height="19" rx="2.5" fill="none"/>
      </g>
      <g id="Ellipse_22" data-name="Ellipse 22" transform="translate(134.91 122.276)" fill="#11841e" stroke="#11841e" stroke-width="5">
        <ellipse cx="41.5" cy="42" rx="41.5" ry="42" stroke="none"/>
        <ellipse cx="41.5" cy="42" rx="39" ry="39.5" fill="none"/>
      </g>
      <path id="_5416276_check_mark_ok_icon" data-name="5416276_check_mark_ok_icon" d="M61.487,24.085l-1.8-1.8a6.141,6.141,0,0,0-8.679,0L30.919,42.33l-5.076-5.117a6.141,6.141,0,0,0-8.679,0l-1.8,1.822a6.141,6.141,0,0,0,0,8.686L26.607,58.965a6.141,6.141,0,0,0,8.679,0l26.2-26.194A6.141,6.141,0,0,0,61.487,24.085Z" transform="translate(137.633 123.862)" fill="#d1d1d1"/>
    </g>
  </g>
</svg>
