<svg xmlns="http://www.w3.org/2000/svg" xmlns:xlink="http://www.w3.org/1999/xlink" width="277" height="226" viewBox="0 0 277 226">
  <defs>
    <clipPath id="clip-walmdach">
      <rect width="277" height="226"/>
    </clipPath>
  </defs>
  <g id="walmdach" clip-path="url(#clip-walmdach)">
    <g id="Gruppe_1513" data-name="Gruppe 1513" transform="translate(31.792 6.162)">
      <g id="Gruppe_1492" data-name="Gruppe 1492" transform="translate(156.823 0)">
        <g id="Ellipse_21" data-name="Ellipse 21" transform="translate(19.011 22.745)" fill="#f0c34f" stroke="#f0c34f" stroke-width="1">
          <ellipse cx="10.185" cy="10.185" rx="10.185" ry="10.185" stroke="none"/>
          <ellipse cx="10.185" cy="10.185" rx="9.685" ry="9.685" fill="none"/>
        </g>
        <line id="Linie_37" data-name="Linie 37" y1="12.9" transform="translate(28.856 0)" fill="none" stroke="#f0c34f" stroke-width="1"/>
        <line id="Linie_43" data-name="Linie 43" y2="12.9" transform="translate(28.856 51.602)" fill="none" stroke="#f0c34f" stroke-width="1"/>
        <line id="Linie_39" data-name="Linie 39" y2="12.9" transform="translate(12.9 32.93) rotate(90)" fill="none" stroke="#f0c34f" stroke-width="1"/>
        <line id="Linie_42" data-name="Linie 42" y1="12.9" transform="translate(57.712 32.251) rotate(90)" fill="none" stroke="#f0c34f" stroke-width="1"/>
        <line id="Linie_38" data-name="Linie 38" x1="10.863" y1="10.863" transform="translate(7.469 8.487)" fill="none" stroke="#f0c34f" stroke-width="1"/>
        <line id="Linie_45" data-name="Linie 45" x1="10.863" y2="10.863" transform="translate(7.469 45.151)" fill="none" stroke="#f0c34f" stroke-width="1"/>
        <line id="Linie_41" data-name="Linie 41" y1="10.863" x2="10.863" transform="translate(39.38 7.808)" fill="none" stroke="#f0c34f" stroke-width="1"/>
        <line id="Linie_44" data-name="Linie 44" x2="10.863" y2="10.863" transform="translate(39.38 45.83)" fill="none" stroke="#f0c34f" stroke-width="1"/>
      </g>
      <g id="Gruppe_1481" data-name="Gruppe 1481" transform="translate(0 59.917)">
        <path id="Pfad_283" data-name="Pfad 283" d="M20209.156-7971.1v2.962l-119.982-16.074-82.832,15.288,57.7-72.177,97.326,15.631Z" transform="translate(-20006.342 8041.104)" fill="#e7b967"/>
        <path id="Pfad_276" data-name="Pfad 276" d="M20142.107-7901.516v53.99l-104,2.155v-70.537Z" transform="translate(-19954.293 7975.023)" fill="#e7b967"/>
        <path id="Pfad_277" data-name="Pfad 277" d="M20094.969-7860.089h-15.293v18.013h15.293Z" transform="translate(-19926.783 7945.562)" fill="#d1d1d1"/>
        <path id="Pfad_278" data-name="Pfad 278" d="M20158.6-7867.135l-17.877-1.5v43.636h17.877Z" transform="translate(-20019.238 7950.069)" fill="#d1d1d1"/>
        <path id="Pfad_279" data-name="Pfad 279" d="M20158.6-7867.082l-17.877-1.547v45.17h17.877Z" transform="translate(-20038.127 7948.534)" fill="#d1d1d1"/>
        <path id="Pfad_280" data-name="Pfad 280" d="M20335.406-7915.907l-77.055,12.926v54.874l77.055,2.771Z" transform="translate(-20251.586 7975.023)" fill="#f9c975"/>
        <path id="Pfad_281" data-name="Pfad 281" d="M20346.973-7863.968l-16.5,2.483v39.693h16.5Z" transform="translate(-20297.207 7947.609)" fill="#d1d1d1"/>
        <path id="Pfad_282" data-name="Pfad 282" d="M20330.434-7984.649l-19.834-39.776-41.428,52.354Z" transform="translate(-20251.725 8032.301)" fill="#d1d1d1"/>
        <path id="Pfad_284" data-name="Pfad 284" d="M20112.168-8011.247l-81.115-12.084,20.027,42.544,101.285,15.227Z" transform="translate(-19961.219 8031.724)" fill="#d1d1d1"/>
        <path id="Pfad_285" data-name="Pfad 285" d="M20116.594-7996.017l-17.936-2.421,8.771,11.148,17.553,1.619Z" transform="translate(-19965.762 8018.584)" fill="#006f39"/>
        <path id="Pfad_289" data-name="Pfad 289" d="M20116.594-7996.017l-17.936-2.421,8.771,11.148,17.553,1.619Z" transform="translate(-19955.844 8031.041)" fill="#006f39"/>
        <path id="Pfad_293" data-name="Pfad 293" d="M20116.594-7996.017l-17.936-2.421,8.771,11.148,17.553,1.619Z" transform="translate(-19943.869 8045.899)" fill="#006f39"/>
        <path id="Pfad_286" data-name="Pfad 286" d="M20116.594-7996.017l-17.936-2.421,8.771,11.148,17.553,1.619Z" transform="translate(-19986.537 8015.751)" fill="#006f39"/>
        <path id="Pfad_290" data-name="Pfad 290" d="M20116.594-7996.017l-17.936-2.421,8.771,11.148,17.553,1.619Z" transform="translate(-19976.621 8028.207)" fill="#006f39"/>
        <path id="Pfad_294" data-name="Pfad 294" d="M20116.594-7996.017l-17.936-2.421,8.771,11.148,17.553,1.619Z" transform="translate(-19967.006 8042.594)" fill="#006f39"/>
        <path id="Pfad_287" data-name="Pfad 287" d="M20116.594-7996.017l-17.936-2.421,8.771,11.148,17.553,1.619Z" transform="translate(-20007.785 8012.201)" fill="#006f39"/>
        <path id="Pfad_291" data-name="Pfad 291" d="M20116.594-7996.017l-17.936-2.421,8.771,11.148,17.553,1.619Z" transform="translate(-19998.814 8024.968)" fill="#006f39"/>
        <path id="Pfad_295" data-name="Pfad 295" d="M20116.594-7996.017l-17.936-2.421,8.771,11.148,17.553,1.619Z" transform="translate(-19989.783 8039.516)" fill="#006f39"/>
        <path id="Pfad_288" data-name="Pfad 288" d="M20114.223-7995.668l-15.562-2.11,6.4,10.837,17.557,1.619Z" transform="translate(-20025.633 8009.492)" fill="#006f39"/>
        <path id="Pfad_292" data-name="Pfad 292" d="M20114.908-7995.949l-16.248-1.829,5.641,10.49.756.348,17.557,1.619Z" transform="translate(-20018.576 8021.631)" fill="#006f39"/>
        <path id="Pfad_296" data-name="Pfad 296" d="M20114.908-7995.949l-16.248-1.829,5.641,10.49.756.348,17.557,1.619Z" transform="translate(-20012.268 8035.056)" fill="#006f39"/>
      </g>
    </g>
  </g>
</svg>
