<svg xmlns="http://www.w3.org/2000/svg" width="336.732" height="317.01" viewBox="0 0 336.732 317.01"><defs><style>.a{fill:#faca76;}.b{fill:#facb76;}.c{fill:#fff;}.d{fill:#e8ba68;}.e{fill:#f7aa20;}.f,.g{fill:none;stroke:#000;stroke-width:3px;}.f{stroke-linecap:round;}</style></defs><g transform="translate(-790.885 -15369.548)"><g transform="translate(-296.56 11040)"><path class="a" d="M19861.477-12414.847l111.336-.168v223.314h-111.391Z" transform="translate(-18548.637 16837.203)"/><path class="a" d="M19972.67-12412.385v-88.357l-111.391,87.93Z" transform="translate(-18548.494 16835.369)"/><path class="b" d="M19968.426-12505.436l-109.41,89.979-23.2,63.029h-8.2l17.111-75.477,100.07-78.929,23.143-.4Z" transform="matrix(1, 0.017, -0.017, 1, -18760.283, 16488.842)"/><path class="c" d="M19968.176-12449.114h-29.236v45.568h29.236Z" transform="translate(-18544 16838)"/><path class="c" d="M19968.176-12280.588h-33.682v89.145h33.682Z" transform="translate(-18544 16838)"/><path class="d" d="M19860.623-12408.3l-22.707,59.119-3.061,70.326,6.365,55.879h17.506Z" transform="translate(-18548.639 16833.576)"/></g><g transform="translate(-296.56 11040)"><rect class="e" width="29" height="42" transform="translate(1225 4497)"/><rect class="e" width="29" height="42" transform="translate(1111 4540)"/><rect class="e" width="29" height="42" transform="translate(1111 4454)"/><path class="f" d="M19767.91-12412.726v175.155" transform="translate(-18543 16841.521)"/><path class="f" d="M19767.91-12412.726v175.155" transform="translate(-18514 16841.521)"/><path class="f" d="M19767.91-12412.726v175.155" transform="translate(-18628 16841.521)"/><path class="f" d="M19767.91-12412.726v175.155" transform="translate(-18657 16841.521)"/><path class="f" d="M19638.154-12385.219l174.336-.116" transform="translate(-18544 16838)"/><path class="f" d="M19638.154-12385.219l174.336-.116" transform="translate(-18544 16881)"/><path class="f" d="M19638.154-12385.219l174.336-.116" transform="translate(-18544 16925)"/><path class="f" d="M19638.154-12385.219l174.336-.116" transform="translate(-18544 16968)"/><path class="f" d="M19638.154-12385.219l185-.116" transform="translate(-18549.211 16991)"/><path class="g" d="M19685.887-12257.465l81-41.582-81-43.565,82.137-41.928" transform="translate(-18544 16838)"/><path class="g" d="M19768.91-12333.179h27.973" transform="translate(-18544 16838)"/><path class="g" d="M19768.91-12333.179h27.973" transform="translate(-18656.77 16882)"/><path class="g" d="M19768.91-12333.179h27.973" transform="translate(-18656.77 16795)"/><path class="g" d="M19768.91-12333.179h27.973" transform="translate(-18544 16847.039)"/><path class="g" d="M19768.91-12333.179h27.973" transform="translate(-18656.77 16891.039)"/><path class="g" d="M19768.91-12333.179h27.973" transform="translate(-18656.77 16804.039)"/><path class="g" d="M19768.91-12333.179h27.973" transform="translate(-18543.113 16856.078)"/><path class="g" d="M19768.91-12333.179h27.973" transform="translate(-18655.883 16900.078)"/><path class="g" d="M19768.91-12333.179h27.973" transform="translate(-18655.883 16813.078)"/><path class="g" d="M19768.91-12333.179h27.973" transform="translate(-18543.113 16865.117)"/><path class="g" d="M19768.91-12333.179h27.973" transform="translate(-18655.883 16909.117)"/><path class="g" d="M19768.91-12333.179h27.973" transform="translate(-18655.883 16822.117)"/></g></g></svg>