<svg xmlns="http://www.w3.org/2000/svg" width="91.258" height="99" viewBox="0 0 91.258 99"><defs><style>.a{fill:#f7aa20;}.b,.c{fill:none;stroke:#000;}.b{stroke-linecap:round;}</style></defs><g transform="translate(0.5 0.499)"><rect class="a" width="14.149" height="23.256" transform="translate(66.381 37.767)"/><rect class="a" width="14.149" height="23.256" transform="translate(10.761 61.576)"/><rect class="a" width="14.149" height="23.256" transform="translate(10.761 13.957)"/><path class="b" d="M19767.91-12412.729v96.986" transform="translate(-19701.572 12412.729)"/><path class="b" d="M19767.91-12412.729v96.986" transform="translate(-19687.424 12412.729)"/><path class="b" d="M19767.91-12412.729v96.986" transform="translate(-19743.045 12412.729)"/><path class="b" d="M19767.91-12412.729v96.986" transform="translate(-19757.191 12412.729)"/><path class="b" d="M19638.156-12385.271l85.057-.065" transform="translate(-19635.613 12398.555)"/><path class="b" d="M19638.156-12385.271l85.057-.065" transform="translate(-19635.613 12422.365)"/><path class="b" d="M19638.156-12385.271l85.057-.065" transform="translate(-19635.613 12446.729)"/><path class="b" d="M19638.156-12385.271l85.057-.065" transform="translate(-19635.613 12470.537)"/><path class="b" d="M19638.156-12385.271l90.258-.065" transform="translate(-19638.156 12483.273)"/><path class="c" d="M19685.885-12314.179l39.523-23.024-39.523-24.122,40.074-23.216" transform="translate(-19660.053 12398.199)"/><path class="c" d="M19768.908-12333.179h13.648" transform="translate(-19702.57 12375.277)"/><path class="c" d="M19768.908-12333.179h13.648" transform="translate(-19757.59 12399.641)"/><path class="c" d="M19768.908-12333.179h13.648" transform="translate(-19757.59 12351.467)"/><path class="c" d="M19768.908-12333.179h13.648" transform="translate(-19702.57 12380.281)"/><path class="c" d="M19768.908-12333.179h13.648" transform="translate(-19757.59 12404.643)"/><path class="c" d="M19768.908-12333.179h13.648" transform="translate(-19757.59 12356.471)"/><path class="c" d="M19768.908-12333.179h13.648" transform="translate(-19702.139 12385.285)"/><path class="c" d="M19768.908-12333.179h13.648" transform="translate(-19757.156 12409.65)"/><path class="c" d="M19768.908-12333.179h13.648" transform="translate(-19757.156 12361.477)"/><path class="c" d="M19768.908-12333.179h13.648" transform="translate(-19702.139 12390.291)"/><path class="c" d="M19768.908-12333.179h13.648" transform="translate(-19757.156 12414.654)"/><path class="c" d="M19768.908-12333.179h13.648" transform="translate(-19757.156 12366.48)"/></g></svg>