<svg xmlns="http://www.w3.org/2000/svg" width="329.934" height="228.276" viewBox="0 0 329.934 228.276"><defs><style>.a{fill:rgba(247,170,32,0.63);}.a,.b,.c{opacity:0.973;}.b{fill:#e8b964;}.c{fill:#fac973;}.d{fill:#fff;}.e{fill:#006f39;}</style></defs><g transform="translate(-0.001 0.001)"><path class="a" d="M19240.314-16421.912l76.373,89.919v4.743l-189.777-25.925-72.2-85.4-55.756,116.87h-12.2l60.744-138.079Z" transform="translate(-18986.754 16459.783)"/><path class="b" d="M19181.484-16308.86v87.656l-165.086,4.6v-118.276Z" transform="translate(-18876.549 16444.883)"/><path class="c" d="M19336.631-16346.523l-1.09-1.343-68.332-81.1-52.795,114.364v86.769h121.715l.5-118.657" transform="translate(-19198.641 16456.105)"/><path class="d" d="M19241.053-16336.535l-162.125-24.605-69.994-82.879,168.777,32.41Z" transform="translate(-18929.836 16457.904)"/><path class="e" d="M19101.922-16404.494l-30.9-5.465,15.162,18.682,30.939,5.768Z" transform="translate(-18858.27 16453.836)"/><path class="e" d="M19101.922-16404.494l-30.9-5.465,15.162,18.682,30.939,5.768Z" transform="translate(-18837.57 16478.285)"/><path class="e" d="M19101.922-16404.494l-30.9-5.465,15.162,18.682,30.939,5.768Z" transform="translate(-18815.639 16503.824)"/><path class="e" d="M19101.922-16404.494l-30.9-5.465,15.162,18.682,30.939,5.768Z" transform="translate(-18897.074 16446.789)"/><path class="e" d="M19101.922-16404.494l-30.9-5.465,15.162,18.682,30.939,5.768Z" transform="translate(-18876.369 16471.242)"/><path class="e" d="M19101.922-16404.494l-30.9-5.465,15.162,18.682,30.939,5.768Z" transform="translate(-18854.438 16496.781)"/><path class="e" d="M19101.922-16404.494l-30.9-5.465,15.162,18.682,30.939,5.768Z" transform="translate(-18936.715 16439.744)"/><path class="e" d="M19101.922-16404.494l-30.9-5.465,15.162,18.682,30.939,5.768Z" transform="translate(-18916.016 16464.197)"/><path class="e" d="M19101.922-16404.494l-30.9-5.465,15.162,18.682,30.939,5.768Z" transform="translate(-18894.084 16489.738)"/><path class="e" d="M19101.922-16404.494l-30.9-5.465,15.162,18.682,30.939,5.768Z" transform="translate(-18977.277 16431.818)"/><path class="e" d="M19101.922-16404.494l-30.9-5.465,15.162,18.682,30.939,5.768Z" transform="translate(-18956.576 16456.27)"/><path class="e" d="M19101.922-16404.494l-30.9-5.465,15.162,18.682,30.939,5.768Z" transform="translate(-18934.646 16481.809)"/><path class="d" d="M19076.381-16284.174l-23.912-1.877v31.471h23.912Z" transform="translate(-18801.875 16439.057)"/><path class="d" d="M19135.766-16288.969l-27.656-2.07-1.219,72.8h28.875Z" transform="translate(-18907.178 16439.652)"/><path class="d" d="M19135.766-16288.89l-27.656-2.149-1.219,75.57h28.875Z" transform="translate(-18937.543 16436.875)"/><path class="d" d="M19298.7-16285.547l-20.15,1.766v65.357h20.15Z" transform="translate(-19214.891 16438.99)"/><path class="d" d="M19298.709-16379.43v34.073l-18.988,2.943v-31.043Z" transform="translate(-19215.891 16450.191)"/></g></svg>