<svg xmlns="http://www.w3.org/2000/svg" xmlns:xlink="http://www.w3.org/1999/xlink" width="337.5" height="247.299" viewBox="0 0 337.5 247.299"><defs><style>.a{fill:#faca76;}.b{fill:#facb76;}.c{fill:#a7864b;}.d{fill:#edc072;}.e{fill:url(#a);}.f{fill:#fff;}.g{fill:#2b1e0c;}.h{fill:#0e0a03;}.i,.k{fill:none;}.i{stroke:#b51010;}.j{stroke:none;}</style><linearGradient id="a" x1="0.143" y1="0.427" x2="0.394" y2="0.129" gradientUnits="objectBoundingBox"><stop offset="0" stop-color="#edc072"/><stop offset="1" stop-color="#0b0802"/></linearGradient></defs><g transform="translate(-932.656 -6005.545)"><path class="a" d="M19672.623-10768.5l28.063,202.928h-218.625l3.408-104.269,47.953-114.605,8.484-7.044Z" transform="translate(-18549.404 16817)"/><path class="b" d="M19693-10801.854l-19.5,33.525-155.916-31.1,1.979-10.5Z" transform="matrix(1, -0.017, 0.017, 1, -18358.109, 17157.518)"/><path class="c" d="M19541.418-10796.512v3.62l-9.58,8.064-46.822,109.281,1.906-56.309,30.768-68.895Z" transform="translate(-18549.404 16817)"/><path class="d" d="M19678.576-10731.808l109.336,167.651h-87.65Z" transform="translate(-18549.404 16817)"/><path class="e" d="M19787.912-10564.156h30.943v-133.4l-146.324-70.771,5.57,36.3Z" transform="translate(-18549.404 16817)"/><path class="f" d="M19768.258-10644.948l36,12.036,15.3,53.972h-31.107Z" transform="translate(-18549.404 16817)"/><path class="f" d="M19594.988-10751.807v46.927l-46.367,35.049,3.361-48.662Z" transform="translate(-18511.404 16820.588)"/><path class="f" d="M19541.418-10597.659l30.871-16.413v49.043h-30.871Z" transform="translate(-18549.404 16817)"/><path class="f" d="M19541.418-10602.5l15.645-11.577,1.59,26.865-17.234,7.728Z" transform="translate(-18552.404 16658.332)"/><path class="g" d="M19641.832-10786.274l27.6,21.529-8.74,10.634-26.527-22.908Z" transform="translate(-14548.814 22093.885) rotate(-17)"/><path class="g" d="M19641.832-10786.274l27.6,21.529-8.74,10.634-26.527-22.908Z" transform="translate(-13156.851 23383.449) rotate(-22)"/><path class="h" d="M19692.77-10803.532l125.279,86.645v29.759l-145.443-81.032Z" transform="translate(-18549.404 16817)"/><g class="i" transform="translate(1001.596 6009)"><ellipse class="j" cx="29.5" cy="26.5" rx="29.5" ry="26.5"/><ellipse class="k" cx="29.5" cy="26.5" rx="29" ry="26"/></g><g class="i" transform="translate(1001.596 6009)"><ellipse class="j" cx="29.5" cy="26.5" rx="29.5" ry="26.5"/><ellipse class="k" cx="29.5" cy="26.5" rx="29" ry="26"/></g><g class="i" transform="translate(1064.596 6018)"><ellipse class="j" cx="29.5" cy="26.5" rx="29.5" ry="26.5"/><ellipse class="k" cx="29.5" cy="26.5" rx="29" ry="26"/></g></g></svg>