<svg xmlns="http://www.w3.org/2000/svg" width="350" height="231.946" viewBox="0 0 350 231.946"><defs><style>.a{fill:rgba(247,170,32,0.63);}.a,.b,.c{opacity:0.973;}.b{fill:#e8b964;}.c{fill:#fac973;}.d{fill:#fff;}</style></defs><path class="a" d="M19067.764-16419.365l-81.012,95.96v5.064l201.322-27.67,76.592-91.138,59.143,124.729h12.943l-64.437-147.364Z" transform="translate(-18986.752 16459.783)"/><path class="b" d="M19016.4-16307.112v93.551l183.928,4.906v-126.222Z" transform="translate(-18988.535 16440.602)"/><path class="c" d="M19214.41-16345.77l1.207-1.353,76.143-81.843,58.828,115.41v87.565h-135.625l-.553-119.744" transform="translate(-19018.162 16457.932)"/><path class="d" d="M19052.471-16284.049l26.637-2v33.584h-26.637Z" transform="translate(-18993.9 16440.262)"/><path class="d" d="M19106.889-16288.832l30.822-2.2,1.365,77.684h-32.187Z" transform="translate(-18999.916 16437.967)"/><path class="d" d="M19106.889-16288.744l30.822-2.291,1.365,80.646h-32.187Z" transform="translate(-18967.857 16435.004)"/><path class="d" d="M19278.543-16285.548l22.455,1.888v69.75h-22.455Z" transform="translate(-19018.301 16437.637)"/><path class="d" d="M19279.721-16379.432v36.365l21.156,3.138v-33.129Z" transform="translate(-19018.377 16450.635)"/></svg>