<svg xmlns="http://www.w3.org/2000/svg" width="159.322" height="157.084" viewBox="0 0 159.322 157.084"><defs><style>.a{fill:#e8ba68;}.b{fill:#facb76;}.c{fill:#f7aa20;}.d,.e{fill:none;stroke:#000;}.d{stroke-linecap:round;}</style></defs><g transform="translate(-900.938 -6583.071)"><rect class="a" width="150.903" height="98" transform="translate(905.079 6641.655)"/><path class="b" d="M19049.041-18339l-21.809,58.586h159.322l-24.561-58.586Z" transform="translate(-18126.295 24922.07)"/><g transform="translate(935.275 6641.653)"><rect class="c" width="14.046" height="23.256" transform="translate(65.897 37.767)"/><rect class="c" width="14.046" height="23.256" transform="translate(10.683 61.576)"/><rect class="c" width="14.046" height="23.256" transform="translate(10.683 13.957)"/><path class="d" d="M19767.91-12412.729v96.986" transform="translate(-19702.055 12412.729)"/><path class="d" d="M19767.91-12412.729v96.986" transform="translate(-19688.012 12412.729)"/><path class="d" d="M19767.91-12412.729v96.986" transform="translate(-19743.227 12412.729)"/><path class="d" d="M19767.91-12412.729v96.986" transform="translate(-19757.27 12412.729)"/><path class="d" d="M19638.156-12385.271l84.436-.065" transform="translate(-19635.633 12398.555)"/><path class="d" d="M19638.156-12385.271l84.436-.065" transform="translate(-19635.633 12422.365)"/><path class="d" d="M19638.156-12385.271l84.436-.065" transform="translate(-19635.633 12446.729)"/><path class="d" d="M19638.156-12385.271l84.436-.065" transform="translate(-19635.633 12470.537)"/><path class="d" d="M19638.156-12385.271l89.6-.065" transform="translate(-19638.156 12483.273)"/><path class="e" d="M19685.887-12314.179l39.234-23.024-39.234-24.122,39.781-23.216" transform="translate(-19660.244 12398.199)"/><path class="e" d="M19768.91-12333.179h13.549" transform="translate(-19703.055 12375.277)"/><path class="e" d="M19768.91-12333.179h13.549" transform="translate(-19757.674 12399.641)"/><path class="e" d="M19768.91-12333.179h13.549" transform="translate(-19757.674 12351.467)"/><path class="e" d="M19768.91-12333.179h13.549" transform="translate(-19703.055 12380.281)"/><path class="e" d="M19768.91-12333.179h13.549" transform="translate(-19757.674 12404.643)"/><path class="e" d="M19768.91-12333.179h13.549" transform="translate(-19757.674 12356.471)"/><path class="e" d="M19768.91-12333.179h13.549" transform="translate(-19702.627 12385.285)"/><path class="e" d="M19768.91-12333.179h13.549" transform="translate(-19757.244 12409.65)"/><path class="e" d="M19768.91-12333.179h13.549" transform="translate(-19757.244 12361.477)"/><path class="e" d="M19768.91-12333.179h13.549" transform="translate(-19702.627 12390.291)"/><path class="e" d="M19768.91-12333.179h13.549" transform="translate(-19757.244 12414.654)"/><path class="e" d="M19768.91-12333.179h13.549" transform="translate(-19757.244 12366.48)"/></g></g></svg>