<svg xmlns="http://www.w3.org/2000/svg" width="264.439" height="260.894" viewBox="0 0 264.439 260.894"><defs><style>.a{fill:none;}.b,.c{stroke:none;}.c{fill:#2e2917;}</style></defs><g class="a"><path class="b" d="M132.219,0c73.023,0,132.219,58.4,132.219,130.447s-59.2,130.447-132.219,130.447S0,202.491,0,130.447C0,70.074,41.57,19.281,98.182,4.363A133.765,133.765,0,0,1,132.219,0Z"/><path class="c" d="M 132.2193908691406 3 C 120.8783569335938 3 109.6837463378906 4.43463134765625 98.946533203125 7.26409912109375 C 85.29084777832031 10.86245727539062 72.39164733886719 16.6187744140625 60.60720825195312 24.37322998046875 C 49.0107421875 32.00398254394531 38.78553771972656 41.37269592285156 30.21560668945312 52.21919250488281 C 21.56425476074219 63.16873168945312 14.83253479003906 75.33401489257812 10.20742797851562 88.37705993652344 C 5.4249267578125 101.8639831542969 3 116.0183715820312 3 130.447021484375 C 3 139.0934143066406 3.88275146484375 147.7335205078125 5.62371826171875 156.1273803710938 C 7.3201904296875 164.3067626953125 9.851638793945312 172.3524169921875 13.14775085449219 180.0408020019531 C 16.38459777832031 187.5909881591797 20.39120483398438 194.8735656738281 25.05628967285156 201.6862030029297 C 29.67807006835938 208.4356689453125 34.98617553710938 214.7828369140625 40.83309936523438 220.5513763427734 C 46.68075561523438 226.3206634521484 53.1153564453125 231.5584869384766 59.95814514160156 236.1194152832031 C 66.86653137207031 240.7240905761719 74.25186157226562 244.6789855957031 81.90896606445312 247.8742370605469 C 89.7076416015625 251.1285858154297 97.86895751953125 253.6280212402344 106.1662445068359 255.3031311035156 C 114.6818542480469 257.0223083496094 123.4474334716797 257.8940124511719 132.2193908691406 257.8940124511719 C 140.9913635253906 257.8940124511719 149.7569274902344 257.0223083496094 158.2725372314453 255.3031311035156 C 166.56982421875 253.6280212402344 174.7311401367188 251.1285858154297 182.5298156738281 247.8742370605469 C 190.1869201660156 244.6789855957031 197.5722503662109 240.7240905761719 204.4806365966797 236.1194152832031 C 211.3234252929688 231.5584869384766 217.7580261230469 226.3206634521484 223.6056823730469 220.5513763427734 C 229.4526062011719 214.7828369140625 234.7607116699219 208.4356689453125 239.3824920654297 201.6862030029297 C 244.0475769042969 194.8735656738281 248.0541687011719 187.5909881591797 251.2910308837891 180.0408020019531 C 254.5871429443359 172.3524169921875 257.1185913085938 164.3067626953125 258.8150634765625 156.1273803710938 C 260.5560302734375 147.7335205078125 261.4387817382812 139.0934143066406 261.4387817382812 130.447021484375 C 261.4387817382812 121.8006286621094 260.5560302734375 113.1605224609375 258.8150634765625 104.7666625976562 C 257.1185913085938 96.58726501464844 254.5871429443359 88.5416259765625 251.2910308837891 80.85324096679688 C 248.0541687011719 73.30305480957031 244.0475769042969 66.02049255371094 239.3824920654297 59.20783996582031 C 234.7607116699219 52.4583740234375 229.4526062011719 46.1112060546875 223.6056823730469 40.34263610839844 C 217.7580261230469 34.57337951660156 211.3234252929688 29.33552551269531 204.4806365966797 24.77459716796875 C 197.5722503662109 20.16995239257812 190.1869201660156 16.21505737304688 182.5298156738281 13.019775390625 C 174.7311401367188 9.765411376953125 166.56982421875 7.2659912109375 158.2725372314453 5.59088134765625 C 149.7569274902344 3.8717041015625 140.9913635253906 3 132.2193908691406 3 M 132.2193908691406 0 C 205.2421417236328 0 264.4387817382812 58.40312194824219 264.4387817382812 130.447021484375 C 264.4387817382812 202.4909057617188 205.2421417236328 260.8940124511719 132.2193908691406 260.8940124511719 C 59.19664001464844 260.8940124511719 0 202.4909057617188 0 130.447021484375 C 0 70.07423400878906 41.57049560546875 19.28059387207031 98.18209838867188 4.363128662109375 C 108.9228515625 1.532745361328125 120.3897094726562 0 132.2193908691406 0 Z"/></g></svg>