<svg fill="#000" xmlns="http://www.w3.org/2000/svg" viewBox="0 0 512 512"><path d="M293.686 333.324c5.976 52.529 58.497 59.684 74.014 59.684 15.521 0 68.042-7.155 74.01-59.684-9.545 8.358-40.582 22.691-74.01 22.691-33.424-.001-64.461-14.334-74.014-22.691zm18.995-61.255c12.31 1.33 23.671 5.338 33.591 11.37.394-17.695-12.824-33.041-30.747-34.969-17.827-1.92-33.926 10.126-37.423 27.344 10.792-3.625 22.52-5.036 34.579-3.745zm76.448 11.37c9.919-6.032 21.285-10.039 33.587-11.37 12.067-1.291 23.786.12 34.579 3.745-3.498-17.218-19.596-29.264-37.42-27.344-17.927 1.928-31.145 17.274-30.746 34.969z"/><path d="M511.724 171.919s-.02-.216-.036-.327l-.02-.104-.02-.144c-.948-6.86-5.975-12.389-13.05-13.106-5.765-.59-11.586 2.35-17.119 3.673-11.405 2.693-22.97 4.74-34.535 6.462-30.085 4.478-60.56 6.549-90.964 5.832-23.604-.55-47.223-2.621-70.552-6.278-8.7-36.101-23.006-95.259-27.058-112.023-.82-3.402-1.43-8.724-8.29-3.792-4.96 3.593-54.665 28.874-118.249 44.243C68.247 111.724 12.475 111.916 6.42 111c-8.346-1.275-6.466 3.744-5.641 7.146C5.133 136.16 21.294 203.039 29.7 237.777c20.496 84.87 111.994 128.117 164.213 115.489 11.242-2.717 22.918-8.573 34.125-16.939 11.282 46.108 43.136 86.902 84.714 109.784 13.413 7.378 28.077 12.979 43.311 15.027 14.935 2.023 29.942-.167 44.14-5.02 27.938-9.56 52.665-28.213 71.624-50.649 18.481-21.886 31.731-48.227 37.172-76.408 2.506-12.964 2.848-25.934 2.848-39.073V186.977c.001-4.948.415-10.135-.123-15.058zM61.156 185.351a81.262 81.262 0 0 0 34.487-4.493c11.656-4.176 21.776-10.733 29.99-18.932 4.534 17.098-4.705 35.129-21.679 41.2-16.868 6.056-35.348-1.864-42.798-17.775zm162.408 71.261c-13.808-2.852-33.539-3.991-52.84.685-28.596 6.908-52.18 25.576-58.625 34.691-5.744-46.156 37.694-63.134 50.98-66.354 10.202-2.47 40.001-5.832 60.485 12.629v18.349zm8.271-96.964a34.46 34.46 0 0 1-7.844 10.406 34.351 34.351 0 0 1-18.6 8.581c-17.875 2.327-34.324-9.489-38.108-26.794 11.07 3.554 23.046 4.764 35.328 3.171a81.237 81.237 0 0 0 32.734-11.76 34.063 34.063 0 0 1-3.51 16.396zm256.739 125.289c0 12.708.16 25.337-2.079 37.91-1.933 10.867-5.247 21.448-9.72 31.519a3.908 3.908 0 0 0-.164.358c-.015.048-.055.104-.071.175-.088.183-.164.374-.251.557-.159.374-.339.749-.518 1.14.048-.144.123-.263.179-.415-11.354 24.644-29.67 46.164-51.892 61.66-12.302 8.589-26.109 15.593-40.813 18.939-13.732 3.155-27.284 1.825-40.57-2.701-27.826-9.506-52.032-29.814-69.01-53.526-13.286-18.564-22.277-40.076-25.496-62.576a129.859 129.859 0 0 1-1.326-18.516V184.149c14.274 3.513 28.83 6.102 43.438 8.07 9.314 1.275 18.676 2.295 27.986 3.14a549.826 549.826 0 0 0 93.757.43c25.66-2.079 51.514-5.497 76.551-11.656v100.804z"/></svg>
