<svg fill="#000" xmlns="http://www.w3.org/2000/svg" viewBox="0 0 490.667 490.667"><path d="M437.333 192h-32v-10.667c0-4.309-2.603-8.171-6.592-9.835s-8.576-.768-11.627 2.304l-64 64c-4.16 4.16-4.16 10.923 0 15.083l64 64a10.748 10.748 0 0 0 7.552 3.115c1.365 0 2.752-.277 4.075-.811a10.667 10.667 0 0 0 6.592-9.856v-10.667h32c5.888 0 10.667-4.779 10.667-10.667v-85.333c0-5.887-4.779-10.666-10.667-10.666zm-10.666 85.333h-32c-4.565 0-8.469 2.88-9.984 6.912l-38.933-38.912 38.933-38.912c1.515 4.032 5.419 6.912 9.984 6.912h32v64z"/><path d="M245.333 0C110.059 0 0 110.059 0 245.333s110.059 245.333 245.333 245.333 245.333-110.059 245.333-245.333S380.608 0 245.333 0zm0 469.333c-123.52 0-224-100.48-224-224s100.48-224 224-224 224 100.48 224 224-100.48 224-224 224z"/><path d="M103.552 173.781c-3.072-3.029-7.616-3.925-11.627-2.304a10.667 10.667 0 0 0-6.592 9.856V192h-32c-5.888 0-10.667 4.779-10.667 10.667V288c0 5.888 4.779 10.667 10.667 10.667h32v10.667c0 4.309 2.603 8.213 6.592 9.856 1.323.533 2.71.81 4.075.81a10.68 10.68 0 0 0 7.552-3.136l64-64c4.16-4.16 4.16-10.923 0-15.083l-64-64zm2.432 110.464c-1.515-4.032-5.419-6.912-9.984-6.912H64v-64h32c4.565 0 8.469-2.88 9.984-6.912l38.933 38.912-38.933 38.912zM288 149.333h-85.333c-5.888 0-10.667 4.779-10.667 10.667v170.667c0 5.888 4.779 10.667 10.667 10.667H288c5.888 0 10.667-4.779 10.667-10.667V160c0-5.888-4.779-10.667-10.667-10.667zM277.333 320h-64V170.667h64V320z"/></svg>
