<svg fill="#000" xmlns="http://www.w3.org/2000/svg" viewBox="0 0 384.972 384.972"><path d="M12.766 354.273c.132 0 .277 0 .409-.012 6.087-.204 9.925-4.92 10.442-10.984.409-4.463 12.391-112.447 180.924-112.327l.373 69.042c0 4.656 2.683 8.89 6.893 10.875a11.958 11.958 0 0 0 12.764-1.588L380.58 180.037a11.996 11.996 0 0 0 4.391-9.311 12.045 12.045 0 0 0-4.427-9.299L224.548 33.389c-3.597-2.935-8.566-3.501-12.752-1.54a12.038 12.038 0 0 0-6.869 10.863l-.373 67.526c-69.92 2.226-124.056 24.71-159.161 65.782-57.12 66.84-44.368 163.973-43.778 168.015.889 5.896 5.208 10.238 11.151 10.238zm204.179-147.575h-.024c-120.388.072-166.392 40.722-192.654 76.621 3.838-28.764 15.062-63.424 39.471-91.743 32.458-37.631 84.753-57.457 153.206-57.457a12.02 12.02 0 0 0 12.03-12.03V68.036l124.983 102.763-124.982 103.726v-55.797c0-3.2-1.263-6.268-3.537-8.517a12.008 12.008 0 0 0-8.493-3.513z"/></svg>
