<svg fill="#000" xmlns="http://www.w3.org/2000/svg" viewBox="0 0 98.188 98.187"><path d="M78.537 27.737a2.448 2.448 0 0 1-1.76-.981C72.775 21.341 66.352 18 59.516 18c-.435 0-.869.013-1.304.039a2.438 2.438 0 0 1-1.616-.488 23.93 23.93 0 0 0-14.483-4.845 24.04 24.04 0 0 0-21.764 13.786 2.444 2.444 0 0 1-1.872 1.376C8.052 29.319 0 38.293 0 49.111 0 60.939 9.623 70.56 21.45 70.56h5.653a27.656 27.656 0 0 1-4.444-8.449H21.45c-7.167 0-12.999-5.832-12.999-13 0-7.167 5.831-12.998 12.999-12.998.362 0 .718.029 1.072.058a4.227 4.227 0 0 0 4.438-3.184 15.608 15.608 0 0 1 15.153-11.83c4.099 0 7.978 1.582 10.922 4.456a4.225 4.225 0 0 0 3.812 1.112 13.147 13.147 0 0 1 2.666-.274c5.02 0 9.5 2.82 11.695 7.361a4.216 4.216 0 0 0 4.225 2.367c.439-.045.879-.066 1.305-.066 7.168 0 12.998 5.831 12.998 12.998 0 7.167-5.83 13-12.998 13h-2.686a7.474 7.474 0 0 1 2.811 5.818c0 .906-.174 1.797-.49 2.631h.365c11.828 0 21.449-9.621 21.449-21.449.002-11.221-8.662-20.458-19.65-21.374z"/><path d="M71.791 64.773 53.785 51.187a3.958 3.958 0 0 0-4.147-.383 3.959 3.959 0 0 0-2.19 3.543v3.487a34.136 34.136 0 0 1-17.289-6.75 3.325 3.325 0 0 0-5.334 2.654v.002c0 12.728 9.9 23.271 22.604 24.046l.018.001v3.738a3.95 3.95 0 0 0 6.337 3.154l18.008-13.594a3.958 3.958 0 0 0-.001-6.312z"/></svg>
