<svg fill="#000" viewBox="0 0 24 24" xmlns="http://www.w3.org/2000/svg"><path d="M17.569 10.205a.75.75 0 0 0 1.442-.413l-1.442.413Zm-.979-3.156.54-.52v-.001l-.54.52Zm-3.479-1.915.151-.735-.151.735Zm-3.921.4-.295-.69h-.001l.296.69ZM6.144 8.11l-.63-.407.63.407Zm.844 8.839.542-.518-.542.518Zm8.569.87.427.617-.427-.616Zm3.197-2.864a.75.75 0 0 0-1.394-.555l1.394.555Zm-1.19-5.145a.75.75 0 1 0 1.452.377l-1.452-.377Zm2.162-2.355a.75.75 0 1 0-1.452-.377l1.452.377Zm-1.636 3.267a.75.75 0 0 0 .4-1.446l-.4 1.446Zm-2.25-2.178a.75.75 0 0 0-.399 1.446l.4-1.446Zm3.171 1.248a7.798 7.798 0 0 0-1.88-3.264L16.05 7.57a6.297 6.297 0 0 1 1.519 2.636l1.442-.413ZM17.13 6.528a7.475 7.475 0 0 0-3.867-2.129l-.304 1.47a5.975 5.975 0 0 1 3.091 1.7l1.08-1.041Zm-3.869-2.13a7.35 7.35 0 0 0-4.366.446l.59 1.379a5.85 5.85 0 0 1 3.476-.355l.3-1.47Zm-4.367.447a7.587 7.587 0 0 0-3.38 2.858l1.26.813a6.087 6.087 0 0 1 2.712-2.293l-.592-1.378Zm-3.38 2.858a7.918 7.918 0 0 0 .932 9.764L7.53 16.43a6.418 6.418 0 0 1-.756-7.914l-1.26-.813Zm.932 9.764a7.38 7.38 0 0 0 9.538.97l-.854-1.234a5.88 5.88 0 0 1-7.6-.772l-1.084 1.036Zm9.538.97a7.708 7.708 0 0 0 2.77-3.482L17.36 14.4a6.208 6.208 0 0 1-2.23 2.803l.854 1.233Zm3.032-8.25.71-2.732-1.452-.377-.71 2.732 1.452.377Zm-.526-.911-2.65-.732-.399 1.446 2.65.732.399-1.446Z"/><rect x="11" y="9.5" width="2" height="5" ry="2" transform="rotate(45 12 12)"/><rect x="11" y="9.5" width="2" height="5" ry="2" transform="rotate(-45 12 12)"/></svg>
