<svg fill="#000" xmlns="http://www.w3.org/2000/svg" viewBox="0 0 512.107 512.107"><path d="M78.187 337.707C61.653 338.773 48.32 352 47.04 368.427c-1.493 19.52 13.867 35.84 33.067 35.947h.213c18.453 0 33.493-14.827 33.493-33.173.107-19.201-16-34.774-35.626-33.494zm2.453 46.186h-.213c-7.253 0-13.227-5.867-13.333-13.12-.107-7.36 5.76-13.44 13.12-13.547 7.36-.107 13.44 5.76 13.547 13.12.106 7.361-5.761 13.441-13.121 13.547zM465.173 80c.107-19.2-16-34.773-35.627-33.493-16.533 1.066-29.866 14.293-31.146 30.72-1.493 19.52 13.867 35.84 33.067 35.947h.213c18.453-.001 33.387-14.827 33.493-33.174zM432 92.8h-.213a13.294 13.294 0 0 1-13.333-13.12c-.107-7.36 5.76-13.44 13.12-13.547s13.44 5.76 13.547 13.12S439.36 92.693 432 92.8z"/><path d="M431.467 220.907h.32c2.667 0 5.227-1.067 7.04-2.88 2.987-2.987 73.067-73.173 73.067-138.453C511.893 35.733 475.947 0 431.787 0S351.68 35.733 351.68 79.573c0 48.107 38.08 98.88 59.307 123.413-12.693 2.987-21.44 9.173-23.68 17.707-1.6 5.973.107 14.187 9.6 19.2 13.013 6.827 15.68 11.627 15.573 12.693-.64 9.493-44.587 25.173-68.16 33.6-43.52 15.573-80.96 28.907-82.987 51.947-1.493 17.387 18.347 28.48 24.853 32.107 10.24 5.76 22.08 14.507 20.48 23.787C300.8 428.8 172.053 468.8 108.8 485.12c21.653-26.667 51.84-71.573 51.84-114.453 0-43.84-35.947-79.573-80.213-79.573-44.267 0-80.213 35.84-80.213 79.68 0 60.587 60.48 125.44 71.467 136.747 1.6 2.56 4.16 4.267 7.147 4.587h.427c.213 0 .64 0 .96-.107h.213c.107 0 .32-.107.427-.107 23.787-2.453 225.6-52.053 244.48-109.867 4.16-12.8 2.453-31.68-29.227-49.493-14.827-8.32-14.613-12.8-14.613-12.8.853-10.133 45.653-26.133 69.653-34.773 44.587-15.893 79.787-28.48 81.387-50.987 1.067-14.613-13.44-24.747-22.4-29.867 3.838-1.707 10.665-3.627 21.332-3.2zM80.427 487.253c-17.28-18.88-60.053-70.827-60.053-116.48 0-32.747 26.987-59.52 60.053-59.52s60.053 26.667 60.053 59.413c0 45.654-42.773 97.601-60.053 116.587zm291.306-407.68c0-32.747 26.88-59.413 60.053-59.413 33.067 0 60.053 26.667 60.053 59.413 0 45.653-42.773 97.6-60.053 116.587-17.279-19.093-60.053-70.933-60.053-116.587z"/></svg>
