<svg fill="#000" xmlns="http://www.w3.org/2000/svg" viewBox="0 0 430.666 430.666"><path d="M5.4 208.433a5.394 5.394 0 0 0-5.4 5.4 5.395 5.395 0 0 0 5.4 5.399c6.281 0 11.232 2.025 15.135 6.191 11.401 12.176 9.867 37.731 9.84 38.359v68.85c0 17.345 4.817 30.718 14.304 39.73 11.388 10.82 25.763 11.58 29.586 11.58.53 0 .854-.016.939-.016a5.398 5.398 0 0 0 5.115-5.675c-.156-2.989-2.742-5.3-5.677-5.115-.14.059-12.877.564-22.528-8.605-7.267-6.898-10.94-17.63-10.94-31.899l-.01-68.486c.087-1.239 1.88-30.47-12.722-46.079a30.838 30.838 0 0 0-4.865-4.234 30.941 30.941 0 0 0 4.865-4.235c14.602-15.623 12.809-44.848 12.732-45.715v-68.85c0-14.209 3.649-24.907 10.853-31.812 9.542-9.146 22.454-8.717 22.644-8.693 2.974.182 5.492-2.144 5.648-5.115a5.414 5.414 0 0 0-5.115-5.674c-.744.01-17.55-.757-30.515 11.567-9.497 9.018-14.304 22.386-14.304 39.727l.01 69.211c.485 7.116-.345 27.82-9.833 37.971-3.919 4.187-8.871 6.218-15.162 6.218zm419.861 3.001c-6.286 0-11.232-2.025-15.135-6.188-11.401-12.177-9.872-37.739-9.841-38.362v-68.85c0-17.344-4.83-30.715-14.312-39.728-12.957-12.316-29.811-11.572-30.507-11.567-2.99.158-5.279 2.695-5.115 5.677a5.398 5.398 0 0 0 5.68 5.113c.142-.048 12.877-.562 22.527 8.608 7.277 6.896 10.933 17.629 10.933 31.896l.01 68.489c-.089 1.236-1.882 30.462 12.726 46.076a29.52 29.52 0 0 0 4.872 4.224 30.962 30.962 0 0 0-4.872 4.24c-14.607 15.631-12.814 44.851-12.735 45.71v68.851c0 14.212-3.649 24.906-10.854 31.825-9.55 9.128-22.485 8.686-22.633 8.686-2.874-.158-5.495 2.141-5.653 5.109a5.42 5.42 0 0 0 5.115 5.68c.095 0 .406.011.938.011 3.808 0 18.183-.76 29.589-11.581 9.503-9.018 14.297-22.391 14.297-39.729l-.011-69.198c-.485-7.119.343-27.823 9.835-37.974 3.907-4.172 8.864-6.197 15.15-6.197 3.001 0 5.4-2.415 5.4-5.399-.005-2.997-2.42-5.422-5.404-5.422zM216 177.383c-20.11 0-36.45 16.351-36.45 36.45 0 20.103 16.345 36.45 36.45 36.45 20.103 0 36.45-16.348 36.45-36.45 0-20.1-16.347-36.45-36.45-36.45z"/><path d="M272.088 122.085a5.404 5.404 0 0 0-4.672-2.7H164.587a5.386 5.386 0 0 0-4.673 2.7l-51.413 89.047a5.398 5.398 0 0 0 0 5.4l51.413 89.047a5.393 5.393 0 0 0 4.673 2.7h102.829a5.384 5.384 0 0 0 4.672-2.7l51.416-89.047a5.422 5.422 0 0 0 0-5.4l-51.416-89.047zM216 261.083c-26.056 0-47.25-21.194-47.25-47.25 0-26.057 21.194-47.25 47.25-47.25 26.051 0 47.25 21.193 47.25 47.25 0 26.056-21.188 47.25-47.25 47.25z"/></svg>
