<svg fill="#000" viewBox="0 0 30 30" xmlns="http://www.w3.org/2000/svg"><path d="M25 24.5a.5.5 0 1 1-1 0 .5.5 0 0 1 1 0zM23.5 12h2a.499.499 0 1 1 0 1h-2a.499.499 0 1 1 0-1zm-3-2c-.822 0-1.5.678-1.5 1.5v14c0 .822.678 1.5 1.5 1.5h8c.822 0 1.5-.678 1.5-1.5v-14c0-.822-.678-1.5-1.5-1.5zm0 1h8c.286 0 .5.214.5.5v14c0 .286-.214.5-.5.5h-8a.488.488 0 0 1-.5-.5v-14c0-.286.214-.5.5-.5zM14 19.5a.5.5 0 1 1-1 0 .5.5 0 0 1 1 0zM1.5 3C.678 3 0 3.678 0 4.5v16c0 .822.678 1.5 1.5 1.5H11v2H9.5a.499.499 0 1 0 0 1h8a.499.499 0 1 0 0-1H16v-2h1.5c.668 0 .656-1 0-1h-16a.488.488 0 0 1-.5-.5V18h16.5a.499.499 0 1 0 0-1H1V4.5c0-.286.214-.5.5-.5h24c.286 0 .5.214.5.5v4c0 .665 1 .657 1 0v-4c0-.822-.678-1.5-1.5-1.5zM12 22h3v2h-3z"/></svg>
