<svg xmlns="http://www.w3.org/2000/svg" viewBox="0 0 32 32"><circle fill="none" stroke="#000" stroke-width="1.5" stroke-linecap="round" stroke-linejoin="round" stroke-miterlimit="10" cx="24" cy="23" r="7"/><path fill="none" stroke="#000" stroke-width="1.5" stroke-linecap="round" stroke-linejoin="round" stroke-miterlimit="10" d="M24 20v6m-3-3h6m-.5-20h.5c2.6.3 3.9 3.4 2.4 5.6L24.5 16M26 3H9.5"/><path fill="none" stroke="#000" stroke-width="1.5" stroke-linecap="round" stroke-linejoin="round" stroke-miterlimit="10" d="m11.3 10.3-8.7 13C1.2 25.5 2.4 28.7 5 29h15.4M9 3C6.8 3 5 4.8 5 7c0 .5.2 1 .4 1.4.6 1 1.8 1.6 3 1.6H24c-1 0-3.1-2.8-.9-5.5.7-.9 1.8-1.5 2.9-1.5 2.2 0 4 1.8 4 4m-17 8h5m-7 3h3"/></svg>
