<svg fill="#000" xmlns="http://www.w3.org/2000/svg" viewBox="0 0 370.32 370.32" xml:space="preserve"><path d="M320.816 63.219 261.94 4.339A14.84 14.84 0 0 0 251.457 0H74.271C58.219 0 45.16 13.06 45.16 29.112v312.096c0 16.053 13.059 29.112 29.111 29.112h221.777c16.052 0 29.111-13.06 29.111-29.112V73.703a14.8 14.8 0 0 0-4.343-10.484m-27.269 274.688H76.773V32.414h154.088V75.99c0 10.555 8.554 19.106 19.105 19.106h43.58v242.811z"/><path d="M157.541 245.602a14.58 14.58 0 0 0 15.498-1.984l56.864-47.254a14.56 14.56 0 0 0 0-22.404l-56.864-47.256a14.57 14.57 0 0 0-15.498-1.984 14.57 14.57 0 0 0-8.381 13.187v94.511a14.57 14.57 0 0 0 8.381 13.184m-8.547 40.877c0-9.112-7.387-16.5-16.5-16.5s-16.5 7.388-16.5 16.5v.834h-11.5c-5.523 0-10 4.477-10 10s4.477 10 10 10h11.5v.833c0 9.112 7.387 16.5 16.5 16.5s16.5-7.388 16.5-16.5v-.833h116.833c5.523 0 10-4.478 10-10s-4.477-10-10-10H148.994z"/></svg>
