<svg fill="#000" xmlns="http://www.w3.org/2000/svg" viewBox="0 0 511 511"><path d="M470.962 102.751c-.018-.182-.049-.359-.08-.537-.011-.063-.017-.128-.029-.191a7.465 7.465 0 0 0-.155-.619c-.009-.03-.014-.061-.023-.091a7.439 7.439 0 0 0-.218-.608c-.011-.027-.019-.055-.03-.081a7.142 7.142 0 0 0-.261-.552c-.019-.037-.034-.075-.054-.112a7.01 7.01 0 0 0-.291-.486c-.03-.048-.057-.098-.088-.145-.101-.151-.213-.295-.324-.438-.039-.05-.073-.102-.113-.151a7.717 7.717 0 0 0-.493-.545L372.805 2.198a7.277 7.277 0 0 0-.545-.493c-.049-.04-.102-.074-.151-.113a7.277 7.277 0 0 0-.438-.324c-.047-.032-.097-.058-.145-.088a7.898 7.898 0 0 0-.486-.291c-.036-.02-.075-.035-.112-.054a7.51 7.51 0 0 0-.552-.261c-.027-.011-.055-.019-.081-.03a7.439 7.439 0 0 0-.608-.218c-.03-.009-.061-.015-.091-.023a7.469 7.469 0 0 0-.619-.156c-.063-.013-.128-.018-.191-.029-.178-.031-.355-.062-.537-.08A7.468 7.468 0 0 0 367.5 0h-224C121.72 0 104 17.72 104 39.5V80H71.5C54.131 80 40 94.131 40 111.5v80c0 17.369 14.131 31.5 31.5 31.5H104v248.5c0 21.78 17.72 39.5 39.5 39.5h288c21.78 0 39.5-17.72 39.5-39.5v-368c0-.251-.013-.501-.038-.749zM375 25.606 445.394 96H399.5C385.991 96 375 85.009 375 71.5V25.606zM55 191.5v-80c0-9.098 7.402-16.5 16.5-16.5h232c9.098 0 16.5 7.402 16.5 16.5v80c0 9.098-7.402 16.5-16.5 16.5H111.519l-.019-.001-.019.001H71.5c-9.098 0-16.5-7.402-16.5-16.5zM431.5 496h-288c-13.509 0-24.5-10.991-24.5-24.5V223h184.5c17.369 0 31.5-14.131 31.5-31.5v-80c0-17.369-14.131-31.5-31.5-31.5H119V39.5c0-13.509 10.991-24.5 24.5-24.5H360v56.5c0 21.78 17.72 39.5 39.5 39.5H456v360.5c0 13.509-10.991 24.5-24.5 24.5z"/><path d="M223 319.5c0-4.687 3.813-8.5 8.5-8.5h8a7.5 7.5 0 0 0 0-15h-8c-12.958 0-23.5 10.542-23.5 23.5v24c0 4.687-3.813 8.5-8.5 8.5a7.5 7.5 0 0 0 0 15c4.687 0 8.5 3.813 8.5 8.5v24c0 12.958 10.542 23.5 23.5 23.5h8a7.5 7.5 0 0 0 0-15h-8c-4.687 0-8.5-3.813-8.5-8.5v-24a23.412 23.412 0 0 0-6.303-16 23.412 23.412 0 0 0 6.303-16v-24zM375.5 352c-4.687 0-8.5-3.813-8.5-8.5v-24c0-12.958-10.542-23.5-23.5-23.5h-8a7.5 7.5 0 0 0 0 15h8c4.687 0 8.5 3.813 8.5 8.5v24a23.412 23.412 0 0 0 6.303 16 23.412 23.412 0 0 0-6.303 16v24c0 4.687-3.813 8.5-8.5 8.5h-8a7.5 7.5 0 0 0 0 15h8c12.958 0 23.5-10.542 23.5-23.5v-24c0-4.687 3.813-8.5 8.5-8.5a7.5 7.5 0 0 0 0-15zm-119.997 32c-1.98 0-3.91.8-5.31 2.2a7.56 7.56 0 0 0-2.19 5.3c0 1.98.8 3.91 2.19 5.3a7.55 7.55 0 0 0 5.31 2.2 7.51 7.51 0 0 0 7.5-7.5c0-1.97-.8-3.91-2.2-5.3-1.4-1.4-3.33-2.2-5.3-2.2zm32 0c-1.98 0-3.91.8-5.31 2.2a7.56 7.56 0 0 0-2.19 5.3c0 1.97.8 3.91 2.19 5.3a7.55 7.55 0 0 0 5.31 2.2 7.51 7.51 0 0 0 7.5-7.5 7.51 7.51 0 0 0-7.5-7.5zm32 0c-1.98 0-3.91.8-5.31 2.2a7.56 7.56 0 0 0-2.19 5.3c0 1.98.8 3.91 2.19 5.3a7.55 7.55 0 0 0 5.31 2.2 7.51 7.51 0 0 0 7.5-7.5c0-1.97-.8-3.91-2.2-5.3-1.4-1.4-3.33-2.2-5.3-2.2zM199.5 176h-40a7.5 7.5 0 0 0 0 15h40c12.958 0 23.5-10.542 23.5-23.5S212.458 144 199.5 144h-24c-4.687 0-8.5-3.813-8.5-8.5s3.813-8.5 8.5-8.5h32a7.5 7.5 0 0 0 0-15h-32c-12.958 0-23.5 10.542-23.5 23.5s10.542 23.5 23.5 23.5h24c4.687 0 8.5 3.813 8.5 8.5s-3.813 8.5-8.5 8.5zm80 0h-40a7.5 7.5 0 0 0 0 15h40c12.958 0 23.5-10.542 23.5-23.5S292.458 144 279.5 144h-24c-4.687 0-8.5-3.813-8.5-8.5s3.813-8.5 8.5-8.5h32a7.5 7.5 0 0 0 0-15h-32c-12.958 0-23.5 10.542-23.5 23.5s10.542 23.5 23.5 23.5h24c4.687 0 8.5 3.813 8.5 8.5s-3.813 8.5-8.5 8.5zm-168 15c8.835 0 17.344-3.82 23.344-10.48a7.5 7.5 0 0 0-11.144-10.04c-3.207 3.56-7.539 5.52-12.199 5.52h-8c-9.098 0-16.5-7.402-16.5-16.5v-16c0-9.098 7.402-16.5 16.5-16.5h8c4.66 0 8.993 1.96 12.199 5.52a7.499 7.499 0 0 0 10.592.552 7.499 7.499 0 0 0 .552-10.592c-6-6.66-14.508-10.48-23.344-10.48h-8C86.131 112 72 126.131 72 143.5v16c0 17.369 14.131 31.5 31.5 31.5h8z"/></svg>
