<svg fill="#000" xmlns="http://www.w3.org/2000/svg" viewBox="0 0 370.32 370.32" xml:space="preserve"><path d="M320.816 63.219 261.94 4.339A14.83 14.83 0 0 0 251.457 0H74.272C58.219 0 45.16 13.06 45.16 29.112v312.095c0 16.053 13.059 29.113 29.111 29.113h221.777c16.053 0 29.111-13.06 29.111-29.113V73.703a14.8 14.8 0 0 0-4.343-10.484m-89.955-30.805v43.577c0 10.554 8.555 19.106 19.105 19.106h43.58v198.025l-23.623-33.956a30.43 30.43 0 0 0-24.312-13.046c-9.732-.23-18.964 4.231-24.864 11.961l-15.667 20.525-35.676-59.11a30.43 30.43 0 0 0-25.987-14.708h-.069a30.43 30.43 0 0 0-25.984 14.589l-40.591 66.564V32.414z"/><circle cx="203.953" cy="148.329" r="25"/></svg>
