<svg fill="#000" xmlns="http://www.w3.org/2000/svg" viewBox="0 0 370.32 370.32" xml:space="preserve"><path d="M148.879 85.993H95.135c-8.283 0-15 6.716-15 15s6.717 15 15 15h53.744c8.284 0 15-6.716 15-15s-6.716-15-15-15m0 62.334H95.135c-8.283 0-15 6.716-15 15s6.717 15 15 15h53.744c8.284 0 15-6.716 15-15s-6.716-15-15-15"/><path d="M325.879 225.752h-24.41V73.703c0-3.934-1.56-7.705-4.344-10.484l-58.877-58.88A14.83 14.83 0 0 0 227.766 0H50.58C34.527 0 21.469 13.059 21.469 29.112v312.095c0 16.054 13.059 29.113 29.111 29.113h221.777c16.053 0 29.111-13.06 29.111-29.113v-30.048h24.41c12.688 0 22.973-10.285 22.973-22.973v-39.462c.001-12.686-10.285-22.972-22.972-22.972m-56.024 112.154H53.082V32.414H207.17V75.99c0 10.555 8.555 19.107 19.105 19.107h43.58v130.655h-74.178c-12.688 0-22.973 10.286-22.973 22.973v39.462c0 12.688 10.285 22.973 22.973 22.973h74.178zm-37.456-81.332a3.71 3.71 0 0 1-3.71-3.709v-.969a3.707 3.707 0 0 1 3.71-3.709h24.257a3.705 3.705 0 0 1 3.706 3.709v.969a3.706 3.706 0 0 1-3.706 3.709h-7.938v29.233a3.705 3.705 0 0 1-3.708 3.709h-.97a3.71 3.71 0 0 1-3.71-3.709v-29.233zm-35.184 16.302v12.932a3.705 3.705 0 0 1-3.708 3.709h-.97a3.71 3.71 0 0 1-3.71-3.709v-33.911a3.71 3.71 0 0 1 3.71-3.709h.97a3.705 3.705 0 0 1 3.708 3.709v12.593h16.987v-12.593a3.706 3.706 0 0 1 3.709-3.709h.967a3.707 3.707 0 0 1 3.71 3.709v33.911a3.707 3.707 0 0 1-3.71 3.709h-.967a3.706 3.706 0 0 1-3.709-3.709v-12.932zm108.837 12.932a3.71 3.71 0 0 1-3.71 3.709h-.974a3.71 3.71 0 0 1-3.709-3.705l-.025-17.579-7.901 15.524a3.71 3.71 0 0 1-3.308 2.023h-.095a3.71 3.71 0 0 1-3.304-2.022l-7.929-15.525v17.575a3.71 3.71 0 0 1-3.71 3.709h-.973a3.71 3.71 0 0 1-3.709-3.709v-33.911a3.71 3.71 0 0 1 3.709-3.709h1.698c1.397 0 2.674.78 3.307 2.024l10.996 21.581 10.916-21.57a3.71 3.71 0 0 1 3.31-2.035h1.699a3.71 3.71 0 0 1 3.71 3.709v33.911zm32.775 0a3.71 3.71 0 0 1-3.71 3.709h-16.155a3.71 3.71 0 0 1-3.709-3.709v-33.911a3.71 3.71 0 0 1 3.709-3.709h.973a3.71 3.71 0 0 1 3.709 3.709v29.233h11.474a3.71 3.71 0 0 1 3.71 3.709z"/></svg>
