<svg fill="#000" xmlns="http://www.w3.org/2000/svg" viewBox="0 0 370.32 370.32"><path d="M320.816 63.219 261.94 4.339A14.83 14.83 0 0 0 251.457 0H74.272C58.219 0 45.16 13.06 45.16 29.112v312.095c0 16.053 13.059 29.113 29.111 29.113h221.777c16.053 0 29.111-13.06 29.111-29.113V73.703a14.8 14.8 0 0 0-4.343-10.484m-27.269 274.688H76.773V32.414h154.088v43.577c0 10.554 8.555 19.106 19.105 19.106h43.58v242.81z"/><path d="m188.56 118.81-.106-.01a45 45 0 0 0-4.992-.297c-12.059 0-16.338 6.036-16.338 11.205v89.964a35.5 35.5 0 0 0-10.262-1.497c-1.529 0-3.074.098-4.592.289-8.756 1.105-16.6 5.215-22.086 11.574s-7.961 14.206-6.965 22.094c1.848 14.644 15.554 25.687 31.881 25.687a37 37 0 0 0 4.623-.291c16.924-2.136 29.207-15.559 29.207-31.917v-88.274a57 57 0 0 1 3.785-.128c14.921 0 28.641 6.243 39.674 18.052a73 73 0 0 1 6.592 8.184 4.36 4.36 0 0 0 7.92-2.036c1.09-10.455.574-25.611-8.076-38.445-9.436-14.001-26.348-22.127-50.265-24.154"/></svg>
