<svg fill="#000" xmlns="http://www.w3.org/2000/svg" viewBox="0 0 411.039 411.039" xml:space="preserve"><path d="M341.176 103.938 282.3 45.059a14.83 14.83 0 0 0-10.483-4.34h-74.525C196.117 18.068 177.321.002 154.385 0c-22.937 0-41.733 18.066-42.907 40.719H94.631c-16.053 0-29.111 13.061-29.111 29.113v312.094c0 16.055 13.059 29.113 29.111 29.113h221.777c16.053 0 29.111-13.059 29.111-29.113V114.422a14.8 14.8 0 0 0-4.343-10.484m-27.27 274.687H97.133V73.133h14.286v74.232c0 23.691 19.275 42.965 42.966 42.967 5.376 0 9.735-4.359 9.733-9.734a9.73 9.73 0 0 0-9.734-9.732c-12.955-.002-23.495-10.543-23.496-23.496l-.002-104.402c.001-12.957 10.541-23.498 23.498-23.498 12.955 0 23.496 10.541 23.497 23.496v89.793c0 3.793-3.087 6.879-6.88 6.879-3.794.002-6.882-3.086-6.881-6.881l-.002-74.518c0-5.375-4.357-9.734-9.733-9.732-5.376 0-9.734 4.357-9.735 9.734l.001 74.516c.001 14.531 11.821 26.35 26.35 26.352 14.528 0 26.35-11.822 26.351-26.352l-.001-59.623h53.87v43.576c0 10.555 8.555 19.108 19.105 19.108h43.58z"/></svg>
