<svg fill="#000" xmlns="http://www.w3.org/2000/svg" viewBox="0 0 370.32 370.32" xml:space="preserve"><path d="M148.879 85.993H95.135c-8.284 0-15 6.716-15 15s6.716 15 15 15h53.744c8.284 0 15-6.716 15-15s-6.716-15-15-15m0 62.334H95.135c-8.284 0-15 6.716-15 15s6.716 15 15 15h53.744c8.284 0 15-6.716 15-15s-6.716-15-15-15m63.065 105.027v14.608h7.717c9.359 0 9.359-5.599 9.359-7.439 0-1.775 0-7.17-9.359-7.17h-7.717z"/><path d="M325.879 225.752h-24.41V73.703c0-3.934-1.56-7.705-4.344-10.484l-58.876-58.88A14.84 14.84 0 0 0 227.765 0H50.58C34.527 0 21.469 13.059 21.469 29.112v312.095c0 16.054 13.059 29.113 29.111 29.113h221.777c16.052 0 29.111-13.06 29.111-29.113v-30.048h24.41c12.687 0 22.973-10.285 22.973-22.973v-39.462c.001-12.686-10.285-22.972-22.972-22.972m-56.024 112.154H53.082V32.414H207.17V75.99c0 10.555 8.554 19.107 19.105 19.107h43.58v130.655h-74.178c-12.688 0-22.973 10.286-22.973 22.973v39.462c0 12.688 10.285 22.973 22.973 22.973h74.178zm-31.345-77.383c0 10.441-7.224 16.928-18.85 16.928h-7.717v8.977a4.196 4.196 0 0 1-4.195 4.197h-1.097a4.2 4.2 0 0 1-4.197-4.197v-38.366a4.2 4.2 0 0 1 4.197-4.197h13.009c11.627-.001 18.85 6.381 18.85 16.658m23.795 30.102H247.21a4.2 4.2 0 0 1-4.197-4.197v-38.366a4.197 4.197 0 0 1 4.197-4.197h15.095c13.148 0 23.845 10.5 23.845 23.409 0 12.876-10.696 23.351-23.845 23.351m60.15-41.469a4.195 4.195 0 0 1-4.197 4.197h-17.045v10.053h14.521a4.195 4.195 0 0 1 4.197 4.195v1.099a4.2 4.2 0 0 1-4.197 4.197h-14.521v13.53a4.197 4.197 0 0 1-4.196 4.197h-1.096a4.197 4.197 0 0 1-4.197-4.197v-38.366a4.197 4.197 0 0 1 4.197-4.197h22.337a4.2 4.2 0 0 1 4.197 4.197z"/><path d="M262.305 253.354h-9.803v27.782h9.803c7.915 0 14.355-6.222 14.355-13.862.001-7.676-6.439-13.92-14.355-13.92"/></svg>
