<svg fill="#000" xmlns="http://www.w3.org/2000/svg" viewBox="0 0 370.32 370.32" xml:space="preserve"><path d="M148.879 85.993H95.135c-8.283 0-15 6.716-15 15s6.717 15 15 15h53.744c8.284 0 15-6.716 15-15s-6.716-15-15-15m0 62.334H95.135c-8.283 0-15 6.716-15 15s6.717 15 15 15h53.744c8.284 0 15-6.716 15-15s-6.716-15-15-15"/><path d="M325.879 225.752h-24.41V73.703c0-3.934-1.561-7.705-4.344-10.484l-58.877-58.88A14.83 14.83 0 0 0 227.766 0H50.58C34.527 0 21.469 13.059 21.469 29.112v312.095c0 16.054 13.059 29.113 29.111 29.113h221.777c16.053 0 29.111-13.06 29.111-29.113v-30.048h24.41c12.688 0 22.973-10.285 22.973-22.973v-39.462c.001-12.686-10.285-22.972-22.972-22.972m-56.024 112.154H53.082V32.414H207.17V75.99c0 10.555 8.555 19.107 19.105 19.107h43.58v130.655h-74.178c-12.688 0-22.973 10.286-22.973 22.973v39.462c0 12.688 10.285 22.973 22.973 22.973h74.178zm-36.572-85.716a4.92 4.92 0 0 1-4.92-4.921v-1.287a4.92 4.92 0 0 1 4.92-4.92h18.148a4.917 4.917 0 0 1 4.918 4.92v32.306c0 10.855-6.125 17.598-15.987 17.598-5.946 0-11.498-3.065-15.231-8.409a4.92 4.92 0 0 1 .555-6.294l.901-.902a4.92 4.92 0 0 1 7.541.702c1.713 2.506 3.811 3.775 6.234 3.775 1.818 0 4.862 0 4.862-6.47V252.19zm50.789 43.696c-6.935 0-14.172-2.98-18.887-7.777a4.916 4.916 0 0 1 .027-6.926l.902-.903c.938-.939 2.223-1.478 3.547-1.44a4.9 4.9 0 0 1 3.504 1.539c2.483 2.619 6.866 4.38 10.906 4.38 4.174 0 9.046-1.239 9.046-4.732.028-3.461-2.145-4.637-9.633-6.906-6.878-2.081-17.269-5.229-17.269-17.163 0-8.91 7.745-14.895 19.273-14.895 5.145 0 10.754 1.559 14.639 4.069a4.92 4.92 0 0 1 1.503 6.739l-.643 1.03a4.93 4.93 0 0 1-3.1 2.195 4.93 4.93 0 0 1-3.739-.667c-2.078-1.34-5.559-2.239-8.66-2.239-3.922 0-8.145 1.177-8.145 3.767 0 3.022 1.68 4.183 9.458 6.532 6.983 2.112 17.537 5.3 17.442 17.576.002 9.447-8.104 15.821-20.171 15.821"/></svg>
