<svg fill="#000" xmlns="http://www.w3.org/2000/svg" viewBox="0 0 511 511"><path d="M498.962 102.751c-.018-.182-.049-.359-.08-.537-.011-.063-.016-.128-.029-.191a7.091 7.091 0 0 0-.156-.619c-.009-.03-.014-.061-.023-.091a7.439 7.439 0 0 0-.218-.608c-.011-.027-.019-.055-.03-.081a7.142 7.142 0 0 0-.261-.552c-.019-.037-.034-.075-.054-.112a7.428 7.428 0 0 0-.291-.486c-.031-.048-.057-.098-.088-.145a7.277 7.277 0 0 0-.324-.438c-.039-.05-.073-.102-.113-.151a7.717 7.717 0 0 0-.493-.545L400.804 2.198a7.277 7.277 0 0 0-.545-.493c-.049-.04-.101-.074-.151-.113a7.277 7.277 0 0 0-.438-.324c-.047-.032-.097-.058-.145-.088a7.898 7.898 0 0 0-.486-.291c-.036-.02-.075-.035-.112-.054a7.51 7.51 0 0 0-.552-.261l-.081-.03a7.439 7.439 0 0 0-.608-.218c-.03-.009-.061-.015-.091-.023a7.469 7.469 0 0 0-.619-.156c-.063-.013-.128-.018-.191-.029a7.23 7.23 0 0 0-.537-.08A7.433 7.433 0 0 0 395.5 0h-224C149.72 0 132 17.72 132 39.5V80H43.5C26.131 80 12 94.131 12 111.5v80c0 17.369 14.131 31.5 31.5 31.5H132v248.5c0 21.78 17.72 39.5 39.5 39.5h288c21.78 0 39.5-17.72 39.5-39.5v-368c0-.251-.013-.501-.038-.749zM403 25.606 473.394 96H427.5C413.991 96 403 85.009 403 71.5V25.606zM27 191.5v-80c0-9.098 7.402-16.5 16.5-16.5h304c9.098 0 16.5 7.402 16.5 16.5v80c0 9.098-7.402 16.5-16.5 16.5H139.519l-.019-.001-.019.001H43.5c-9.098 0-16.5-7.402-16.5-16.5zM459.5 496h-288c-13.509 0-24.5-10.991-24.5-24.5V223h200.5c17.369 0 31.5-14.131 31.5-31.5v-80c0-17.369-14.131-31.5-31.5-31.5H147V39.5c0-13.509 10.991-24.5 24.5-24.5H388v56.5c0 21.78 17.72 39.5 39.5 39.5H484v360.5c0 13.509-10.991 24.5-24.5 24.5z"/><path d="M115.5 112a7.5 7.5 0 0 0-7.5 7.5V152H67v-32.5a7.5 7.5 0 0 0-15 0v64a7.5 7.5 0 0 0 15 0V167h41v16.5a7.5 7.5 0 0 0 15 0v-64a7.5 7.5 0 0 0-7.5-7.5zm96 79a7.5 7.5 0 0 0 7.5-7.5v-36.923l10.069 16.782A7.5 7.5 0 0 0 235.5 167h8a7.5 7.5 0 0 0 6.431-3.641L260 146.577V183.5a7.5 7.5 0 0 0 15 0v-64a7.5 7.5 0 0 0-13.931-3.859L239.5 151.589l-21.569-35.948A7.5 7.5 0 0 0 204 119.5v64a7.5 7.5 0 0 0 7.5 7.5zm-72-64H156v56.5a7.5 7.5 0 0 0 15 0V127h16.5a7.5 7.5 0 0 0 0-15h-48a7.5 7.5 0 0 0 0 15zm160 64h40a7.5 7.5 0 0 0 0-15H307v-56.5a7.5 7.5 0 0 0-15 0v64a7.5 7.5 0 0 0 7.5 7.5zm42.372 89.385a7.501 7.501 0 0 0-9.487 4.744l-48 144a7.5 7.5 0 0 0 14.231 4.744l48-144a7.502 7.502 0 0 0-4.744-9.488zm-69.069 17.812a7.5 7.5 0 0 0-10.606 0l-56 56a7.5 7.5 0 0 0 0 10.606l56 56c1.464 1.464 3.384 2.197 5.303 2.197s3.839-.732 5.303-2.197a7.5 7.5 0 0 0 0-10.606L222.106 359.5l50.697-50.697a7.5 7.5 0 0 0 0-10.606zm96 0a7.5 7.5 0 0 0-10.606 0 7.5 7.5 0 0 0 0 10.606l50.697 50.697-50.697 50.697A7.5 7.5 0 0 0 363.5 423a7.474 7.474 0 0 0 5.303-2.197l56-56a7.5 7.5 0 0 0 0-10.606l-56-56z"/></svg>
