<svg fill="#000" viewBox="0 0 24 24" xmlns="http://www.w3.org/2000/svg"><path d="M5 20a1 1 0 1 0-2 0 1 1 0 0 0 2 0Zm0-4a1 1 0 1 0-2 0 1 1 0 0 0 2 0Zm15 3a1 1 0 1 1 0 2 1 1 0 0 1 0-2Zm0-4a1 1 0 1 1 0 2 1 1 0 0 1 0-2Zm1-3a1 1 0 1 0-2 0 1 1 0 0 0 2 0Zm-1-5a1 1 0 1 1 0 2 1 1 0 0 1 0-2Zm1-3a1 1 0 1 0-2 0 1 1 0 0 0 2 0Zm-5 15a1 1 0 1 0 0 2 1 1 0 0 0 0-2Zm-4 0a1 1 0 1 0 0 2 1 1 0 0 0 0-2Zm-5 1a1 1 0 1 1 2 0 1 1 0 0 1-2 0Zm8-16a1 1 0 1 1 2 0 1 1 0 0 1-2 0ZM3 12a1 1 0 1 0 2 0v-2a5 5 0 0 1 5-5h2a1 1 0 1 0 0-2h-2a7 7 0 0 0-7 7v2Z"/><path d="m12 12 .01.01" stroke="#000" stroke-width="2" stroke-linecap="round" stroke-linejoin="round"/></svg>
