<svg fill="#000" viewBox="0 0 600 600" xmlns="http://www.w3.org/2000/svg"><path d="M116.82 533.908c0-35.779-30-65.782-65.712-65.782-35.71 0-65.714 30.003-65.714 65.782 0 35.78 30.003 65.783 65.714 65.783s65.713-30.003 65.713-65.783zm0-231.295c0-35.78-30-65.783-65.712-65.783-35.71 0-65.714 30.003-65.714 65.782 0 35.78 30.003 65.78 65.714 65.78s65.713-30 65.713-65.78zm0-231.3c0-35.779-30-65.78-65.712-65.78-35.71 0-65.714 30.001-65.714 65.78 0 35.78 30.003 65.783 65.714 65.783s65.713-30.004 65.713-65.783z" transform="matrix(.95173 0 0 .95116 13.901 12.169)"/><path d="M211.588 21.528a47.573 49.786 0 0 0-47.572 49.788 47.573 49.786 0 0 0 47.572 49.785h356.66a47.573 49.786 0 0 0 47.575-49.785 47.573 49.786 0 0 0-47.574-49.788Zm0 231.298a47.573 49.786 0 0 0-47.572 49.785 47.573 49.786 0 0 0 47.572 49.786h356.66a47.573 49.786 0 0 0 47.575-49.786 47.573 49.786 0 0 0-47.574-49.785zm0 231.297a47.573 49.786 0 0 0-47.572 49.785 47.573 49.786 0 0 0 47.572 49.786h356.66a47.573 49.786 0 0 0 47.575-49.786 47.573 49.786 0 0 0-47.574-49.785z" transform="matrix(.95173 0 0 .95116 13.901 12.169)"/></svg>
