<svg fill="#000" viewBox="0 0 24 24" xmlns="http://www.w3.org/2000/svg"><path d="M4 5a1 1 0 1 0 0-2 1 1 0 0 0 0 2Zm4 0a1 1 0 1 0 0-2 1 1 0 0 0 0 2ZM5 20a1 1 0 1 1-2 0 1 1 0 0 1 2 0Zm4 0a1 1 0 1 1-2 0 1 1 0 0 1 2 0Zm3 1a1 1 0 1 0 0-2 1 1 0 0 0 0 2Zm5-1a1 1 0 1 1-2 0 1 1 0 0 1 2 0Zm3 1a1 1 0 1 0 0-2 1 1 0 0 0 0 2ZM5 16a1 1 0 1 0-2 0 1 1 0 0 0 2 0Zm0-4a1 1 0 1 0-2 0 1 1 0 0 0 2 0ZM4 7a1 1 0 1 1 0 2 1 1 0 0 1 0-2Zm16 8a1 1 0 1 1 0 2 1 1 0 0 1 0-2ZM12 3a1 1 0 1 0 0 2h2a5 5 0 0 1 5 5v2a1 1 0 1 0 2 0v-2a7 7 0 0 0-7-7h-2Z"/></svg>
