<svg fill="#000" viewBox="0 0 24 24" xmlns="http://www.w3.org/2000/svg"><path d="M20 19a1 1 0 1 0 0 2 1 1 0 0 0 0-2Zm-4 0a1 1 0 1 0 0 2 1 1 0 0 0 0-2Zm3-15a1 1 0 1 1 2 0 1 1 0 0 1-2 0Zm-4 0a1 1 0 1 1 2 0 1 1 0 0 1-2 0Zm-3-1a1 1 0 1 0 0 2 1 1 0 0 0 0-2ZM7 4a1 1 0 1 1 2 0 1 1 0 0 1-2 0ZM4 3a1 1 0 1 0 0 2 1 1 0 0 0 0-2Zm15 5a1 1 0 1 0 2 0 1 1 0 0 0-2 0Zm0 4a1 1 0 1 0 2 0 1 1 0 0 0-2 0Zm1 5a1 1 0 1 1 0-2 1 1 0 0 1 0 2ZM4 9a1 1 0 1 1 0-2 1 1 0 0 1 0 2Zm8 12a1 1 0 1 0 0-2h-2a5 5 0 0 1-5-5v-2a1 1 0 1 0-2 0v2a7 7 0 0 0 7 7h2Z"/><path d="m12 12 .01.01" stroke="#000" stroke-width="2" stroke-linecap="round" stroke-linejoin="round"/></svg>
