<svg fill="#000" viewBox="0 0 24 24" xmlns="http://www.w3.org/2000/svg"><path d="M19 4a1 1 0 1 0 2 0 1 1 0 0 0-2 0Zm0 4a1 1 0 1 0 2 0 1 1 0 0 0-2 0ZM4 5a1 1 0 1 1 0-2 1 1 0 0 1 0 2Zm0 4a1 1 0 1 1 0-2 1 1 0 0 1 0 2Zm-1 3a1 1 0 1 0 2 0 1 1 0 0 0-2 0Zm1 5a1 1 0 1 1 0-2 1 1 0 0 1 0 2Zm-1 3a1 1 0 1 0 2 0 1 1 0 0 0-2 0ZM8 5a1 1 0 1 0 0-2 1 1 0 0 0 0 2Zm4 0a1 1 0 1 0 0-2 1 1 0 0 0 0 2Zm5-1a1 1 0 1 1-2 0 1 1 0 0 1 2 0ZM9 20a1 1 0 1 1-2 0 1 1 0 0 1 2 0Zm12-8a1 1 0 1 0-2 0v2a5 5 0 0 1-5 5h-2a1 1 0 1 0 0 2h2a7 7 0 0 0 7-7v-2Z"/><path d="m12 12 .01.01" stroke="#000" stroke-width="2" stroke-linecap="round" stroke-linejoin="round"/></svg>
