<svg xmlns="http://www.w3.org/2000/svg" xmlns:xlink="http://www.w3.org/1999/xlink" viewBox="22 15 60 60">
  <defs>
    <clipPath id="clip-logoenergieportal">
      <rect width="109" height="93"/>
    </clipPath>
  </defs>
  <g id="logoenergieportal" clip-path="url(#clip-logoenergieportal)">
    <g id="Gruppe_1951" data-name="Gruppe 1951" transform="translate(12.597 11.277)">
      <g id="Pfad_810" data-name="Pfad 810" transform="translate(23.5 17.2)" fill="none">
        <path d="M15.9,0a15.717,15.717,0,0,1,15.9,15.524A15.717,15.717,0,0,1,15.9,31.048,15.717,15.717,0,0,1,0,15.524,15.717,15.717,0,0,1,15.9,0Z" stroke="none"/>
        <path d="M 15.90264320373535 9.999994277954102 C 12.64791488647461 9.999994277954102 10 12.47805213928223 10 15.52400875091553 C 10 18.56996536254883 12.64791488647461 21.04802322387695 15.90264320373535 21.04802322387695 C 19.15737152099609 21.04802322387695 21.8052864074707 18.56996536254883 21.8052864074707 15.52400875091553 C 21.8052864074707 12.47805213928223 19.15737152099609 9.999994277954102 15.90264320373535 9.999994277954102 M 15.90264320373535 -5.7220458984375e-06 C 24.68542861938477 -5.7220458984375e-06 31.8052864074707 6.950336456298828 31.8052864074707 15.52400875091553 C 31.8052864074707 24.09767913818359 24.68542861938477 31.04802322387695 15.90264320373535 31.04802322387695 C 7.119857788085938 31.04802322387695 0 24.09767913818359 0 15.52400875091553 C 0 6.950336456298828 7.119857788085938 -5.7220458984375e-06 15.90264320373535 -5.7220458984375e-06 Z" stroke="none" fill="#7bc043"/>
      </g>
      <g id="Ellipse_103" data-name="Ellipse 103" transform="translate(17.403 9.723)" fill="none" stroke="#fff" stroke-width="5.5">
        <circle cx="22.5" cy="22.5" r="22.5" stroke="none"/>
        <circle cx="22.5" cy="22.5" r="19.75" fill="none"/>
      </g>
      <g id="Gruppe_1950" data-name="Gruppe 1950" transform="translate(10.618 5.549)">
        <g id="Ellipse_104" data-name="Ellipse 104" transform="translate(-0.215 0.174)" fill="none" stroke="#22247e" stroke-width="8">
          <ellipse cx="29" cy="27" rx="29" ry="27" stroke="none"/>
          <ellipse cx="29" cy="27" rx="25" ry="23" fill="none"/>
        </g>
      </g>
    </g>
  </g>
</svg>
