<svg fill="#000" xmlns="http://www.w3.org/2000/svg" viewBox="0 0 512 512"><path d="M464.98 146.286H47.02c-25.927 0-47.02 21.092-47.02 47.02v125.388c0 25.928 21.093 47.02 47.02 47.02h417.96c25.928 0 47.02-21.092 47.02-47.02V193.306c0-25.928-21.092-47.02-47.02-47.02zm15.673 172.408c0 8.643-7.03 15.673-15.673 15.673H47.02c-8.642 0-15.674-7.03-15.674-15.673V193.306c0-8.642 7.031-15.673 15.674-15.673h417.96c8.643 0 15.673 7.031 15.673 15.673v125.388z"/><path d="m309.083 243.451-15.674-27.147-21.735 12.55v-25.099h-31.346v25.099l-21.736-12.55-15.674 27.147L224.653 256l-21.736 12.549 15.674 27.147 21.737-12.55v25.099h31.346v-25.099l21.735 12.55 15.674-27.147L287.347 256zm139.286 0-15.674-27.147-21.734 12.55v-25.099h-31.346v25.099l-21.736-12.55-15.674 27.147L363.941 256l-21.737 12.549 15.674 27.147 21.737-12.55v25.099h31.346v-25.099l21.734 12.55 15.674-27.147L426.634 256zm-278.573 0-15.674-27.147-21.735 12.55v-25.099h-31.346v25.099l-21.736-12.55-15.674 27.147L85.366 256 63.63 268.549l15.674 27.147 21.737-12.55v25.099h31.346v-25.099l21.735 12.55 15.674-27.147L148.06 256z"/></svg>
