<svg fill="#000" xmlns="http://www.w3.org/2000/svg" viewBox="0 0 492.981 492.981"><path d="M160.215 142.729h122.867c5.492 0 9.937-4.45 9.937-9.933V9.931c0-5.482-4.444-9.931-9.937-9.931H160.215c-5.487 0-9.938 4.449-9.938 9.931v122.865c0 5.483 4.451 9.933 9.938 9.933zm22.842-109.947h77.182v77.166h-77.182V32.782zm-22.842 285.073h122.867c5.492 0 9.937-4.451 9.937-9.933V185.057c0-5.482-4.444-9.932-9.937-9.932H160.215c-5.487 0-9.938 4.449-9.938 9.932v122.865c0 5.482 4.451 9.933 9.938 9.933zm22.842-109.948h77.182v77.167h-77.182v-77.167zm69.339 274.853c-8.388 0-16.79-3.201-23.176-9.603l-12.967-12.958h-33.196v-77.166h77.182v12.741L293.019 363v-2.818c0-5.482-4.444-9.932-9.937-9.932H160.215c-5.487 0-9.938 4.449-9.938 9.932v122.865c0 5.482 4.45 9.934 9.938 9.934h122.867c5.492 0 9.937-4.451 9.937-9.934v-27.338l-17.442 17.447a32.688 32.688 0 0 1-23.181 9.604z"/><path d="M337.902 364.457c-6.4-6.403-16.775-6.403-23.175 0l-62.332 62.344-19.157-19.151c-6.406-6.402-16.774-6.402-23.176 0-6.406 6.402-6.406 16.774 0 23.177l30.747 30.74a16.328 16.328 0 0 0 11.586 4.803c4.193 0 8.388-1.602 11.59-4.803l73.917-73.933c6.402-6.403 6.402-16.775 0-23.177z"/></svg>
