<svg fill="#000" xmlns="http://www.w3.org/2000/svg" viewBox="0 0 320 320"><path d="M280.935 138.049a7.477 7.477 0 0 0 5.303 2.196 7.5 7.5 0 0 0 5.303-12.803L230.22 66.12V24.833l50.965 50.966a7.477 7.477 0 0 0 5.303 2.196 7.5 7.5 0 0 0 5.303-12.803l-63-63c-2.652-2.651-6.792-2.894-9.727-.743a7.494 7.494 0 0 0-3.845 6.547v135.769c0 50.306-40.926 91.231-91.231 91.231s-91.231-40.926-91.231-91.231V7.995c0-4.143-3.358-7.5-7.5-7.5s-7.5 3.357-7.5 7.5v135.769c0 32.411 14.595 61.474 37.553 80.975.256.372.544.73.875 1.061l63 63a7.477 7.477 0 0 0 5.303 2.196 7.5 7.5 0 0 0 5.303-12.803l-31.296-31.296c8.171 2.02 16.707 3.1 25.493 3.1 5.943 0 11.771-.499 17.452-1.441l60.995 60.995a7.477 7.477 0 0 0 5.303 2.196 7.5 7.5 0 0 0 5.303-12.803l-54.663-54.663a105.997 105.997 0 0 0 27.245-14.04l58.561 58.561a7.477 7.477 0 0 0 5.303 2.196 7.5 7.5 0 0 0 5.303-12.803l-57.556-57.556a106.934 106.934 0 0 0 18.28-23.007l55.919 55.92a7.477 7.477 0 0 0 5.303 2.196 7.5 7.5 0 0 0 5.303-12.803l-59.511-59.511a105.457 105.457 0 0 0 7.522-33.764l50.632 50.632a7.477 7.477 0 0 0 5.303 2.196 7.5 7.5 0 0 0 5.303-12.803L230.22 128.62V87.333l50.715 50.716z"/></svg>
