<svg fill="#000" viewBox="0 0 24 24" xmlns="http://www.w3.org/2000/svg"><path d="M21 3.25a.75.75 90 0 1 .75.75v16a.75.75 90 0 1-1.5 0V4a.75.75 90 0 1 .75-.75Zm-18 0a.75.75 90 0 1 .75.75v16a.75.75 90 0 1-1.5 0V4A.75.75 90 0 1 3 3.25Zm5.747 6.275s-.98 2.436-1.426 6.094c-.04.327.714.034.973-.065.588-3.602 1.426-6.07 1.426-6.07-.245-.042-.973.04-.973.04m4.218.268c.346.56.195 1.449-.015 2.33-.345 1.425-1.16 2.898-2.479 2.898-1.247 0-1.376-1.353-1.045-2.739.202-.84.534-1.696 1.038-2.264.39-.433.922-.697 1.455-.697.52 0 .873.104 1.046.472m-2.537 2.498c-.281 1.162-.151 1.745.31 1.745.482 0 .936-.736 1.232-1.945.274-1.153.144-1.682-.317-1.682-.44 0-.922.64-1.225 1.882m6.287-2.497c.346.56.194 1.448-.015 2.33-.346 1.424-1.16 2.897-2.479 2.897-1.246 0-1.376-1.353-1.045-2.738.202-.84.534-1.697 1.038-2.265.39-.432.922-.697 1.456-.697.519 0 .872.104 1.045.472m-2.537 2.498c-.28 1.161-.151 1.746.31 1.746.483 0 .937-.738 1.232-1.945.274-1.154.144-1.683-.317-1.683-.44 0-.923.64-1.225 1.882"/></svg>
