<svg xmlns="http://www.w3.org/2000/svg" viewBox="22 15 60 60"><g fill="none"><path d="M51.997 28.477a15.717 15.717 0 0 1 15.9 15.524 15.717 15.717 0 0 1-15.9 15.524 15.717 15.717 0 0 1-15.9-15.524 15.717 15.717 0 0 1 15.9-15.524Z"/><path d="M52 38.477c-3.255 0-5.903 2.478-5.903 5.524s2.648 5.524 5.903 5.524c3.254 0 5.902-2.478 5.902-5.524S55.254 38.477 52 38.477m0-10c8.782 0 15.902 6.95 15.902 15.524 0 8.574-7.12 15.524-15.902 15.524-8.783 0-15.903-6.95-15.903-15.524 0-8.574 7.12-15.524 15.903-15.524Z" fill="#7bc043"/></g><g transform="translate(30 21)" fill="none" stroke="#fff" stroke-width="5.5"><circle cx="22.5" cy="22.5" r="22.5" stroke="none"/><circle cx="22.5" cy="22.5" r="19.75"/></g><g transform="translate(23 17)" fill="none" stroke="#22247e" stroke-width="8"><ellipse cx="29" cy="27" rx="29" ry="27" stroke="none"/><ellipse cx="29" cy="27" rx="25" ry="23"/></g></svg>
