<svg fill="#000" xmlns="http://www.w3.org/2000/svg" viewBox="0 0 512 512"><path d="M139.751 425.91c-17.29-5.507-34.575-3.84-45.38 3.18 4.097 11.734 16.794 22.895 34.09 28.381 17.282 5.493 34.572 3.84 45.373-3.187-4.098-11.727-16.798-22.911-34.083-28.374zm-13.149-18.592c8.478-8.768 12.656-23.975 9.836-40.115-2.816-16.133-11.884-28.888-22.804-34.05-8.47 8.76-12.667 23.975-9.84 40.114 2.817 16.126 11.894 28.903 22.808 34.051zm-58.204-47.914c-14.925-9.421-31.862-11.925-44.146-7.718.58 12.322 9.516 26.126 24.441 35.548 14.921 9.413 31.854 11.917 44.143 7.703-.584-12.329-9.516-26.112-24.438-35.533zm10.868-85.619c-9.271 6.843-15.567 20.406-15.483 35.885.081 15.479 6.517 28.778 15.861 35.246 9.274-6.858 15.567-20.406 15.483-35.892-.084-15.472-6.521-28.763-15.861-35.239zm-24.13-25.136c11.411-2.32 23.182-11.94 30.1-25.972 6.935-14.032 7.156-28.733 1.7-38.485-11.418 2.328-23.192 11.94-30.11 25.988-6.928 14.017-7.16 28.725-1.69 38.469zM38.428 213.19c8.602-6.888 14.087-20.069 13.39-34.872-.687-14.804-7.372-27.272-16.581-33.132-8.602 6.881-14.099 20.054-13.397 34.865.679 14.796 7.376 27.279 16.588 33.139zm86.21-96.275c-10.518-1.05-23.634 4.148-33.983 14.488-10.346 10.339-15.163 23.057-13.544 32.992 10.526 1.05 23.634-4.148 33.98-14.488 10.346-10.338 15.167-23.042 13.547-32.992zm-31.317-10.442c4.479-12.527 3.267-24.937-2.254-32.602-9.388 3.113-18.369 12.402-22.855 24.937-4.483 12.512-3.268 24.929 2.262 32.595 9.379-3.128 18.36-12.402 22.847-24.93zm50.813-24.422c9.678-9.583 14.227-21.391 12.751-30.665-9.781-1.006-22 3.775-31.689 13.365-9.667 9.575-14.204 21.398-12.744 30.649 9.789 1.021 22.011-3.76 31.682-13.349zM34.932 262.477c-8.463-13.012-21.185-20.928-32.739-21.64-4.27 10.486-2.342 25.098 6.11 38.096 8.452 13.004 21.185 20.928 32.739 21.633 4.258-10.495 2.342-25.1-6.11-38.089zM372.249 425.91c-17.286 5.464-29.982 16.647-34.086 28.374 10.801 7.027 28.094 8.68 45.379 3.187 17.3-5.486 29.989-16.647 34.086-28.381-10.808-7.02-28.079-8.687-45.379-3.18zm3.319-58.707c-2.82 16.14 1.351 31.347 9.84 40.115 10.911-5.148 19.988-17.924 22.808-34.05 2.82-16.139-1.381-31.354-9.855-40.114-10.911 5.161-19.973 17.916-22.793 34.049zm68.041-7.799c-14.922 9.421-23.865 23.204-24.452 35.533 12.292 4.214 29.239 1.71 44.146-7.703 14.936-9.422 23.88-23.226 24.452-35.548-12.277-4.207-29.225-1.703-44.146 7.718zm-10.868-85.619c-9.341 6.476-15.788 19.768-15.861 35.239-.088 15.486 6.212 29.034 15.465 35.892 9.355-6.469 15.787-19.768 15.875-35.246.088-15.479-6.212-29.042-15.479-35.885zm-7.666-89.593c-5.464 9.752-5.243 24.453 1.689 38.485 6.917 14.032 18.695 23.652 30.106 25.972 5.463-9.744 5.228-24.453-1.689-38.47-6.917-14.047-18.695-23.659-30.106-25.987zm48.508 28.998c9.208-5.86 15.905-18.343 16.58-33.139.706-14.811-4.787-27.984-13.393-34.865-9.208 5.86-15.89 18.328-16.581 33.132-.705 14.803 4.788 27.984 13.394 34.872zm-38.698-48.795c1.63-9.935-3.201-22.654-13.54-32.992-10.354-10.339-23.454-15.538-33.984-14.488-1.615 9.95 3.202 22.654 13.556 32.992 10.339 10.34 23.438 15.539 33.968 14.488zm6.653-32.992c5.522-7.666 6.741-20.083 2.246-32.595-4.479-12.535-13.452-21.824-22.851-24.937-5.522 7.666-6.727 20.076-2.247 32.602 4.494 12.528 13.453 21.802 22.852 24.93zM399.55 95.4c1.468-9.252-3.07-21.074-12.748-30.649-9.678-9.59-21.897-14.371-31.678-13.365-1.482 9.274 3.07 21.082 12.748 30.665 9.664 9.589 21.883 14.37 31.678 13.349zm110.264 145.436c-11.558.713-24.276 8.628-32.735 21.64-8.459 12.989-10.368 27.595-6.11 38.088 11.543-.705 24.29-8.628 32.735-21.633 8.444-12.996 10.368-27.609 6.11-38.095z"/><text class="counter" style="font-size:233;font-family:monospace;" x="256" y="256" text-anchor="middle" dominant-baseline="middle">0</text></svg>
