<svg fill="#000" xmlns="http://www.w3.org/2000/svg" viewBox="0 0 502.686 502.686" xml:space="preserve"><path d="M183.19 327.854 75.962 351.625 33.834 502.664h184.581l19.327-161.63-32.571-35.247zm243.491 23.771-107.315-23.771-22.024-22.045-32.464 35.247 19.306 161.63h184.668zM251.332 170.064c72.586 0 131.409-7.291 131.409-16.308 0-1.941-3.236-3.84-8.499-5.565C370.273 81.645 370.683 0 251.375 0S132.434 81.645 128.508 148.17c-5.285 1.747-8.564 3.645-8.564 5.587 0 9.016 58.867 16.307 131.388 16.307zm109.623 9.879c-23.965 3.904-61.39 6.428-103.928 6.428-50.109 0-93.229-3.494-115.296-8.607 7.787 69.156 53.668 122.544 109.795 122.544 55.459-.043 100.779-52.287 109.429-120.365z"/></svg>
