<svg fill="#000" xmlns="http://www.w3.org/2000/svg" viewBox="0 0 24 24"><path d="M16 6H8c-.6 0-1-.4-1-1s.4-1 1-1h8c.6 0 1 .4 1 1s-.4 1-1 1zm0 14H8c-.6 0-1-.4-1-1s.4-1 1-1h8c.6 0 1 .4 1 1s-.4 1-1 1zm3-3c-.6 0-1-.4-1-1V8c0-.6.4-1 1-1s1 .4 1 1v8c0 .6-.4 1-1 1zM5 17c-.6 0-1-.4-1-1V8c0-.6.4-1 1-1s1 .4 1 1v8c0 .6-.4 1-1 1z"/><path d="M23 24H1c-.6 0-1-.4-1-1V1c0-.6.4-1 1-1h22c.6 0 1 .4 1 1v22c0 .6-.4 1-1 1zM2 22h20V2H2v20z"/><rect x="10.5" y="5.5" width="3" height="13" ry="2" transform="rotate(45 12 12)"/><rect x="10.5" y="5.5" width="3" height="13" ry="2" transform="rotate(-45 12 12)"/></svg>
