<svg fill="#000" xmlns="http://www.w3.org/2000/svg" viewBox="0 0 21.964 27.455"><path d="M5.858 17.407a2.056 2.056 0 0 0-.511.049v1.617a1.87 1.87 0 0 0 .415.032c.658 0 1.063-.332 1.063-.894-.001-.502-.35-.804-.967-.804Zm4.787.016a2.533 2.533 0 0 0-.559.049v3.583a2.242 2.242 0 0 0 .43.025 1.7 1.7 0 0 0 1.852-1.916 1.571 1.571 0 0 0-1.724-1.737Z"/><path d="M13.728 0H2.746A2.746 2.746 0 0 0 0 2.746V24.71a2.746 2.746 0 0 0 2.746 2.746h16.473a2.746 2.746 0 0 0 2.746-2.746V8.237Zm-6.18 19.479a2.545 2.545 0 0 1-1.779.577 3.062 3.062 0 0 1-.423-.025v1.958H4.118v-5.4a10.376 10.376 0 0 1 1.673-.113 2.631 2.631 0 0 1 1.675.438 1.6 1.6 0 0 1 .585 1.267 1.76 1.76 0 0 1-.504 1.298Zm5.226 1.86a3.93 3.93 0 0 1-2.526.707 10.576 10.576 0 0 1-1.406-.082v-5.377a10.909 10.909 0 0 1 1.673-.114 3.52 3.52 0 0 1 2.242.585 2.422 2.422 0 0 1 .927 2.065 2.778 2.778 0 0 1-.91 2.217Zm5.072-3.809h-2.1v1.251h1.966v1.008h-1.969v2.2H14.5v-5.475h3.347Zm-4.118-7.921h-1.373V2.746l6.864 6.864Z"/></svg>
