<svg fill="#000" viewBox="0 0 22 22" xmlns="http://www.w3.org/2000/svg"><path d="m10 17.414-3.293 3.293A1 1 0 0 1 6 21H2a1 1 0 0 1-1-1v-4a1 1 0 0 1 .293-.707L4.586 12 .293 7.707a1 1 0 0 1 0-1.414l6-6a1 1 0 0 1 1.414 0L12 4.586 16.293.293a1 1 0 0 1 1.414 0l4 4a1 1 0 0 1 0 1.414L17.414 10l4.293 4.293a1 1 0 0 1 0 1.414l-6 6a1 1 0 0 1-1.414 0L10 17.414zM11.414 16l1.086 1.086.793-.793a1 1 0 0 1 1.414 1.414l-.793.793L15 19.586 19.586 15 16 11.414 11.414 16zM14.5 4.914 3 16.414V19h2.586l11.5-11.5L14.5 4.914zM15.914 3.5 18.5 6.086 19.586 5 17 2.414 15.914 3.5zM10.586 6 7 2.414 2.414 7 3.5 8.086l.793-.793a1 1 0 0 1 1.414 1.414l-.793.793L6 10.586 10.586 6z"/></svg>
