<svg height="200px" width="200px" version="1.1" id="Layer_1" xmlns="http://www.w3.org/2000/svg" xmlns:xlink="http://www.w3.org/1999/xlink" viewBox="0 0 512.001 512.001" xml:space="preserve" fill="#000000" transform="matrix(1, 0, 0, 1, 0, 0)"><g id="SVGRepo_bgCarrier" stroke-width="0"></g><g id="SVGRepo_tracerCarrier" stroke-linecap="round" stroke-linejoin="round"></g><g id="SVGRepo_iconCarrier"> <path style="fill:#B3404A;" d="M308.748,422.361H45.952C20.614,422.361,0,401.748,0,376.409V135.354 c0-25.338,20.614-45.952,45.952-45.952h337.989c25.338,0,45.952,20.614,45.952,45.952v58.643c0,7.398-5.998,13.396-13.396,13.396 c-7.399,0-13.396-5.999-13.396-13.396v-58.643c0-10.564-8.595-19.16-19.16-19.16H45.952c-10.564,0-19.16,8.595-19.16,19.16v241.054 c0,10.566,8.595,19.161,19.16,19.161h262.796c7.399,0,13.396,5.999,13.396,13.396C322.145,416.362,316.147,422.361,308.748,422.361z "></path> <path style="fill:#F4B2B0;" d="M416.497,135.354L416.497,135.354l-201.55,152.657L13.396,135.354l0,0 c0-17.981,14.575-32.556,32.556-32.556H383.94C401.92,102.798,416.497,117.375,416.497,135.354z"></path> <g> <path style="fill:#B3404A;" d="M214.947,301.406c-2.848,0-5.696-0.906-8.089-2.717L5.308,146.034C1.964,143.5,0,139.548,0,135.354 c0-25.338,20.614-45.952,45.952-45.952h337.989c25.338,0,45.952,20.614,45.952,45.952c0,4.194-1.964,8.146-5.308,10.68 L223.034,298.69C220.643,300.501,217.795,301.406,214.947,301.406z M27.737,129.41l187.209,141.796L402.156,129.41 c-2.506-7.664-9.724-13.214-18.215-13.214H45.952C37.462,116.194,30.244,121.746,27.737,129.41z"></path> <path style="fill:#B3404A;" d="M417.057,422.6c-52.353,0-94.944-42.593-94.944-94.944s42.591-94.943,94.944-94.943 c52.352,0,94.944,42.591,94.944,94.943S469.409,422.6,417.057,422.6z M417.057,259.505c-37.578,0-68.152,30.572-68.152,68.15 c0,37.58,30.573,68.152,68.152,68.152s68.152-30.572,68.152-68.152C485.207,290.077,454.635,259.505,417.057,259.505z"></path> <path style="fill:#B3404A;" d="M417.317,283.828c12.2,0,24.505,7.677,24.505,21.77c0,22.822-32.497,30.289-32.497,39.86v0.947 h27.554c2.63,0,4.943,3.261,4.943,7.047s-2.314,7.257-4.943,7.257h-37.44c-2.945,0-7.151-1.997-7.151-5.049v-10.201 c0-16.511,33.128-25.977,33.128-39.333c0-3.365-2.103-7.466-7.992-7.466c-4.208,0-7.888,2.102-7.888,7.888 c0,3.049-3.261,5.995-8.625,5.995c-4.207,0-7.363-1.893-7.363-8.519C393.548,291.19,405.327,283.828,417.317,283.828z"></path> </g> </g></svg>
