<?xml version="1.0" encoding="iso-8859-1"?>
<!-- Uploaded to: SVG Repo, www.svgrepo.com, Generator: SVG Repo Mixer Tools -->
<!DOCTYPE svg PUBLIC "-//W3C//DTD SVG 1.1//EN" "http://www.w3.org/Graphics/SVG/1.1/DTD/svg11.dtd">
<svg fill="#000000" version="1.1" id="Capa_1" xmlns="http://www.w3.org/2000/svg" xmlns:xlink="http://www.w3.org/1999/xlink" 
	 width="800px" height="800px" viewBox="0 0 98.188 98.187"
	 xml:space="preserve">
<g>
	<g>
		<path d="M78.537,27.737c-0.7-0.059-1.342-0.417-1.76-0.981C72.775,21.341,66.352,18,59.516,18c-0.435,0-0.869,0.013-1.304,0.039
			c-0.581,0.035-1.151-0.138-1.616-0.488c-4.16-3.143-9.203-4.845-14.483-4.845c-9.456,0-17.849,5.483-21.764,13.786
			c-0.352,0.745-1.056,1.262-1.872,1.376C8.052,29.319,0,38.293,0,49.111C0,60.939,9.623,70.56,21.45,70.56h5.653
			c-1.944-2.52-3.457-5.371-4.444-8.449H21.45c-7.167,0-12.999-5.832-12.999-13c0-7.167,5.831-12.998,12.999-12.998
			c0.362,0,0.718,0.029,1.072,0.058c2.065,0.159,3.936-1.18,4.438-3.184c1.748-6.965,7.979-11.83,15.153-11.83
			c4.099,0,7.978,1.582,10.922,4.456c1.007,0.982,2.436,1.399,3.812,1.112c0.877-0.182,1.774-0.274,2.666-0.274
			c5.02,0,9.5,2.82,11.695,7.361c0.771,1.598,2.459,2.549,4.225,2.367c0.439-0.045,0.879-0.066,1.305-0.066
			c7.168,0,12.998,5.831,12.998,12.998c0,7.167-5.83,13-12.998,13h-2.686c1.758,1.398,2.811,3.557,2.811,5.818
			c0,0.906-0.174,1.797-0.49,2.631h0.365c11.828,0,21.449-9.621,21.449-21.449C98.189,37.89,89.525,28.653,78.537,27.737z"/>
		<path d="M71.791,64.773L53.785,51.187c-1.198-0.904-2.805-1.051-4.147-0.383c-1.343,0.672-2.19,2.041-2.19,3.543v3.487
			c-6.457-0.631-12.391-3.048-17.289-6.75c-1.007-0.761-2.357-0.888-3.488-0.325c-1.13,0.562-1.846,1.715-1.846,2.979v0.002
			c0,12.728,9.9,23.271,22.604,24.046c0.006,0,0.012,0.001,0.018,0.001v3.738c0,1.5,0.848,2.873,2.19,3.541
			c1.343,0.668,2.949,0.521,4.147-0.387l18.008-13.594c0.989-0.747,1.571-1.917,1.571-3.156
			C73.364,66.687,72.782,65.517,71.791,64.773z"/>
	</g>
</g>
</svg>