<svg fill="#000" viewBox="0 0 76 76" xmlns="http://www.w3.org/2000/svg"><path d="M19 34h1v1h-1v-1Zm0 2h1v1h-1v-1Zm0 2h1v1h-1v-1Zm0 2h1v1h1v1h-1v-1h-1v-1Zm2-5v-1h1v1h-1Zm2 0v-1h1v1h-1Zm2 0v-1h1v1h1v1h-1v-1h-1Zm1 2h1v1h-1v-1Zm0 2h1v1h-1v-1Zm0 2h1v1h-1v-1Zm-1 1h-1v-1h1v1Zm-2 0h-1v-1h1v1Zm8-8h1v1h-1v-1Zm0 2h1v1h-1v-1Zm0 2h1v1h-1v-1Zm0 2h1v1h1v1h-1v-1h-1v-1Zm2-5v-1h1v1h-1Zm2 0v-1h1v1h-1Zm2 0v-1h1v1h-1Zm20 0v1h-1v-1h-1v-1h1v1h1Zm-1 2h1v1h-1v-1Zm0 2h1v1h-1v-1Zm-18 2h1v1h-1v-1Zm-1 1h-1v-1h1v1Zm-2 0h-1v-1h1v1Zm5 0v-1h1v1h-1Zm1-7v-1h1v1h-1Zm2 0v-1h1v1h-1Zm2 0v-1h1v1h-1Zm1 6h1v1h-1v-1Zm-1 1h-1v-1h1v1Zm-2 0h-1v-1h1v1Zm-4-7v-1h1v1h-1Zm9 6h1v1h-1v-1Zm2 1v-1h1v1h-1Zm6-1h1v1h-1v-1Zm-1 1h-1v-1h1v1Zm-2 0h-1v-1h1v1Zm-6-7v-1h1v1h-1Zm4 0v-1h1v1h-1Zm2 0v-1h1v1h-1Zm-4 0v-1h1v1h-1ZM19 23h8v8h-8v-8Zm12 0h26v8H31v-8ZM19 45h8v8h-8v-8Zm12 0h26v8H31v-8Z"/></svg>
