<svg fill="#000" xmlns="http://www.w3.org/2000/svg" viewBox="0 0 32 32"><path d="M26.615 7.318a2.637 2.637 0 0 0-.211-.462 2.696 2.696 0 0 0-.896-.9l-.017-.011a.808.808 0 0 0-.409-.486 6.942 6.942 0 0 0-.771-.324c-.15-.052-.309-.079-.464-.111a4.428 4.428 0 0 0-.485-.071 2.201 2.201 0 0 0-.228-.011c-.222 0-.44.031-.662.077-.627.129-1.197.457-1.692.846-.361.284-.649.654-.902 1.035a3.217 3.217 0 0 0-.508 1.316c-.038.274-.06.52-.031.794a3.17 3.17 0 0 0 .655 1.629c.188.24.42.417.666.595.399.293.864.518 1.355.595.248.04.497.067.746.082.319.02.643.027.956-.038.591-.123 1.125-.424 1.589-.804.209-.17.393-.365.57-.568.225-.257.449-.533.585-.85.077-.182.148-.353.184-.547.036-.188.059-.38.079-.572a3.088 3.088 0 0 0-.012-.706c-.024-.168-.039-.348-.097-.508zm-1.723.492.004.011-.004-.011zm-.002-.004-.022-.052-.013-.032.035.084zm-.045-.106-.021-.049a.883.883 0 0 0 .018.042l.003.007zm-.02-.049s0-.001 0 0a.615.615 0 0 1-.016-.038l.016.038zm.063.742c-.025.15-.058.297-.105.442a2.758 2.758 0 0 1-.209.335 4.343 4.343 0 0 1-.55.568c-.147.102-.3.192-.461.271a2.844 2.844 0 0 1-.269.078 4.7 4.7 0 0 1-.838-.036 2.828 2.828 0 0 1-.394-.096 3.905 3.905 0 0 1-.56-.334 2.21 2.21 0 0 1-.161-.16 2.165 2.165 0 0 1-.111-.2 2.71 2.71 0 0 1-.099-.341 3.351 3.351 0 0 1 0-.317c.028-.148.066-.293.115-.438a3.48 3.48 0 0 1 .303-.494c.15-.178.314-.339.491-.488.168-.111.342-.205.524-.292.135-.046.27-.083.409-.11.091-.003.179-.001.268.006.229.047.453.106.672.187l.22.106c.082.041.164.073.247.095.058.079.13.146.213.211.051.049.097.1.142.153.046.069.088.14.127.213.014.045.025.09.035.135.011.17.007.338-.009.506zm.007-.576.005.009.03.074a2.065 2.065 0 0 1-.035-.083zm-13.19-1.301c-.34-.42-.818-.643-1.301-.846a.585.585 0 0 0-.057-.013.667.667 0 0 0-.336-.185 8.012 8.012 0 0 0-.898-.102l-.07-.001c-.148 0-.298.014-.444.024a4.63 4.63 0 0 0-.428.052 2.773 2.773 0 0 0-.752.255c-.185.089-.352.219-.513.343a3.27 3.27 0 0 0-.552.505 3.203 3.203 0 0 0-.668 1.34c-.098.437-.16.871-.11 1.316.044.39.161.777.38 1.107.234.358.532.643.879.89.165.118.338.212.522.3.422.2.865.272 1.328.318.413.042.837-.059 1.232-.168.259-.071.512-.183.756-.294.263-.121.51-.318.708-.529.209-.225.386-.472.522-.747a4.41 4.41 0 0 0 .324-.883c.092-.382.15-.787.144-1.18a2.042 2.042 0 0 0-.265-.967c-.105-.19-.266-.37-.401-.535zm-1.101 1.85a4.16 4.16 0 0 1-.189.719 2.783 2.783 0 0 1-.221.396 2.944 2.944 0 0 1-.246.241c-.079.05-.16.092-.243.132a4.673 4.673 0 0 1-.725.213 3.034 3.034 0 0 1-.467-.013 2.686 2.686 0 0 1-.394-.103 3.107 3.107 0 0 1-.404-.239 3.478 3.478 0 0 1-.235-.219 2.473 2.473 0 0 1-.145-.243 2.247 2.247 0 0 1-.069-.256 3.068 3.068 0 0 1 .009-.46 3.97 3.97 0 0 1 .149-.606c.06-.119.128-.231.204-.34.092-.102.189-.195.292-.284a3.38 3.38 0 0 1 .352-.219c.066-.018.131-.033.198-.046.297-.024.594-.029.891-.005l.195.032a.605.605 0 0 0 .196.15c.188.083.365.175.535.287.053.051.103.103.153.157.062.086.119.174.171.267l.01.037c.005.134-.002.268-.017.402zM27.53 2.704a3.075 3.075 0 0 0-.068-.052l-.043-.034c.038.028.075.057.111.086zm2.315 3.757a6.348 6.348 0 0 0-.276-.988 7.182 7.182 0 0 0-.583-1.121 6.71 6.71 0 0 0-1.522-1.7 8.123 8.123 0 0 0-1.038-.679 10.03 10.03 0 0 0-1.18-.561A5.711 5.711 0 0 0 23.091 1c-.164 0-.328.006-.494.018a8.986 8.986 0 0 0-1.41.219 7.548 7.548 0 0 0-1.309.441c-.42.178-.785.436-1.146.71-.365.278-.727.564-1.069.871-.881.795-1.582 1.862-1.912 3.021-.173-.811-.461-1.629-.913-2.328-.487-.748-1.211-1.257-2.007-1.629a7.545 7.545 0 0 0-2-.595 9.835 9.835 0 0 0-1.157-.126 6.817 6.817 0 0 0-1.115.063c.065-.01.13-.017.196-.027-.829.111-1.67.205-2.449.529a6.96 6.96 0 0 0-2.197 1.447c-.305.299-.568.65-.81 1.003-.22.323-.427.663-.587 1.022a9.095 9.095 0 0 0-.708 2.441c-.032.245-.069.489-.088.736-.029.374.006.739.069 1.109.069.405.155.81.282 1.201.271.829.606 1.645 1.19 2.305.576.651 1.314 1.081 2.101 1.424.395.173.787.351 1.207.453.424.104.852.176 1.286.226.664.077 1.32-.03 1.973-.159.297-.06.593-.119.89-.173.15-.027.29-.083.434-.125l.312.327a.79.79 0 0 0 .447.217 78.136 78.136 0 0 0-1.698 1.708 49.191 49.191 0 0 0-3.063 3.47 26.298 26.298 0 0 0-1.464 2.036 6.418 6.418 0 0 0-.883 2.19c-.178.833-.123 1.719.058 2.546.18.837.524 1.614.929 2.364.109.2.304.323.517.368.305.262.777.261 1.063-.03.276-.278.509-.603.758-.906.259-.311.516-.625.775-.938.514-.624 1.011-1.263 1.522-1.894 1.034-1.282 2.113-2.531 3.157-3.807.53-.65 1.083-1.282 1.626-1.922.549.668 1.097 1.337 1.631 2.017.492.642.962 1.297 1.435 1.952.249.341.493.689.741 1.032.238.324.487.639.727.961.271.365.535.739.831 1.084.263.307.539.603.804.908.503.58.994 1.169 1.51 1.735.075.084.15.171.24.24.194.154.378.259.633.265.146.003.351-.039.47-.131.146-.111.249-.199.342-.362l.06-.119c.091-.188.158-.388.235-.583.153-.356.292-.71.397-1.086a9.47 9.47 0 0 0 .251-1.397 4.97 4.97 0 0 0 .021-1.056c-.042-.447-.167-.888-.305-1.314a11.398 11.398 0 0 0-.547-1.379 10.756 10.756 0 0 0-.576-1.094 13.375 13.375 0 0 0-.71-1.015c-.286-.38-.574-.758-.875-1.126a15.872 15.872 0 0 0-.992-1.098c-.357-.363-.739-.701-1.107-1.05-.39-.37-.777-.745-1.165-1.119a15.305 15.305 0 0 1-.464-.455l-.079-.085c.26-.345.518-.692.769-1.043.426.133.86.255 1.306.285.434.029.873.01 1.307-.011a12.903 12.903 0 0 0 2.662-.418c.977-.261 1.838-.77 2.629-1.389a5.993 5.993 0 0 0 1.704-2.086c.198-.407.388-.829.52-1.263a6.62 6.62 0 0 0 .274-1.518c.051-.89-.058-1.759-.238-2.627zM15.692 9.31c.032.173.065.346.104.515.129.566.364 1.108.616 1.636-.115.104-.232.207-.344.316l-.39.386c-.267-.281-.532-.564-.8-.845.195-.44.386-.883.574-1.327.096-.225.174-.451.24-.681zm-2.829 4.892-.541-.576c-.013-.014-.032-.018-.046-.031-.209-.277-.575-.43-.923-.325-.225.069-.443.146-.67.204-.203.052-.411.083-.614.125-.215.042-.426.104-.641.148a9.986 9.986 0 0 1-.507.091 4.883 4.883 0 0 1-1.004-.023 8.024 8.024 0 0 1-.883-.178 6.457 6.457 0 0 1-.79-.283 7.096 7.096 0 0 1-1.253-.667 4.63 4.63 0 0 1-.563-.566 5.277 5.277 0 0 1-.477-.873 8.276 8.276 0 0 1-.509-1.812 5.119 5.119 0 0 1 .033-1.05c.11-.713.295-1.411.564-2.081a7.48 7.48 0 0 1 .773-1.275 5.99 5.99 0 0 1 .744-.733c.387-.281.8-.519 1.236-.716.669-.257 1.38-.378 2.089-.486a5.59 5.59 0 0 1 1.142.016 9.137 9.137 0 0 1 1.83.488c.365.164.712.356 1.04.587.18.15.345.311.496.491.16.235.296.477.416.734.192.492.345.996.437 1.516.046.46.023.92-.027 1.378a4.169 4.169 0 0 1-.214.823c-.196.454-.407.902-.608 1.354-.098.221-.154.418-.086.66.003.012.013.022.017.034-.219.33-.201.783.089 1.071.359.358.718.717 1.078 1.073-.272.26-.543.521-.813.782l-.594.576a.888.888 0 0 0-.221-.476zm5.594 4.221c.426.409.844.825 1.272 1.234.438.418.871.834 1.282 1.278.375.404.722.833 1.06 1.266l-.024-.032.04.053.09.116-.058-.073c.274.36.55.724.781 1.111.26.435.491.89.696 1.353.209.528.39 1.065.491 1.623.022.34-.002.672-.04 1.01a7.977 7.977 0 0 1-.331 1.371c-.189-.213-.379-.427-.566-.643-.502-.573-1.019-1.138-1.494-1.732-1.278-1.663-2.479-3.383-3.761-5.042l-.066-.085a84.424 84.424 0 0 0-1.353-1.696c.112-.128.218-.262.33-.39.368-.42.714-.858 1.065-1.292.192.194.389.382.586.57zm-1.866-1.542.116-.151-.023.03-.093.121zm.141-.182-.014.018.016-.021-.002.003zm.004-.005.02-.026-.022.029.002-.003zm11.598-7.385a6.59 6.59 0 0 1-.375 1.348c-.194.437-.418.85-.697 1.238-.252.295-.527.56-.825.806a7.173 7.173 0 0 1-1.246.763 8.833 8.833 0 0 1-1.747.46c-.769.087-1.557.121-2.328.044-.362-.073-.709-.196-1.058-.318-.258-.089-.528-.023-.747.124-.013 0-.025-.005-.038-.005a.827.827 0 0 0-.226.031c-.224.062-.378.202-.507.39a55.926 55.926 0 0 1-1.714 2.385l-.018.024a5.802 5.802 0 0 0-.095.124c-.516.642-1.059 1.261-1.598 1.885a118.09 118.09 0 0 0-1.679 1.996c-.512.622-1.015 1.251-1.524 1.876-.532.652-1.075 1.295-1.602 1.95a91.088 91.088 0 0 0-1.441 1.828l-.016.021a.513.513 0 0 0 .028-.037l-.099.129.024-.032a13.3 13.3 0 0 1-.109.14l.121-.157c-.374.485-.756.963-1.146 1.437-.206.251-.413.506-.625.756-.054-.109-.115-.214-.165-.325a7.216 7.216 0 0 1-.394-1.464 6.65 6.65 0 0 1-.004-1.246 6.34 6.34 0 0 1 .322-1.18c.407-.892.983-1.704 1.577-2.483.949-1.212 1.992-2.343 3.048-3.463 1.05-1.113 2.159-2.174 3.276-3.22.535-.505 1.077-1.006 1.602-1.522.269-.263.535-.527.802-.791.112-.109.228-.215.344-.321a.934.934 0 0 0 .51-.104.928.928 0 0 0 .422-.551c.071-.251.019-.481-.092-.71-.154-.315-.312-.629-.455-.949a6.356 6.356 0 0 1-.291-.888 11.604 11.604 0 0 1-.179-.943 5.873 5.873 0 0 1-.02-1.2c.059-.325.146-.635.263-.945.193-.422.424-.816.695-1.193.393-.479.879-.877 1.362-1.262.303-.226.61-.426.954-.59a7.796 7.796 0 0 1 1.7-.438 6.247 6.247 0 0 1 1.238-.026c.417.07.821.183 1.215.339a8.663 8.663 0 0 1 1.601.948c.297.251.571.533.82.833.274.377.523.778.723 1.201.197.534.306 1.112.393 1.674.062.536.076 1.075.02 1.613zM8.853 26.278l-.011.015-.005.006.016-.021zm-.011.015.012-.016a2.495 2.495 0 0 1-.012.016zm.062-.082-.034.045-.017.022.051-.067zm13.216-3.946a1.545 1.545 0 0 1-.049-.064l.017.021.032.043zm-4.133-.831-.091-.118-.035-.045c.042.054.084.107.126.163z"/></svg>
