<svg fill="#000" xmlns="http://www.w3.org/2000/svg" viewBox="0 0 512 512"><path d="M486.647 391.189c-51.2-26.948-90.359-41.899-125.133-47.812l3.789-5.205a8.515 8.515 0 0 0 1.374-7.083l-7.919-31.684c21.222-29.935 33.775-67.328 33.775-102.784v-59.733C392.533 61.606 331.281.354 256 .354S119.467 61.606 119.467 136.887v59.733c0 35.456 12.553 72.849 33.775 102.784l-7.919 31.684a8.515 8.515 0 0 0 1.374 7.083l3.789 5.205c-34.773 5.914-73.933 20.864-125.133 47.812C9.719 399.415 0 415.509 0 433.207v69.905a8.53 8.53 0 0 0 8.533 8.533h204.808l84.924-.077c.137.009.265.077.401.077h204.8a8.53 8.53 0 0 0 8.533-8.533v-69.905c.001-17.698-9.718-33.792-25.352-42.018zM136.533 196.621v-59.733c0-65.877 53.589-119.467 119.467-119.467S375.467 71.01 375.467 136.887v59.733c0 38.426-13.594 72.243-33.698 97.604-.307.29-.691.478-.947.802a152.73 152.73 0 0 1-9.105 10.624l-.051.051c-2.065 2.202-4.233 4.156-6.374 6.161-20.855 18.799-45.636 29.824-69.291 29.824-23.654 0-48.435-11.025-69.291-29.824-2.142-2.005-4.309-3.959-6.374-6.161l-.051-.051a152.73 152.73 0 0 1-9.105-10.624c-.256-.324-.64-.512-.947-.802-20.106-25.36-33.7-59.178-33.7-97.603zm140.468 221.866H235l21-47.257 21.001 47.257zm-114.159-87.133 3.831-15.309.068.068c20.617 22.426 46.857 38.229 76.442 41.822.009 0 .026.009.043.009l-23.151 52.105-57.233-78.695zm60.04 163.217 6.613-59.017h53.009l.606 5.402 6.007 53.555-66.235.06zm69.043-84.523-23.151-52.105c.009 0 .026-.009.043-.009 29.585-3.593 55.825-19.396 76.442-41.822l.068-.068 3.823 15.309-57.225 78.695z"/></svg>
