<svg fill="#000" viewBox="0 0 20 20" xmlns="http://www.w3.org/2000/svg"><path d="m10 0-.563.402-.576.373-.597.348-.61.32-.625.291-.638.262-.649.234-.658.204-.666.171-.676.143-.681.11-.684.078-.688.048L1 3l.016.834.05.832.084.83.12.826.152.82.183.813.217.805.25.795.282.785.314.773.346.76.375.744.404.73.434.712.462.693.493.676.517.654.543.63.569.61.593.588.617.56.64.538.66.51L10 20l.68-.482.66-.51.639-.537.617-.56.593-.589.569-.61.543-.63.517-.654.49-.676.463-.693.436-.711.404-.73.375-.745.346-.76.313-.773.28-.785.25-.795.22-.805.185-.812.15-.82.12-.827.084-.83.05-.832L19 3l-.69-.016-.687-.048-.684-.079-.681-.109-.676-.143-.666-.171-.658-.204-.65-.234-.637-.262-.625-.29-.612-.321-.595-.348-.578-.373L10 0zm0 1.229.598.386.613.36.627.334.644.304.655.274.668.246.677.217.688.183.693.156.7.123.705.094.709.063-.055.787-.088.785-.117.783-.15.776-.182.77-.213.76-.242.75-.272.743-.304.73-.33.717-.362.703-.389.688-.418.672-.44.656-.47.635-.494.617-.52.596-.542.574-.565.553-.588.527-.609.506-.627.48-.627-.48-.61-.506-.585-.527-.567-.553-.543-.574-.52-.596-.491-.617-.471-.635-.441-.656-.418-.672-.39-.688-.358-.703-.334-.716-.301-.731-.274-.742-.242-.75-.213-.762-.181-.77-.15-.775-.118-.783-.088-.785-.055-.787.707-.063.706-.094.7-.123.696-.156.686-.183.677-.217.668-.246.655-.274.644-.304.629-.334.611-.36L10 1.23zM10 5c-1.099 0-2 .901-2 2v1H7v5h6V8h-1v-.965A2.008 2.008 0 0 0 10 5zm0 1c.558 0 1 .442 1 1v1H9v-.965A.993.993 0 0 1 10 6zM8 9h4v3H8V9z"/></svg>
