<?xml version="1.0" encoding="iso-8859-1"?>
<!-- Uploaded to: SVG Repo, www.svgrepo.com, Generator: SVG Repo Mixer Tools -->
<svg height="800px" width="800px" version="1.1" id="Layer_1" xmlns="http://www.w3.org/2000/svg" xmlns:xlink="http://www.w3.org/1999/xlink" 
	 viewBox="0 0 511.816 511.816" xml:space="preserve">
<path style="fill:#E2E2E2;" d="M75.064,75.072c-46.192,46.24-74.776,110.056-74.88,180.552H0.176c0,0.064-0.008,0.12-0.008,0.184
	c0,0.032,0,0.064,0,0.096s0,0.064,0,0.096c0,0.064,0.008,0.12,0.008,0.184h0.008c0.104,70.496,28.688,134.312,74.88,180.552
	l180.552-180.552h0.56V0C185.432,0,121.392,28.696,75.064,75.072z"/>
<path style="fill:#E21B1B;" d="M511.64,255.808c0-0.064-0.008-0.12-0.008-0.184h-0.008c-0.104-70.496-28.688-134.312-74.88-180.552
	C390.416,28.696,326.376,0,255.64,0v255.624v0.536L75.064,436.736C121.28,483,185.112,511.656,255.64,511.8v0.016
	c0.088,0,0.176-0.008,0.272-0.008c0.088,0,0.176,0.008,0.264,0.008V511.8c70.528-0.144,134.36-28.8,180.576-75.064
	c46.192-46.24,74.776-110.056,74.88-180.552h0.008c0-0.064,0.008-0.12,0.008-0.184c0-0.032,0-0.064,0-0.096
	S511.64,255.84,511.64,255.808z"/>
</svg>