<svg fill="#000" xmlns="http://www.w3.org/2000/svg" viewBox="0 0 391.592 391.592"><path d="M369.645 0H21.941c-6.628 0-12 5.373-12 12v233.197c0 .146-.006.199 0 .213a11.958 11.958 0 0 0 4.539 9.316l57.948 46a11.999 11.999 0 0 0 14.922 0l50.485-40.076 50.488 40.076a12.001 12.001 0 0 0 14.922.002l50.49-40.08 50.494 40.08c4.992 4.164 11.777 2.682 14.921 0l57.954-46a11.977 11.977 0 0 0 4.539-8.893c.018.184 0 .185 0-.092V12c.002-6.627-5.371-12-11.998-12zm-12 239.533-45.953 36.475-50.494-40.078a12.003 12.003 0 0 0-14.921 0l-50.491 40.078-50.488-40.078a11.999 11.999 0 0 0-14.922 0L79.89 276.008l-45.948-36.475V24h323.703v215.533z"/><path d="M304.947 75.08H86.639c-6.627 0-12 5.372-12 12 0 6.627 5.373 12 12 12h218.309c6.627 0 12-5.373 12-12-.001-6.628-5.374-12-12.001-12zm0 54.324H86.639c-6.627 0-12 5.373-12 12 0 6.628 5.373 12 12 12h218.309c6.627 0 12-5.372 12-12-.001-6.627-5.374-12-12.001-12zm0 54.326H86.639c-6.627 0-12 5.371-12 12 0 6.627 5.373 12 12 12h218.309c6.627 0 12-5.373 12-12-.001-6.628-5.374-12-12.001-12zm76.698 110.559a11.947 11.947 0 0 0-2.602-6.908c-4.119-5.191-11.668-6.059-16.859-1.939l-50.493 40.08-50.493-40.08a12.003 12.003 0 0 0-14.921 0l-50.491 40.078-50.488-40.076a11.999 11.999 0 0 0-14.922 0L79.89 325.52l-50.487-40.076c-5.192-4.123-12.74-3.256-16.86 1.938a11.956 11.956 0 0 0-2.601 6.906c-.006.072 0 85.305 0 85.305 0 6.627 5.372 12 12 12h347.703c6.627 0 12-5.373 12-12 0-.001.006-85.232 0-85.304zM33.942 367.592v-47.904l38.487 30.553a11.999 11.999 0 0 0 14.922 0l50.485-40.078 50.489 40.078a11.997 11.997 0 0 0 14.921 0l50.49-40.078 50.494 40.078c2.184 1.734 4.822 2.602 7.46 2.602s5.276-.867 7.46-2.602l38.494-30.553v47.904H33.942z"/></svg>
