<svg fill="#000" viewBox="0 0 24 24" xmlns="http://www.w3.org/2000/svg"><path d="M6 1C5 0 4 1 5 2l1 1-4.336 4.836a2 2 0 0 0 0 2.828L5.2 14.2a2 2 0 0 0 2.828 0l4.243-4.243a2 2 0 0 0 0-2.828L8.735 3.593Zm2 4 3 3c.3.279.348.394.355.51H3.11L6 5c1-1 1.667-.333 2 0Zm-1.74 8.14-3.128-3.13h6.964l-3.128 3.13a.5.5 0 0 1-.708 0Z"/><path d="M2 17.5v-5.086l1.5 1.5V17.5a1 1 0 0 0 1 1h15a1 1 0 0 0 1-1v-11a1 1 0 0 0-1-1h-7.444l-1.5-1.5H19.5A2.5 2.5 0 0 1 22 6.5v11a2.5 2.5 0 0 1-2.5 2.5h-15A2.5 2.5 0 0 1 2 17.5Z"/><path d="M11 14.375c0-.493.154-.972.342-1.381.19-.416.438-.806.674-1.134a10.26 10.26 0 0 1 .949-1.135l.005-.005a.75.75 0 0 1 1.06 0l.305.328c.176.199.412.48.65.812.235.328.482.718.673 1.134.188.409.342.888.342 1.381C16 15.765 14.971 17 13.5 17S11 15.765 11 14.375Zm2.766-1.64a8.416 8.416 0 0 0-.266-.35 8.416 8.416 0 0 0-.266.35c-.201.28-.392.585-.529.885-.14.305-.205.56-.205.755 0 .691.48 1.125 1 1.125s1-.434 1-1.125c0-.194-.065-.45-.205-.755a5.493 5.493 0 0 0-.53-.886Z"/></svg>
