<svg viewBox="0 0 24 24" fill="none" xmlns="http://www.w3.org/2000/svg"><path d="m7 9.5 5 5m0-5-5 5m12.492-.545-2.931 3.8c-.353.457-.529.685-.75.85a2 2 0 0 1-.653.32c-.265.075-.554.075-1.13.075H6.2c-1.12 0-1.68 0-2.108-.218a2 2 0 0 1-.874-.874C3 17.48 3 16.92 3 15.8V8.2c0-1.12 0-1.68.218-2.108a2 2 0 0 1 .874-.874C4.52 5 5.08 5 6.2 5h7.827c.577 0 .866 0 1.131.075a2 2 0 0 1 .653.32c.221.165.397.393.75.85l2.931 3.8c.54.7.81 1.05.913 1.435.092.34.092.7 0 1.04-.103.385-.373.735-.913 1.435Z" stroke="#000" stroke-width="2" stroke-linecap="round" stroke-linejoin="round"/></svg>
