<svg fill="#000" xmlns="http://www.w3.org/2000/svg" viewBox="0 0 512 512"><path d="M422.957 244.87H272.696V94.609c0-9.22-7.475-16.696-16.696-16.696-9.22 0-16.696 7.475-16.696 16.696V244.87H89.044c-9.22 0-16.696 7.475-16.696 16.696 0 9.22 7.475 16.696 16.696 16.696h150.261v150.261c0 9.22 7.475 16.696 16.696 16.696 9.22 0 16.696-7.475 16.696-16.696V278.261h150.261c9.22 0 16.696-7.475 16.696-16.696-.002-9.22-7.477-16.695-16.697-16.695z"/><path d="M89.044 311.652c-9.22 0-16.696 7.475-16.696 16.696s7.475 16.696 16.696 16.696c46.03 0 83.478 37.448 83.478 83.478 0 9.22 7.475 16.696 16.696 16.696s16.696-7.475 16.696-16.696c-.001-64.442-52.429-116.87-116.87-116.87zm333.913-133.565c-46.03 0-83.478-37.448-83.478-83.478 0-9.22-7.475-16.696-16.696-16.696s-16.696 7.475-16.696 16.696c0 64.442 52.428 116.87 116.87 116.87 9.22 0 16.696-7.475 16.696-16.696-.001-9.221-7.476-16.696-16.696-16.696zM207.459 78.179c-6.002-7.002-16.541-7.812-23.541-1.811l-28.092 24.077-28.091-24.077c-7.001-6.002-17.54-5.191-23.541 1.811-6.002 7-5.191 17.54 1.81 23.541l33.126 28.394v36.843c0 9.22 7.475 16.696 16.696 16.696s16.696-7.475 16.696-16.696v-36.843l33.126-28.394c7.001-6 7.813-16.541 1.811-23.541zm200.152 289.125 21.586-21.586c6.52-6.519 6.52-17.091-.001-23.61-6.519-6.52-17.091-6.52-23.611 0L384 343.693l-21.586-21.586c-6.519-6.52-17.091-6.52-23.611 0s-6.52 17.091 0 23.611l21.586 21.586-21.586 21.586c-6.52 6.52-6.52 17.091 0 23.611 3.26 3.26 7.533 4.89 11.806 4.89s8.546-1.629 11.805-4.891L384 390.915l21.586 21.586c3.259 3.26 7.532 4.89 11.805 4.89s8.546-1.629 11.805-4.891c6.52-6.52 6.52-17.091 0-23.611l-21.585-21.585z"/><path d="M489.739 0H22.261C13.04 0 5.565 7.475 5.565 16.696v478.609c0 9.22 7.475 16.696 16.696 16.696h467.478c9.22 0 16.696-7.475 16.696-16.696V16.696C506.435 7.475 498.96 0 489.739 0zm-16.696 478.609H38.957V33.391h434.087v445.218z"/></svg>
