<svg fill="#000" viewBox="0 0 24 24" xmlns="http://www.w3.org/2000/svg"><path d="M12.75 15.58V8.42l1.002.89a.75.75 0 0 0 .996-1.12l-2.25-2a.75.75 0 0 0-.996 0l-2.25 2a.75.75 0 1 0 .996 1.12l1.002-.89v7.16l-1.002-.89a.75.75 0 1 0-.996 1.12l2.25 2 .012.011a.747.747 0 0 0 .987-.013l2.247-1.997a.75.75 0 0 0-.996-1.121l-1.002.89Z"/><path d="M21 17.75A3.25 3.25 0 0 1 17.75 21H6.25A3.25 3.25 0 0 1 3 17.75V6.25A3.25 3.25 0 0 1 6.25 3h11.5A3.25 3.25 0 0 1 21 6.25v11.5Zm-3.25 1.75a1.75 1.75 0 0 0 1.75-1.75v-.25h-5.147l1.06-.942a1.744 1.744 0 0 0 .419-.558H19.5V8h-3.668a1.744 1.744 0 0 0-.42-.558L14.353 6.5H19.5v-.25a1.75 1.75 0 0 0-1.75-1.75H6.25A1.75 1.75 0 0 0 4.5 6.25v.25h5.147l-1.06.942A1.77 1.77 0 0 0 8.168 8H4.5v8h3.668c.098.206.238.397.42.558l1.06.942H4.5v.25a1.75 1.75 0 0 0 1.75 1.75h11.5Z"/></svg>
