<svg fill="#000" viewBox="0 0 24 24" xmlns="http://www.w3.org/2000/svg"><path d="M12 3a1 1 0 1 0 0 2h2a5 5 0 0 1 5 5v2a1 1 0 1 0 2 0v-2a7 7 0 0 0-7-7h-2Z"/><path d="M21 12a1 1 0 1 0-2 0v2a5 5 0 0 1-5 5h-2a1 1 0 1 0 0 2h2a7 7 0 0 0 7-7v-2Z"/><path d="M12 21a1 1 0 1 0 0-2h-2a5 5 0 0 1-5-5v-2a1 1 0 1 0-2 0v2a7 7 0 0 0 7 7h2Z"/><path d="M3 12a1 1 0 1 0 2 0v-2a5 5 0 0 1 5-5h2a1 1 0 1 0 0-2h-2a7 7 0 0 0-7 7v2Z"/><path d="m12 12 .01.01" stroke="#000" stroke-width="2" stroke-linecap="round" stroke-linejoin="round"/></svg>
