<svg fill="#000" xmlns="http://www.w3.org/2000/svg" viewBox="0 0 482.697 482.697"><path d="M441.039.088H133.251c-22.969 0-41.645 18.691-41.645 41.658v184.539H34.998C15.69 226.285 0 241.976 0 261.281v186.33c0 19.305 15.69 34.998 34.998 34.998h186.314c19.301 0 34.996-15.693 34.996-34.998v-56.416h184.73c22.969 0 41.658-18.693 41.658-41.66V41.746C482.697 18.779 464.007.088 441.039.088zM206.763 433.062H49.544V275.83h42.063v73.705c0 22.967 18.676 41.66 41.645 41.66h73.512v41.867zm0-91.414h-65.611V275.83h65.611v65.818zm226.389 0H256.308v-80.367c0-19.305-15.695-34.996-34.996-34.996h-80.16V49.632h292v292.016z"/><path d="M272.308 231.621a20.556 20.556 0 0 0 14.578-6.045l65.06-65.063L370.64 194.4a6.434 6.434 0 0 0 6.32 3.289 6.423 6.423 0 0 0 5.455-4.582l35.078-119.348c.678-2.242.047-4.676-1.615-6.336a6.4 6.4 0 0 0-6.336-1.631L290.177 100.87a6.443 6.443 0 0 0-4.58 5.453 6.463 6.463 0 0 0 3.289 6.322l33.869 18.676-65.061 65.061c-8.066 8.064-8.066 21.129 0 29.193a20.613 20.613 0 0 0 14.614 6.046z"/></svg>
